M48
; DRILL file {KiCad 6.0.2+dfsg-1} date Sun 12 Jun 2022 10:28:16 PM EDT
; FORMAT={-:-/ absolute / inch / decimal}
; #@! TF.CreationDate,2022-06-12T22:28:16-04:00
; #@! TF.GenerationSoftware,Kicad,Pcbnew,6.0.2+dfsg-1
; #@! TF.FileFunction,Plated,1,2,PTH
FMAT,2
INCH
; #@! TA.AperFunction,Plated,PTH,ComponentDrill
T1C0.0315
; #@! TA.AperFunction,Plated,PTH,ComponentDrill
T2C0.0354
; #@! TA.AperFunction,Plated,PTH,ComponentDrill
T3C0.0394
; #@! TA.AperFunction,Plated,PTH,ComponentDrill
T4C0.0400
%
G90
G05
T1
X7.3504Y-3.4803
X7.3504Y-3.7803
T2
X7.3278Y-3.2598
X7.4278Y-3.2598
T3
X9.1033Y-2.7904
X9.1033Y-2.8904
X9.1033Y-2.9904
X9.1033Y-3.0904
X9.1033Y-3.1904
X9.1033Y-3.2904
X9.1033Y-3.3904
X9.1033Y-3.4904
X9.1033Y-3.5904
X9.1033Y-3.6904
X9.1033Y-3.7904
X9.1033Y-3.8904
X9.1033Y-3.9904
X9.1033Y-4.0904
X9.1033Y-4.1904
X9.1033Y-4.2904
X9.1033Y-4.3904
X9.1033Y-4.4904
X9.1033Y-4.5904
X9.1033Y-4.6904
X9.2033Y-2.7904
X9.2033Y-2.8904
X9.2033Y-2.9904
X9.2033Y-3.0904
X9.2033Y-3.1904
X9.2033Y-3.2904
X9.2033Y-3.3904
X9.2033Y-3.4904
X9.2033Y-3.5904
X9.2033Y-3.6904
X9.2033Y-3.7904
X9.2033Y-3.8904
X9.2033Y-3.9904
X9.2033Y-4.0904
X9.2033Y-4.1904
X9.2033Y-4.2904
X9.2033Y-4.3904
X9.2033Y-4.4904
X9.2033Y-4.5904
X9.2033Y-4.6904
T4
X4.81Y-2.79
X4.91Y-2.79
X5.01Y-2.79
X5.11Y-2.79
X5.17Y-4.69
X5.21Y-2.79
X5.27Y-4.69
X5.31Y-2.79
X5.37Y-4.69
X5.41Y-2.79
X5.47Y-4.69
X5.51Y-2.79
X5.57Y-4.69
X5.61Y-2.79
X5.67Y-4.69
X5.71Y-2.79
X5.77Y-4.69
X5.87Y-2.79
X5.87Y-4.69
X5.97Y-2.79
X6.07Y-2.79
X6.07Y-4.69
X6.17Y-2.79
X6.17Y-4.69
X6.27Y-2.79
X6.27Y-4.69
X6.37Y-2.79
X6.37Y-4.69
X6.47Y-2.79
X6.47Y-4.69
X6.57Y-2.79
X6.57Y-4.69
X6.67Y-4.69
X6.77Y-2.79
X6.77Y-4.69
X6.87Y-2.79
X6.97Y-2.79
X6.97Y-4.69
X7.07Y-2.79
X7.07Y-4.69
X7.17Y-2.79
X7.17Y-4.69
X7.27Y-2.79
X7.27Y-4.69
X7.37Y-2.79
X7.37Y-4.69
X7.47Y-2.79
X7.47Y-4.69
X7.57Y-4.69
X7.67Y-4.69
X7.77Y-2.79
X7.77Y-2.89
X7.77Y-2.99
X7.77Y-3.09
X7.77Y-3.19
X7.77Y-3.29
X7.77Y-3.39
X7.77Y-3.49
X7.77Y-3.59
X7.77Y-3.69
X7.77Y-3.79
X7.77Y-3.89
X7.77Y-3.99
X7.77Y-4.09
X7.77Y-4.19
X7.77Y-4.29
X7.77Y-4.39
X7.77Y-4.49
X7.87Y-2.79
X7.87Y-2.89
X7.87Y-2.99
X7.87Y-3.09
X7.87Y-3.19
X7.87Y-3.29
X7.87Y-3.39
X7.87Y-3.49
X7.87Y-3.59
X7.87Y-3.69
X7.87Y-3.79
X7.87Y-3.89
X7.87Y-3.99
X7.87Y-4.09
X7.87Y-4.19
X7.87Y-4.29
X7.87Y-4.39
X7.87Y-4.49
T0
M30
