%TF.GenerationSoftware,KiCad,Pcbnew,6.0.2+dfsg-1*%
%TF.CreationDate,2022-06-01T22:42:03-04:00*%
%TF.ProjectId,kim1-earthpeople,6b696d31-2d65-4617-9274-6870656f706c,rev?*%
%TF.SameCoordinates,Original*%
%TF.FileFunction,Soldermask,Top*%
%TF.FilePolarity,Negative*%
%FSLAX46Y46*%
G04 Gerber Fmt 4.6, Leading zero omitted, Abs format (unit mm)*
G04 Created by KiCad (PCBNEW 6.0.2+dfsg-1) date 2022-06-01 22:42:03*
%MOMM*%
%LPD*%
G01*
G04 APERTURE LIST*
%ADD10C,0.750000*%
%ADD11C,1.600000*%
%ADD12O,1.600000X1.600000*%
%ADD13R,1.800000X1.800000*%
%ADD14C,1.800000*%
%ADD15O,1.727200X2.032000*%
%ADD16O,1.727200X1.727200*%
%ADD17C,1.727200*%
%ADD18R,1.700000X1.700000*%
%ADD19O,1.700000X1.700000*%
G04 APERTURE END LIST*
D10*
X122628571Y-87642142D02*
X122628571Y-84642142D01*
X124342857Y-87642142D02*
X123057142Y-85927857D01*
X124342857Y-84642142D02*
X122628571Y-86356428D01*
X125628571Y-87642142D02*
X125628571Y-84642142D01*
X127057142Y-87642142D02*
X127057142Y-84642142D01*
X128057142Y-86785000D01*
X129057142Y-84642142D01*
X129057142Y-87642142D01*
X130485714Y-86499285D02*
X132771428Y-86499285D01*
X135771428Y-87642142D02*
X134057142Y-87642142D01*
X134914285Y-87642142D02*
X134914285Y-84642142D01*
X134628571Y-85070714D01*
X134342857Y-85356428D01*
X134057142Y-85499285D01*
X141057142Y-87642142D02*
X140057142Y-86213571D01*
X139342857Y-87642142D02*
X139342857Y-84642142D01*
X140485714Y-84642142D01*
X140771428Y-84785000D01*
X140914285Y-84927857D01*
X141057142Y-85213571D01*
X141057142Y-85642142D01*
X140914285Y-85927857D01*
X140771428Y-86070714D01*
X140485714Y-86213571D01*
X139342857Y-86213571D01*
X142342857Y-86070714D02*
X143342857Y-86070714D01*
X143771428Y-87642142D02*
X142342857Y-87642142D01*
X142342857Y-84642142D01*
X143771428Y-84642142D01*
X145057142Y-87642142D02*
X145057142Y-84642142D01*
X146200000Y-84642142D01*
X146485714Y-84785000D01*
X146628571Y-84927857D01*
X146771428Y-85213571D01*
X146771428Y-85642142D01*
X146628571Y-85927857D01*
X146485714Y-86070714D01*
X146200000Y-86213571D01*
X145057142Y-86213571D01*
X149485714Y-87642142D02*
X148057142Y-87642142D01*
X148057142Y-84642142D01*
X150485714Y-87642142D02*
X150485714Y-84642142D01*
X153628571Y-87356428D02*
X153485714Y-87499285D01*
X153057142Y-87642142D01*
X152771428Y-87642142D01*
X152342857Y-87499285D01*
X152057142Y-87213571D01*
X151914285Y-86927857D01*
X151771428Y-86356428D01*
X151771428Y-85927857D01*
X151914285Y-85356428D01*
X152057142Y-85070714D01*
X152342857Y-84785000D01*
X152771428Y-84642142D01*
X153057142Y-84642142D01*
X153485714Y-84785000D01*
X153628571Y-84927857D01*
X154771428Y-86785000D02*
X156200000Y-86785000D01*
X154485714Y-87642142D02*
X155485714Y-84642142D01*
X156485714Y-87642142D01*
X159771428Y-87642142D02*
X159771428Y-84642142D01*
X161200000Y-87642142D02*
X161200000Y-84642142D01*
X162914285Y-87642142D01*
X162914285Y-84642142D01*
X163914285Y-84642142D02*
X165628571Y-84642142D01*
X164771428Y-87642142D02*
X164771428Y-84642142D01*
X166628571Y-86070714D02*
X167628571Y-86070714D01*
X168057142Y-87642142D02*
X166628571Y-87642142D01*
X166628571Y-84642142D01*
X168057142Y-84642142D01*
X171057142Y-87642142D02*
X170057142Y-86213571D01*
X169342857Y-87642142D02*
X169342857Y-84642142D01*
X170485714Y-84642142D01*
X170771428Y-84785000D01*
X170914285Y-84927857D01*
X171057142Y-85213571D01*
X171057142Y-85642142D01*
X170914285Y-85927857D01*
X170771428Y-86070714D01*
X170485714Y-86213571D01*
X169342857Y-86213571D01*
X173342857Y-86070714D02*
X172342857Y-86070714D01*
X172342857Y-87642142D02*
X172342857Y-84642142D01*
X173771428Y-84642142D01*
X174771428Y-86785000D02*
X176200000Y-86785000D01*
X174485714Y-87642142D02*
X175485714Y-84642142D01*
X176485714Y-87642142D01*
X179200000Y-87356428D02*
X179057142Y-87499285D01*
X178628571Y-87642142D01*
X178342857Y-87642142D01*
X177914285Y-87499285D01*
X177628571Y-87213571D01*
X177485714Y-86927857D01*
X177342857Y-86356428D01*
X177342857Y-85927857D01*
X177485714Y-85356428D01*
X177628571Y-85070714D01*
X177914285Y-84785000D01*
X178342857Y-84642142D01*
X178628571Y-84642142D01*
X179057142Y-84785000D01*
X179200000Y-84927857D01*
X180485714Y-86070714D02*
X181485714Y-86070714D01*
X181914285Y-87642142D02*
X180485714Y-87642142D01*
X180485714Y-84642142D01*
X181914285Y-84642142D01*
X130700000Y-89472142D02*
X130700000Y-91615000D01*
X130557142Y-92043571D01*
X130271428Y-92329285D01*
X129842857Y-92472142D01*
X129557142Y-92472142D01*
X132128571Y-90900714D02*
X133128571Y-90900714D01*
X133557142Y-92472142D02*
X132128571Y-92472142D01*
X132128571Y-89472142D01*
X133557142Y-89472142D01*
X136557142Y-92472142D02*
X135557142Y-91043571D01*
X134842857Y-92472142D02*
X134842857Y-89472142D01*
X135985714Y-89472142D01*
X136271428Y-89615000D01*
X136414285Y-89757857D01*
X136557142Y-90043571D01*
X136557142Y-90472142D01*
X136414285Y-90757857D01*
X136271428Y-90900714D01*
X135985714Y-91043571D01*
X134842857Y-91043571D01*
X137842857Y-90900714D02*
X138842857Y-90900714D01*
X139271428Y-92472142D02*
X137842857Y-92472142D01*
X137842857Y-89472142D01*
X139271428Y-89472142D01*
X140557142Y-92472142D02*
X140557142Y-89472142D01*
X141557142Y-91615000D01*
X142557142Y-89472142D01*
X142557142Y-92472142D01*
X144557142Y-91043571D02*
X144557142Y-92472142D01*
X143557142Y-89472142D02*
X144557142Y-91043571D01*
X145557142Y-89472142D01*
X149700000Y-89472142D02*
X149700000Y-91615000D01*
X149557142Y-92043571D01*
X149271428Y-92329285D01*
X148842857Y-92472142D01*
X148557142Y-92472142D01*
X153271428Y-92329285D02*
X153700000Y-92472142D01*
X154414285Y-92472142D01*
X154700000Y-92329285D01*
X154842857Y-92186428D01*
X154985714Y-91900714D01*
X154985714Y-91615000D01*
X154842857Y-91329285D01*
X154700000Y-91186428D01*
X154414285Y-91043571D01*
X153842857Y-90900714D01*
X153557142Y-90757857D01*
X153414285Y-90615000D01*
X153271428Y-90329285D01*
X153271428Y-90043571D01*
X153414285Y-89757857D01*
X153557142Y-89615000D01*
X153842857Y-89472142D01*
X154557142Y-89472142D01*
X154985714Y-89615000D01*
X155842857Y-89472142D02*
X157557142Y-89472142D01*
X156700000Y-92472142D02*
X156700000Y-89472142D01*
X158414285Y-91615000D02*
X159842857Y-91615000D01*
X158128571Y-92472142D02*
X159128571Y-89472142D01*
X160128571Y-92472142D01*
X162842857Y-92472142D02*
X161842857Y-91043571D01*
X161128571Y-92472142D02*
X161128571Y-89472142D01*
X162271428Y-89472142D01*
X162557142Y-89615000D01*
X162700000Y-89757857D01*
X162842857Y-90043571D01*
X162842857Y-90472142D01*
X162700000Y-90757857D01*
X162557142Y-90900714D01*
X162271428Y-91043571D01*
X161128571Y-91043571D01*
X165842857Y-92186428D02*
X165700000Y-92329285D01*
X165271428Y-92472142D01*
X164985714Y-92472142D01*
X164557142Y-92329285D01*
X164271428Y-92043571D01*
X164128571Y-91757857D01*
X163985714Y-91186428D01*
X163985714Y-90757857D01*
X164128571Y-90186428D01*
X164271428Y-89900714D01*
X164557142Y-89615000D01*
X164985714Y-89472142D01*
X165271428Y-89472142D01*
X165700000Y-89615000D01*
X165842857Y-89757857D01*
X167128571Y-92472142D02*
X167128571Y-89472142D01*
X167128571Y-90900714D02*
X168842857Y-90900714D01*
X168842857Y-92472142D02*
X168842857Y-89472142D01*
X170271428Y-90900714D02*
X171271428Y-90900714D01*
X171700000Y-92472142D02*
X170271428Y-92472142D01*
X170271428Y-89472142D01*
X171700000Y-89472142D01*
X174700000Y-92472142D02*
X173700000Y-91043571D01*
X172985714Y-92472142D02*
X172985714Y-89472142D01*
X174128571Y-89472142D01*
X174414285Y-89615000D01*
X174557142Y-89757857D01*
X174700000Y-90043571D01*
X174700000Y-90472142D01*
X174557142Y-90757857D01*
X174414285Y-90900714D01*
X174128571Y-91043571D01*
X172985714Y-91043571D01*
D11*
%TO.C,R101*%
X186700000Y-88400000D03*
D12*
X186700000Y-96020000D03*
%TD*%
D13*
%TO.C,D101*%
X186125000Y-82800000D03*
D14*
X188665000Y-82800000D03*
%TD*%
D15*
%TO.C,P2*%
X131318000Y-119126000D03*
X133858000Y-119126000D03*
X136398000Y-119126000D03*
X138938000Y-119126000D03*
X141478000Y-119126000D03*
X144018000Y-119126000D03*
X146558000Y-119126000D03*
X149098000Y-119126000D03*
%TD*%
%TO.C,P3*%
X154178000Y-119126000D03*
X156718000Y-119126000D03*
X159258000Y-119126000D03*
X161798000Y-119126000D03*
X164338000Y-119126000D03*
X166878000Y-119126000D03*
X169418000Y-119126000D03*
X171958000Y-119126000D03*
%TD*%
%TO.C,P4*%
X177038000Y-119126000D03*
X179578000Y-119126000D03*
X182118000Y-119126000D03*
X184658000Y-119126000D03*
X187198000Y-119126000D03*
X189738000Y-119126000D03*
X192278000Y-119126000D03*
X194818000Y-119126000D03*
%TD*%
%TO.C,P5*%
X145034000Y-70866000D03*
X142494000Y-70866000D03*
X139954000Y-70866000D03*
X137414000Y-70866000D03*
X134874000Y-70866000D03*
X132334000Y-70866000D03*
X129794000Y-70866000D03*
X127254000Y-70866000D03*
X124714000Y-70866000D03*
X122174000Y-70866000D03*
%TD*%
%TO.C,P6*%
X166878000Y-70866000D03*
X164338000Y-70866000D03*
X161798000Y-70866000D03*
X159258000Y-70866000D03*
X156718000Y-70866000D03*
X154178000Y-70866000D03*
X151638000Y-70866000D03*
X149098000Y-70866000D03*
%TD*%
%TO.C,P7*%
X189738000Y-70866000D03*
X187198000Y-70866000D03*
X184658000Y-70866000D03*
X182118000Y-70866000D03*
X179578000Y-70866000D03*
X177038000Y-70866000D03*
X174498000Y-70866000D03*
X171958000Y-70866000D03*
%TD*%
D16*
%TO.C,J101*%
X197358000Y-70866000D03*
D17*
X199898000Y-70866000D03*
D16*
X197358000Y-73406000D03*
X199898000Y-73406000D03*
X197358000Y-75946000D03*
X199898000Y-75946000D03*
X197358000Y-78486000D03*
X199898000Y-78486000D03*
X197358000Y-81026000D03*
X199898000Y-81026000D03*
X197358000Y-83566000D03*
X199898000Y-83566000D03*
X197358000Y-86106000D03*
X199898000Y-86106000D03*
X197358000Y-88646000D03*
X199898000Y-88646000D03*
X197358000Y-91186000D03*
X199898000Y-91186000D03*
X197358000Y-93726000D03*
X199898000Y-93726000D03*
X197358000Y-96266000D03*
X199898000Y-96266000D03*
X197358000Y-98806000D03*
X199898000Y-98806000D03*
X197358000Y-101346000D03*
X199898000Y-101346000D03*
X197358000Y-103886000D03*
X199898000Y-103886000D03*
X197358000Y-106426000D03*
X199898000Y-106426000D03*
X197358000Y-108966000D03*
X199898000Y-108966000D03*
X197358000Y-111506000D03*
X199898000Y-111506000D03*
X197358000Y-114046000D03*
X199898000Y-114046000D03*
%TD*%
D18*
%TO.C,J102*%
X226225000Y-70875000D03*
D19*
X228765000Y-70875000D03*
X226225000Y-73415000D03*
X228765000Y-73415000D03*
X226225000Y-75955000D03*
X228765000Y-75955000D03*
X226225000Y-78495000D03*
X228765000Y-78495000D03*
X226225000Y-81035000D03*
X228765000Y-81035000D03*
X226225000Y-83575000D03*
X228765000Y-83575000D03*
X226225000Y-86115000D03*
X228765000Y-86115000D03*
X226225000Y-88655000D03*
X228765000Y-88655000D03*
X226225000Y-91195000D03*
X228765000Y-91195000D03*
X226225000Y-93735000D03*
X228765000Y-93735000D03*
X226225000Y-96275000D03*
X228765000Y-96275000D03*
X226225000Y-98815000D03*
X228765000Y-98815000D03*
X226225000Y-101355000D03*
X228765000Y-101355000D03*
X226225000Y-103895000D03*
X228765000Y-103895000D03*
X226225000Y-106435000D03*
X228765000Y-106435000D03*
X226225000Y-108975000D03*
X228765000Y-108975000D03*
X226225000Y-111515000D03*
X228765000Y-111515000D03*
X226225000Y-114055000D03*
X228765000Y-114055000D03*
X226225000Y-116595000D03*
X228765000Y-116595000D03*
X226225000Y-119135000D03*
X228765000Y-119135000D03*
%TD*%
M02*
