%TF.GenerationSoftware,KiCad,Pcbnew,6.0.2+dfsg-1*%
%TF.CreationDate,2022-06-12T22:28:19-04:00*%
%TF.ProjectId,kim1-earthpeople,6b696d31-2d65-4617-9274-6870656f706c,rev?*%
%TF.SameCoordinates,Original*%
%TF.FileFunction,Copper,L1,Top*%
%TF.FilePolarity,Positive*%
%FSLAX46Y46*%
G04 Gerber Fmt 4.6, Leading zero omitted, Abs format (unit mm)*
G04 Created by KiCad (PCBNEW 6.0.2+dfsg-1) date 2022-06-12 22:28:19*
%MOMM*%
%LPD*%
G01*
G04 APERTURE LIST*
%ADD10C,0.750000*%
%TA.AperFunction,NonConductor*%
%ADD11C,0.750000*%
%TD*%
%TA.AperFunction,ComponentPad*%
%ADD12O,1.727200X2.032000*%
%TD*%
%TA.AperFunction,ComponentPad*%
%ADD13O,1.727200X1.727200*%
%TD*%
%TA.AperFunction,ComponentPad*%
%ADD14C,1.727200*%
%TD*%
%TA.AperFunction,ComponentPad*%
%ADD15C,1.600000*%
%TD*%
%TA.AperFunction,ComponentPad*%
%ADD16O,1.600000X1.600000*%
%TD*%
%TA.AperFunction,ComponentPad*%
%ADD17R,1.800000X1.800000*%
%TD*%
%TA.AperFunction,ComponentPad*%
%ADD18C,1.800000*%
%TD*%
%TA.AperFunction,ComponentPad*%
%ADD19R,1.700000X1.700000*%
%TD*%
%TA.AperFunction,ComponentPad*%
%ADD20O,1.700000X1.700000*%
%TD*%
%TA.AperFunction,Conductor*%
%ADD21C,0.500000*%
%TD*%
%TA.AperFunction,Conductor*%
%ADD22C,0.250000*%
%TD*%
G04 APERTURE END LIST*
D10*
D11*
X122574571Y-88729142D02*
X122574571Y-85729142D01*
X124288857Y-88729142D02*
X123003142Y-87014857D01*
X124288857Y-85729142D02*
X122574571Y-87443428D01*
X125574571Y-88729142D02*
X125574571Y-85729142D01*
X127003142Y-88729142D02*
X127003142Y-85729142D01*
X128003142Y-87872000D01*
X129003142Y-85729142D01*
X129003142Y-88729142D01*
X130431714Y-87586285D02*
X132717428Y-87586285D01*
X135717428Y-88729142D02*
X134003142Y-88729142D01*
X134860285Y-88729142D02*
X134860285Y-85729142D01*
X134574571Y-86157714D01*
X134288857Y-86443428D01*
X134003142Y-86586285D01*
X141003142Y-88729142D02*
X140003142Y-87300571D01*
X139288857Y-88729142D02*
X139288857Y-85729142D01*
X140431714Y-85729142D01*
X140717428Y-85872000D01*
X140860285Y-86014857D01*
X141003142Y-86300571D01*
X141003142Y-86729142D01*
X140860285Y-87014857D01*
X140717428Y-87157714D01*
X140431714Y-87300571D01*
X139288857Y-87300571D01*
X142288857Y-87157714D02*
X143288857Y-87157714D01*
X143717428Y-88729142D02*
X142288857Y-88729142D01*
X142288857Y-85729142D01*
X143717428Y-85729142D01*
X145003142Y-88729142D02*
X145003142Y-85729142D01*
X146146000Y-85729142D01*
X146431714Y-85872000D01*
X146574571Y-86014857D01*
X146717428Y-86300571D01*
X146717428Y-86729142D01*
X146574571Y-87014857D01*
X146431714Y-87157714D01*
X146146000Y-87300571D01*
X145003142Y-87300571D01*
X149431714Y-88729142D02*
X148003142Y-88729142D01*
X148003142Y-85729142D01*
X150431714Y-88729142D02*
X150431714Y-85729142D01*
X153574571Y-88443428D02*
X153431714Y-88586285D01*
X153003142Y-88729142D01*
X152717428Y-88729142D01*
X152288857Y-88586285D01*
X152003142Y-88300571D01*
X151860285Y-88014857D01*
X151717428Y-87443428D01*
X151717428Y-87014857D01*
X151860285Y-86443428D01*
X152003142Y-86157714D01*
X152288857Y-85872000D01*
X152717428Y-85729142D01*
X153003142Y-85729142D01*
X153431714Y-85872000D01*
X153574571Y-86014857D01*
X154717428Y-87872000D02*
X156146000Y-87872000D01*
X154431714Y-88729142D02*
X155431714Y-85729142D01*
X156431714Y-88729142D01*
X159717428Y-88729142D02*
X159717428Y-85729142D01*
X161146000Y-88729142D02*
X161146000Y-85729142D01*
X162860285Y-88729142D01*
X162860285Y-85729142D01*
X163860285Y-85729142D02*
X165574571Y-85729142D01*
X164717428Y-88729142D02*
X164717428Y-85729142D01*
X166574571Y-87157714D02*
X167574571Y-87157714D01*
X168003142Y-88729142D02*
X166574571Y-88729142D01*
X166574571Y-85729142D01*
X168003142Y-85729142D01*
X171003142Y-88729142D02*
X170003142Y-87300571D01*
X169288857Y-88729142D02*
X169288857Y-85729142D01*
X170431714Y-85729142D01*
X170717428Y-85872000D01*
X170860285Y-86014857D01*
X171003142Y-86300571D01*
X171003142Y-86729142D01*
X170860285Y-87014857D01*
X170717428Y-87157714D01*
X170431714Y-87300571D01*
X169288857Y-87300571D01*
X173288857Y-87157714D02*
X172288857Y-87157714D01*
X172288857Y-88729142D02*
X172288857Y-85729142D01*
X173717428Y-85729142D01*
X174717428Y-87872000D02*
X176146000Y-87872000D01*
X174431714Y-88729142D02*
X175431714Y-85729142D01*
X176431714Y-88729142D01*
X179146000Y-88443428D02*
X179003142Y-88586285D01*
X178574571Y-88729142D01*
X178288857Y-88729142D01*
X177860285Y-88586285D01*
X177574571Y-88300571D01*
X177431714Y-88014857D01*
X177288857Y-87443428D01*
X177288857Y-87014857D01*
X177431714Y-86443428D01*
X177574571Y-86157714D01*
X177860285Y-85872000D01*
X178288857Y-85729142D01*
X178574571Y-85729142D01*
X179003142Y-85872000D01*
X179146000Y-86014857D01*
X180431714Y-87157714D02*
X181431714Y-87157714D01*
X181860285Y-88729142D02*
X180431714Y-88729142D01*
X180431714Y-85729142D01*
X181860285Y-85729142D01*
X130646000Y-90559142D02*
X130646000Y-92702000D01*
X130503142Y-93130571D01*
X130217428Y-93416285D01*
X129788857Y-93559142D01*
X129503142Y-93559142D01*
X132074571Y-91987714D02*
X133074571Y-91987714D01*
X133503142Y-93559142D02*
X132074571Y-93559142D01*
X132074571Y-90559142D01*
X133503142Y-90559142D01*
X136503142Y-93559142D02*
X135503142Y-92130571D01*
X134788857Y-93559142D02*
X134788857Y-90559142D01*
X135931714Y-90559142D01*
X136217428Y-90702000D01*
X136360285Y-90844857D01*
X136503142Y-91130571D01*
X136503142Y-91559142D01*
X136360285Y-91844857D01*
X136217428Y-91987714D01*
X135931714Y-92130571D01*
X134788857Y-92130571D01*
X137788857Y-91987714D02*
X138788857Y-91987714D01*
X139217428Y-93559142D02*
X137788857Y-93559142D01*
X137788857Y-90559142D01*
X139217428Y-90559142D01*
X140503142Y-93559142D02*
X140503142Y-90559142D01*
X141503142Y-92702000D01*
X142503142Y-90559142D01*
X142503142Y-93559142D01*
X144503142Y-92130571D02*
X144503142Y-93559142D01*
X143503142Y-90559142D02*
X144503142Y-92130571D01*
X145503142Y-90559142D01*
X149646000Y-90559142D02*
X149646000Y-92702000D01*
X149503142Y-93130571D01*
X149217428Y-93416285D01*
X148788857Y-93559142D01*
X148503142Y-93559142D01*
X153217428Y-93416285D02*
X153646000Y-93559142D01*
X154360285Y-93559142D01*
X154646000Y-93416285D01*
X154788857Y-93273428D01*
X154931714Y-92987714D01*
X154931714Y-92702000D01*
X154788857Y-92416285D01*
X154646000Y-92273428D01*
X154360285Y-92130571D01*
X153788857Y-91987714D01*
X153503142Y-91844857D01*
X153360285Y-91702000D01*
X153217428Y-91416285D01*
X153217428Y-91130571D01*
X153360285Y-90844857D01*
X153503142Y-90702000D01*
X153788857Y-90559142D01*
X154503142Y-90559142D01*
X154931714Y-90702000D01*
X155788857Y-90559142D02*
X157503142Y-90559142D01*
X156646000Y-93559142D02*
X156646000Y-90559142D01*
X158360285Y-92702000D02*
X159788857Y-92702000D01*
X158074571Y-93559142D02*
X159074571Y-90559142D01*
X160074571Y-93559142D01*
X162788857Y-93559142D02*
X161788857Y-92130571D01*
X161074571Y-93559142D02*
X161074571Y-90559142D01*
X162217428Y-90559142D01*
X162503142Y-90702000D01*
X162646000Y-90844857D01*
X162788857Y-91130571D01*
X162788857Y-91559142D01*
X162646000Y-91844857D01*
X162503142Y-91987714D01*
X162217428Y-92130571D01*
X161074571Y-92130571D01*
X165788857Y-93273428D02*
X165646000Y-93416285D01*
X165217428Y-93559142D01*
X164931714Y-93559142D01*
X164503142Y-93416285D01*
X164217428Y-93130571D01*
X164074571Y-92844857D01*
X163931714Y-92273428D01*
X163931714Y-91844857D01*
X164074571Y-91273428D01*
X164217428Y-90987714D01*
X164503142Y-90702000D01*
X164931714Y-90559142D01*
X165217428Y-90559142D01*
X165646000Y-90702000D01*
X165788857Y-90844857D01*
X167074571Y-93559142D02*
X167074571Y-90559142D01*
X167074571Y-91987714D02*
X168788857Y-91987714D01*
X168788857Y-93559142D02*
X168788857Y-90559142D01*
X170217428Y-91987714D02*
X171217428Y-91987714D01*
X171646000Y-93559142D02*
X170217428Y-93559142D01*
X170217428Y-90559142D01*
X171646000Y-90559142D01*
X174646000Y-93559142D02*
X173646000Y-92130571D01*
X172931714Y-93559142D02*
X172931714Y-90559142D01*
X174074571Y-90559142D01*
X174360285Y-90702000D01*
X174503142Y-90844857D01*
X174646000Y-91130571D01*
X174646000Y-91559142D01*
X174503142Y-91844857D01*
X174360285Y-91987714D01*
X174074571Y-92130571D01*
X172931714Y-92130571D01*
X126788857Y-98389142D02*
X126788857Y-95389142D01*
X127503142Y-95389142D01*
X127931714Y-95532000D01*
X128217428Y-95817714D01*
X128360285Y-96103428D01*
X128503142Y-96674857D01*
X128503142Y-97103428D01*
X128360285Y-97674857D01*
X128217428Y-97960571D01*
X127931714Y-98246285D01*
X127503142Y-98389142D01*
X126788857Y-98389142D01*
X129788857Y-95389142D02*
X129788857Y-97817714D01*
X129931714Y-98103428D01*
X130074571Y-98246285D01*
X130360285Y-98389142D01*
X130931714Y-98389142D01*
X131217428Y-98246285D01*
X131360285Y-98103428D01*
X131503142Y-97817714D01*
X131503142Y-95389142D01*
X132931714Y-96817714D02*
X133931714Y-96817714D01*
X134360285Y-98389142D02*
X132931714Y-98389142D01*
X132931714Y-95389142D01*
X134360285Y-95389142D01*
X135646000Y-98389142D02*
X135646000Y-95389142D01*
X136788857Y-95389142D01*
X137074571Y-95532000D01*
X137217428Y-95674857D01*
X137360285Y-95960571D01*
X137360285Y-96389142D01*
X137217428Y-96674857D01*
X137074571Y-96817714D01*
X136788857Y-96960571D01*
X135646000Y-96960571D01*
X140360285Y-98389142D02*
X139360285Y-96960571D01*
X138646000Y-98389142D02*
X138646000Y-95389142D01*
X139788857Y-95389142D01*
X140074571Y-95532000D01*
X140217428Y-95674857D01*
X140360285Y-95960571D01*
X140360285Y-96389142D01*
X140217428Y-96674857D01*
X140074571Y-96817714D01*
X139788857Y-96960571D01*
X138646000Y-96960571D01*
X142217428Y-95389142D02*
X142788857Y-95389142D01*
X143074571Y-95532000D01*
X143360285Y-95817714D01*
X143503142Y-96389142D01*
X143503142Y-97389142D01*
X143360285Y-97960571D01*
X143074571Y-98246285D01*
X142788857Y-98389142D01*
X142217428Y-98389142D01*
X141931714Y-98246285D01*
X141646000Y-97960571D01*
X141503142Y-97389142D01*
X141503142Y-96389142D01*
X141646000Y-95817714D01*
X141931714Y-95532000D01*
X142217428Y-95389142D01*
X146217428Y-98389142D02*
X144788857Y-98389142D01*
X144788857Y-95389142D01*
X147788857Y-95389142D02*
X148360285Y-95389142D01*
X148646000Y-95532000D01*
X148931714Y-95817714D01*
X149074571Y-96389142D01*
X149074571Y-97389142D01*
X148931714Y-97960571D01*
X148646000Y-98246285D01*
X148360285Y-98389142D01*
X147788857Y-98389142D01*
X147503142Y-98246285D01*
X147217428Y-97960571D01*
X147074571Y-97389142D01*
X147074571Y-96389142D01*
X147217428Y-95817714D01*
X147503142Y-95532000D01*
X147788857Y-95389142D01*
X151931714Y-95532000D02*
X151646000Y-95389142D01*
X151217428Y-95389142D01*
X150788857Y-95532000D01*
X150503142Y-95817714D01*
X150360285Y-96103428D01*
X150217428Y-96674857D01*
X150217428Y-97103428D01*
X150360285Y-97674857D01*
X150503142Y-97960571D01*
X150788857Y-98246285D01*
X151217428Y-98389142D01*
X151503142Y-98389142D01*
X151931714Y-98246285D01*
X152074571Y-98103428D01*
X152074571Y-97103428D01*
X151503142Y-97103428D01*
X153360285Y-98389142D02*
X153360285Y-95389142D01*
X156503142Y-98103428D02*
X156360285Y-98246285D01*
X155931714Y-98389142D01*
X155646000Y-98389142D01*
X155217428Y-98246285D01*
X154931714Y-97960571D01*
X154788857Y-97674857D01*
X154646000Y-97103428D01*
X154646000Y-96674857D01*
X154788857Y-96103428D01*
X154931714Y-95817714D01*
X155217428Y-95532000D01*
X155646000Y-95389142D01*
X155931714Y-95389142D01*
X156360285Y-95532000D01*
X156503142Y-95674857D01*
X159646000Y-95389142D02*
X160646000Y-98389142D01*
X161646000Y-95389142D01*
X162646000Y-96817714D02*
X163646000Y-96817714D01*
X164074571Y-98389142D02*
X162646000Y-98389142D01*
X162646000Y-95389142D01*
X164074571Y-95389142D01*
X167074571Y-98389142D02*
X166074571Y-96960571D01*
X165360285Y-98389142D02*
X165360285Y-95389142D01*
X166503142Y-95389142D01*
X166788857Y-95532000D01*
X166931714Y-95674857D01*
X167074571Y-95960571D01*
X167074571Y-96389142D01*
X166931714Y-96674857D01*
X166788857Y-96817714D01*
X166503142Y-96960571D01*
X165360285Y-96960571D01*
X168217428Y-98246285D02*
X168646000Y-98389142D01*
X169360285Y-98389142D01*
X169646000Y-98246285D01*
X169788857Y-98103428D01*
X169931714Y-97817714D01*
X169931714Y-97532000D01*
X169788857Y-97246285D01*
X169646000Y-97103428D01*
X169360285Y-96960571D01*
X168788857Y-96817714D01*
X168503142Y-96674857D01*
X168360285Y-96532000D01*
X168217428Y-96246285D01*
X168217428Y-95960571D01*
X168360285Y-95674857D01*
X168503142Y-95532000D01*
X168788857Y-95389142D01*
X169503142Y-95389142D01*
X169931714Y-95532000D01*
X171217428Y-98389142D02*
X171217428Y-95389142D01*
X173217428Y-95389142D02*
X173788857Y-95389142D01*
X174074571Y-95532000D01*
X174360285Y-95817714D01*
X174503142Y-96389142D01*
X174503142Y-97389142D01*
X174360285Y-97960571D01*
X174074571Y-98246285D01*
X173788857Y-98389142D01*
X173217428Y-98389142D01*
X172931714Y-98246285D01*
X172646000Y-97960571D01*
X172503142Y-97389142D01*
X172503142Y-96389142D01*
X172646000Y-95817714D01*
X172931714Y-95532000D01*
X173217428Y-95389142D01*
X175788857Y-98389142D02*
X175788857Y-95389142D01*
X177503142Y-98389142D01*
X177503142Y-95389142D01*
D12*
%TO.P,P2,1,Pin_1*%
%TO.N,unconnected-(P2-Pad1)*%
X131318000Y-119126000D03*
%TO.P,P2,2,Pin_2*%
%TO.N,unconnected-(P2-Pad2)*%
X133858000Y-119126000D03*
%TO.P,P2,3,Pin_3*%
%TO.N,unconnected-(P2-Pad3)*%
X136398000Y-119126000D03*
%TO.P,P2,4,Pin_4*%
%TO.N,unconnected-(P2-Pad4)*%
X138938000Y-119126000D03*
%TO.P,P2,5,Pin_5*%
%TO.N,unconnected-(P2-Pad5)*%
X141478000Y-119126000D03*
%TO.P,P2,6,Pin_6*%
%TO.N,GND*%
X144018000Y-119126000D03*
%TO.P,P2,7,Pin_7*%
X146558000Y-119126000D03*
%TO.P,P2,8,Pin_8*%
%TO.N,unconnected-(P2-Pad8)*%
X149098000Y-119126000D03*
%TD*%
%TO.P,P3,1,Pin_1*%
%TO.N,5V*%
X154178000Y-119126000D03*
%TO.P,P3,2,Pin_2*%
%TO.N,unconnected-(P3-Pad2)*%
X156718000Y-119126000D03*
%TO.P,P3,3,Pin_3*%
%TO.N,unconnected-(P3-Pad3)*%
X159258000Y-119126000D03*
%TO.P,P3,4,Pin_4*%
%TO.N,unconnected-(P3-Pad4)*%
X161798000Y-119126000D03*
%TO.P,P3,5,Pin_5*%
%TO.N,unconnected-(P3-Pad5)*%
X164338000Y-119126000D03*
%TO.P,P3,6,Pin_6*%
%TO.N,unconnected-(P3-Pad6)*%
X166878000Y-119126000D03*
%TO.P,P3,7,Pin_7*%
%TO.N,unconnected-(P3-Pad7)*%
X169418000Y-119126000D03*
%TO.P,P3,8,Pin_8*%
%TO.N,GND*%
X171958000Y-119126000D03*
%TD*%
%TO.P,P4,1,Pin_1*%
%TO.N,3V3*%
X177038000Y-119126000D03*
%TO.P,P4,2,Pin_2*%
%TO.N,unconnected-(P4-Pad2)*%
X179578000Y-119126000D03*
%TO.P,P4,3,Pin_3*%
%TO.N,unconnected-(P4-Pad3)*%
X182118000Y-119126000D03*
%TO.P,P4,4,Pin_4*%
%TO.N,unconnected-(P4-Pad4)*%
X184658000Y-119126000D03*
%TO.P,P4,5,Pin_5*%
%TO.N,unconnected-(P4-Pad5)*%
X187198000Y-119126000D03*
%TO.P,P4,6,Pin_6*%
%TO.N,unconnected-(P4-Pad6)*%
X189738000Y-119126000D03*
%TO.P,P4,7,Pin_7*%
%TO.N,unconnected-(P4-Pad7)*%
X192278000Y-119126000D03*
%TO.P,P4,8,Pin_8*%
%TO.N,GND*%
X194818000Y-119126000D03*
%TD*%
%TO.P,P5,1,Pin_1*%
%TO.N,unconnected-(P5-Pad1)*%
X145034000Y-70866000D03*
%TO.P,P5,2,Pin_2*%
%TO.N,unconnected-(P5-Pad2)*%
X142494000Y-70866000D03*
%TO.P,P5,3,Pin_3*%
%TO.N,unconnected-(P5-Pad3)*%
X139954000Y-70866000D03*
%TO.P,P5,4,Pin_4*%
%TO.N,unconnected-(P5-Pad4)*%
X137414000Y-70866000D03*
%TO.P,P5,5,Pin_5*%
%TO.N,unconnected-(P5-Pad5)*%
X134874000Y-70866000D03*
%TO.P,P5,6,Pin_6*%
%TO.N,unconnected-(P5-Pad6)*%
X132334000Y-70866000D03*
%TO.P,P5,7,Pin_7*%
%TO.N,GND*%
X129794000Y-70866000D03*
%TO.P,P5,8,Pin_8*%
%TO.N,3V3*%
X127254000Y-70866000D03*
%TO.P,P5,9,Pin_9*%
%TO.N,unconnected-(P5-Pad9)*%
X124714000Y-70866000D03*
%TO.P,P5,10,Pin_10*%
%TO.N,unconnected-(P5-Pad10)*%
X122174000Y-70866000D03*
%TD*%
%TO.P,P6,1,Pin_1*%
%TO.N,3V3*%
X166878000Y-70866000D03*
%TO.P,P6,2,Pin_2*%
%TO.N,unconnected-(P6-Pad2)*%
X164338000Y-70866000D03*
%TO.P,P6,3,Pin_3*%
%TO.N,unconnected-(P6-Pad3)*%
X161798000Y-70866000D03*
%TO.P,P6,4,Pin_4*%
%TO.N,unconnected-(P6-Pad4)*%
X159258000Y-70866000D03*
%TO.P,P6,5,Pin_5*%
%TO.N,unconnected-(P6-Pad5)*%
X156718000Y-70866000D03*
%TO.P,P6,6,Pin_6*%
%TO.N,unconnected-(P6-Pad6)*%
X154178000Y-70866000D03*
%TO.P,P6,7,Pin_7*%
%TO.N,unconnected-(P6-Pad7)*%
X151638000Y-70866000D03*
%TO.P,P6,8,Pin_8*%
%TO.N,GND*%
X149098000Y-70866000D03*
%TD*%
%TO.P,P7,1,Pin_1*%
%TO.N,5V*%
X189738000Y-70866000D03*
%TO.P,P7,2,Pin_2*%
%TO.N,unconnected-(P7-Pad2)*%
X187198000Y-70866000D03*
%TO.P,P7,3,Pin_3*%
%TO.N,unconnected-(P7-Pad3)*%
X184658000Y-70866000D03*
%TO.P,P7,4,Pin_4*%
%TO.N,unconnected-(P7-Pad4)*%
X182118000Y-70866000D03*
%TO.P,P7,5,Pin_5*%
%TO.N,unconnected-(P7-Pad5)*%
X179578000Y-70866000D03*
%TO.P,P7,6,Pin_6*%
%TO.N,unconnected-(P7-Pad6)*%
X177038000Y-70866000D03*
%TO.P,P7,7,Pin_7*%
%TO.N,unconnected-(P7-Pad7)*%
X174498000Y-70866000D03*
%TO.P,P7,8,Pin_8*%
%TO.N,GND*%
X171958000Y-70866000D03*
%TD*%
D13*
%TO.P,J101,1,Pin_1*%
%TO.N,3V3*%
X197358000Y-70866000D03*
D14*
%TO.P,J101,2,Pin_2*%
%TO.N,5V*%
X199898000Y-70866000D03*
D13*
%TO.P,J101,3,Pin_3*%
%TO.N,SPARE1*%
X197358000Y-73406000D03*
%TO.P,J101,4,Pin_4*%
%TO.N,SPARE6*%
X199898000Y-73406000D03*
%TO.P,J101,5,Pin_5*%
%TO.N,SPARE5*%
X197358000Y-75946000D03*
%TO.P,J101,6,Pin_6*%
%TO.N,SPARE7*%
X199898000Y-75946000D03*
%TO.P,J101,7,Pin_7*%
%TO.N,SST_KEY*%
X197358000Y-78486000D03*
%TO.P,J101,8,Pin_8*%
%TO.N,EXP_RAM*%
X199898000Y-78486000D03*
%TO.P,J101,9,Pin_9*%
%TO.N,ST_KEY*%
X197358000Y-81026000D03*
%TO.P,J101,10,Pin_10*%
%TO.N,LED_DIG_4*%
X199898000Y-81026000D03*
%TO.P,J101,11,Pin_11*%
%TO.N,RS_KEY*%
X197358000Y-83566000D03*
%TO.P,J101,12,Pin_12*%
%TO.N,LED_DIG_5*%
X199898000Y-83566000D03*
%TO.P,J101,13,Pin_13*%
%TO.N,ENABLE_TTY*%
X197358000Y-86106000D03*
%TO.P,J101,14,Pin_14*%
%TO.N,LED_DIG_6*%
X199898000Y-86106000D03*
%TO.P,J101,15,Pin_15*%
%TO.N,KB_ROW_2*%
X197358000Y-88646000D03*
%TO.P,J101,16,Pin_16*%
%TO.N,LED_DIG_7*%
X199898000Y-88646000D03*
%TO.P,J101,17,Pin_17*%
%TO.N,KB_ROW_1*%
X197358000Y-91186000D03*
%TO.P,J101,18,Pin_18*%
%TO.N,LED_DIG_8*%
X199898000Y-91186000D03*
%TO.P,J101,19,Pin_19*%
%TO.N,KB_ROW_0*%
X197358000Y-93726000D03*
%TO.P,J101,20,Pin_20*%
%TO.N,LED_DIG_9*%
X199898000Y-93726000D03*
%TO.P,J101,21,Pin_21*%
%TO.N,KB_COL_6*%
X197358000Y-96266000D03*
%TO.P,J101,22,Pin_22*%
%TO.N,LED_SEG_6*%
X199898000Y-96266000D03*
%TO.P,J101,23,Pin_23*%
%TO.N,KB_COL_5*%
X197358000Y-98806000D03*
%TO.P,J101,24,Pin_24*%
%TO.N,LED_SEG_5*%
X199898000Y-98806000D03*
%TO.P,J101,25,Pin_25*%
%TO.N,KB_COL_4*%
X197358000Y-101346000D03*
%TO.P,J101,26,Pin_26*%
%TO.N,LED_SEG_4*%
X199898000Y-101346000D03*
%TO.P,J101,27,Pin_27*%
%TO.N,KB_COL_3*%
X197358000Y-103886000D03*
%TO.P,J101,28,Pin_28*%
%TO.N,LED_SEG_3*%
X199898000Y-103886000D03*
%TO.P,J101,29,Pin_29*%
%TO.N,KB_COL_2*%
X197358000Y-106426000D03*
%TO.P,J101,30,Pin_30*%
%TO.N,LED_SEG_2*%
X199898000Y-106426000D03*
%TO.P,J101,31,Pin_31*%
%TO.N,KB_COL_1*%
X197358000Y-108966000D03*
%TO.P,J101,32,Pin_32*%
%TO.N,LED_SEG_1*%
X199898000Y-108966000D03*
%TO.P,J101,33,Pin_33*%
%TO.N,KB_COL_0*%
X197358000Y-111506000D03*
%TO.P,J101,34,Pin_34*%
%TO.N,LED_SEG_0*%
X199898000Y-111506000D03*
%TO.P,J101,35,Pin_35*%
%TO.N,GND*%
X197358000Y-114046000D03*
%TO.P,J101,36,Pin_36*%
X199898000Y-114046000D03*
%TD*%
D15*
%TO.P,R101,1*%
%TO.N,Net-(D101-Pad2)*%
X186700000Y-88400000D03*
D16*
%TO.P,R101,2*%
%TO.N,3V3*%
X186700000Y-96020000D03*
%TD*%
D17*
%TO.P,D101,1,K*%
%TO.N,GND*%
X186125000Y-82800000D03*
D18*
%TO.P,D101,2,A*%
%TO.N,Net-(D101-Pad2)*%
X188665000Y-82800000D03*
%TD*%
D19*
%TO.P,J102,1,Pin_1*%
%TO.N,3V3*%
X231225000Y-70875000D03*
D20*
%TO.P,J102,2,Pin_2*%
%TO.N,GND*%
X233765000Y-70875000D03*
%TO.P,J102,3,Pin_3*%
%TO.N,3V3*%
X231225000Y-73415000D03*
%TO.P,J102,4,Pin_4*%
%TO.N,GND*%
X233765000Y-73415000D03*
%TO.P,J102,5,Pin_5*%
%TO.N,3V3*%
X231225000Y-75955000D03*
%TO.P,J102,6,Pin_6*%
%TO.N,GND*%
X233765000Y-75955000D03*
%TO.P,J102,7,Pin_7*%
%TO.N,SPARE1*%
X231225000Y-78495000D03*
%TO.P,J102,8,Pin_8*%
%TO.N,SPARE5*%
X233765000Y-78495000D03*
%TO.P,J102,9,Pin_9*%
%TO.N,SPARE2*%
X231225000Y-81035000D03*
%TO.P,J102,10,Pin_10*%
%TO.N,SPARE6*%
X233765000Y-81035000D03*
%TO.P,J102,11,Pin_11*%
%TO.N,SPARE3*%
X231225000Y-83575000D03*
%TO.P,J102,12,Pin_12*%
%TO.N,SPARE7*%
X233765000Y-83575000D03*
%TO.P,J102,13,Pin_13*%
%TO.N,SST_KEY*%
X231225000Y-86115000D03*
%TO.P,J102,14,Pin_14*%
%TO.N,EXP_RAM*%
X233765000Y-86115000D03*
%TO.P,J102,15,Pin_15*%
%TO.N,ST_KEY*%
X231225000Y-88655000D03*
%TO.P,J102,16,Pin_16*%
%TO.N,LED_DIG_4*%
X233765000Y-88655000D03*
%TO.P,J102,17,Pin_17*%
%TO.N,RS_KEY*%
X231225000Y-91195000D03*
%TO.P,J102,18,Pin_18*%
%TO.N,LED_DIG_5*%
X233765000Y-91195000D03*
%TO.P,J102,19,Pin_19*%
%TO.N,ENABLE_TTY*%
X231225000Y-93735000D03*
%TO.P,J102,20,Pin_20*%
%TO.N,LED_DIG_6*%
X233765000Y-93735000D03*
%TO.P,J102,21,Pin_21*%
%TO.N,KB_ROW_2*%
X231225000Y-96275000D03*
%TO.P,J102,22,Pin_22*%
%TO.N,LED_DIG_7*%
X233765000Y-96275000D03*
%TO.P,J102,23,Pin_23*%
%TO.N,KB_ROW_1*%
X231225000Y-98815000D03*
%TO.P,J102,24,Pin_24*%
%TO.N,LED_DIG_8*%
X233765000Y-98815000D03*
%TO.P,J102,25,Pin_25*%
%TO.N,KB_ROW_0*%
X231225000Y-101355000D03*
%TO.P,J102,26,Pin_26*%
%TO.N,LED_DIG_9*%
X233765000Y-101355000D03*
%TO.P,J102,27,Pin_27*%
%TO.N,KB_COL_6*%
X231225000Y-103895000D03*
%TO.P,J102,28,Pin_28*%
%TO.N,LED_SEG_6*%
X233765000Y-103895000D03*
%TO.P,J102,29,Pin_29*%
%TO.N,KB_COL_5*%
X231225000Y-106435000D03*
%TO.P,J102,30,Pin_30*%
%TO.N,LED_SEG_5*%
X233765000Y-106435000D03*
%TO.P,J102,31,Pin_31*%
%TO.N,KB_COL_4*%
X231225000Y-108975000D03*
%TO.P,J102,32,Pin_32*%
%TO.N,LED_SEG_4*%
X233765000Y-108975000D03*
%TO.P,J102,33,Pin_33*%
%TO.N,KB_COL_3*%
X231225000Y-111515000D03*
%TO.P,J102,34,Pin_34*%
%TO.N,LED_SEG_3*%
X233765000Y-111515000D03*
%TO.P,J102,35,Pin_35*%
%TO.N,KB_COL_2*%
X231225000Y-114055000D03*
%TO.P,J102,36,Pin_36*%
%TO.N,LED_SEG_2*%
X233765000Y-114055000D03*
%TO.P,J102,37,Pin_37*%
%TO.N,KB_COL_1*%
X231225000Y-116595000D03*
%TO.P,J102,38,Pin_38*%
%TO.N,LED_SEG_1*%
X233765000Y-116595000D03*
%TO.P,J102,39,Pin_39*%
%TO.N,KB_COL_0*%
X231225000Y-119135000D03*
%TO.P,J102,40,Pin_40*%
%TO.N,LED_SEG_0*%
X233765000Y-119135000D03*
%TD*%
D21*
%TO.N,3V3*%
X198671111Y-69552889D02*
X229902889Y-69552889D01*
X231225000Y-70875000D02*
X231225000Y-75955000D01*
X229902889Y-69552889D02*
X231225000Y-70875000D01*
X197358000Y-70866000D02*
X198671111Y-69552889D01*
%TO.N,5V*%
X155702000Y-116840000D02*
X154178000Y-118364000D01*
X189738000Y-70866000D02*
X195072000Y-76200000D01*
X193040000Y-116840000D02*
X155702000Y-116840000D01*
X195072000Y-76200000D02*
X195072000Y-114808000D01*
X195072000Y-114808000D02*
X193040000Y-116840000D01*
X154178000Y-118364000D02*
X154178000Y-119126000D01*
D22*
%TO.N,SPARE6*%
X230545511Y-79669511D02*
X232399511Y-79669511D01*
X232399511Y-79669511D02*
X233765000Y-81035000D01*
X199898000Y-73406000D02*
X224282000Y-73406000D01*
X224282000Y-73406000D02*
X230545511Y-79669511D01*
%TO.N,SPARE7*%
X224282000Y-75946000D02*
X230545511Y-82209511D01*
X232399511Y-82209511D02*
X233765000Y-83575000D01*
X230545511Y-82209511D02*
X232399511Y-82209511D01*
X199898000Y-75946000D02*
X224282000Y-75946000D01*
%TO.N,EXP_RAM*%
X199898000Y-78486000D02*
X224282000Y-78486000D01*
X232399511Y-84749511D02*
X233765000Y-86115000D01*
X230545511Y-84749511D02*
X232399511Y-84749511D01*
X224282000Y-78486000D02*
X230545511Y-84749511D01*
%TO.N,LED_DIG_4*%
X232399511Y-87289511D02*
X233765000Y-88655000D01*
X230545511Y-87289511D02*
X232399511Y-87289511D01*
X199898000Y-81026000D02*
X224282000Y-81026000D01*
X224282000Y-81026000D02*
X230545511Y-87289511D01*
%TO.N,LED_DIG_5*%
X199898000Y-83566000D02*
X224282000Y-83566000D01*
X230545511Y-89829511D02*
X232399511Y-89829511D01*
X224282000Y-83566000D02*
X230545511Y-89829511D01*
X232399511Y-89829511D02*
X233765000Y-91195000D01*
%TO.N,LED_DIG_6*%
X232399511Y-92369511D02*
X233765000Y-93735000D01*
X230545511Y-92369511D02*
X232399511Y-92369511D01*
X199898000Y-86106000D02*
X224282000Y-86106000D01*
X224282000Y-86106000D02*
X230545511Y-92369511D01*
%TO.N,LED_DIG_7*%
X230545511Y-94909511D02*
X232399511Y-94909511D01*
X232399511Y-94909511D02*
X233765000Y-96275000D01*
X199898000Y-88646000D02*
X224282000Y-88646000D01*
X224282000Y-88646000D02*
X230545511Y-94909511D01*
%TO.N,LED_DIG_8*%
X232399511Y-97449511D02*
X233765000Y-98815000D01*
X224282000Y-91186000D02*
X230545511Y-97449511D01*
X230545511Y-97449511D02*
X232399511Y-97449511D01*
X199898000Y-91186000D02*
X224282000Y-91186000D01*
%TO.N,LED_DIG_9*%
X224282000Y-93726000D02*
X230545511Y-99989511D01*
X232399511Y-99989511D02*
X233765000Y-101355000D01*
X199898000Y-93726000D02*
X224282000Y-93726000D01*
X230545511Y-99989511D02*
X232399511Y-99989511D01*
%TO.N,LED_SEG_6*%
X224282000Y-96266000D02*
X230545511Y-102529511D01*
X232399511Y-102529511D02*
X233765000Y-103895000D01*
X199898000Y-96266000D02*
X224282000Y-96266000D01*
X230545511Y-102529511D02*
X232399511Y-102529511D01*
%TO.N,LED_SEG_5*%
X232399511Y-105069511D02*
X233765000Y-106435000D01*
X230291511Y-105069511D02*
X232399511Y-105069511D01*
X199898000Y-98806000D02*
X224028000Y-98806000D01*
X224028000Y-98806000D02*
X230291511Y-105069511D01*
%TO.N,LED_SEG_4*%
X230291511Y-107609511D02*
X232399511Y-107609511D01*
X232399511Y-107609511D02*
X233765000Y-108975000D01*
X199898000Y-101346000D02*
X224028000Y-101346000D01*
X224028000Y-101346000D02*
X230291511Y-107609511D01*
%TO.N,LED_SEG_3*%
X230291511Y-110149511D02*
X232399511Y-110149511D01*
X199898000Y-103886000D02*
X224028000Y-103886000D01*
X224028000Y-103886000D02*
X230291511Y-110149511D01*
X232399511Y-110149511D02*
X233765000Y-111515000D01*
%TO.N,LED_SEG_2*%
X230291511Y-112689511D02*
X232399511Y-112689511D01*
X199898000Y-106426000D02*
X224028000Y-106426000D01*
X232399511Y-112689511D02*
X233765000Y-114055000D01*
X224028000Y-106426000D02*
X230291511Y-112689511D01*
%TO.N,LED_SEG_1*%
X230291511Y-115229511D02*
X232399511Y-115229511D01*
X224028000Y-108966000D02*
X230291511Y-115229511D01*
X199898000Y-108966000D02*
X224028000Y-108966000D01*
X232399511Y-115229511D02*
X233765000Y-116595000D01*
%TO.N,LED_SEG_0*%
X232399511Y-117769511D02*
X233765000Y-119135000D01*
X199898000Y-111506000D02*
X224028000Y-111506000D01*
X230291511Y-117769511D02*
X232399511Y-117769511D01*
X224028000Y-111506000D02*
X230291511Y-117769511D01*
%TD*%
M02*
