%TF.GenerationSoftware,KiCad,Pcbnew,6.0.2+dfsg-1*%
%TF.CreationDate,2022-06-12T22:28:19-04:00*%
%TF.ProjectId,kim1-earthpeople,6b696d31-2d65-4617-9274-6870656f706c,rev?*%
%TF.SameCoordinates,Original*%
%TF.FileFunction,Legend,Top*%
%TF.FilePolarity,Positive*%
%FSLAX46Y46*%
G04 Gerber Fmt 4.6, Leading zero omitted, Abs format (unit mm)*
G04 Created by KiCad (PCBNEW 6.0.2+dfsg-1) date 2022-06-12 22:28:19*
%MOMM*%
%LPD*%
G01*
G04 APERTURE LIST*
%ADD10C,0.150000*%
%ADD11C,0.100000*%
%ADD12C,0.300000*%
%ADD13C,0.120000*%
%ADD14O,1.727200X2.032000*%
%ADD15O,1.727200X1.727200*%
%ADD16C,1.727200*%
G04 APERTURE END LIST*
D10*
X195177210Y-69088000D02*
G75*
G03*
X195177210Y-69088000I-359210J0D01*
G01*
X158750000Y-79248000D02*
X161544000Y-79248000D01*
X192024000Y-114808000D02*
X192278000Y-114824000D01*
X192278000Y-69850000D02*
X192024000Y-69850000D01*
X146893210Y-73144000D02*
G75*
G03*
X146893210Y-73144000I-359210J0D01*
G01*
X229298210Y-69375000D02*
G75*
G03*
X229298210Y-69375000I-359210J0D01*
G01*
X168737210Y-73144000D02*
G75*
G03*
X168737210Y-73144000I-359210J0D01*
G01*
X153037210Y-116848000D02*
G75*
G03*
X153037210Y-116848000I-359210J0D01*
G01*
X191597210Y-73144000D02*
G75*
G03*
X191597210Y-73144000I-359210J0D01*
G01*
X192278000Y-114824000D02*
X195326000Y-114808000D01*
X165354000Y-76454000D02*
X158750000Y-76454000D01*
X130177210Y-116848000D02*
G75*
G03*
X130177210Y-116848000I-359210J0D01*
G01*
X192278000Y-69850000D02*
X195072000Y-69850000D01*
X192024000Y-69850000D02*
X192024000Y-70612000D01*
X161544000Y-79248000D02*
X161544000Y-80772000D01*
X195072000Y-69850000D02*
X192278000Y-69850000D01*
X175897210Y-116848000D02*
G75*
G03*
X175897210Y-116848000I-359210J0D01*
G01*
X165354000Y-80772000D02*
X165354000Y-76454000D01*
X158750000Y-76454000D02*
X158750000Y-79248000D01*
X161544000Y-80772000D02*
X165354000Y-80772000D01*
X192024000Y-70326000D02*
X192024000Y-114808000D01*
X191770000Y-109474000D02*
X191770000Y-114554000D01*
X182810380Y-78017619D02*
X182143714Y-77017619D01*
X182143714Y-78017619D02*
X182810380Y-77017619D01*
X181762761Y-77017619D02*
X181762761Y-78017619D01*
X181096095Y-78017619D02*
X180905619Y-78017619D01*
X180810380Y-77970000D01*
X180715142Y-77874761D01*
X180667523Y-77684285D01*
X180667523Y-77350952D01*
X180715142Y-77160476D01*
X180810380Y-77065238D01*
X180905619Y-77017619D01*
X181096095Y-77017619D01*
X181191333Y-77065238D01*
X181286571Y-77160476D01*
X181334190Y-77350952D01*
X181334190Y-77684285D01*
X181286571Y-77874761D01*
X181191333Y-77970000D01*
X181096095Y-78017619D01*
X180477047Y-76922380D02*
X179715142Y-76922380D01*
X179000857Y-78017619D02*
X179477047Y-78017619D01*
X179524666Y-77541428D01*
X179477047Y-77589047D01*
X179381809Y-77636666D01*
X179143714Y-77636666D01*
X179048476Y-77589047D01*
X179000857Y-77541428D01*
X178953238Y-77446190D01*
X178953238Y-77208095D01*
X179000857Y-77112857D01*
X179048476Y-77065238D01*
X179143714Y-77017619D01*
X179381809Y-77017619D01*
X179477047Y-77065238D01*
X179524666Y-77112857D01*
X131770380Y-116504404D02*
X130770380Y-116504404D01*
X131770380Y-115932976D01*
X130770380Y-115932976D01*
X130722761Y-114742500D02*
X132008476Y-115599642D01*
X131675142Y-113837738D02*
X131722761Y-113885357D01*
X131770380Y-114028214D01*
X131770380Y-114123452D01*
X131722761Y-114266309D01*
X131627523Y-114361547D01*
X131532285Y-114409166D01*
X131341809Y-114456785D01*
X131198952Y-114456785D01*
X131008476Y-114409166D01*
X130913238Y-114361547D01*
X130818000Y-114266309D01*
X130770380Y-114123452D01*
X130770380Y-114028214D01*
X130818000Y-113885357D01*
X130865619Y-113837738D01*
X156519619Y-74104571D02*
X156519619Y-73533142D01*
X156519619Y-73818857D02*
X157519619Y-73818857D01*
X157376761Y-73723618D01*
X157281523Y-73628380D01*
X157233904Y-73533142D01*
X157519619Y-74437904D02*
X157519619Y-75056952D01*
X157138666Y-74723618D01*
X157138666Y-74866476D01*
X157091047Y-74961714D01*
X157043428Y-75009333D01*
X156948190Y-75056952D01*
X156710095Y-75056952D01*
X156614857Y-75009333D01*
X156567238Y-74961714D01*
X156519619Y-74866476D01*
X156519619Y-74580761D01*
X156567238Y-74485523D01*
X156614857Y-74437904D01*
X157424380Y-75437904D02*
X157472000Y-75485523D01*
X157519619Y-75580761D01*
X157519619Y-75818857D01*
X157472000Y-75914095D01*
X157424380Y-75961714D01*
X157329142Y-76009333D01*
X157233904Y-76009333D01*
X157091047Y-75961714D01*
X156519619Y-75390285D01*
X156519619Y-76009333D01*
X185110380Y-110806618D02*
X184110380Y-110806618D01*
X184110380Y-110425666D01*
X184158000Y-110330428D01*
X184205619Y-110282809D01*
X184300857Y-110235190D01*
X184443714Y-110235190D01*
X184538952Y-110282809D01*
X184586571Y-110330428D01*
X184634190Y-110425666D01*
X184634190Y-110806618D01*
X184586571Y-109473285D02*
X184634190Y-109330428D01*
X184681809Y-109282809D01*
X184777047Y-109235190D01*
X184919904Y-109235190D01*
X185015142Y-109282809D01*
X185062761Y-109330428D01*
X185110380Y-109425666D01*
X185110380Y-109806618D01*
X184110380Y-109806618D01*
X184110380Y-109473285D01*
X184158000Y-109378047D01*
X184205619Y-109330428D01*
X184300857Y-109282809D01*
X184396095Y-109282809D01*
X184491333Y-109330428D01*
X184538952Y-109378047D01*
X184586571Y-109473285D01*
X184586571Y-109806618D01*
X185443714Y-108520904D02*
X185443714Y-108758999D01*
X184015142Y-108758999D01*
X184015142Y-108520904D01*
X184110380Y-108235190D02*
X184110380Y-107616142D01*
X184491333Y-107949476D01*
X184491333Y-107806618D01*
X184538952Y-107711380D01*
X184586571Y-107663761D01*
X184681809Y-107616142D01*
X184919904Y-107616142D01*
X185015142Y-107663761D01*
X185062761Y-107711380D01*
X185110380Y-107806618D01*
X185110380Y-108092333D01*
X185062761Y-108187571D01*
X185015142Y-108235190D01*
X185443714Y-107282809D02*
X185443714Y-107044714D01*
X184015142Y-107044714D01*
X184015142Y-107282809D01*
X142041619Y-74104571D02*
X142041619Y-73533142D01*
X142041619Y-73818857D02*
X143041619Y-73818857D01*
X142898761Y-73723618D01*
X142803523Y-73628380D01*
X142755904Y-73533142D01*
X143041619Y-74437904D02*
X143041619Y-75056952D01*
X142660666Y-74723618D01*
X142660666Y-74866476D01*
X142613047Y-74961714D01*
X142565428Y-75009333D01*
X142470190Y-75056952D01*
X142232095Y-75056952D01*
X142136857Y-75009333D01*
X142089238Y-74961714D01*
X142041619Y-74866476D01*
X142041619Y-74580761D01*
X142089238Y-74485523D01*
X142136857Y-74437904D01*
X143041619Y-75390285D02*
X143041619Y-76056952D01*
X142041619Y-75628380D01*
X179278019Y-78867238D02*
X180278019Y-78867238D01*
X180278019Y-79248190D01*
X180230400Y-79343428D01*
X180182780Y-79391047D01*
X180087542Y-79438666D01*
X179944685Y-79438666D01*
X179849447Y-79391047D01*
X179801828Y-79343428D01*
X179754209Y-79248190D01*
X179754209Y-78867238D01*
X179801828Y-80200571D02*
X179754209Y-80343428D01*
X179706590Y-80391047D01*
X179611352Y-80438666D01*
X179468495Y-80438666D01*
X179373257Y-80391047D01*
X179325638Y-80343428D01*
X179278019Y-80248190D01*
X179278019Y-79867238D01*
X180278019Y-79867238D01*
X180278019Y-80200571D01*
X180230400Y-80295809D01*
X180182780Y-80343428D01*
X180087542Y-80391047D01*
X179992304Y-80391047D01*
X179897066Y-80343428D01*
X179849447Y-80295809D01*
X179801828Y-80200571D01*
X179801828Y-79867238D01*
X178944685Y-81152952D02*
X178944685Y-80914857D01*
X180373257Y-80914857D01*
X180373257Y-81152952D01*
X180278019Y-81962476D02*
X180278019Y-81772000D01*
X180230400Y-81676761D01*
X180182780Y-81629142D01*
X180039923Y-81533904D01*
X179849447Y-81486285D01*
X179468495Y-81486285D01*
X179373257Y-81533904D01*
X179325638Y-81581523D01*
X179278019Y-81676761D01*
X179278019Y-81867238D01*
X179325638Y-81962476D01*
X179373257Y-82010095D01*
X179468495Y-82057714D01*
X179706590Y-82057714D01*
X179801828Y-82010095D01*
X179849447Y-81962476D01*
X179897066Y-81867238D01*
X179897066Y-81676761D01*
X179849447Y-81581523D01*
X179801828Y-81533904D01*
X179706590Y-81486285D01*
X178944685Y-82391047D02*
X178944685Y-82629142D01*
X180373257Y-82629142D01*
X180373257Y-82391047D01*
X202639952Y-96281241D02*
X202544714Y-96233622D01*
X202497095Y-96186003D01*
X202449476Y-96090765D01*
X202449476Y-96043146D01*
X202497095Y-95947908D01*
X202544714Y-95900289D01*
X202639952Y-95852669D01*
X202830428Y-95852669D01*
X202925666Y-95900289D01*
X202973285Y-95947908D01*
X203020904Y-96043146D01*
X203020904Y-96090765D01*
X202973285Y-96186003D01*
X202925666Y-96233622D01*
X202830428Y-96281241D01*
X202639952Y-96281241D01*
X202544714Y-96328860D01*
X202497095Y-96376479D01*
X202449476Y-96471717D01*
X202449476Y-96662193D01*
X202497095Y-96757431D01*
X202544714Y-96805050D01*
X202639952Y-96852669D01*
X202830428Y-96852669D01*
X202925666Y-96805050D01*
X202973285Y-96757431D01*
X203020904Y-96662193D01*
X203020904Y-96471717D01*
X202973285Y-96376479D01*
X202925666Y-96328860D01*
X202830428Y-96281241D01*
X203925666Y-95852669D02*
X203449476Y-95852669D01*
X203401857Y-96328860D01*
X203449476Y-96281241D01*
X203544714Y-96233622D01*
X203782809Y-96233622D01*
X203878047Y-96281241D01*
X203925666Y-96328860D01*
X203973285Y-96424098D01*
X203973285Y-96662193D01*
X203925666Y-96757431D01*
X203878047Y-96805050D01*
X203782809Y-96852669D01*
X203544714Y-96852669D01*
X203449476Y-96805050D01*
X203401857Y-96757431D01*
X135898000Y-115980595D02*
X135850380Y-116075833D01*
X135850380Y-116218690D01*
X135898000Y-116361547D01*
X135993238Y-116456785D01*
X136088476Y-116504404D01*
X136278952Y-116552023D01*
X136421809Y-116552023D01*
X136612285Y-116504404D01*
X136707523Y-116456785D01*
X136802761Y-116361547D01*
X136850380Y-116218690D01*
X136850380Y-116123452D01*
X136802761Y-115980595D01*
X136755142Y-115932976D01*
X136421809Y-115932976D01*
X136421809Y-116123452D01*
X136850380Y-115504404D02*
X135850380Y-115504404D01*
X136850380Y-114932976D01*
X135850380Y-114932976D01*
X136850380Y-114456785D02*
X135850380Y-114456785D01*
X135850380Y-114218690D01*
X135898000Y-114075833D01*
X135993238Y-113980595D01*
X136088476Y-113932976D01*
X136278952Y-113885357D01*
X136421809Y-113885357D01*
X136612285Y-113932976D01*
X136707523Y-113980595D01*
X136802761Y-114075833D01*
X136850380Y-114218690D01*
X136850380Y-114456785D01*
X136945619Y-113694880D02*
X136945619Y-112932976D01*
X136850380Y-112123452D02*
X136374190Y-112456785D01*
X136850380Y-112694880D02*
X135850380Y-112694880D01*
X135850380Y-112313928D01*
X135898000Y-112218690D01*
X135945619Y-112171071D01*
X136040857Y-112123452D01*
X136183714Y-112123452D01*
X136278952Y-112171071D01*
X136326571Y-112218690D01*
X136374190Y-112313928D01*
X136374190Y-112694880D01*
X192901761Y-73858380D02*
X192330332Y-73858380D01*
X192616047Y-73858380D02*
X192616047Y-72858380D01*
X192520808Y-73001238D01*
X192425570Y-73096476D01*
X192330332Y-73144095D01*
X193854142Y-73858380D02*
X193282713Y-73858380D01*
X193568428Y-73858380D02*
X193568428Y-72858380D01*
X193473189Y-73001238D01*
X193377951Y-73096476D01*
X193282713Y-73144095D01*
X194758904Y-72858380D02*
X194282713Y-72858380D01*
X194235094Y-73334571D01*
X194282713Y-73286952D01*
X194377951Y-73239333D01*
X194616047Y-73239333D01*
X194711285Y-73286952D01*
X194758904Y-73334571D01*
X194806523Y-73429809D01*
X194806523Y-73667904D01*
X194758904Y-73763142D01*
X194711285Y-73810761D01*
X194616047Y-73858380D01*
X194377951Y-73858380D01*
X194282713Y-73810761D01*
X194235094Y-73763142D01*
X202401857Y-103517432D02*
X203068523Y-103517432D01*
X202639952Y-104517432D01*
X203354238Y-103517432D02*
X203973285Y-103517432D01*
X203639952Y-103898385D01*
X203782809Y-103898385D01*
X203878047Y-103946004D01*
X203925666Y-103993623D01*
X203973285Y-104088861D01*
X203973285Y-104326956D01*
X203925666Y-104422194D01*
X203878047Y-104469813D01*
X203782809Y-104517432D01*
X203497095Y-104517432D01*
X203401857Y-104469813D01*
X203354238Y-104422194D01*
X136961619Y-74104571D02*
X136961619Y-73533142D01*
X136961619Y-73818857D02*
X137961619Y-73818857D01*
X137818761Y-73723618D01*
X137723523Y-73628380D01*
X137675904Y-73533142D01*
X137628285Y-74961714D02*
X136961619Y-74961714D01*
X138009238Y-74723618D02*
X137294952Y-74485523D01*
X137294952Y-75104571D01*
X136961619Y-76009333D02*
X136961619Y-75437904D01*
X136961619Y-75723618D02*
X137961619Y-75723618D01*
X137818761Y-75628380D01*
X137723523Y-75533142D01*
X137675904Y-75437904D01*
X182570380Y-110806618D02*
X181570380Y-110806618D01*
X181570380Y-110425666D01*
X181618000Y-110330428D01*
X181665619Y-110282809D01*
X181760857Y-110235190D01*
X181903714Y-110235190D01*
X181998952Y-110282809D01*
X182046571Y-110330428D01*
X182094190Y-110425666D01*
X182094190Y-110806618D01*
X182046571Y-109473285D02*
X182094190Y-109330428D01*
X182141809Y-109282809D01*
X182237047Y-109235190D01*
X182379904Y-109235190D01*
X182475142Y-109282809D01*
X182522761Y-109330428D01*
X182570380Y-109425666D01*
X182570380Y-109806618D01*
X181570380Y-109806618D01*
X181570380Y-109473285D01*
X181618000Y-109378047D01*
X181665619Y-109330428D01*
X181760857Y-109282809D01*
X181856095Y-109282809D01*
X181951333Y-109330428D01*
X181998952Y-109378047D01*
X182046571Y-109473285D01*
X182046571Y-109806618D01*
X182903714Y-108520904D02*
X182903714Y-108758999D01*
X181475142Y-108758999D01*
X181475142Y-108520904D01*
X181903714Y-107711380D02*
X182570380Y-107711380D01*
X181522761Y-107949476D02*
X182237047Y-108187571D01*
X182237047Y-107568523D01*
X182903714Y-107282809D02*
X182903714Y-107044714D01*
X181475142Y-107044714D01*
X181475142Y-107282809D01*
X191730380Y-116050714D02*
X191730380Y-116526904D01*
X192206571Y-116574523D01*
X192158952Y-116526904D01*
X192111333Y-116431666D01*
X192111333Y-116193571D01*
X192158952Y-116098333D01*
X192206571Y-116050714D01*
X192301809Y-116003095D01*
X192539904Y-116003095D01*
X192635142Y-116050714D01*
X192682761Y-116098333D01*
X192730380Y-116193571D01*
X192730380Y-116431666D01*
X192682761Y-116526904D01*
X192635142Y-116574523D01*
X191730380Y-115098333D02*
X191730380Y-115574523D01*
X192206571Y-115622142D01*
X192158952Y-115574523D01*
X192111333Y-115479285D01*
X192111333Y-115241190D01*
X192158952Y-115145952D01*
X192206571Y-115098333D01*
X192301809Y-115050714D01*
X192539904Y-115050714D01*
X192635142Y-115098333D01*
X192682761Y-115145952D01*
X192730380Y-115241190D01*
X192730380Y-115479285D01*
X192682761Y-115574523D01*
X192635142Y-115622142D01*
X144581619Y-78938666D02*
X145581619Y-78938666D01*
X145581619Y-79319619D01*
X145534000Y-79414857D01*
X145486380Y-79462476D01*
X145391142Y-79510095D01*
X145248285Y-79510095D01*
X145153047Y-79462476D01*
X145105428Y-79414857D01*
X145057809Y-79319619D01*
X145057809Y-78938666D01*
X144867333Y-79891047D02*
X144867333Y-80367238D01*
X144581619Y-79795809D02*
X145581619Y-80129142D01*
X144581619Y-80462476D01*
X144248285Y-81081523D02*
X144248285Y-80843428D01*
X145676857Y-80843428D01*
X145676857Y-81081523D01*
X145581619Y-81367238D02*
X145581619Y-82033904D01*
X144581619Y-81605333D01*
X144248285Y-82319619D02*
X144248285Y-82557714D01*
X145676857Y-82557714D01*
X145676857Y-82319619D01*
X202401857Y-106072353D02*
X203068523Y-106072353D01*
X202639952Y-107072353D01*
X203925666Y-106072353D02*
X203449476Y-106072353D01*
X203401857Y-106548544D01*
X203449476Y-106500925D01*
X203544714Y-106453306D01*
X203782809Y-106453306D01*
X203878047Y-106500925D01*
X203925666Y-106548544D01*
X203973285Y-106643782D01*
X203973285Y-106881877D01*
X203925666Y-106977115D01*
X203878047Y-107024734D01*
X203782809Y-107072353D01*
X203544714Y-107072353D01*
X203449476Y-107024734D01*
X203401857Y-106977115D01*
X187650380Y-110806618D02*
X186650380Y-110806618D01*
X186650380Y-110425666D01*
X186698000Y-110330428D01*
X186745619Y-110282809D01*
X186840857Y-110235190D01*
X186983714Y-110235190D01*
X187078952Y-110282809D01*
X187126571Y-110330428D01*
X187174190Y-110425666D01*
X187174190Y-110806618D01*
X187126571Y-109473285D02*
X187174190Y-109330428D01*
X187221809Y-109282809D01*
X187317047Y-109235190D01*
X187459904Y-109235190D01*
X187555142Y-109282809D01*
X187602761Y-109330428D01*
X187650380Y-109425666D01*
X187650380Y-109806618D01*
X186650380Y-109806618D01*
X186650380Y-109473285D01*
X186698000Y-109378047D01*
X186745619Y-109330428D01*
X186840857Y-109282809D01*
X186936095Y-109282809D01*
X187031333Y-109330428D01*
X187078952Y-109378047D01*
X187126571Y-109473285D01*
X187126571Y-109806618D01*
X187983714Y-108520904D02*
X187983714Y-108758999D01*
X186555142Y-108758999D01*
X186555142Y-108520904D01*
X186745619Y-108187571D02*
X186698000Y-108139952D01*
X186650380Y-108044714D01*
X186650380Y-107806618D01*
X186698000Y-107711380D01*
X186745619Y-107663761D01*
X186840857Y-107616142D01*
X186936095Y-107616142D01*
X187078952Y-107663761D01*
X187650380Y-108235190D01*
X187650380Y-107616142D01*
X187983714Y-107282809D02*
X187983714Y-107044714D01*
X186555142Y-107044714D01*
X186555142Y-107282809D01*
X193235095Y-108892504D02*
X193901761Y-108892504D01*
X193473190Y-109892504D01*
X194235095Y-108987743D02*
X194282714Y-108940124D01*
X194377952Y-108892504D01*
X194616047Y-108892504D01*
X194711285Y-108940124D01*
X194758904Y-108987743D01*
X194806523Y-109082981D01*
X194806523Y-109178219D01*
X194758904Y-109321076D01*
X194187476Y-109892504D01*
X194806523Y-109892504D01*
X202925666Y-111182195D02*
X202735190Y-111182195D01*
X202639952Y-111229815D01*
X202592333Y-111277434D01*
X202497095Y-111420291D01*
X202449476Y-111610767D01*
X202449476Y-111991719D01*
X202497095Y-112086957D01*
X202544714Y-112134576D01*
X202639952Y-112182195D01*
X202830428Y-112182195D01*
X202925666Y-112134576D01*
X202973285Y-112086957D01*
X203020904Y-111991719D01*
X203020904Y-111753624D01*
X202973285Y-111658386D01*
X202925666Y-111610767D01*
X202830428Y-111563148D01*
X202639952Y-111563148D01*
X202544714Y-111610767D01*
X202497095Y-111658386D01*
X202449476Y-111753624D01*
X203497095Y-112182195D02*
X203687571Y-112182195D01*
X203782809Y-112134576D01*
X203830428Y-112086957D01*
X203925666Y-111944100D01*
X203973285Y-111753624D01*
X203973285Y-111372672D01*
X203925666Y-111277434D01*
X203878047Y-111229815D01*
X203782809Y-111182195D01*
X203592333Y-111182195D01*
X203497095Y-111229815D01*
X203449476Y-111277434D01*
X203401857Y-111372672D01*
X203401857Y-111610767D01*
X203449476Y-111706005D01*
X203497095Y-111753624D01*
X203592333Y-111801243D01*
X203782809Y-111801243D01*
X203878047Y-111753624D01*
X203925666Y-111706005D01*
X203973285Y-111610767D01*
X159950380Y-80557619D02*
X159283714Y-79557619D01*
X159283714Y-80557619D02*
X159950380Y-79557619D01*
X158902761Y-79557619D02*
X158902761Y-80557619D01*
X158236095Y-80557619D02*
X158045619Y-80557619D01*
X157950380Y-80510000D01*
X157855142Y-80414761D01*
X157807523Y-80224285D01*
X157807523Y-79890952D01*
X157855142Y-79700476D01*
X157950380Y-79605238D01*
X158045619Y-79557619D01*
X158236095Y-79557619D01*
X158331333Y-79605238D01*
X158426571Y-79700476D01*
X158474190Y-79890952D01*
X158474190Y-80224285D01*
X158426571Y-80414761D01*
X158331333Y-80510000D01*
X158236095Y-80557619D01*
X157617047Y-79462380D02*
X156855142Y-79462380D01*
X156712285Y-80557619D02*
X156093238Y-80557619D01*
X156426571Y-80176666D01*
X156283714Y-80176666D01*
X156188476Y-80129047D01*
X156140857Y-80081428D01*
X156093238Y-79986190D01*
X156093238Y-79748095D01*
X156140857Y-79652857D01*
X156188476Y-79605238D01*
X156283714Y-79557619D01*
X156569428Y-79557619D01*
X156664666Y-79605238D01*
X156712285Y-79652857D01*
X123823357Y-119578380D02*
X123823357Y-118578380D01*
X124204309Y-118578380D01*
X124299547Y-118626000D01*
X124347166Y-118673619D01*
X124394785Y-118768857D01*
X124394785Y-118911714D01*
X124347166Y-119006952D01*
X124299547Y-119054571D01*
X124204309Y-119102190D01*
X123823357Y-119102190D01*
X125013833Y-118578380D02*
X125204309Y-118578380D01*
X125299547Y-118626000D01*
X125394785Y-118721238D01*
X125442404Y-118911714D01*
X125442404Y-119245047D01*
X125394785Y-119435523D01*
X125299547Y-119530761D01*
X125204309Y-119578380D01*
X125013833Y-119578380D01*
X124918595Y-119530761D01*
X124823357Y-119435523D01*
X124775738Y-119245047D01*
X124775738Y-118911714D01*
X124823357Y-118721238D01*
X124918595Y-118626000D01*
X125013833Y-118578380D01*
X125775738Y-118578380D02*
X126013833Y-119578380D01*
X126204309Y-118864095D01*
X126394785Y-119578380D01*
X126632880Y-118578380D01*
X127013833Y-119054571D02*
X127347166Y-119054571D01*
X127490023Y-119578380D02*
X127013833Y-119578380D01*
X127013833Y-118578380D01*
X127490023Y-118578380D01*
X128490023Y-119578380D02*
X128156690Y-119102190D01*
X127918595Y-119578380D02*
X127918595Y-118578380D01*
X128299547Y-118578380D01*
X128394785Y-118626000D01*
X128442404Y-118673619D01*
X128490023Y-118768857D01*
X128490023Y-118911714D01*
X128442404Y-119006952D01*
X128394785Y-119054571D01*
X128299547Y-119102190D01*
X127918595Y-119102190D01*
X190285619Y-73415404D02*
X189285619Y-73748738D01*
X190285619Y-74082071D01*
X189285619Y-74415404D02*
X190285619Y-74415404D01*
X189285619Y-74891595D02*
X190285619Y-74891595D01*
X189285619Y-75463023D01*
X190285619Y-75463023D01*
D11*
X193292714Y-113671000D02*
X193221285Y-113635285D01*
X193114142Y-113635285D01*
X193007000Y-113671000D01*
X192935571Y-113742428D01*
X192899857Y-113813857D01*
X192864142Y-113956714D01*
X192864142Y-114063857D01*
X192899857Y-114206714D01*
X192935571Y-114278142D01*
X193007000Y-114349571D01*
X193114142Y-114385285D01*
X193185571Y-114385285D01*
X193292714Y-114349571D01*
X193328428Y-114313857D01*
X193328428Y-114063857D01*
X193185571Y-114063857D01*
X193649857Y-114385285D02*
X193649857Y-113635285D01*
X194078428Y-114385285D01*
X194078428Y-113635285D01*
X194435571Y-114385285D02*
X194435571Y-113635285D01*
X194614142Y-113635285D01*
X194721285Y-113671000D01*
X194792714Y-113742428D01*
X194828428Y-113813857D01*
X194864142Y-113956714D01*
X194864142Y-114063857D01*
X194828428Y-114206714D01*
X194792714Y-114278142D01*
X194721285Y-114349571D01*
X194614142Y-114385285D01*
X194435571Y-114385285D01*
D10*
X192901761Y-84153844D02*
X192330332Y-84153844D01*
X192616047Y-84153844D02*
X192616047Y-83153844D01*
X192520808Y-83296702D01*
X192425570Y-83391940D01*
X192330332Y-83439559D01*
X193520808Y-83153844D02*
X193616047Y-83153844D01*
X193711285Y-83201464D01*
X193758904Y-83249083D01*
X193806523Y-83344321D01*
X193854142Y-83534797D01*
X193854142Y-83772892D01*
X193806523Y-83963368D01*
X193758904Y-84058606D01*
X193711285Y-84106225D01*
X193616047Y-84153844D01*
X193520808Y-84153844D01*
X193425570Y-84106225D01*
X193377951Y-84058606D01*
X193330332Y-83963368D01*
X193282713Y-83772892D01*
X193282713Y-83534797D01*
X193330332Y-83344321D01*
X193377951Y-83249083D01*
X193425570Y-83201464D01*
X193520808Y-83153844D01*
X194711285Y-83487178D02*
X194711285Y-84153844D01*
X194473189Y-83106225D02*
X194235094Y-83820511D01*
X194854142Y-83820511D01*
X134310380Y-116504404D02*
X133310380Y-116504404D01*
X134310380Y-115932976D01*
X133310380Y-115932976D01*
X133262761Y-114742500D02*
X134548476Y-115599642D01*
X134215142Y-113837738D02*
X134262761Y-113885357D01*
X134310380Y-114028214D01*
X134310380Y-114123452D01*
X134262761Y-114266309D01*
X134167523Y-114361547D01*
X134072285Y-114409166D01*
X133881809Y-114456785D01*
X133738952Y-114456785D01*
X133548476Y-114409166D01*
X133453238Y-114361547D01*
X133358000Y-114266309D01*
X133310380Y-114123452D01*
X133310380Y-114028214D01*
X133358000Y-113885357D01*
X133405619Y-113837738D01*
X121721619Y-78938666D02*
X122721619Y-78938666D01*
X122721619Y-79319619D01*
X122674000Y-79414857D01*
X122626380Y-79462476D01*
X122531142Y-79510095D01*
X122388285Y-79510095D01*
X122293047Y-79462476D01*
X122245428Y-79414857D01*
X122197809Y-79319619D01*
X122197809Y-78938666D01*
X122007333Y-79891047D02*
X122007333Y-80367238D01*
X121721619Y-79795809D02*
X122721619Y-80129142D01*
X121721619Y-80462476D01*
X121388285Y-81081523D02*
X121388285Y-80843428D01*
X122816857Y-80843428D01*
X122816857Y-81081523D01*
X122721619Y-81652952D02*
X122721619Y-81748190D01*
X122674000Y-81843428D01*
X122626380Y-81891047D01*
X122531142Y-81938666D01*
X122340666Y-81986285D01*
X122102571Y-81986285D01*
X121912095Y-81938666D01*
X121816857Y-81891047D01*
X121769238Y-81843428D01*
X121721619Y-81748190D01*
X121721619Y-81652952D01*
X121769238Y-81557714D01*
X121816857Y-81510095D01*
X121912095Y-81462476D01*
X122102571Y-81414857D01*
X122340666Y-81414857D01*
X122531142Y-81462476D01*
X122626380Y-81510095D01*
X122674000Y-81557714D01*
X122721619Y-81652952D01*
X121388285Y-82319619D02*
X121388285Y-82557714D01*
X122816857Y-82557714D01*
X122816857Y-82319619D01*
X202639952Y-98836162D02*
X202544714Y-98788543D01*
X202497095Y-98740924D01*
X202449476Y-98645686D01*
X202449476Y-98598067D01*
X202497095Y-98502829D01*
X202544714Y-98455210D01*
X202639952Y-98407590D01*
X202830428Y-98407590D01*
X202925666Y-98455210D01*
X202973285Y-98502829D01*
X203020904Y-98598067D01*
X203020904Y-98645686D01*
X202973285Y-98740924D01*
X202925666Y-98788543D01*
X202830428Y-98836162D01*
X202639952Y-98836162D01*
X202544714Y-98883781D01*
X202497095Y-98931400D01*
X202449476Y-99026638D01*
X202449476Y-99217114D01*
X202497095Y-99312352D01*
X202544714Y-99359971D01*
X202639952Y-99407590D01*
X202830428Y-99407590D01*
X202925666Y-99359971D01*
X202973285Y-99312352D01*
X203020904Y-99217114D01*
X203020904Y-99026638D01*
X202973285Y-98931400D01*
X202925666Y-98883781D01*
X202830428Y-98836162D01*
X203354238Y-98407590D02*
X203973285Y-98407590D01*
X203639952Y-98788543D01*
X203782809Y-98788543D01*
X203878047Y-98836162D01*
X203925666Y-98883781D01*
X203973285Y-98979019D01*
X203973285Y-99217114D01*
X203925666Y-99312352D01*
X203878047Y-99359971D01*
X203782809Y-99407590D01*
X203497095Y-99407590D01*
X203401857Y-99359971D01*
X203354238Y-99312352D01*
X138390380Y-116599642D02*
X138390380Y-115980595D01*
X138771333Y-116313928D01*
X138771333Y-116171071D01*
X138818952Y-116075833D01*
X138866571Y-116028214D01*
X138961809Y-115980595D01*
X139199904Y-115980595D01*
X139295142Y-116028214D01*
X139342761Y-116075833D01*
X139390380Y-116171071D01*
X139390380Y-116456785D01*
X139342761Y-116552023D01*
X139295142Y-116599642D01*
X138390380Y-115694880D02*
X139390380Y-115361547D01*
X138390380Y-115028214D01*
X138390380Y-114790119D02*
X138390380Y-114171071D01*
X138771333Y-114504404D01*
X138771333Y-114361547D01*
X138818952Y-114266309D01*
X138866571Y-114218690D01*
X138961809Y-114171071D01*
X139199904Y-114171071D01*
X139295142Y-114218690D01*
X139342761Y-114266309D01*
X139390380Y-114361547D01*
X139390380Y-114647261D01*
X139342761Y-114742500D01*
X139295142Y-114790119D01*
X139390380Y-112980595D02*
X138390380Y-112980595D01*
X139390380Y-112409166D01*
X138390380Y-112409166D01*
X138342761Y-111218690D02*
X139628476Y-112075833D01*
X139295142Y-110313928D02*
X139342761Y-110361547D01*
X139390380Y-110504404D01*
X139390380Y-110599642D01*
X139342761Y-110742500D01*
X139247523Y-110837738D01*
X139152285Y-110885357D01*
X138961809Y-110932976D01*
X138818952Y-110932976D01*
X138628476Y-110885357D01*
X138533238Y-110837738D01*
X138438000Y-110742500D01*
X138390380Y-110599642D01*
X138390380Y-110504404D01*
X138438000Y-110361547D01*
X138485619Y-110313928D01*
X143518000Y-115980595D02*
X143470380Y-116075833D01*
X143470380Y-116218690D01*
X143518000Y-116361547D01*
X143613238Y-116456785D01*
X143708476Y-116504404D01*
X143898952Y-116552023D01*
X144041809Y-116552023D01*
X144232285Y-116504404D01*
X144327523Y-116456785D01*
X144422761Y-116361547D01*
X144470380Y-116218690D01*
X144470380Y-116123452D01*
X144422761Y-115980595D01*
X144375142Y-115932976D01*
X144041809Y-115932976D01*
X144041809Y-116123452D01*
X144470380Y-115504404D02*
X143470380Y-115504404D01*
X144470380Y-114932976D01*
X143470380Y-114932976D01*
X144470380Y-114456785D02*
X143470380Y-114456785D01*
X143470380Y-114218690D01*
X143518000Y-114075833D01*
X143613238Y-113980595D01*
X143708476Y-113932976D01*
X143898952Y-113885357D01*
X144041809Y-113885357D01*
X144232285Y-113932976D01*
X144327523Y-113980595D01*
X144422761Y-114075833D01*
X144470380Y-114218690D01*
X144470380Y-114456785D01*
X171458000Y-115980595D02*
X171410380Y-116075833D01*
X171410380Y-116218690D01*
X171458000Y-116361547D01*
X171553238Y-116456785D01*
X171648476Y-116504404D01*
X171838952Y-116552023D01*
X171981809Y-116552023D01*
X172172285Y-116504404D01*
X172267523Y-116456785D01*
X172362761Y-116361547D01*
X172410380Y-116218690D01*
X172410380Y-116123452D01*
X172362761Y-115980595D01*
X172315142Y-115932976D01*
X171981809Y-115932976D01*
X171981809Y-116123452D01*
X172410380Y-115504404D02*
X171410380Y-115504404D01*
X172410380Y-114932976D01*
X171410380Y-114932976D01*
X172410380Y-114456785D02*
X171410380Y-114456785D01*
X171410380Y-114218690D01*
X171458000Y-114075833D01*
X171553238Y-113980595D01*
X171648476Y-113932976D01*
X171838952Y-113885357D01*
X171981809Y-113885357D01*
X172172285Y-113932976D01*
X172267523Y-113980595D01*
X172362761Y-114075833D01*
X172410380Y-114218690D01*
X172410380Y-114456785D01*
X166562114Y-116098333D02*
X167228780Y-116098333D01*
X166181161Y-116336428D02*
X166895447Y-116574523D01*
X166895447Y-115955476D01*
X167228780Y-115526904D02*
X167228780Y-115336428D01*
X167181161Y-115241190D01*
X167133542Y-115193571D01*
X166990685Y-115098333D01*
X166800209Y-115050714D01*
X166419257Y-115050714D01*
X166324019Y-115098333D01*
X166276400Y-115145952D01*
X166228780Y-115241190D01*
X166228780Y-115431666D01*
X166276400Y-115526904D01*
X166324019Y-115574523D01*
X166419257Y-115622142D01*
X166657352Y-115622142D01*
X166752590Y-115574523D01*
X166800209Y-115526904D01*
X166847828Y-115431666D01*
X166847828Y-115241190D01*
X166800209Y-115145952D01*
X166752590Y-115098333D01*
X166657352Y-115050714D01*
X124261619Y-78938666D02*
X125261619Y-78938666D01*
X125261619Y-79319619D01*
X125214000Y-79414857D01*
X125166380Y-79462476D01*
X125071142Y-79510095D01*
X124928285Y-79510095D01*
X124833047Y-79462476D01*
X124785428Y-79414857D01*
X124737809Y-79319619D01*
X124737809Y-78938666D01*
X124547333Y-79891047D02*
X124547333Y-80367238D01*
X124261619Y-79795809D02*
X125261619Y-80129142D01*
X124261619Y-80462476D01*
X123928285Y-81081523D02*
X123928285Y-80843428D01*
X125356857Y-80843428D01*
X125356857Y-81081523D01*
X124261619Y-81986285D02*
X124261619Y-81414857D01*
X124261619Y-81700571D02*
X125261619Y-81700571D01*
X125118761Y-81605333D01*
X125023523Y-81510095D01*
X124975904Y-81414857D01*
X123928285Y-82319619D02*
X123928285Y-82557714D01*
X125356857Y-82557714D01*
X125356857Y-82319619D01*
X174299619Y-74104571D02*
X174299619Y-73533142D01*
X174299619Y-73818857D02*
X175299619Y-73818857D01*
X175156761Y-73723618D01*
X175061523Y-73628380D01*
X175013904Y-73533142D01*
X175204380Y-74485523D02*
X175252000Y-74533142D01*
X175299619Y-74628380D01*
X175299619Y-74866476D01*
X175252000Y-74961714D01*
X175204380Y-75009333D01*
X175109142Y-75056952D01*
X175013904Y-75056952D01*
X174871047Y-75009333D01*
X174299619Y-74437904D01*
X174299619Y-75056952D01*
X175299619Y-75914095D02*
X175299619Y-75723618D01*
X175252000Y-75628380D01*
X175204380Y-75580761D01*
X175061523Y-75485523D01*
X174871047Y-75437904D01*
X174490095Y-75437904D01*
X174394857Y-75485523D01*
X174347238Y-75533142D01*
X174299619Y-75628380D01*
X174299619Y-75818857D01*
X174347238Y-75914095D01*
X174394857Y-75961714D01*
X174490095Y-76009333D01*
X174728190Y-76009333D01*
X174823428Y-75961714D01*
X174871047Y-75914095D01*
X174918666Y-75818857D01*
X174918666Y-75628380D01*
X174871047Y-75533142D01*
X174823428Y-75485523D01*
X174728190Y-75437904D01*
X203020904Y-76413301D02*
X202449475Y-76413301D01*
X202735190Y-76413301D02*
X202735190Y-75413301D01*
X202639951Y-75556159D01*
X202544713Y-75651397D01*
X202449475Y-75699016D01*
X203973285Y-76413301D02*
X203401856Y-76413301D01*
X203687571Y-76413301D02*
X203687571Y-75413301D01*
X203592332Y-75556159D01*
X203497094Y-75651397D01*
X203401856Y-75699016D01*
X204354237Y-75508540D02*
X204401856Y-75460921D01*
X204497094Y-75413301D01*
X204735190Y-75413301D01*
X204830428Y-75460921D01*
X204878047Y-75508540D01*
X204925666Y-75603778D01*
X204925666Y-75699016D01*
X204878047Y-75841873D01*
X204306618Y-76413301D01*
X204925666Y-76413301D01*
X164139619Y-76684285D02*
X165139619Y-76684285D01*
X165139619Y-76922380D01*
X165092000Y-77065238D01*
X164996761Y-77160476D01*
X164901523Y-77208095D01*
X164711047Y-77255714D01*
X164568190Y-77255714D01*
X164377714Y-77208095D01*
X164282476Y-77160476D01*
X164187238Y-77065238D01*
X164139619Y-76922380D01*
X164139619Y-76684285D01*
X165139619Y-77874761D02*
X165139619Y-78065238D01*
X165092000Y-78160476D01*
X164996761Y-78255714D01*
X164806285Y-78303333D01*
X164472952Y-78303333D01*
X164282476Y-78255714D01*
X164187238Y-78160476D01*
X164139619Y-78065238D01*
X164139619Y-77874761D01*
X164187238Y-77779523D01*
X164282476Y-77684285D01*
X164472952Y-77636666D01*
X164806285Y-77636666D01*
X164996761Y-77684285D01*
X165092000Y-77779523D01*
X165139619Y-77874761D01*
X140930380Y-116647261D02*
X141930380Y-116313928D01*
X140930380Y-115980595D01*
X141930380Y-115647261D02*
X140930380Y-115647261D01*
X141930380Y-115171071D02*
X140930380Y-115171071D01*
X141930380Y-114599642D01*
X140930380Y-114599642D01*
X141930380Y-113361547D02*
X140930380Y-113361547D01*
X141930380Y-112790119D01*
X140930380Y-112790119D01*
X140882761Y-111599642D02*
X142168476Y-112456785D01*
X141835142Y-110694880D02*
X141882761Y-110742500D01*
X141930380Y-110885357D01*
X141930380Y-110980595D01*
X141882761Y-111123452D01*
X141787523Y-111218690D01*
X141692285Y-111266309D01*
X141501809Y-111313928D01*
X141358952Y-111313928D01*
X141168476Y-111266309D01*
X141073238Y-111218690D01*
X140978000Y-111123452D01*
X140930380Y-110980595D01*
X140930380Y-110885357D01*
X140978000Y-110742500D01*
X141025619Y-110694880D01*
X151439619Y-74104571D02*
X151439619Y-73533142D01*
X151439619Y-73818857D02*
X152439619Y-73818857D01*
X152296761Y-73723618D01*
X152201523Y-73628380D01*
X152153904Y-73533142D01*
X152439619Y-74437904D02*
X152439619Y-75056952D01*
X152058666Y-74723618D01*
X152058666Y-74866476D01*
X152011047Y-74961714D01*
X151963428Y-75009333D01*
X151868190Y-75056952D01*
X151630095Y-75056952D01*
X151534857Y-75009333D01*
X151487238Y-74961714D01*
X151439619Y-74866476D01*
X151439619Y-74580761D01*
X151487238Y-74485523D01*
X151534857Y-74437904D01*
X152439619Y-75961714D02*
X152439619Y-75485523D01*
X151963428Y-75437904D01*
X152011047Y-75485523D01*
X152058666Y-75580761D01*
X152058666Y-75818857D01*
X152011047Y-75914095D01*
X151963428Y-75961714D01*
X151868190Y-76009333D01*
X151630095Y-76009333D01*
X151534857Y-75961714D01*
X151487238Y-75914095D01*
X151439619Y-75818857D01*
X151439619Y-75580761D01*
X151487238Y-75485523D01*
X151534857Y-75437904D01*
D12*
X208091571Y-102214286D02*
X208091571Y-101357143D01*
X209591571Y-101785715D02*
X208091571Y-101785715D01*
X209591571Y-100857143D02*
X208091571Y-100857143D01*
X209591571Y-100214286D02*
X208805857Y-100214286D01*
X208663000Y-100285715D01*
X208591571Y-100428572D01*
X208591571Y-100642858D01*
X208663000Y-100785715D01*
X208734428Y-100857143D01*
X209591571Y-99500001D02*
X208591571Y-99500001D01*
X208091571Y-99500001D02*
X208163000Y-99571429D01*
X208234428Y-99500001D01*
X208163000Y-99428572D01*
X208091571Y-99500001D01*
X208234428Y-99500001D01*
X209520142Y-98857143D02*
X209591571Y-98714286D01*
X209591571Y-98428572D01*
X209520142Y-98285715D01*
X209377285Y-98214286D01*
X209305857Y-98214286D01*
X209163000Y-98285715D01*
X209091571Y-98428572D01*
X209091571Y-98642858D01*
X209020142Y-98785715D01*
X208877285Y-98857143D01*
X208805857Y-98857143D01*
X208663000Y-98785715D01*
X208591571Y-98642858D01*
X208591571Y-98428572D01*
X208663000Y-98285715D01*
X209520142Y-96500001D02*
X209591571Y-96357143D01*
X209591571Y-96071429D01*
X209520142Y-95928572D01*
X209377285Y-95857143D01*
X209305857Y-95857143D01*
X209163000Y-95928572D01*
X209091571Y-96071429D01*
X209091571Y-96285715D01*
X209020142Y-96428572D01*
X208877285Y-96500001D01*
X208805857Y-96500001D01*
X208663000Y-96428572D01*
X208591571Y-96285715D01*
X208591571Y-96071429D01*
X208663000Y-95928572D01*
X209591571Y-95214286D02*
X208591571Y-95214286D01*
X208091571Y-95214286D02*
X208163000Y-95285715D01*
X208234428Y-95214286D01*
X208163000Y-95142858D01*
X208091571Y-95214286D01*
X208234428Y-95214286D01*
X209591571Y-93857143D02*
X208091571Y-93857143D01*
X209520142Y-93857143D02*
X209591571Y-94000001D01*
X209591571Y-94285715D01*
X209520142Y-94428572D01*
X209448714Y-94500001D01*
X209305857Y-94571429D01*
X208877285Y-94571429D01*
X208734428Y-94500001D01*
X208663000Y-94428572D01*
X208591571Y-94285715D01*
X208591571Y-94000001D01*
X208663000Y-93857143D01*
X209520142Y-92571429D02*
X209591571Y-92714286D01*
X209591571Y-93000001D01*
X209520142Y-93142858D01*
X209377285Y-93214286D01*
X208805857Y-93214286D01*
X208663000Y-93142858D01*
X208591571Y-93000001D01*
X208591571Y-92714286D01*
X208663000Y-92571429D01*
X208805857Y-92500001D01*
X208948714Y-92500001D01*
X209091571Y-93214286D01*
X208591571Y-90071429D02*
X209591571Y-90071429D01*
X208591571Y-90714286D02*
X209377285Y-90714286D01*
X209520142Y-90642858D01*
X209591571Y-90500001D01*
X209591571Y-90285715D01*
X209520142Y-90142858D01*
X209448714Y-90071429D01*
X208591571Y-89357143D02*
X210091571Y-89357143D01*
X208663000Y-89357143D02*
X208591571Y-89214286D01*
X208591571Y-88928572D01*
X208663000Y-88785715D01*
X208734428Y-88714286D01*
X208877285Y-88642858D01*
X209305857Y-88642858D01*
X209448714Y-88714286D01*
X209520142Y-88785715D01*
X209591571Y-88928572D01*
X209591571Y-89214286D01*
X209520142Y-89357143D01*
X209448714Y-88000001D02*
X209520142Y-87928572D01*
X209591571Y-88000001D01*
X209520142Y-88071429D01*
X209448714Y-88000001D01*
X209591571Y-88000001D01*
X212006571Y-106607143D02*
X210506571Y-106607143D01*
X210506571Y-106035715D01*
X210578000Y-105892858D01*
X210649428Y-105821429D01*
X210792285Y-105750001D01*
X211006571Y-105750001D01*
X211149428Y-105821429D01*
X211220857Y-105892858D01*
X211292285Y-106035715D01*
X211292285Y-106607143D01*
X212006571Y-104892858D02*
X211935142Y-105035715D01*
X211792285Y-105107143D01*
X210506571Y-105107143D01*
X211006571Y-103678572D02*
X212006571Y-103678572D01*
X211006571Y-104321429D02*
X211792285Y-104321429D01*
X211935142Y-104250001D01*
X212006571Y-104107143D01*
X212006571Y-103892858D01*
X211935142Y-103750001D01*
X211863714Y-103678572D01*
X211006571Y-102321429D02*
X212220857Y-102321429D01*
X212363714Y-102392858D01*
X212435142Y-102464286D01*
X212506571Y-102607143D01*
X212506571Y-102821429D01*
X212435142Y-102964286D01*
X211935142Y-102321429D02*
X212006571Y-102464286D01*
X212006571Y-102750001D01*
X211935142Y-102892858D01*
X211863714Y-102964286D01*
X211720857Y-103035715D01*
X211292285Y-103035715D01*
X211149428Y-102964286D01*
X211078000Y-102892858D01*
X211006571Y-102750001D01*
X211006571Y-102464286D01*
X211078000Y-102321429D01*
X211935142Y-101678572D02*
X212006571Y-101535715D01*
X212006571Y-101250001D01*
X211935142Y-101107143D01*
X211792285Y-101035715D01*
X211720857Y-101035715D01*
X211578000Y-101107143D01*
X211506571Y-101250001D01*
X211506571Y-101464286D01*
X211435142Y-101607143D01*
X211292285Y-101678572D01*
X211220857Y-101678572D01*
X211078000Y-101607143D01*
X211006571Y-101464286D01*
X211006571Y-101250001D01*
X211078000Y-101107143D01*
X212006571Y-99250001D02*
X211006571Y-99250001D01*
X210506571Y-99250001D02*
X210578000Y-99321429D01*
X210649428Y-99250001D01*
X210578000Y-99178572D01*
X210506571Y-99250001D01*
X210649428Y-99250001D01*
X211006571Y-98535715D02*
X212006571Y-98535715D01*
X211149428Y-98535715D02*
X211078000Y-98464286D01*
X211006571Y-98321429D01*
X211006571Y-98107143D01*
X211078000Y-97964286D01*
X211220857Y-97892858D01*
X212006571Y-97892858D01*
X211006571Y-97392858D02*
X211006571Y-96821429D01*
X210506571Y-97178572D02*
X211792285Y-97178572D01*
X211935142Y-97107143D01*
X212006571Y-96964286D01*
X212006571Y-96821429D01*
X212006571Y-96107143D02*
X211935142Y-96250001D01*
X211863714Y-96321429D01*
X211720857Y-96392858D01*
X211292285Y-96392858D01*
X211149428Y-96321429D01*
X211078000Y-96250001D01*
X211006571Y-96107143D01*
X211006571Y-95892858D01*
X211078000Y-95750001D01*
X211149428Y-95678572D01*
X211292285Y-95607143D01*
X211720857Y-95607143D01*
X211863714Y-95678572D01*
X211935142Y-95750001D01*
X212006571Y-95892858D01*
X212006571Y-96107143D01*
X212006571Y-93821429D02*
X210506571Y-93821429D01*
X211078000Y-93821429D02*
X211006571Y-93678572D01*
X211006571Y-93392858D01*
X211078000Y-93250001D01*
X211149428Y-93178572D01*
X211292285Y-93107143D01*
X211720857Y-93107143D01*
X211863714Y-93178572D01*
X211935142Y-93250001D01*
X212006571Y-93392858D01*
X212006571Y-93678572D01*
X211935142Y-93821429D01*
X212006571Y-92250001D02*
X211935142Y-92392858D01*
X211863714Y-92464286D01*
X211720857Y-92535715D01*
X211292285Y-92535715D01*
X211149428Y-92464286D01*
X211078000Y-92392858D01*
X211006571Y-92250001D01*
X211006571Y-92035715D01*
X211078000Y-91892858D01*
X211149428Y-91821429D01*
X211292285Y-91750001D01*
X211720857Y-91750001D01*
X211863714Y-91821429D01*
X211935142Y-91892858D01*
X212006571Y-92035715D01*
X212006571Y-92250001D01*
X211006571Y-91321429D02*
X211006571Y-90750001D01*
X210506571Y-91107143D02*
X211792285Y-91107143D01*
X211935142Y-91035715D01*
X212006571Y-90892858D01*
X212006571Y-90750001D01*
X211006571Y-90464286D02*
X211006571Y-89892858D01*
X210506571Y-90250001D02*
X211792285Y-90250001D01*
X211935142Y-90178572D01*
X212006571Y-90035715D01*
X212006571Y-89892858D01*
X212006571Y-89178572D02*
X211935142Y-89321429D01*
X211863714Y-89392858D01*
X211720857Y-89464286D01*
X211292285Y-89464286D01*
X211149428Y-89392858D01*
X211078000Y-89321429D01*
X211006571Y-89178572D01*
X211006571Y-88964286D01*
X211078000Y-88821429D01*
X211149428Y-88750001D01*
X211292285Y-88678572D01*
X211720857Y-88678572D01*
X211863714Y-88750001D01*
X211935142Y-88821429D01*
X212006571Y-88964286D01*
X212006571Y-89178572D01*
X212006571Y-88035715D02*
X211006571Y-88035715D01*
X211149428Y-88035715D02*
X211078000Y-87964286D01*
X211006571Y-87821429D01*
X211006571Y-87607143D01*
X211078000Y-87464286D01*
X211220857Y-87392858D01*
X212006571Y-87392858D01*
X211220857Y-87392858D02*
X211078000Y-87321429D01*
X211006571Y-87178572D01*
X211006571Y-86964286D01*
X211078000Y-86821429D01*
X211220857Y-86750001D01*
X212006571Y-86750001D01*
X212006571Y-84678572D02*
X211935142Y-84821429D01*
X211863714Y-84892858D01*
X211720857Y-84964286D01*
X211292285Y-84964286D01*
X211149428Y-84892858D01*
X211078000Y-84821429D01*
X211006571Y-84678572D01*
X211006571Y-84464286D01*
X211078000Y-84321429D01*
X211149428Y-84250001D01*
X211292285Y-84178572D01*
X211720857Y-84178572D01*
X211863714Y-84250001D01*
X211935142Y-84321429D01*
X212006571Y-84464286D01*
X212006571Y-84678572D01*
X211006571Y-83750001D02*
X211006571Y-83178572D01*
X212006571Y-83535715D02*
X210720857Y-83535715D01*
X210578000Y-83464286D01*
X210506571Y-83321429D01*
X210506571Y-83178572D01*
X214421571Y-101571429D02*
X212921571Y-101571429D01*
X212921571Y-101214286D01*
X212993000Y-101000001D01*
X213135857Y-100857143D01*
X213278714Y-100785715D01*
X213564428Y-100714286D01*
X213778714Y-100714286D01*
X214064428Y-100785715D01*
X214207285Y-100857143D01*
X214350142Y-101000001D01*
X214421571Y-101214286D01*
X214421571Y-101571429D01*
X213421571Y-99428572D02*
X214421571Y-99428572D01*
X213421571Y-100071429D02*
X214207285Y-100071429D01*
X214350142Y-100000001D01*
X214421571Y-99857143D01*
X214421571Y-99642858D01*
X214350142Y-99500001D01*
X214278714Y-99428572D01*
X214350142Y-98142858D02*
X214421571Y-98285715D01*
X214421571Y-98571429D01*
X214350142Y-98714286D01*
X214207285Y-98785715D01*
X213635857Y-98785715D01*
X213493000Y-98714286D01*
X213421571Y-98571429D01*
X213421571Y-98285715D01*
X213493000Y-98142858D01*
X213635857Y-98071429D01*
X213778714Y-98071429D01*
X213921571Y-98785715D01*
X214421571Y-97428572D02*
X212921571Y-97428572D01*
X212921571Y-96857143D01*
X212993000Y-96714286D01*
X213064428Y-96642858D01*
X213207285Y-96571429D01*
X213421571Y-96571429D01*
X213564428Y-96642858D01*
X213635857Y-96714286D01*
X213707285Y-96857143D01*
X213707285Y-97428572D01*
X214421571Y-95928572D02*
X213421571Y-95928572D01*
X213707285Y-95928572D02*
X213564428Y-95857143D01*
X213493000Y-95785715D01*
X213421571Y-95642858D01*
X213421571Y-95500001D01*
X214421571Y-94785715D02*
X214350142Y-94928572D01*
X214278714Y-95000001D01*
X214135857Y-95071429D01*
X213707285Y-95071429D01*
X213564428Y-95000001D01*
X213493000Y-94928572D01*
X213421571Y-94785715D01*
X213421571Y-94571429D01*
X213493000Y-94428572D01*
X213564428Y-94357143D01*
X213707285Y-94285715D01*
X214135857Y-94285715D01*
X214278714Y-94357143D01*
X214350142Y-94428572D01*
X214421571Y-94571429D01*
X214421571Y-94785715D01*
X214421571Y-92928572D02*
X214421571Y-93642858D01*
X212921571Y-93642858D01*
X214421571Y-92214286D02*
X214350142Y-92357143D01*
X214278714Y-92428572D01*
X214135857Y-92500001D01*
X213707285Y-92500001D01*
X213564428Y-92428572D01*
X213493000Y-92357143D01*
X213421571Y-92214286D01*
X213421571Y-92000001D01*
X213493000Y-91857143D01*
X213564428Y-91785715D01*
X213707285Y-91714286D01*
X214135857Y-91714286D01*
X214278714Y-91785715D01*
X214350142Y-91857143D01*
X214421571Y-92000001D01*
X214421571Y-92214286D01*
X213421571Y-90428572D02*
X214635857Y-90428572D01*
X214778714Y-90500001D01*
X214850142Y-90571429D01*
X214921571Y-90714286D01*
X214921571Y-90928572D01*
X214850142Y-91071429D01*
X214350142Y-90428572D02*
X214421571Y-90571429D01*
X214421571Y-90857143D01*
X214350142Y-91000001D01*
X214278714Y-91071429D01*
X214135857Y-91142858D01*
X213707285Y-91142858D01*
X213564428Y-91071429D01*
X213493000Y-91000001D01*
X213421571Y-90857143D01*
X213421571Y-90571429D01*
X213493000Y-90428572D01*
X214421571Y-89714286D02*
X213421571Y-89714286D01*
X212921571Y-89714286D02*
X212993000Y-89785715D01*
X213064428Y-89714286D01*
X212993000Y-89642858D01*
X212921571Y-89714286D01*
X213064428Y-89714286D01*
X214350142Y-88357143D02*
X214421571Y-88500001D01*
X214421571Y-88785715D01*
X214350142Y-88928572D01*
X214278714Y-89000001D01*
X214135857Y-89071429D01*
X213707285Y-89071429D01*
X213564428Y-89000001D01*
X213493000Y-88928572D01*
X213421571Y-88785715D01*
X213421571Y-88500001D01*
X213493000Y-88357143D01*
D10*
X122721619Y-73485523D02*
X122721619Y-74152190D01*
X121721619Y-73723618D01*
X193235095Y-106318638D02*
X193901761Y-106318638D01*
X193473190Y-107318638D01*
X194711285Y-106651972D02*
X194711285Y-107318638D01*
X194473190Y-106271019D02*
X194235095Y-106985305D01*
X194854142Y-106985305D01*
X142041619Y-78938666D02*
X143041619Y-78938666D01*
X143041619Y-79319619D01*
X142994000Y-79414857D01*
X142946380Y-79462476D01*
X142851142Y-79510095D01*
X142708285Y-79510095D01*
X142613047Y-79462476D01*
X142565428Y-79414857D01*
X142517809Y-79319619D01*
X142517809Y-78938666D01*
X142327333Y-79891047D02*
X142327333Y-80367238D01*
X142041619Y-79795809D02*
X143041619Y-80129142D01*
X142041619Y-80462476D01*
X141708285Y-81081523D02*
X141708285Y-80843428D01*
X143136857Y-80843428D01*
X143136857Y-81081523D01*
X143041619Y-81891047D02*
X143041619Y-81700571D01*
X142994000Y-81605333D01*
X142946380Y-81557714D01*
X142803523Y-81462476D01*
X142613047Y-81414857D01*
X142232095Y-81414857D01*
X142136857Y-81462476D01*
X142089238Y-81510095D01*
X142041619Y-81605333D01*
X142041619Y-81795809D01*
X142089238Y-81891047D01*
X142136857Y-81938666D01*
X142232095Y-81986285D01*
X142470190Y-81986285D01*
X142565428Y-81938666D01*
X142613047Y-81891047D01*
X142660666Y-81795809D01*
X142660666Y-81605333D01*
X142613047Y-81510095D01*
X142565428Y-81462476D01*
X142470190Y-81414857D01*
X141708285Y-82319619D02*
X141708285Y-82557714D01*
X143136857Y-82557714D01*
X143136857Y-82319619D01*
X193473190Y-99025612D02*
X193377952Y-98977993D01*
X193330333Y-98930374D01*
X193282714Y-98835136D01*
X193282714Y-98787517D01*
X193330333Y-98692279D01*
X193377952Y-98644660D01*
X193473190Y-98597040D01*
X193663666Y-98597040D01*
X193758904Y-98644660D01*
X193806523Y-98692279D01*
X193854142Y-98787517D01*
X193854142Y-98835136D01*
X193806523Y-98930374D01*
X193758904Y-98977993D01*
X193663666Y-99025612D01*
X193473190Y-99025612D01*
X193377952Y-99073231D01*
X193330333Y-99120850D01*
X193282714Y-99216088D01*
X193282714Y-99406564D01*
X193330333Y-99501802D01*
X193377952Y-99549421D01*
X193473190Y-99597040D01*
X193663666Y-99597040D01*
X193758904Y-99549421D01*
X193806523Y-99501802D01*
X193854142Y-99406564D01*
X193854142Y-99216088D01*
X193806523Y-99120850D01*
X193758904Y-99073231D01*
X193663666Y-99025612D01*
X194711285Y-98930374D02*
X194711285Y-99597040D01*
X194473190Y-98549421D02*
X194235095Y-99263707D01*
X194854142Y-99263707D01*
X202973285Y-90742827D02*
X202497095Y-90742827D01*
X202449476Y-91219018D01*
X202497095Y-91171399D01*
X202592333Y-91123780D01*
X202830428Y-91123780D01*
X202925666Y-91171399D01*
X202973285Y-91219018D01*
X203020904Y-91314256D01*
X203020904Y-91552351D01*
X202973285Y-91647589D01*
X202925666Y-91695208D01*
X202830428Y-91742827D01*
X202592333Y-91742827D01*
X202497095Y-91695208D01*
X202449476Y-91647589D01*
X203973285Y-91742827D02*
X203401857Y-91742827D01*
X203687571Y-91742827D02*
X203687571Y-90742827D01*
X203592333Y-90885685D01*
X203497095Y-90980923D01*
X203401857Y-91028542D01*
X184256419Y-74104571D02*
X184256419Y-73533142D01*
X184256419Y-73818857D02*
X185256419Y-73818857D01*
X185113561Y-73723618D01*
X185018323Y-73628380D01*
X184970704Y-73533142D01*
X185161180Y-74485523D02*
X185208800Y-74533142D01*
X185256419Y-74628380D01*
X185256419Y-74866476D01*
X185208800Y-74961714D01*
X185161180Y-75009333D01*
X185065942Y-75056952D01*
X184970704Y-75056952D01*
X184827847Y-75009333D01*
X184256419Y-74437904D01*
X184256419Y-75056952D01*
X185256419Y-75675999D02*
X185256419Y-75771238D01*
X185208800Y-75866476D01*
X185161180Y-75914095D01*
X185065942Y-75961714D01*
X184875466Y-76009333D01*
X184637371Y-76009333D01*
X184446895Y-75961714D01*
X184351657Y-75914095D01*
X184304038Y-75866476D01*
X184256419Y-75771238D01*
X184256419Y-75675999D01*
X184304038Y-75580761D01*
X184351657Y-75533142D01*
X184446895Y-75485523D01*
X184637371Y-75437904D01*
X184875466Y-75437904D01*
X185065942Y-75485523D01*
X185161180Y-75533142D01*
X185208800Y-75580761D01*
X185256419Y-75675999D01*
X131881619Y-78938666D02*
X132881619Y-78938666D01*
X132881619Y-79319619D01*
X132834000Y-79414857D01*
X132786380Y-79462476D01*
X132691142Y-79510095D01*
X132548285Y-79510095D01*
X132453047Y-79462476D01*
X132405428Y-79414857D01*
X132357809Y-79319619D01*
X132357809Y-78938666D01*
X132167333Y-79891047D02*
X132167333Y-80367238D01*
X131881619Y-79795809D02*
X132881619Y-80129142D01*
X131881619Y-80462476D01*
X131548285Y-81081523D02*
X131548285Y-80843428D01*
X132976857Y-80843428D01*
X132976857Y-81081523D01*
X132786380Y-81414857D02*
X132834000Y-81462476D01*
X132881619Y-81557714D01*
X132881619Y-81795809D01*
X132834000Y-81891047D01*
X132786380Y-81938666D01*
X132691142Y-81986285D01*
X132595904Y-81986285D01*
X132453047Y-81938666D01*
X131881619Y-81367238D01*
X131881619Y-81986285D01*
X131548285Y-82319619D02*
X131548285Y-82557714D01*
X132976857Y-82557714D01*
X132976857Y-82319619D01*
X164139619Y-74104571D02*
X164139619Y-73533142D01*
X164139619Y-73818857D02*
X165139619Y-73818857D01*
X164996761Y-73723618D01*
X164901523Y-73628380D01*
X164853904Y-73533142D01*
X165044380Y-74485523D02*
X165092000Y-74533142D01*
X165139619Y-74628380D01*
X165139619Y-74866476D01*
X165092000Y-74961714D01*
X165044380Y-75009333D01*
X164949142Y-75056952D01*
X164853904Y-75056952D01*
X164711047Y-75009333D01*
X164139619Y-74437904D01*
X164139619Y-75056952D01*
X165139619Y-75390285D02*
X165139619Y-76056952D01*
X164139619Y-75628380D01*
X190190380Y-110806618D02*
X189190380Y-110806618D01*
X189190380Y-110425666D01*
X189238000Y-110330428D01*
X189285619Y-110282809D01*
X189380857Y-110235190D01*
X189523714Y-110235190D01*
X189618952Y-110282809D01*
X189666571Y-110330428D01*
X189714190Y-110425666D01*
X189714190Y-110806618D01*
X189666571Y-109473285D02*
X189714190Y-109330428D01*
X189761809Y-109282809D01*
X189857047Y-109235190D01*
X189999904Y-109235190D01*
X190095142Y-109282809D01*
X190142761Y-109330428D01*
X190190380Y-109425666D01*
X190190380Y-109806618D01*
X189190380Y-109806618D01*
X189190380Y-109473285D01*
X189238000Y-109378047D01*
X189285619Y-109330428D01*
X189380857Y-109282809D01*
X189476095Y-109282809D01*
X189571333Y-109330428D01*
X189618952Y-109378047D01*
X189666571Y-109473285D01*
X189666571Y-109806618D01*
X190523714Y-108520904D02*
X190523714Y-108758999D01*
X189095142Y-108758999D01*
X189095142Y-108520904D01*
X190190380Y-107616142D02*
X190190380Y-108187571D01*
X190190380Y-107901857D02*
X189190380Y-107901857D01*
X189333238Y-107997095D01*
X189428476Y-108092333D01*
X189476095Y-108187571D01*
X190523714Y-107282809D02*
X190523714Y-107044714D01*
X189095142Y-107044714D01*
X189095142Y-107282809D01*
X176490380Y-116599642D02*
X176490380Y-115980595D01*
X176871333Y-116313928D01*
X176871333Y-116171071D01*
X176918952Y-116075833D01*
X176966571Y-116028214D01*
X177061809Y-115980595D01*
X177299904Y-115980595D01*
X177395142Y-116028214D01*
X177442761Y-116075833D01*
X177490380Y-116171071D01*
X177490380Y-116456785D01*
X177442761Y-116552023D01*
X177395142Y-116599642D01*
X176490380Y-115694880D02*
X177490380Y-115361547D01*
X176490380Y-115028214D01*
X176490380Y-114790119D02*
X176490380Y-114171071D01*
X176871333Y-114504404D01*
X176871333Y-114361547D01*
X176918952Y-114266309D01*
X176966571Y-114218690D01*
X177061809Y-114171071D01*
X177299904Y-114171071D01*
X177395142Y-114218690D01*
X177442761Y-114266309D01*
X177490380Y-114361547D01*
X177490380Y-114647261D01*
X177442761Y-114742500D01*
X177395142Y-114790119D01*
X179030380Y-116050714D02*
X179030380Y-116526904D01*
X179506571Y-116574523D01*
X179458952Y-116526904D01*
X179411333Y-116431666D01*
X179411333Y-116193571D01*
X179458952Y-116098333D01*
X179506571Y-116050714D01*
X179601809Y-116003095D01*
X179839904Y-116003095D01*
X179935142Y-116050714D01*
X179982761Y-116098333D01*
X180030380Y-116193571D01*
X180030380Y-116431666D01*
X179982761Y-116526904D01*
X179935142Y-116574523D01*
X179125619Y-115622142D02*
X179078000Y-115574523D01*
X179030380Y-115479285D01*
X179030380Y-115241190D01*
X179078000Y-115145952D01*
X179125619Y-115098333D01*
X179220857Y-115050714D01*
X179316095Y-115050714D01*
X179458952Y-115098333D01*
X180030380Y-115669761D01*
X180030380Y-115050714D01*
X186745619Y-74104571D02*
X186745619Y-73533142D01*
X186745619Y-73818857D02*
X187745619Y-73818857D01*
X187602761Y-73723618D01*
X187507523Y-73628380D01*
X187459904Y-73533142D01*
X186745619Y-75056952D02*
X186745619Y-74485523D01*
X186745619Y-74771238D02*
X187745619Y-74771238D01*
X187602761Y-74675999D01*
X187507523Y-74580761D01*
X187459904Y-74485523D01*
X186745619Y-75533142D02*
X186745619Y-75723618D01*
X186793238Y-75818857D01*
X186840857Y-75866476D01*
X186983714Y-75961714D01*
X187174190Y-76009333D01*
X187555142Y-76009333D01*
X187650380Y-75961714D01*
X187698000Y-75914095D01*
X187745619Y-75818857D01*
X187745619Y-75628380D01*
X187698000Y-75533142D01*
X187650380Y-75485523D01*
X187555142Y-75437904D01*
X187317047Y-75437904D01*
X187221809Y-75485523D01*
X187174190Y-75533142D01*
X187126571Y-75628380D01*
X187126571Y-75818857D01*
X187174190Y-75914095D01*
X187221809Y-75961714D01*
X187317047Y-76009333D01*
X180030380Y-110806618D02*
X179030380Y-110806618D01*
X179030380Y-110425666D01*
X179078000Y-110330428D01*
X179125619Y-110282809D01*
X179220857Y-110235190D01*
X179363714Y-110235190D01*
X179458952Y-110282809D01*
X179506571Y-110330428D01*
X179554190Y-110425666D01*
X179554190Y-110806618D01*
X179506571Y-109473285D02*
X179554190Y-109330428D01*
X179601809Y-109282809D01*
X179697047Y-109235190D01*
X179839904Y-109235190D01*
X179935142Y-109282809D01*
X179982761Y-109330428D01*
X180030380Y-109425666D01*
X180030380Y-109806618D01*
X179030380Y-109806618D01*
X179030380Y-109473285D01*
X179078000Y-109378047D01*
X179125619Y-109330428D01*
X179220857Y-109282809D01*
X179316095Y-109282809D01*
X179411333Y-109330428D01*
X179458952Y-109378047D01*
X179506571Y-109473285D01*
X179506571Y-109806618D01*
X180363714Y-108520904D02*
X180363714Y-108758999D01*
X178935142Y-108758999D01*
X178935142Y-108520904D01*
X179030380Y-107663761D02*
X179030380Y-108139952D01*
X179506571Y-108187571D01*
X179458952Y-108139952D01*
X179411333Y-108044714D01*
X179411333Y-107806618D01*
X179458952Y-107711380D01*
X179506571Y-107663761D01*
X179601809Y-107616142D01*
X179839904Y-107616142D01*
X179935142Y-107663761D01*
X179982761Y-107711380D01*
X180030380Y-107806618D01*
X180030380Y-108044714D01*
X179982761Y-108139952D01*
X179935142Y-108187571D01*
X180363714Y-107282809D02*
X180363714Y-107044714D01*
X178935142Y-107044714D01*
X178935142Y-107282809D01*
X172458000Y-74104571D02*
X172505619Y-74009333D01*
X172505619Y-73866476D01*
X172458000Y-73723618D01*
X172362761Y-73628380D01*
X172267523Y-73580761D01*
X172077047Y-73533142D01*
X171934190Y-73533142D01*
X171743714Y-73580761D01*
X171648476Y-73628380D01*
X171553238Y-73723618D01*
X171505619Y-73866476D01*
X171505619Y-73961714D01*
X171553238Y-74104571D01*
X171600857Y-74152190D01*
X171934190Y-74152190D01*
X171934190Y-73961714D01*
X171505619Y-74580761D02*
X172505619Y-74580761D01*
X171505619Y-75152190D01*
X172505619Y-75152190D01*
X171505619Y-75628380D02*
X172505619Y-75628380D01*
X172505619Y-75866476D01*
X172458000Y-76009333D01*
X172362761Y-76104571D01*
X172267523Y-76152190D01*
X172077047Y-76199809D01*
X171934190Y-76199809D01*
X171743714Y-76152190D01*
X171648476Y-76104571D01*
X171553238Y-76009333D01*
X171505619Y-75866476D01*
X171505619Y-75628380D01*
X163920514Y-116098333D02*
X164587180Y-116098333D01*
X163539561Y-116336428D02*
X164253847Y-116574523D01*
X164253847Y-115955476D01*
X163682419Y-115622142D02*
X163634800Y-115574523D01*
X163587180Y-115479285D01*
X163587180Y-115241190D01*
X163634800Y-115145952D01*
X163682419Y-115098333D01*
X163777657Y-115050714D01*
X163872895Y-115050714D01*
X164015752Y-115098333D01*
X164587180Y-115669761D01*
X164587180Y-115050714D01*
X202544714Y-89187906D02*
X202735190Y-89187906D01*
X202830428Y-89140287D01*
X202878047Y-89092668D01*
X202973285Y-88949811D01*
X203020904Y-88759335D01*
X203020904Y-88378383D01*
X202973285Y-88283145D01*
X202925666Y-88235526D01*
X202830428Y-88187906D01*
X202639952Y-88187906D01*
X202544714Y-88235526D01*
X202497095Y-88283145D01*
X202449476Y-88378383D01*
X202449476Y-88616478D01*
X202497095Y-88711716D01*
X202544714Y-88759335D01*
X202639952Y-88806954D01*
X202830428Y-88806954D01*
X202925666Y-88759335D01*
X202973285Y-88711716D01*
X203020904Y-88616478D01*
X203592333Y-88616478D02*
X203497095Y-88568859D01*
X203449476Y-88521240D01*
X203401857Y-88426002D01*
X203401857Y-88378383D01*
X203449476Y-88283145D01*
X203497095Y-88235526D01*
X203592333Y-88187906D01*
X203782809Y-88187906D01*
X203878047Y-88235526D01*
X203925666Y-88283145D01*
X203973285Y-88378383D01*
X203973285Y-88426002D01*
X203925666Y-88521240D01*
X203878047Y-88568859D01*
X203782809Y-88616478D01*
X203592333Y-88616478D01*
X203497095Y-88664097D01*
X203449476Y-88711716D01*
X203401857Y-88806954D01*
X203401857Y-88997430D01*
X203449476Y-89092668D01*
X203497095Y-89140287D01*
X203592333Y-89187906D01*
X203782809Y-89187906D01*
X203878047Y-89140287D01*
X203925666Y-89092668D01*
X203973285Y-88997430D01*
X203973285Y-88806954D01*
X203925666Y-88711716D01*
X203878047Y-88664097D01*
X203782809Y-88616478D01*
X186650380Y-116098333D02*
X186650380Y-116288809D01*
X186698000Y-116384047D01*
X186745619Y-116431666D01*
X186888476Y-116526904D01*
X187078952Y-116574523D01*
X187459904Y-116574523D01*
X187555142Y-116526904D01*
X187602761Y-116479285D01*
X187650380Y-116384047D01*
X187650380Y-116193571D01*
X187602761Y-116098333D01*
X187555142Y-116050714D01*
X187459904Y-116003095D01*
X187221809Y-116003095D01*
X187126571Y-116050714D01*
X187078952Y-116098333D01*
X187031333Y-116193571D01*
X187031333Y-116384047D01*
X187078952Y-116479285D01*
X187126571Y-116526904D01*
X187221809Y-116574523D01*
X186650380Y-115669761D02*
X186650380Y-115003095D01*
X187650380Y-115431666D01*
D12*
X160858571Y-104286857D02*
X161072857Y-104358285D01*
X161144285Y-104429714D01*
X161215714Y-104572571D01*
X161215714Y-104786857D01*
X161144285Y-104929714D01*
X161072857Y-105001142D01*
X160930000Y-105072571D01*
X160358571Y-105072571D01*
X160358571Y-103572571D01*
X160858571Y-103572571D01*
X161001428Y-103644000D01*
X161072857Y-103715428D01*
X161144285Y-103858285D01*
X161144285Y-104001142D01*
X161072857Y-104144000D01*
X161001428Y-104215428D01*
X160858571Y-104286857D01*
X160358571Y-104286857D01*
X162072857Y-105072571D02*
X161930000Y-105001142D01*
X161858571Y-104929714D01*
X161787142Y-104786857D01*
X161787142Y-104358285D01*
X161858571Y-104215428D01*
X161930000Y-104144000D01*
X162072857Y-104072571D01*
X162287142Y-104072571D01*
X162430000Y-104144000D01*
X162501428Y-104215428D01*
X162572857Y-104358285D01*
X162572857Y-104786857D01*
X162501428Y-104929714D01*
X162430000Y-105001142D01*
X162287142Y-105072571D01*
X162072857Y-105072571D01*
X163858571Y-105072571D02*
X163858571Y-104286857D01*
X163787142Y-104144000D01*
X163644285Y-104072571D01*
X163358571Y-104072571D01*
X163215714Y-104144000D01*
X163858571Y-105001142D02*
X163715714Y-105072571D01*
X163358571Y-105072571D01*
X163215714Y-105001142D01*
X163144285Y-104858285D01*
X163144285Y-104715428D01*
X163215714Y-104572571D01*
X163358571Y-104501142D01*
X163715714Y-104501142D01*
X163858571Y-104429714D01*
X164572857Y-105072571D02*
X164572857Y-104072571D01*
X164572857Y-104358285D02*
X164644285Y-104215428D01*
X164715714Y-104144000D01*
X164858571Y-104072571D01*
X165001428Y-104072571D01*
X166144285Y-105072571D02*
X166144285Y-103572571D01*
X166144285Y-105001142D02*
X166001428Y-105072571D01*
X165715714Y-105072571D01*
X165572857Y-105001142D01*
X165501428Y-104929714D01*
X165430000Y-104786857D01*
X165430000Y-104358285D01*
X165501428Y-104215428D01*
X165572857Y-104144000D01*
X165715714Y-104072571D01*
X166001428Y-104072571D01*
X166144285Y-104144000D01*
X167858571Y-104072571D02*
X168215714Y-105072571D01*
X168572857Y-104072571D01*
X169715714Y-105001142D02*
X169572857Y-105072571D01*
X169287142Y-105072571D01*
X169144285Y-105001142D01*
X169072857Y-104858285D01*
X169072857Y-104286857D01*
X169144285Y-104144000D01*
X169287142Y-104072571D01*
X169572857Y-104072571D01*
X169715714Y-104144000D01*
X169787142Y-104286857D01*
X169787142Y-104429714D01*
X169072857Y-104572571D01*
X170430000Y-105072571D02*
X170430000Y-104072571D01*
X170430000Y-104358285D02*
X170501428Y-104215428D01*
X170572857Y-104144000D01*
X170715714Y-104072571D01*
X170858571Y-104072571D01*
X171287142Y-105001142D02*
X171430000Y-105072571D01*
X171715714Y-105072571D01*
X171858571Y-105001142D01*
X171930000Y-104858285D01*
X171930000Y-104786857D01*
X171858571Y-104644000D01*
X171715714Y-104572571D01*
X171501428Y-104572571D01*
X171358571Y-104501142D01*
X171287142Y-104358285D01*
X171287142Y-104286857D01*
X171358571Y-104144000D01*
X171501428Y-104072571D01*
X171715714Y-104072571D01*
X171858571Y-104144000D01*
X172787142Y-105072571D02*
X172644285Y-105001142D01*
X172572857Y-104929714D01*
X172501428Y-104786857D01*
X172501428Y-104358285D01*
X172572857Y-104215428D01*
X172644285Y-104144000D01*
X172787142Y-104072571D01*
X173001428Y-104072571D01*
X173144285Y-104144000D01*
X173215714Y-104215428D01*
X173287142Y-104358285D01*
X173287142Y-104786857D01*
X173215714Y-104929714D01*
X173144285Y-105001142D01*
X173001428Y-105072571D01*
X172787142Y-105072571D01*
X173930000Y-104072571D02*
X173930000Y-105072571D01*
X173930000Y-104215428D02*
X174001428Y-104144000D01*
X174144285Y-104072571D01*
X174358571Y-104072571D01*
X174501428Y-104144000D01*
X174572857Y-104286857D01*
X174572857Y-105072571D01*
X175287142Y-104929714D02*
X175358571Y-105001142D01*
X175287142Y-105072571D01*
X175215714Y-105001142D01*
X175287142Y-104929714D01*
X175287142Y-105072571D01*
X175287142Y-104144000D02*
X175358571Y-104215428D01*
X175287142Y-104286857D01*
X175215714Y-104215428D01*
X175287142Y-104144000D01*
X175287142Y-104286857D01*
X177930000Y-105072571D02*
X177072857Y-105072571D01*
X177501428Y-105072571D02*
X177501428Y-103572571D01*
X177358571Y-103786857D01*
X177215714Y-103929714D01*
X177072857Y-104001142D01*
X178572857Y-104929714D02*
X178644285Y-105001142D01*
X178572857Y-105072571D01*
X178501428Y-105001142D01*
X178572857Y-104929714D01*
X178572857Y-105072571D01*
X179572857Y-103572571D02*
X179715714Y-103572571D01*
X179858571Y-103644000D01*
X179930000Y-103715428D01*
X180001428Y-103858285D01*
X180072857Y-104144000D01*
X180072857Y-104501142D01*
X180001428Y-104786857D01*
X179930000Y-104929714D01*
X179858571Y-105001142D01*
X179715714Y-105072571D01*
X179572857Y-105072571D01*
X179430000Y-105001142D01*
X179358571Y-104929714D01*
X179287142Y-104786857D01*
X179215714Y-104501142D01*
X179215714Y-104144000D01*
X179287142Y-103858285D01*
X179358571Y-103715428D01*
X179430000Y-103644000D01*
X179572857Y-103572571D01*
D11*
X202320428Y-70455285D02*
X202570428Y-71205285D01*
X202820428Y-70455285D01*
X203070428Y-71205285D02*
X203070428Y-70455285D01*
X203427571Y-71205285D02*
X203427571Y-70455285D01*
X203856142Y-71205285D01*
X203856142Y-70455285D01*
D10*
X203020904Y-78968222D02*
X202449475Y-78968222D01*
X202735190Y-78968222D02*
X202735190Y-77968222D01*
X202639951Y-78111080D01*
X202544713Y-78206318D01*
X202449475Y-78253937D01*
X203973285Y-78968222D02*
X203401856Y-78968222D01*
X203687571Y-78968222D02*
X203687571Y-77968222D01*
X203592332Y-78111080D01*
X203497094Y-78206318D01*
X203401856Y-78253937D01*
X204592332Y-77968222D02*
X204687571Y-77968222D01*
X204782809Y-78015842D01*
X204830428Y-78063461D01*
X204878047Y-78158699D01*
X204925666Y-78349175D01*
X204925666Y-78587270D01*
X204878047Y-78777746D01*
X204830428Y-78872984D01*
X204782809Y-78920603D01*
X204687571Y-78968222D01*
X204592332Y-78968222D01*
X204497094Y-78920603D01*
X204449475Y-78872984D01*
X204401856Y-78777746D01*
X204354237Y-78587270D01*
X204354237Y-78349175D01*
X204401856Y-78158699D01*
X204449475Y-78063461D01*
X204497094Y-78015842D01*
X204592332Y-77968222D01*
X144581619Y-74104571D02*
X144581619Y-73533142D01*
X144581619Y-73818857D02*
X145581619Y-73818857D01*
X145438761Y-73723618D01*
X145343523Y-73628380D01*
X145295904Y-73533142D01*
X145581619Y-74437904D02*
X145581619Y-75056952D01*
X145200666Y-74723618D01*
X145200666Y-74866476D01*
X145153047Y-74961714D01*
X145105428Y-75009333D01*
X145010190Y-75056952D01*
X144772095Y-75056952D01*
X144676857Y-75009333D01*
X144629238Y-74961714D01*
X144581619Y-74866476D01*
X144581619Y-74580761D01*
X144629238Y-74485523D01*
X144676857Y-74437904D01*
X145581619Y-75914095D02*
X145581619Y-75723618D01*
X145534000Y-75628380D01*
X145486380Y-75580761D01*
X145343523Y-75485523D01*
X145153047Y-75437904D01*
X144772095Y-75437904D01*
X144676857Y-75485523D01*
X144629238Y-75533142D01*
X144581619Y-75628380D01*
X144581619Y-75818857D01*
X144629238Y-75914095D01*
X144676857Y-75961714D01*
X144772095Y-76009333D01*
X145010190Y-76009333D01*
X145105428Y-75961714D01*
X145153047Y-75914095D01*
X145200666Y-75818857D01*
X145200666Y-75628380D01*
X145153047Y-75533142D01*
X145105428Y-75485523D01*
X145010190Y-75437904D01*
D12*
X175827428Y-77248000D02*
X175827428Y-78105142D01*
X174327428Y-77676571D02*
X175827428Y-77676571D01*
X175827428Y-78390857D02*
X175827428Y-79248000D01*
X174327428Y-78819428D02*
X175827428Y-78819428D01*
X175041714Y-80033714D02*
X174327428Y-80033714D01*
X175827428Y-79533714D02*
X175041714Y-80033714D01*
X175827428Y-80533714D01*
X174327428Y-81033714D02*
X175827428Y-81033714D01*
D10*
X149550380Y-116504404D02*
X148550380Y-116504404D01*
X149550380Y-115932976D01*
X148550380Y-115932976D01*
X148502761Y-114742500D02*
X149788476Y-115599642D01*
X149455142Y-113837738D02*
X149502761Y-113885357D01*
X149550380Y-114028214D01*
X149550380Y-114123452D01*
X149502761Y-114266309D01*
X149407523Y-114361547D01*
X149312285Y-114409166D01*
X149121809Y-114456785D01*
X148978952Y-114456785D01*
X148788476Y-114409166D01*
X148693238Y-114361547D01*
X148598000Y-114266309D01*
X148550380Y-114123452D01*
X148550380Y-114028214D01*
X148598000Y-113885357D01*
X148645619Y-113837738D01*
X135556380Y-78017619D02*
X134889714Y-77017619D01*
X134889714Y-78017619D02*
X135556380Y-77017619D01*
X134508761Y-77017619D02*
X134508761Y-78017619D01*
X133842095Y-78017619D02*
X133651619Y-78017619D01*
X133556380Y-77970000D01*
X133461142Y-77874761D01*
X133413523Y-77684285D01*
X133413523Y-77350952D01*
X133461142Y-77160476D01*
X133556380Y-77065238D01*
X133651619Y-77017619D01*
X133842095Y-77017619D01*
X133937333Y-77065238D01*
X134032571Y-77160476D01*
X134080190Y-77350952D01*
X134080190Y-77684285D01*
X134032571Y-77874761D01*
X133937333Y-77970000D01*
X133842095Y-78017619D01*
X133223047Y-76922380D02*
X132461142Y-76922380D01*
X131699238Y-77017619D02*
X132270666Y-77017619D01*
X131984952Y-77017619D02*
X131984952Y-78017619D01*
X132080190Y-77874761D01*
X132175428Y-77779523D01*
X132270666Y-77731904D01*
X192901761Y-81579978D02*
X192330332Y-81579978D01*
X192616047Y-81579978D02*
X192616047Y-80579978D01*
X192520808Y-80722836D01*
X192425570Y-80818074D01*
X192330332Y-80865693D01*
X193520808Y-80579978D02*
X193616047Y-80579978D01*
X193711285Y-80627598D01*
X193758904Y-80675217D01*
X193806523Y-80770455D01*
X193854142Y-80960931D01*
X193854142Y-81199026D01*
X193806523Y-81389502D01*
X193758904Y-81484740D01*
X193711285Y-81532359D01*
X193616047Y-81579978D01*
X193520808Y-81579978D01*
X193425570Y-81532359D01*
X193377951Y-81484740D01*
X193330332Y-81389502D01*
X193282713Y-81199026D01*
X193282713Y-80960931D01*
X193330332Y-80770455D01*
X193377951Y-80675217D01*
X193425570Y-80627598D01*
X193520808Y-80579978D01*
X194711285Y-80579978D02*
X194520808Y-80579978D01*
X194425570Y-80627598D01*
X194377951Y-80675217D01*
X194282713Y-80818074D01*
X194235094Y-81008550D01*
X194235094Y-81389502D01*
X194282713Y-81484740D01*
X194330332Y-81532359D01*
X194425570Y-81579978D01*
X194616047Y-81579978D01*
X194711285Y-81532359D01*
X194758904Y-81484740D01*
X194806523Y-81389502D01*
X194806523Y-81151407D01*
X194758904Y-81056169D01*
X194711285Y-81008550D01*
X194616047Y-80960931D01*
X194425570Y-80960931D01*
X194330332Y-81008550D01*
X194282713Y-81056169D01*
X194235094Y-81151407D01*
X184110380Y-116098333D02*
X184110380Y-116288809D01*
X184158000Y-116384047D01*
X184205619Y-116431666D01*
X184348476Y-116526904D01*
X184538952Y-116574523D01*
X184919904Y-116574523D01*
X185015142Y-116526904D01*
X185062761Y-116479285D01*
X185110380Y-116384047D01*
X185110380Y-116193571D01*
X185062761Y-116098333D01*
X185015142Y-116050714D01*
X184919904Y-116003095D01*
X184681809Y-116003095D01*
X184586571Y-116050714D01*
X184538952Y-116098333D01*
X184491333Y-116193571D01*
X184491333Y-116384047D01*
X184538952Y-116479285D01*
X184586571Y-116526904D01*
X184681809Y-116574523D01*
X184110380Y-115145952D02*
X184110380Y-115336428D01*
X184158000Y-115431666D01*
X184205619Y-115479285D01*
X184348476Y-115574523D01*
X184538952Y-115622142D01*
X184919904Y-115622142D01*
X185015142Y-115574523D01*
X185062761Y-115526904D01*
X185110380Y-115431666D01*
X185110380Y-115241190D01*
X185062761Y-115145952D01*
X185015142Y-115098333D01*
X184919904Y-115050714D01*
X184681809Y-115050714D01*
X184586571Y-115098333D01*
X184538952Y-115145952D01*
X184491333Y-115241190D01*
X184491333Y-115431666D01*
X184538952Y-115526904D01*
X184586571Y-115574523D01*
X184681809Y-115622142D01*
D11*
X193042714Y-70455285D02*
X193507000Y-70455285D01*
X193257000Y-70741000D01*
X193364142Y-70741000D01*
X193435571Y-70776714D01*
X193471285Y-70812428D01*
X193507000Y-70883857D01*
X193507000Y-71062428D01*
X193471285Y-71133857D01*
X193435571Y-71169571D01*
X193364142Y-71205285D01*
X193149857Y-71205285D01*
X193078428Y-71169571D01*
X193042714Y-71133857D01*
X193721285Y-70455285D02*
X193971285Y-71205285D01*
X194221285Y-70455285D01*
X194399857Y-70455285D02*
X194864142Y-70455285D01*
X194614142Y-70741000D01*
X194721285Y-70741000D01*
X194792714Y-70776714D01*
X194828428Y-70812428D01*
X194864142Y-70883857D01*
X194864142Y-71062428D01*
X194828428Y-71133857D01*
X194792714Y-71169571D01*
X194721285Y-71205285D01*
X194507000Y-71205285D01*
X194435571Y-71169571D01*
X194399857Y-71133857D01*
D10*
X190714380Y-94418380D02*
X191714380Y-93751714D01*
X190714380Y-93751714D02*
X191714380Y-94418380D01*
X191714380Y-93370761D02*
X190714380Y-93370761D01*
X190714380Y-92704095D02*
X190714380Y-92513619D01*
X190762000Y-92418380D01*
X190857238Y-92323142D01*
X191047714Y-92275523D01*
X191381047Y-92275523D01*
X191571523Y-92323142D01*
X191666761Y-92418380D01*
X191714380Y-92513619D01*
X191714380Y-92704095D01*
X191666761Y-92799333D01*
X191571523Y-92894571D01*
X191381047Y-92942190D01*
X191047714Y-92942190D01*
X190857238Y-92894571D01*
X190762000Y-92799333D01*
X190714380Y-92704095D01*
X191809619Y-92085047D02*
X191809619Y-91323142D01*
X190714380Y-90656476D02*
X190714380Y-90846952D01*
X190762000Y-90942190D01*
X190809619Y-90989809D01*
X190952476Y-91085047D01*
X191142952Y-91132666D01*
X191523904Y-91132666D01*
X191619142Y-91085047D01*
X191666761Y-91037428D01*
X191714380Y-90942190D01*
X191714380Y-90751714D01*
X191666761Y-90656476D01*
X191619142Y-90608857D01*
X191523904Y-90561238D01*
X191285809Y-90561238D01*
X191190571Y-90608857D01*
X191142952Y-90656476D01*
X191095333Y-90751714D01*
X191095333Y-90942190D01*
X191142952Y-91037428D01*
X191190571Y-91085047D01*
X191285809Y-91132666D01*
X176788819Y-74104571D02*
X176788819Y-73533142D01*
X176788819Y-73818857D02*
X177788819Y-73818857D01*
X177645961Y-73723618D01*
X177550723Y-73628380D01*
X177503104Y-73533142D01*
X177693580Y-74485523D02*
X177741200Y-74533142D01*
X177788819Y-74628380D01*
X177788819Y-74866476D01*
X177741200Y-74961714D01*
X177693580Y-75009333D01*
X177598342Y-75056952D01*
X177503104Y-75056952D01*
X177360247Y-75009333D01*
X176788819Y-74437904D01*
X176788819Y-75056952D01*
X177788819Y-75961714D02*
X177788819Y-75485523D01*
X177312628Y-75437904D01*
X177360247Y-75485523D01*
X177407866Y-75580761D01*
X177407866Y-75818857D01*
X177360247Y-75914095D01*
X177312628Y-75961714D01*
X177217390Y-76009333D01*
X176979295Y-76009333D01*
X176884057Y-75961714D01*
X176836438Y-75914095D01*
X176788819Y-75818857D01*
X176788819Y-75580761D01*
X176836438Y-75485523D01*
X176884057Y-75437904D01*
X167679619Y-73463024D02*
X167679619Y-74082072D01*
X167298666Y-73748738D01*
X167298666Y-73891595D01*
X167251047Y-73986833D01*
X167203428Y-74034452D01*
X167108190Y-74082072D01*
X166870095Y-74082072D01*
X166774857Y-74034452D01*
X166727238Y-73986833D01*
X166679619Y-73891595D01*
X166679619Y-73605881D01*
X166727238Y-73510643D01*
X166774857Y-73463024D01*
X167679619Y-74367786D02*
X166679619Y-74701119D01*
X167679619Y-75034452D01*
X167679619Y-75272548D02*
X167679619Y-75891595D01*
X167298666Y-75558262D01*
X167298666Y-75701119D01*
X167251047Y-75796357D01*
X167203428Y-75843976D01*
X167108190Y-75891595D01*
X166870095Y-75891595D01*
X166774857Y-75843976D01*
X166727238Y-75796357D01*
X166679619Y-75701119D01*
X166679619Y-75415405D01*
X166727238Y-75320167D01*
X166774857Y-75272548D01*
X153979619Y-74104571D02*
X153979619Y-73533142D01*
X153979619Y-73818857D02*
X154979619Y-73818857D01*
X154836761Y-73723618D01*
X154741523Y-73628380D01*
X154693904Y-73533142D01*
X154979619Y-74437904D02*
X154979619Y-75056952D01*
X154598666Y-74723618D01*
X154598666Y-74866476D01*
X154551047Y-74961714D01*
X154503428Y-75009333D01*
X154408190Y-75056952D01*
X154170095Y-75056952D01*
X154074857Y-75009333D01*
X154027238Y-74961714D01*
X153979619Y-74866476D01*
X153979619Y-74580761D01*
X154027238Y-74485523D01*
X154074857Y-74437904D01*
X154979619Y-75390285D02*
X154979619Y-76009333D01*
X154598666Y-75675999D01*
X154598666Y-75818857D01*
X154551047Y-75914095D01*
X154503428Y-75961714D01*
X154408190Y-76009333D01*
X154170095Y-76009333D01*
X154074857Y-75961714D01*
X154027238Y-75914095D01*
X153979619Y-75818857D01*
X153979619Y-75533142D01*
X154027238Y-75437904D01*
X154074857Y-75390285D01*
X179278019Y-74104571D02*
X179278019Y-73533142D01*
X179278019Y-73818857D02*
X180278019Y-73818857D01*
X180135161Y-73723618D01*
X180039923Y-73628380D01*
X179992304Y-73533142D01*
X180182780Y-74485523D02*
X180230400Y-74533142D01*
X180278019Y-74628380D01*
X180278019Y-74866476D01*
X180230400Y-74961714D01*
X180182780Y-75009333D01*
X180087542Y-75056952D01*
X179992304Y-75056952D01*
X179849447Y-75009333D01*
X179278019Y-74437904D01*
X179278019Y-75056952D01*
X179278019Y-76009333D02*
X179278019Y-75437904D01*
X179278019Y-75723618D02*
X180278019Y-75723618D01*
X180135161Y-75628380D01*
X180039923Y-75533142D01*
X179992304Y-75437904D01*
X159154857Y-77255714D02*
X159107238Y-77208095D01*
X159059619Y-77065238D01*
X159059619Y-76970000D01*
X159107238Y-76827143D01*
X159202476Y-76731905D01*
X159297714Y-76684286D01*
X159488190Y-76636667D01*
X159631047Y-76636667D01*
X159821523Y-76684286D01*
X159916761Y-76731905D01*
X160012000Y-76827143D01*
X160059619Y-76970000D01*
X160059619Y-77065238D01*
X160012000Y-77208095D01*
X159964380Y-77255714D01*
X159059619Y-78160476D02*
X159059619Y-77684286D01*
X160059619Y-77684286D01*
X159059619Y-78493810D02*
X160059619Y-78493810D01*
X159059619Y-79065238D02*
X159631047Y-78636667D01*
X160059619Y-79065238D02*
X159488190Y-78493810D01*
X158637314Y-116098333D02*
X159303980Y-116098333D01*
X158256361Y-116336428D02*
X158970647Y-116574523D01*
X158970647Y-115955476D01*
X158303980Y-115145952D02*
X158303980Y-115336428D01*
X158351600Y-115431666D01*
X158399219Y-115479285D01*
X158542076Y-115574523D01*
X158732552Y-115622142D01*
X159113504Y-115622142D01*
X159208742Y-115574523D01*
X159256361Y-115526904D01*
X159303980Y-115431666D01*
X159303980Y-115241190D01*
X159256361Y-115145952D01*
X159208742Y-115098333D01*
X159113504Y-115050714D01*
X158875409Y-115050714D01*
X158780171Y-115098333D01*
X158732552Y-115145952D01*
X158684933Y-115241190D01*
X158684933Y-115431666D01*
X158732552Y-115526904D01*
X158780171Y-115574523D01*
X158875409Y-115622142D01*
X181570380Y-116050714D02*
X181570380Y-116526904D01*
X182046571Y-116574523D01*
X181998952Y-116526904D01*
X181951333Y-116431666D01*
X181951333Y-116193571D01*
X181998952Y-116098333D01*
X182046571Y-116050714D01*
X182141809Y-116003095D01*
X182379904Y-116003095D01*
X182475142Y-116050714D01*
X182522761Y-116098333D01*
X182570380Y-116193571D01*
X182570380Y-116431666D01*
X182522761Y-116526904D01*
X182475142Y-116574523D01*
X181570380Y-115669761D02*
X181570380Y-115050714D01*
X181951333Y-115384047D01*
X181951333Y-115241190D01*
X181998952Y-115145952D01*
X182046571Y-115098333D01*
X182141809Y-115050714D01*
X182379904Y-115050714D01*
X182475142Y-115098333D01*
X182522761Y-115145952D01*
X182570380Y-115241190D01*
X182570380Y-115526904D01*
X182522761Y-115622142D01*
X182475142Y-115669761D01*
X202639952Y-93726320D02*
X202544714Y-93678701D01*
X202497095Y-93631082D01*
X202449476Y-93535844D01*
X202449476Y-93488225D01*
X202497095Y-93392987D01*
X202544714Y-93345368D01*
X202639952Y-93297748D01*
X202830428Y-93297748D01*
X202925666Y-93345368D01*
X202973285Y-93392987D01*
X203020904Y-93488225D01*
X203020904Y-93535844D01*
X202973285Y-93631082D01*
X202925666Y-93678701D01*
X202830428Y-93726320D01*
X202639952Y-93726320D01*
X202544714Y-93773939D01*
X202497095Y-93821558D01*
X202449476Y-93916796D01*
X202449476Y-94107272D01*
X202497095Y-94202510D01*
X202544714Y-94250129D01*
X202639952Y-94297748D01*
X202830428Y-94297748D01*
X202925666Y-94250129D01*
X202973285Y-94202510D01*
X203020904Y-94107272D01*
X203020904Y-93916796D01*
X202973285Y-93821558D01*
X202925666Y-93773939D01*
X202830428Y-93726320D01*
X203354238Y-93297748D02*
X204020904Y-93297748D01*
X203592333Y-94297748D01*
X155662380Y-116622142D02*
X155662380Y-116003095D01*
X156043333Y-116336428D01*
X156043333Y-116193571D01*
X156090952Y-116098333D01*
X156138571Y-116050714D01*
X156233809Y-116003095D01*
X156471904Y-116003095D01*
X156567142Y-116050714D01*
X156614761Y-116098333D01*
X156662380Y-116193571D01*
X156662380Y-116479285D01*
X156614761Y-116574523D01*
X156567142Y-116622142D01*
X156662380Y-115050714D02*
X156662380Y-115622142D01*
X156662380Y-115336428D02*
X155662380Y-115336428D01*
X155805238Y-115431666D01*
X155900476Y-115526904D01*
X155948095Y-115622142D01*
X161278914Y-116098333D02*
X161945580Y-116098333D01*
X160897961Y-116336428D02*
X161612247Y-116574523D01*
X161612247Y-115955476D01*
X161278914Y-115145952D02*
X161945580Y-115145952D01*
X160897961Y-115384047D02*
X161612247Y-115622142D01*
X161612247Y-115003095D01*
X161599619Y-74104571D02*
X161599619Y-73533142D01*
X161599619Y-73818857D02*
X162599619Y-73818857D01*
X162456761Y-73723618D01*
X162361523Y-73628380D01*
X162313904Y-73533142D01*
X162504380Y-74485523D02*
X162552000Y-74533142D01*
X162599619Y-74628380D01*
X162599619Y-74866476D01*
X162552000Y-74961714D01*
X162504380Y-75009333D01*
X162409142Y-75056952D01*
X162313904Y-75056952D01*
X162171047Y-75009333D01*
X161599619Y-74437904D01*
X161599619Y-75056952D01*
X162171047Y-75628380D02*
X162218666Y-75533142D01*
X162266285Y-75485523D01*
X162361523Y-75437904D01*
X162409142Y-75437904D01*
X162504380Y-75485523D01*
X162552000Y-75533142D01*
X162599619Y-75628380D01*
X162599619Y-75818857D01*
X162552000Y-75914095D01*
X162504380Y-75961714D01*
X162409142Y-76009333D01*
X162361523Y-76009333D01*
X162266285Y-75961714D01*
X162218666Y-75914095D01*
X162171047Y-75818857D01*
X162171047Y-75628380D01*
X162123428Y-75533142D01*
X162075809Y-75485523D01*
X161980571Y-75437904D01*
X161790095Y-75437904D01*
X161694857Y-75485523D01*
X161647238Y-75533142D01*
X161599619Y-75628380D01*
X161599619Y-75818857D01*
X161647238Y-75914095D01*
X161694857Y-75961714D01*
X161790095Y-76009333D01*
X161980571Y-76009333D01*
X162075809Y-75961714D01*
X162123428Y-75914095D01*
X162171047Y-75818857D01*
X193806523Y-90875442D02*
X193330333Y-90875442D01*
X193282714Y-91351633D01*
X193330333Y-91304014D01*
X193425571Y-91256395D01*
X193663666Y-91256395D01*
X193758904Y-91304014D01*
X193806523Y-91351633D01*
X193854142Y-91446871D01*
X193854142Y-91684966D01*
X193806523Y-91780204D01*
X193758904Y-91827823D01*
X193663666Y-91875442D01*
X193425571Y-91875442D01*
X193330333Y-91827823D01*
X193282714Y-91780204D01*
X194425571Y-91304014D02*
X194330333Y-91256395D01*
X194282714Y-91208776D01*
X194235095Y-91113538D01*
X194235095Y-91065919D01*
X194282714Y-90970681D01*
X194330333Y-90923062D01*
X194425571Y-90875442D01*
X194616047Y-90875442D01*
X194711285Y-90923062D01*
X194758904Y-90970681D01*
X194806523Y-91065919D01*
X194806523Y-91113538D01*
X194758904Y-91208776D01*
X194711285Y-91256395D01*
X194616047Y-91304014D01*
X194425571Y-91304014D01*
X194330333Y-91351633D01*
X194282714Y-91399252D01*
X194235095Y-91494490D01*
X194235095Y-91684966D01*
X194282714Y-91780204D01*
X194330333Y-91827823D01*
X194425571Y-91875442D01*
X194616047Y-91875442D01*
X194711285Y-91827823D01*
X194758904Y-91780204D01*
X194806523Y-91684966D01*
X194806523Y-91494490D01*
X194758904Y-91399252D01*
X194711285Y-91351633D01*
X194616047Y-91304014D01*
X193235095Y-103744772D02*
X193901761Y-103744772D01*
X193473190Y-104744772D01*
X194711285Y-103744772D02*
X194520809Y-103744772D01*
X194425571Y-103792392D01*
X194377952Y-103840011D01*
X194282714Y-103982868D01*
X194235095Y-104173344D01*
X194235095Y-104554296D01*
X194282714Y-104649534D01*
X194330333Y-104697153D01*
X194425571Y-104744772D01*
X194616047Y-104744772D01*
X194711285Y-104697153D01*
X194758904Y-104649534D01*
X194806523Y-104554296D01*
X194806523Y-104316201D01*
X194758904Y-104220963D01*
X194711285Y-104173344D01*
X194616047Y-104125725D01*
X194425571Y-104125725D01*
X194330333Y-104173344D01*
X194282714Y-104220963D01*
X194235095Y-104316201D01*
X193473190Y-101599478D02*
X193377952Y-101551859D01*
X193330333Y-101504240D01*
X193282714Y-101409002D01*
X193282714Y-101361383D01*
X193330333Y-101266145D01*
X193377952Y-101218526D01*
X193473190Y-101170906D01*
X193663666Y-101170906D01*
X193758904Y-101218526D01*
X193806523Y-101266145D01*
X193854142Y-101361383D01*
X193854142Y-101409002D01*
X193806523Y-101504240D01*
X193758904Y-101551859D01*
X193663666Y-101599478D01*
X193473190Y-101599478D01*
X193377952Y-101647097D01*
X193330333Y-101694716D01*
X193282714Y-101789954D01*
X193282714Y-101980430D01*
X193330333Y-102075668D01*
X193377952Y-102123287D01*
X193473190Y-102170906D01*
X193663666Y-102170906D01*
X193758904Y-102123287D01*
X193806523Y-102075668D01*
X193854142Y-101980430D01*
X193854142Y-101789954D01*
X193806523Y-101694716D01*
X193758904Y-101647097D01*
X193663666Y-101599478D01*
X194473190Y-101170906D02*
X194568428Y-101170906D01*
X194663666Y-101218526D01*
X194711285Y-101266145D01*
X194758904Y-101361383D01*
X194806523Y-101551859D01*
X194806523Y-101789954D01*
X194758904Y-101980430D01*
X194711285Y-102075668D01*
X194663666Y-102123287D01*
X194568428Y-102170906D01*
X194473190Y-102170906D01*
X194377952Y-102123287D01*
X194330333Y-102075668D01*
X194282714Y-101980430D01*
X194235095Y-101789954D01*
X194235095Y-101551859D01*
X194282714Y-101361383D01*
X194330333Y-101266145D01*
X194377952Y-101218526D01*
X194473190Y-101170906D01*
X193377952Y-89301576D02*
X193568428Y-89301576D01*
X193663666Y-89253957D01*
X193711285Y-89206338D01*
X193806523Y-89063481D01*
X193854142Y-88873005D01*
X193854142Y-88492053D01*
X193806523Y-88396815D01*
X193758904Y-88349196D01*
X193663666Y-88301576D01*
X193473190Y-88301576D01*
X193377952Y-88349196D01*
X193330333Y-88396815D01*
X193282714Y-88492053D01*
X193282714Y-88730148D01*
X193330333Y-88825386D01*
X193377952Y-88873005D01*
X193473190Y-88920624D01*
X193663666Y-88920624D01*
X193758904Y-88873005D01*
X193806523Y-88825386D01*
X193854142Y-88730148D01*
X194330333Y-89301576D02*
X194520809Y-89301576D01*
X194616047Y-89253957D01*
X194663666Y-89206338D01*
X194758904Y-89063481D01*
X194806523Y-88873005D01*
X194806523Y-88492053D01*
X194758904Y-88396815D01*
X194711285Y-88349196D01*
X194616047Y-88301576D01*
X194425571Y-88301576D01*
X194330333Y-88349196D01*
X194282714Y-88396815D01*
X194235095Y-88492053D01*
X194235095Y-88730148D01*
X194282714Y-88825386D01*
X194330333Y-88873005D01*
X194425571Y-88920624D01*
X194616047Y-88920624D01*
X194711285Y-88873005D01*
X194758904Y-88825386D01*
X194806523Y-88730148D01*
X161694857Y-77255714D02*
X161647238Y-77208095D01*
X161599619Y-77065238D01*
X161599619Y-76970000D01*
X161647238Y-76827142D01*
X161742476Y-76731904D01*
X161837714Y-76684285D01*
X162028190Y-76636666D01*
X162171047Y-76636666D01*
X162361523Y-76684285D01*
X162456761Y-76731904D01*
X162552000Y-76827142D01*
X162599619Y-76970000D01*
X162599619Y-77065238D01*
X162552000Y-77208095D01*
X162504380Y-77255714D01*
X161647238Y-77636666D02*
X161599619Y-77779523D01*
X161599619Y-78017619D01*
X161647238Y-78112857D01*
X161694857Y-78160476D01*
X161790095Y-78208095D01*
X161885333Y-78208095D01*
X161980571Y-78160476D01*
X162028190Y-78112857D01*
X162075809Y-78017619D01*
X162123428Y-77827142D01*
X162171047Y-77731904D01*
X162218666Y-77684285D01*
X162313904Y-77636666D01*
X162409142Y-77636666D01*
X162504380Y-77684285D01*
X162552000Y-77731904D01*
X162599619Y-77827142D01*
X162599619Y-78065238D01*
X162552000Y-78208095D01*
X183975619Y-112228380D02*
X184642285Y-113228380D01*
X184642285Y-112228380D02*
X183975619Y-113228380D01*
X185023238Y-113228380D02*
X185023238Y-112228380D01*
X185689904Y-112228380D02*
X185880380Y-112228380D01*
X185975619Y-112276000D01*
X186070857Y-112371238D01*
X186118476Y-112561714D01*
X186118476Y-112895047D01*
X186070857Y-113085523D01*
X185975619Y-113180761D01*
X185880380Y-113228380D01*
X185689904Y-113228380D01*
X185594666Y-113180761D01*
X185499428Y-113085523D01*
X185451809Y-112895047D01*
X185451809Y-112561714D01*
X185499428Y-112371238D01*
X185594666Y-112276000D01*
X185689904Y-112228380D01*
X186308952Y-113323619D02*
X187070857Y-113323619D01*
X187261333Y-112323619D02*
X187308952Y-112276000D01*
X187404190Y-112228380D01*
X187642285Y-112228380D01*
X187737523Y-112276000D01*
X187785142Y-112323619D01*
X187832761Y-112418857D01*
X187832761Y-112514095D01*
X187785142Y-112656952D01*
X187213714Y-113228380D01*
X187832761Y-113228380D01*
X161115619Y-111974380D02*
X161782285Y-112974380D01*
X161782285Y-111974380D02*
X161115619Y-112974380D01*
X162163238Y-112974380D02*
X162163238Y-111974380D01*
X162829904Y-111974380D02*
X163020380Y-111974380D01*
X163115619Y-112022000D01*
X163210857Y-112117238D01*
X163258476Y-112307714D01*
X163258476Y-112641047D01*
X163210857Y-112831523D01*
X163115619Y-112926761D01*
X163020380Y-112974380D01*
X162829904Y-112974380D01*
X162734666Y-112926761D01*
X162639428Y-112831523D01*
X162591809Y-112641047D01*
X162591809Y-112307714D01*
X162639428Y-112117238D01*
X162734666Y-112022000D01*
X162829904Y-111974380D01*
X163448952Y-113069619D02*
X164210857Y-113069619D01*
X164877523Y-112307714D02*
X164877523Y-112974380D01*
X164639428Y-111926761D02*
X164401333Y-112641047D01*
X165020380Y-112641047D01*
X203020904Y-84078064D02*
X202449475Y-84078064D01*
X202735190Y-84078064D02*
X202735190Y-83078064D01*
X202639951Y-83220922D01*
X202544713Y-83316160D01*
X202449475Y-83363779D01*
X203639951Y-83078064D02*
X203735190Y-83078064D01*
X203830428Y-83125684D01*
X203878047Y-83173303D01*
X203925666Y-83268541D01*
X203973285Y-83459017D01*
X203973285Y-83697112D01*
X203925666Y-83887588D01*
X203878047Y-83982826D01*
X203830428Y-84030445D01*
X203735190Y-84078064D01*
X203639951Y-84078064D01*
X203544713Y-84030445D01*
X203497094Y-83982826D01*
X203449475Y-83887588D01*
X203401856Y-83697112D01*
X203401856Y-83459017D01*
X203449475Y-83268541D01*
X203497094Y-83173303D01*
X203544713Y-83125684D01*
X203639951Y-83078064D01*
X204306618Y-83078064D02*
X204925666Y-83078064D01*
X204592332Y-83459017D01*
X204735190Y-83459017D01*
X204830428Y-83506636D01*
X204878047Y-83554255D01*
X204925666Y-83649493D01*
X204925666Y-83887588D01*
X204878047Y-83982826D01*
X204830428Y-84030445D01*
X204735190Y-84078064D01*
X204449475Y-84078064D01*
X204354237Y-84030445D01*
X204306618Y-83982826D01*
X127801619Y-73463024D02*
X127801619Y-74082072D01*
X127420666Y-73748738D01*
X127420666Y-73891595D01*
X127373047Y-73986833D01*
X127325428Y-74034452D01*
X127230190Y-74082072D01*
X126992095Y-74082072D01*
X126896857Y-74034452D01*
X126849238Y-73986833D01*
X126801619Y-73891595D01*
X126801619Y-73605881D01*
X126849238Y-73510643D01*
X126896857Y-73463024D01*
X127801619Y-74367786D02*
X126801619Y-74701119D01*
X127801619Y-75034452D01*
X127801619Y-75272548D02*
X127801619Y-75891595D01*
X127420666Y-75558262D01*
X127420666Y-75701119D01*
X127373047Y-75796357D01*
X127325428Y-75843976D01*
X127230190Y-75891595D01*
X126992095Y-75891595D01*
X126896857Y-75843976D01*
X126849238Y-75796357D01*
X126801619Y-75701119D01*
X126801619Y-75415405D01*
X126849238Y-75320167D01*
X126896857Y-75272548D01*
D11*
X194438428Y-115957000D02*
X194367000Y-115921285D01*
X194259857Y-115921285D01*
X194152714Y-115957000D01*
X194081285Y-116028428D01*
X194045571Y-116099857D01*
X194009857Y-116242714D01*
X194009857Y-116349857D01*
X194045571Y-116492714D01*
X194081285Y-116564142D01*
X194152714Y-116635571D01*
X194259857Y-116671285D01*
X194331285Y-116671285D01*
X194438428Y-116635571D01*
X194474142Y-116599857D01*
X194474142Y-116349857D01*
X194331285Y-116349857D01*
X194795571Y-116671285D02*
X194795571Y-115921285D01*
X195224142Y-116671285D01*
X195224142Y-115921285D01*
X195581285Y-116671285D02*
X195581285Y-115921285D01*
X195759857Y-115921285D01*
X195867000Y-115957000D01*
X195938428Y-116028428D01*
X195974142Y-116099857D01*
X196009857Y-116242714D01*
X196009857Y-116349857D01*
X195974142Y-116492714D01*
X195938428Y-116564142D01*
X195867000Y-116635571D01*
X195759857Y-116671285D01*
X195581285Y-116671285D01*
D10*
X136961619Y-78938666D02*
X137961619Y-78938666D01*
X137961619Y-79319619D01*
X137914000Y-79414857D01*
X137866380Y-79462476D01*
X137771142Y-79510095D01*
X137628285Y-79510095D01*
X137533047Y-79462476D01*
X137485428Y-79414857D01*
X137437809Y-79319619D01*
X137437809Y-78938666D01*
X137247333Y-79891047D02*
X137247333Y-80367238D01*
X136961619Y-79795809D02*
X137961619Y-80129142D01*
X136961619Y-80462476D01*
X136628285Y-81081523D02*
X136628285Y-80843428D01*
X138056857Y-80843428D01*
X138056857Y-81081523D01*
X137628285Y-81891047D02*
X136961619Y-81891047D01*
X138009238Y-81652952D02*
X137294952Y-81414857D01*
X137294952Y-82033904D01*
X136628285Y-82319619D02*
X136628285Y-82557714D01*
X138056857Y-82557714D01*
X138056857Y-82319619D01*
X149852000Y-74082071D02*
X149899619Y-73986833D01*
X149899619Y-73843976D01*
X149852000Y-73701119D01*
X149756761Y-73605881D01*
X149661523Y-73558262D01*
X149471047Y-73510643D01*
X149328190Y-73510643D01*
X149137714Y-73558262D01*
X149042476Y-73605881D01*
X148947238Y-73701119D01*
X148899619Y-73843976D01*
X148899619Y-73939214D01*
X148947238Y-74082071D01*
X148994857Y-74129690D01*
X149328190Y-74129690D01*
X149328190Y-73939214D01*
X148899619Y-74558262D02*
X149899619Y-74558262D01*
X148899619Y-75129690D01*
X149899619Y-75129690D01*
X148899619Y-75605881D02*
X149899619Y-75605881D01*
X149899619Y-75843976D01*
X149852000Y-75986833D01*
X149756761Y-76082071D01*
X149661523Y-76129690D01*
X149471047Y-76177309D01*
X149328190Y-76177309D01*
X149137714Y-76129690D01*
X149042476Y-76082071D01*
X148947238Y-75986833D01*
X148899619Y-75843976D01*
X148899619Y-75605881D01*
X139501619Y-78938666D02*
X140501619Y-78938666D01*
X140501619Y-79319619D01*
X140454000Y-79414857D01*
X140406380Y-79462476D01*
X140311142Y-79510095D01*
X140168285Y-79510095D01*
X140073047Y-79462476D01*
X140025428Y-79414857D01*
X139977809Y-79319619D01*
X139977809Y-78938666D01*
X139787333Y-79891047D02*
X139787333Y-80367238D01*
X139501619Y-79795809D02*
X140501619Y-80129142D01*
X139501619Y-80462476D01*
X139168285Y-81081523D02*
X139168285Y-80843428D01*
X140596857Y-80843428D01*
X140596857Y-81081523D01*
X140501619Y-81938666D02*
X140501619Y-81462476D01*
X140025428Y-81414857D01*
X140073047Y-81462476D01*
X140120666Y-81557714D01*
X140120666Y-81795809D01*
X140073047Y-81891047D01*
X140025428Y-81938666D01*
X139930190Y-81986285D01*
X139692095Y-81986285D01*
X139596857Y-81938666D01*
X139549238Y-81891047D01*
X139501619Y-81795809D01*
X139501619Y-81557714D01*
X139549238Y-81462476D01*
X139596857Y-81414857D01*
X139168285Y-82319619D02*
X139168285Y-82557714D01*
X140596857Y-82557714D01*
X140596857Y-82319619D01*
X203020904Y-86632985D02*
X202449475Y-86632985D01*
X202735190Y-86632985D02*
X202735190Y-85632985D01*
X202639951Y-85775843D01*
X202544713Y-85871081D01*
X202449475Y-85918700D01*
X203639951Y-85632985D02*
X203735190Y-85632985D01*
X203830428Y-85680605D01*
X203878047Y-85728224D01*
X203925666Y-85823462D01*
X203973285Y-86013938D01*
X203973285Y-86252033D01*
X203925666Y-86442509D01*
X203878047Y-86537747D01*
X203830428Y-86585366D01*
X203735190Y-86632985D01*
X203639951Y-86632985D01*
X203544713Y-86585366D01*
X203497094Y-86537747D01*
X203449475Y-86442509D01*
X203401856Y-86252033D01*
X203401856Y-86013938D01*
X203449475Y-85823462D01*
X203497094Y-85728224D01*
X203544713Y-85680605D01*
X203639951Y-85632985D01*
X204592332Y-85632985D02*
X204687571Y-85632985D01*
X204782809Y-85680605D01*
X204830428Y-85728224D01*
X204878047Y-85823462D01*
X204925666Y-86013938D01*
X204925666Y-86252033D01*
X204878047Y-86442509D01*
X204830428Y-86537747D01*
X204782809Y-86585366D01*
X204687571Y-86632985D01*
X204592332Y-86632985D01*
X204497094Y-86585366D01*
X204449475Y-86537747D01*
X204401856Y-86442509D01*
X204354237Y-86252033D01*
X204354237Y-86013938D01*
X204401856Y-85823462D01*
X204449475Y-85728224D01*
X204497094Y-85680605D01*
X204592332Y-85632985D01*
D12*
X178113428Y-76819428D02*
X178113428Y-77676571D01*
X176613428Y-77248000D02*
X178113428Y-77248000D01*
X178113428Y-77962285D02*
X178113428Y-78819428D01*
X176613428Y-78390857D02*
X178113428Y-78390857D01*
X177327714Y-79605142D02*
X176613428Y-79605142D01*
X178113428Y-79105142D02*
X177327714Y-79605142D01*
X178113428Y-80105142D01*
X178113428Y-80890857D02*
X178113428Y-81176571D01*
X178042000Y-81319428D01*
X177899142Y-81462285D01*
X177613428Y-81533714D01*
X177113428Y-81533714D01*
X176827714Y-81462285D01*
X176684857Y-81319428D01*
X176613428Y-81176571D01*
X176613428Y-80890857D01*
X176684857Y-80748000D01*
X176827714Y-80605142D01*
X177113428Y-80533714D01*
X177613428Y-80533714D01*
X177899142Y-80605142D01*
X178042000Y-80748000D01*
X178113428Y-80890857D01*
D10*
X139501619Y-74104571D02*
X139501619Y-73533142D01*
X139501619Y-73818857D02*
X140501619Y-73818857D01*
X140358761Y-73723618D01*
X140263523Y-73628380D01*
X140215904Y-73533142D01*
X140501619Y-74437904D02*
X140501619Y-75056952D01*
X140120666Y-74723618D01*
X140120666Y-74866476D01*
X140073047Y-74961714D01*
X140025428Y-75009333D01*
X139930190Y-75056952D01*
X139692095Y-75056952D01*
X139596857Y-75009333D01*
X139549238Y-74961714D01*
X139501619Y-74866476D01*
X139501619Y-74580761D01*
X139549238Y-74485523D01*
X139596857Y-74437904D01*
X140073047Y-75628380D02*
X140120666Y-75533142D01*
X140168285Y-75485523D01*
X140263523Y-75437904D01*
X140311142Y-75437904D01*
X140406380Y-75485523D01*
X140454000Y-75533142D01*
X140501619Y-75628380D01*
X140501619Y-75818857D01*
X140454000Y-75914095D01*
X140406380Y-75961714D01*
X140311142Y-76009333D01*
X140263523Y-76009333D01*
X140168285Y-75961714D01*
X140120666Y-75914095D01*
X140073047Y-75818857D01*
X140073047Y-75628380D01*
X140025428Y-75533142D01*
X139977809Y-75485523D01*
X139882571Y-75437904D01*
X139692095Y-75437904D01*
X139596857Y-75485523D01*
X139549238Y-75533142D01*
X139501619Y-75628380D01*
X139501619Y-75818857D01*
X139549238Y-75914095D01*
X139596857Y-75961714D01*
X139692095Y-76009333D01*
X139882571Y-76009333D01*
X139977809Y-75961714D01*
X140025428Y-75914095D01*
X140073047Y-75818857D01*
X202401857Y-100962511D02*
X203068523Y-100962511D01*
X202639952Y-101962511D01*
X203354238Y-100962511D02*
X204020904Y-100962511D01*
X203592333Y-101962511D01*
X168870380Y-116050714D02*
X168870380Y-116526904D01*
X169346571Y-116574523D01*
X169298952Y-116526904D01*
X169251333Y-116431666D01*
X169251333Y-116193571D01*
X169298952Y-116098333D01*
X169346571Y-116050714D01*
X169441809Y-116003095D01*
X169679904Y-116003095D01*
X169775142Y-116050714D01*
X169822761Y-116098333D01*
X169870380Y-116193571D01*
X169870380Y-116431666D01*
X169822761Y-116526904D01*
X169775142Y-116574523D01*
X168870380Y-115384047D02*
X168870380Y-115288809D01*
X168918000Y-115193571D01*
X168965619Y-115145952D01*
X169060857Y-115098333D01*
X169251333Y-115050714D01*
X169489428Y-115050714D01*
X169679904Y-115098333D01*
X169775142Y-115145952D01*
X169822761Y-115193571D01*
X169870380Y-115288809D01*
X169870380Y-115384047D01*
X169822761Y-115479285D01*
X169775142Y-115526904D01*
X169679904Y-115574523D01*
X169489428Y-115622142D01*
X169251333Y-115622142D01*
X169060857Y-115574523D01*
X168965619Y-115526904D01*
X168918000Y-115479285D01*
X168870380Y-115384047D01*
X192901761Y-79006112D02*
X192330332Y-79006112D01*
X192616047Y-79006112D02*
X192616047Y-78006112D01*
X192520808Y-78148970D01*
X192425570Y-78244208D01*
X192330332Y-78291827D01*
X193854142Y-79006112D02*
X193282713Y-79006112D01*
X193568428Y-79006112D02*
X193568428Y-78006112D01*
X193473189Y-78148970D01*
X193377951Y-78244208D01*
X193282713Y-78291827D01*
X194806523Y-79006112D02*
X194235094Y-79006112D01*
X194520808Y-79006112D02*
X194520808Y-78006112D01*
X194425570Y-78148970D01*
X194330332Y-78244208D01*
X194235094Y-78291827D01*
X203020904Y-81523143D02*
X202449475Y-81523143D01*
X202735190Y-81523143D02*
X202735190Y-80523143D01*
X202639951Y-80666001D01*
X202544713Y-80761239D01*
X202449475Y-80808858D01*
X203639951Y-80523143D02*
X203735190Y-80523143D01*
X203830428Y-80570763D01*
X203878047Y-80618382D01*
X203925666Y-80713620D01*
X203973285Y-80904096D01*
X203973285Y-81142191D01*
X203925666Y-81332667D01*
X203878047Y-81427905D01*
X203830428Y-81475524D01*
X203735190Y-81523143D01*
X203639951Y-81523143D01*
X203544713Y-81475524D01*
X203497094Y-81427905D01*
X203449475Y-81332667D01*
X203401856Y-81142191D01*
X203401856Y-80904096D01*
X203449475Y-80713620D01*
X203497094Y-80618382D01*
X203544713Y-80570763D01*
X203639951Y-80523143D01*
X204878047Y-80523143D02*
X204401856Y-80523143D01*
X204354237Y-80999334D01*
X204401856Y-80951715D01*
X204497094Y-80904096D01*
X204735190Y-80904096D01*
X204830428Y-80951715D01*
X204878047Y-80999334D01*
X204925666Y-81094572D01*
X204925666Y-81332667D01*
X204878047Y-81427905D01*
X204830428Y-81475524D01*
X204735190Y-81523143D01*
X204497094Y-81523143D01*
X204401856Y-81475524D01*
X204354237Y-81427905D01*
X193235095Y-111466380D02*
X193901761Y-111466380D01*
X193473190Y-112466380D01*
X194473190Y-111466380D02*
X194568428Y-111466380D01*
X194663666Y-111514000D01*
X194711285Y-111561619D01*
X194758904Y-111656857D01*
X194806523Y-111847333D01*
X194806523Y-112085428D01*
X194758904Y-112275904D01*
X194711285Y-112371142D01*
X194663666Y-112418761D01*
X194568428Y-112466380D01*
X194473190Y-112466380D01*
X194377952Y-112418761D01*
X194330333Y-112371142D01*
X194282714Y-112275904D01*
X194235095Y-112085428D01*
X194235095Y-111847333D01*
X194282714Y-111656857D01*
X194330333Y-111561619D01*
X194377952Y-111514000D01*
X194473190Y-111466380D01*
X146058000Y-115980595D02*
X146010380Y-116075833D01*
X146010380Y-116218690D01*
X146058000Y-116361547D01*
X146153238Y-116456785D01*
X146248476Y-116504404D01*
X146438952Y-116552023D01*
X146581809Y-116552023D01*
X146772285Y-116504404D01*
X146867523Y-116456785D01*
X146962761Y-116361547D01*
X147010380Y-116218690D01*
X147010380Y-116123452D01*
X146962761Y-115980595D01*
X146915142Y-115932976D01*
X146581809Y-115932976D01*
X146581809Y-116123452D01*
X147010380Y-115504404D02*
X146010380Y-115504404D01*
X147010380Y-114932976D01*
X146010380Y-114932976D01*
X147010380Y-114456785D02*
X146010380Y-114456785D01*
X146010380Y-114218690D01*
X146058000Y-114075833D01*
X146153238Y-113980595D01*
X146248476Y-113932976D01*
X146438952Y-113885357D01*
X146581809Y-113885357D01*
X146772285Y-113932976D01*
X146867523Y-113980595D01*
X146962761Y-114075833D01*
X147010380Y-114218690D01*
X147010380Y-114456785D01*
X193758904Y-93449308D02*
X193568428Y-93449308D01*
X193473190Y-93496928D01*
X193425571Y-93544547D01*
X193330333Y-93687404D01*
X193282714Y-93877880D01*
X193282714Y-94258832D01*
X193330333Y-94354070D01*
X193377952Y-94401689D01*
X193473190Y-94449308D01*
X193663666Y-94449308D01*
X193758904Y-94401689D01*
X193806523Y-94354070D01*
X193854142Y-94258832D01*
X193854142Y-94020737D01*
X193806523Y-93925499D01*
X193758904Y-93877880D01*
X193663666Y-93830261D01*
X193473190Y-93830261D01*
X193377952Y-93877880D01*
X193330333Y-93925499D01*
X193282714Y-94020737D01*
X194758904Y-93449308D02*
X194282714Y-93449308D01*
X194235095Y-93925499D01*
X194282714Y-93877880D01*
X194377952Y-93830261D01*
X194616047Y-93830261D01*
X194711285Y-93877880D01*
X194758904Y-93925499D01*
X194806523Y-94020737D01*
X194806523Y-94258832D01*
X194758904Y-94354070D01*
X194711285Y-94401689D01*
X194616047Y-94449308D01*
X194377952Y-94449308D01*
X194282714Y-94401689D01*
X194235095Y-94354070D01*
X203020904Y-73858380D02*
X202449475Y-73858380D01*
X202735190Y-73858380D02*
X202735190Y-72858380D01*
X202639951Y-73001238D01*
X202544713Y-73096476D01*
X202449475Y-73144095D01*
X203973285Y-73858380D02*
X203401856Y-73858380D01*
X203687571Y-73858380D02*
X203687571Y-72858380D01*
X203592332Y-73001238D01*
X203497094Y-73096476D01*
X203401856Y-73144095D01*
X204830428Y-73191714D02*
X204830428Y-73858380D01*
X204592332Y-72810761D02*
X204354237Y-73525047D01*
X204973285Y-73525047D01*
X189190380Y-116050714D02*
X189190380Y-116526904D01*
X189666571Y-116574523D01*
X189618952Y-116526904D01*
X189571333Y-116431666D01*
X189571333Y-116193571D01*
X189618952Y-116098333D01*
X189666571Y-116050714D01*
X189761809Y-116003095D01*
X189999904Y-116003095D01*
X190095142Y-116050714D01*
X190142761Y-116098333D01*
X190190380Y-116193571D01*
X190190380Y-116431666D01*
X190142761Y-116526904D01*
X190095142Y-116574523D01*
X189523714Y-115145952D02*
X190190380Y-115145952D01*
X189142761Y-115384047D02*
X189857047Y-115622142D01*
X189857047Y-115003095D01*
X130294000Y-74082071D02*
X130341619Y-73986833D01*
X130341619Y-73843976D01*
X130294000Y-73701119D01*
X130198761Y-73605881D01*
X130103523Y-73558262D01*
X129913047Y-73510643D01*
X129770190Y-73510643D01*
X129579714Y-73558262D01*
X129484476Y-73605881D01*
X129389238Y-73701119D01*
X129341619Y-73843976D01*
X129341619Y-73939214D01*
X129389238Y-74082071D01*
X129436857Y-74129690D01*
X129770190Y-74129690D01*
X129770190Y-73939214D01*
X129341619Y-74558262D02*
X130341619Y-74558262D01*
X129341619Y-75129690D01*
X130341619Y-75129690D01*
X129341619Y-75605881D02*
X130341619Y-75605881D01*
X130341619Y-75843976D01*
X130294000Y-75986833D01*
X130198761Y-76082071D01*
X130103523Y-76129690D01*
X129913047Y-76177309D01*
X129770190Y-76177309D01*
X129579714Y-76129690D01*
X129484476Y-76082071D01*
X129389238Y-75986833D01*
X129341619Y-75843976D01*
X129341619Y-75605881D01*
X181767219Y-74104571D02*
X181767219Y-73533142D01*
X181767219Y-73818857D02*
X182767219Y-73818857D01*
X182624361Y-73723618D01*
X182529123Y-73628380D01*
X182481504Y-73533142D01*
X182671980Y-74485523D02*
X182719600Y-74533142D01*
X182767219Y-74628380D01*
X182767219Y-74866476D01*
X182719600Y-74961714D01*
X182671980Y-75009333D01*
X182576742Y-75056952D01*
X182481504Y-75056952D01*
X182338647Y-75009333D01*
X181767219Y-74437904D01*
X181767219Y-75056952D01*
X182433885Y-75914095D02*
X181767219Y-75914095D01*
X182814838Y-75675999D02*
X182100552Y-75437904D01*
X182100552Y-76056952D01*
D11*
X202820428Y-113671000D02*
X202749000Y-113635285D01*
X202641857Y-113635285D01*
X202534714Y-113671000D01*
X202463285Y-113742428D01*
X202427571Y-113813857D01*
X202391857Y-113956714D01*
X202391857Y-114063857D01*
X202427571Y-114206714D01*
X202463285Y-114278142D01*
X202534714Y-114349571D01*
X202641857Y-114385285D01*
X202713285Y-114385285D01*
X202820428Y-114349571D01*
X202856142Y-114313857D01*
X202856142Y-114063857D01*
X202713285Y-114063857D01*
X203177571Y-114385285D02*
X203177571Y-113635285D01*
X203606142Y-114385285D01*
X203606142Y-113635285D01*
X203963285Y-114385285D02*
X203963285Y-113635285D01*
X204141857Y-113635285D01*
X204249000Y-113671000D01*
X204320428Y-113742428D01*
X204356142Y-113813857D01*
X204391857Y-113956714D01*
X204391857Y-114063857D01*
X204356142Y-114206714D01*
X204320428Y-114278142D01*
X204249000Y-114349571D01*
X204141857Y-114385285D01*
X203963285Y-114385285D01*
D10*
X153630380Y-116647261D02*
X154630380Y-116313928D01*
X153630380Y-115980595D01*
X154630380Y-115647261D02*
X153630380Y-115647261D01*
X154630380Y-115171071D02*
X153630380Y-115171071D01*
X154630380Y-114599642D01*
X153630380Y-114599642D01*
X192901761Y-86727710D02*
X192330332Y-86727710D01*
X192616047Y-86727710D02*
X192616047Y-85727710D01*
X192520808Y-85870568D01*
X192425570Y-85965806D01*
X192330332Y-86013425D01*
X193520808Y-85727710D02*
X193616047Y-85727710D01*
X193711285Y-85775330D01*
X193758904Y-85822949D01*
X193806523Y-85918187D01*
X193854142Y-86108663D01*
X193854142Y-86346758D01*
X193806523Y-86537234D01*
X193758904Y-86632472D01*
X193711285Y-86680091D01*
X193616047Y-86727710D01*
X193520808Y-86727710D01*
X193425570Y-86680091D01*
X193377951Y-86632472D01*
X193330332Y-86537234D01*
X193282713Y-86346758D01*
X193282713Y-86108663D01*
X193330332Y-85918187D01*
X193377951Y-85822949D01*
X193425570Y-85775330D01*
X193520808Y-85727710D01*
X194806523Y-86727710D02*
X194235094Y-86727710D01*
X194520808Y-86727710D02*
X194520808Y-85727710D01*
X194425570Y-85870568D01*
X194330332Y-85965806D01*
X194235094Y-86013425D01*
X164345809Y-79351238D02*
X164202952Y-79303619D01*
X163964857Y-79303619D01*
X163869619Y-79351238D01*
X163822000Y-79398857D01*
X163774380Y-79494095D01*
X163774380Y-79589333D01*
X163822000Y-79684571D01*
X163869619Y-79732190D01*
X163964857Y-79779809D01*
X164155333Y-79827428D01*
X164250571Y-79875047D01*
X164298190Y-79922666D01*
X164345809Y-80017904D01*
X164345809Y-80113142D01*
X164298190Y-80208380D01*
X164250571Y-80256000D01*
X164155333Y-80303619D01*
X163917238Y-80303619D01*
X163774380Y-80256000D01*
X163345809Y-79303619D02*
X163345809Y-80303619D01*
X162964857Y-80303619D01*
X162869619Y-80256000D01*
X162822000Y-80208380D01*
X162774380Y-80113142D01*
X162774380Y-79970285D01*
X162822000Y-79875047D01*
X162869619Y-79827428D01*
X162964857Y-79779809D01*
X163345809Y-79779809D01*
X162345809Y-79303619D02*
X162345809Y-80303619D01*
X193473190Y-96451746D02*
X193377952Y-96404127D01*
X193330333Y-96356508D01*
X193282714Y-96261270D01*
X193282714Y-96213651D01*
X193330333Y-96118413D01*
X193377952Y-96070794D01*
X193473190Y-96023174D01*
X193663666Y-96023174D01*
X193758904Y-96070794D01*
X193806523Y-96118413D01*
X193854142Y-96213651D01*
X193854142Y-96261270D01*
X193806523Y-96356508D01*
X193758904Y-96404127D01*
X193663666Y-96451746D01*
X193473190Y-96451746D01*
X193377952Y-96499365D01*
X193330333Y-96546984D01*
X193282714Y-96642222D01*
X193282714Y-96832698D01*
X193330333Y-96927936D01*
X193377952Y-96975555D01*
X193473190Y-97023174D01*
X193663666Y-97023174D01*
X193758904Y-96975555D01*
X193806523Y-96927936D01*
X193854142Y-96832698D01*
X193854142Y-96642222D01*
X193806523Y-96546984D01*
X193758904Y-96499365D01*
X193663666Y-96451746D01*
X194711285Y-96023174D02*
X194520809Y-96023174D01*
X194425571Y-96070794D01*
X194377952Y-96118413D01*
X194282714Y-96261270D01*
X194235095Y-96451746D01*
X194235095Y-96832698D01*
X194282714Y-96927936D01*
X194330333Y-96975555D01*
X194425571Y-97023174D01*
X194616047Y-97023174D01*
X194711285Y-96975555D01*
X194758904Y-96927936D01*
X194806523Y-96832698D01*
X194806523Y-96594603D01*
X194758904Y-96499365D01*
X194711285Y-96451746D01*
X194616047Y-96404127D01*
X194425571Y-96404127D01*
X194330333Y-96451746D01*
X194282714Y-96499365D01*
X194235095Y-96594603D01*
X131881619Y-74104571D02*
X131881619Y-73533142D01*
X131881619Y-73818857D02*
X132881619Y-73818857D01*
X132738761Y-73723618D01*
X132643523Y-73628380D01*
X132595904Y-73533142D01*
X132548285Y-74961714D02*
X131881619Y-74961714D01*
X132929238Y-74723618D02*
X132214952Y-74485523D01*
X132214952Y-75104571D01*
X132881619Y-75390285D02*
X132881619Y-76009333D01*
X132500666Y-75675999D01*
X132500666Y-75818857D01*
X132453047Y-75914095D01*
X132405428Y-75961714D01*
X132310190Y-76009333D01*
X132072095Y-76009333D01*
X131976857Y-75961714D01*
X131929238Y-75914095D01*
X131881619Y-75818857D01*
X131881619Y-75533142D01*
X131929238Y-75437904D01*
X131976857Y-75390285D01*
X202401857Y-108627274D02*
X203068523Y-108627274D01*
X202639952Y-109627274D01*
X203973285Y-109627274D02*
X203401857Y-109627274D01*
X203687571Y-109627274D02*
X203687571Y-108627274D01*
X203592333Y-108770132D01*
X203497095Y-108865370D01*
X203401857Y-108912989D01*
X181767219Y-78867238D02*
X182767219Y-78867238D01*
X182767219Y-79248190D01*
X182719600Y-79343428D01*
X182671980Y-79391047D01*
X182576742Y-79438666D01*
X182433885Y-79438666D01*
X182338647Y-79391047D01*
X182291028Y-79343428D01*
X182243409Y-79248190D01*
X182243409Y-78867238D01*
X182291028Y-80200571D02*
X182243409Y-80343428D01*
X182195790Y-80391047D01*
X182100552Y-80438666D01*
X181957695Y-80438666D01*
X181862457Y-80391047D01*
X181814838Y-80343428D01*
X181767219Y-80248190D01*
X181767219Y-79867238D01*
X182767219Y-79867238D01*
X182767219Y-80200571D01*
X182719600Y-80295809D01*
X182671980Y-80343428D01*
X182576742Y-80391047D01*
X182481504Y-80391047D01*
X182386266Y-80343428D01*
X182338647Y-80295809D01*
X182291028Y-80200571D01*
X182291028Y-79867238D01*
X181433885Y-81152952D02*
X181433885Y-80914857D01*
X182862457Y-80914857D01*
X182862457Y-81152952D01*
X182767219Y-81438666D02*
X182767219Y-82105333D01*
X181767219Y-81676761D01*
X181433885Y-82391047D02*
X181433885Y-82629142D01*
X182862457Y-82629142D01*
X182862457Y-82391047D01*
X134421619Y-78938666D02*
X135421619Y-78938666D01*
X135421619Y-79319619D01*
X135374000Y-79414857D01*
X135326380Y-79462476D01*
X135231142Y-79510095D01*
X135088285Y-79510095D01*
X134993047Y-79462476D01*
X134945428Y-79414857D01*
X134897809Y-79319619D01*
X134897809Y-78938666D01*
X134707333Y-79891047D02*
X134707333Y-80367238D01*
X134421619Y-79795809D02*
X135421619Y-80129142D01*
X134421619Y-80462476D01*
X134088285Y-81081523D02*
X134088285Y-80843428D01*
X135516857Y-80843428D01*
X135516857Y-81081523D01*
X135421619Y-81367238D02*
X135421619Y-81986285D01*
X135040666Y-81652952D01*
X135040666Y-81795809D01*
X134993047Y-81891047D01*
X134945428Y-81938666D01*
X134850190Y-81986285D01*
X134612095Y-81986285D01*
X134516857Y-81938666D01*
X134469238Y-81891047D01*
X134421619Y-81795809D01*
X134421619Y-81510095D01*
X134469238Y-81414857D01*
X134516857Y-81367238D01*
X134088285Y-82319619D02*
X134088285Y-82557714D01*
X135516857Y-82557714D01*
X135516857Y-82319619D01*
X159059619Y-74104571D02*
X159059619Y-73533142D01*
X159059619Y-73818857D02*
X160059619Y-73818857D01*
X159916761Y-73723618D01*
X159821523Y-73628380D01*
X159773904Y-73533142D01*
X159964380Y-74485523D02*
X160012000Y-74533142D01*
X160059619Y-74628380D01*
X160059619Y-74866476D01*
X160012000Y-74961714D01*
X159964380Y-75009333D01*
X159869142Y-75056952D01*
X159773904Y-75056952D01*
X159631047Y-75009333D01*
X159059619Y-74437904D01*
X159059619Y-75056952D01*
X159059619Y-75533142D02*
X159059619Y-75723618D01*
X159107238Y-75818857D01*
X159154857Y-75866476D01*
X159297714Y-75961714D01*
X159488190Y-76009333D01*
X159869142Y-76009333D01*
X159964380Y-75961714D01*
X160012000Y-75914095D01*
X160059619Y-75818857D01*
X160059619Y-75628380D01*
X160012000Y-75533142D01*
X159964380Y-75485523D01*
X159869142Y-75437904D01*
X159631047Y-75437904D01*
X159535809Y-75485523D01*
X159488190Y-75533142D01*
X159440571Y-75628380D01*
X159440571Y-75818857D01*
X159488190Y-75914095D01*
X159535809Y-75961714D01*
X159631047Y-76009333D01*
X124261619Y-74104571D02*
X124261619Y-73533142D01*
X124261619Y-73818857D02*
X125261619Y-73818857D01*
X125118761Y-73723618D01*
X125023523Y-73628380D01*
X124975904Y-73533142D01*
X124928285Y-74961714D02*
X124261619Y-74961714D01*
X125309238Y-74723618D02*
X124594952Y-74485523D01*
X124594952Y-75104571D01*
X124928285Y-75914095D02*
X124261619Y-75914095D01*
X125309238Y-75675999D02*
X124594952Y-75437904D01*
X124594952Y-76056952D01*
X191539714Y-113903047D02*
X191539714Y-114141142D01*
X190111142Y-114141142D01*
X190111142Y-113903047D01*
X190206380Y-113331619D02*
X190206380Y-113236380D01*
X190254000Y-113141142D01*
X190301619Y-113093523D01*
X190396857Y-113045904D01*
X190587333Y-112998285D01*
X190825428Y-112998285D01*
X191015904Y-113045904D01*
X191111142Y-113093523D01*
X191158761Y-113141142D01*
X191206380Y-113236380D01*
X191206380Y-113331619D01*
X191158761Y-113426857D01*
X191111142Y-113474476D01*
X191015904Y-113522095D01*
X190825428Y-113569714D01*
X190587333Y-113569714D01*
X190396857Y-113522095D01*
X190301619Y-113474476D01*
X190254000Y-113426857D01*
X190206380Y-113331619D01*
X191539714Y-112664952D02*
X191539714Y-112426857D01*
X190111142Y-112426857D01*
X190111142Y-112664952D01*
X134421619Y-74104571D02*
X134421619Y-73533142D01*
X134421619Y-73818857D02*
X135421619Y-73818857D01*
X135278761Y-73723618D01*
X135183523Y-73628380D01*
X135135904Y-73533142D01*
X135088285Y-74961714D02*
X134421619Y-74961714D01*
X135469238Y-74723618D02*
X134754952Y-74485523D01*
X134754952Y-75104571D01*
X135326380Y-75437904D02*
X135374000Y-75485523D01*
X135421619Y-75580761D01*
X135421619Y-75818857D01*
X135374000Y-75914095D01*
X135326380Y-75961714D01*
X135231142Y-76009333D01*
X135135904Y-76009333D01*
X134993047Y-75961714D01*
X134421619Y-75390285D01*
X134421619Y-76009333D01*
X192901761Y-76432246D02*
X192330332Y-76432246D01*
X192616047Y-76432246D02*
X192616047Y-75432246D01*
X192520808Y-75575104D01*
X192425570Y-75670342D01*
X192330332Y-75717961D01*
X193854142Y-76432246D02*
X193282713Y-76432246D01*
X193568428Y-76432246D02*
X193568428Y-75432246D01*
X193473189Y-75575104D01*
X193377951Y-75670342D01*
X193282713Y-75717961D01*
X194187475Y-75432246D02*
X194806523Y-75432246D01*
X194473189Y-75813199D01*
X194616047Y-75813199D01*
X194711285Y-75860818D01*
X194758904Y-75908437D01*
X194806523Y-76003675D01*
X194806523Y-76241770D01*
X194758904Y-76337008D01*
X194711285Y-76384627D01*
X194616047Y-76432246D01*
X194330332Y-76432246D01*
X194235094Y-76384627D01*
X194187475Y-76337008D01*
%TO.C,R101*%
X189522380Y-93329047D02*
X189046190Y-93662380D01*
X189522380Y-93900476D02*
X188522380Y-93900476D01*
X188522380Y-93519523D01*
X188570000Y-93424285D01*
X188617619Y-93376666D01*
X188712857Y-93329047D01*
X188855714Y-93329047D01*
X188950952Y-93376666D01*
X188998571Y-93424285D01*
X189046190Y-93519523D01*
X189046190Y-93900476D01*
X189522380Y-92376666D02*
X189522380Y-92948095D01*
X189522380Y-92662380D02*
X188522380Y-92662380D01*
X188665238Y-92757619D01*
X188760476Y-92852857D01*
X188808095Y-92948095D01*
X188522380Y-91757619D02*
X188522380Y-91662380D01*
X188570000Y-91567142D01*
X188617619Y-91519523D01*
X188712857Y-91471904D01*
X188903333Y-91424285D01*
X189141428Y-91424285D01*
X189331904Y-91471904D01*
X189427142Y-91519523D01*
X189474761Y-91567142D01*
X189522380Y-91662380D01*
X189522380Y-91757619D01*
X189474761Y-91852857D01*
X189427142Y-91900476D01*
X189331904Y-91948095D01*
X189141428Y-91995714D01*
X188903333Y-91995714D01*
X188712857Y-91948095D01*
X188617619Y-91900476D01*
X188570000Y-91852857D01*
X188522380Y-91757619D01*
X189522380Y-90471904D02*
X189522380Y-91043333D01*
X189522380Y-90757619D02*
X188522380Y-90757619D01*
X188665238Y-90852857D01*
X188760476Y-90948095D01*
X188808095Y-91043333D01*
X183877619Y-93948095D02*
X183830000Y-93900476D01*
X183782380Y-93805238D01*
X183782380Y-93567142D01*
X183830000Y-93471904D01*
X183877619Y-93424285D01*
X183972857Y-93376666D01*
X184068095Y-93376666D01*
X184210952Y-93424285D01*
X184782380Y-93995714D01*
X184782380Y-93376666D01*
X183877619Y-92995714D02*
X183830000Y-92948095D01*
X183782380Y-92852857D01*
X183782380Y-92614761D01*
X183830000Y-92519523D01*
X183877619Y-92471904D01*
X183972857Y-92424285D01*
X184068095Y-92424285D01*
X184210952Y-92471904D01*
X184782380Y-93043333D01*
X184782380Y-92424285D01*
X183782380Y-91805238D02*
X183782380Y-91710000D01*
X183830000Y-91614761D01*
X183877619Y-91567142D01*
X183972857Y-91519523D01*
X184163333Y-91471904D01*
X184401428Y-91471904D01*
X184591904Y-91519523D01*
X184687142Y-91567142D01*
X184734761Y-91614761D01*
X184782380Y-91710000D01*
X184782380Y-91805238D01*
X184734761Y-91900476D01*
X184687142Y-91948095D01*
X184591904Y-91995714D01*
X184401428Y-92043333D01*
X184163333Y-92043333D01*
X183972857Y-91995714D01*
X183877619Y-91948095D01*
X183830000Y-91900476D01*
X183782380Y-91805238D01*
X184782380Y-90471904D02*
X184306190Y-90805238D01*
X184782380Y-91043333D02*
X183782380Y-91043333D01*
X183782380Y-90662380D01*
X183830000Y-90567142D01*
X183877619Y-90519523D01*
X183972857Y-90471904D01*
X184115714Y-90471904D01*
X184210952Y-90519523D01*
X184258571Y-90567142D01*
X184306190Y-90662380D01*
X184306190Y-91043333D01*
%TO.C,D101*%
X185704523Y-80292380D02*
X185704523Y-79292380D01*
X185942619Y-79292380D01*
X186085476Y-79340000D01*
X186180714Y-79435238D01*
X186228333Y-79530476D01*
X186275952Y-79720952D01*
X186275952Y-79863809D01*
X186228333Y-80054285D01*
X186180714Y-80149523D01*
X186085476Y-80244761D01*
X185942619Y-80292380D01*
X185704523Y-80292380D01*
X187228333Y-80292380D02*
X186656904Y-80292380D01*
X186942619Y-80292380D02*
X186942619Y-79292380D01*
X186847380Y-79435238D01*
X186752142Y-79530476D01*
X186656904Y-79578095D01*
X187847380Y-79292380D02*
X187942619Y-79292380D01*
X188037857Y-79340000D01*
X188085476Y-79387619D01*
X188133095Y-79482857D01*
X188180714Y-79673333D01*
X188180714Y-79911428D01*
X188133095Y-80101904D01*
X188085476Y-80197142D01*
X188037857Y-80244761D01*
X187942619Y-80292380D01*
X187847380Y-80292380D01*
X187752142Y-80244761D01*
X187704523Y-80197142D01*
X187656904Y-80101904D01*
X187609285Y-79911428D01*
X187609285Y-79673333D01*
X187656904Y-79482857D01*
X187704523Y-79387619D01*
X187752142Y-79340000D01*
X187847380Y-79292380D01*
X189133095Y-80292380D02*
X188561666Y-80292380D01*
X188847380Y-80292380D02*
X188847380Y-79292380D01*
X188752142Y-79435238D01*
X188656904Y-79530476D01*
X188561666Y-79578095D01*
X185085476Y-86212380D02*
X185085476Y-85212380D01*
X185466428Y-85212380D01*
X185561666Y-85260000D01*
X185609285Y-85307619D01*
X185656904Y-85402857D01*
X185656904Y-85545714D01*
X185609285Y-85640952D01*
X185561666Y-85688571D01*
X185466428Y-85736190D01*
X185085476Y-85736190D01*
X186275952Y-85212380D02*
X186466428Y-85212380D01*
X186561666Y-85260000D01*
X186656904Y-85355238D01*
X186704523Y-85545714D01*
X186704523Y-85879047D01*
X186656904Y-86069523D01*
X186561666Y-86164761D01*
X186466428Y-86212380D01*
X186275952Y-86212380D01*
X186180714Y-86164761D01*
X186085476Y-86069523D01*
X186037857Y-85879047D01*
X186037857Y-85545714D01*
X186085476Y-85355238D01*
X186180714Y-85260000D01*
X186275952Y-85212380D01*
X187037857Y-85212380D02*
X187275952Y-86212380D01*
X187466428Y-85498095D01*
X187656904Y-86212380D01*
X187895000Y-85212380D01*
X188275952Y-85688571D02*
X188609285Y-85688571D01*
X188752142Y-86212380D02*
X188275952Y-86212380D01*
X188275952Y-85212380D01*
X188752142Y-85212380D01*
X189752142Y-86212380D02*
X189418809Y-85736190D01*
X189180714Y-86212380D02*
X189180714Y-85212380D01*
X189561666Y-85212380D01*
X189656904Y-85260000D01*
X189704523Y-85307619D01*
X189752142Y-85402857D01*
X189752142Y-85545714D01*
X189704523Y-85640952D01*
X189656904Y-85688571D01*
X189561666Y-85736190D01*
X189180714Y-85736190D01*
%TO.C,J102*%
X237032380Y-119145714D02*
X237746666Y-119145714D01*
X237889523Y-119193333D01*
X237984761Y-119288571D01*
X238032380Y-119431428D01*
X238032380Y-119526666D01*
X238032380Y-118145714D02*
X238032380Y-118717142D01*
X238032380Y-118431428D02*
X237032380Y-118431428D01*
X237175238Y-118526666D01*
X237270476Y-118621904D01*
X237318095Y-118717142D01*
X237032380Y-117526666D02*
X237032380Y-117431428D01*
X237080000Y-117336190D01*
X237127619Y-117288571D01*
X237222857Y-117240952D01*
X237413333Y-117193333D01*
X237651428Y-117193333D01*
X237841904Y-117240952D01*
X237937142Y-117288571D01*
X237984761Y-117336190D01*
X238032380Y-117431428D01*
X238032380Y-117526666D01*
X237984761Y-117621904D01*
X237937142Y-117669523D01*
X237841904Y-117717142D01*
X237651428Y-117764761D01*
X237413333Y-117764761D01*
X237222857Y-117717142D01*
X237127619Y-117669523D01*
X237080000Y-117621904D01*
X237032380Y-117526666D01*
X237127619Y-116812380D02*
X237080000Y-116764761D01*
X237032380Y-116669523D01*
X237032380Y-116431428D01*
X237080000Y-116336190D01*
X237127619Y-116288571D01*
X237222857Y-116240952D01*
X237318095Y-116240952D01*
X237460952Y-116288571D01*
X238032380Y-116860000D01*
X238032380Y-116240952D01*
X220082261Y-111967380D02*
X220082261Y-110967380D01*
X220653690Y-111967380D02*
X220225119Y-111395952D01*
X220653690Y-110967380D02*
X220082261Y-111538809D01*
X221415595Y-111443571D02*
X221558452Y-111491190D01*
X221606071Y-111538809D01*
X221653690Y-111634047D01*
X221653690Y-111776904D01*
X221606071Y-111872142D01*
X221558452Y-111919761D01*
X221463214Y-111967380D01*
X221082261Y-111967380D01*
X221082261Y-110967380D01*
X221415595Y-110967380D01*
X221510833Y-111015000D01*
X221558452Y-111062619D01*
X221606071Y-111157857D01*
X221606071Y-111253095D01*
X221558452Y-111348333D01*
X221510833Y-111395952D01*
X221415595Y-111443571D01*
X221082261Y-111443571D01*
X222653690Y-111872142D02*
X222606071Y-111919761D01*
X222463214Y-111967380D01*
X222367976Y-111967380D01*
X222225119Y-111919761D01*
X222129880Y-111824523D01*
X222082261Y-111729285D01*
X222034642Y-111538809D01*
X222034642Y-111395952D01*
X222082261Y-111205476D01*
X222129880Y-111110238D01*
X222225119Y-111015000D01*
X222367976Y-110967380D01*
X222463214Y-110967380D01*
X222606071Y-111015000D01*
X222653690Y-111062619D01*
X222987023Y-110967380D02*
X223606071Y-110967380D01*
X223272738Y-111348333D01*
X223415595Y-111348333D01*
X223510833Y-111395952D01*
X223558452Y-111443571D01*
X223606071Y-111538809D01*
X223606071Y-111776904D01*
X223558452Y-111872142D01*
X223510833Y-111919761D01*
X223415595Y-111967380D01*
X223129880Y-111967380D01*
X223034642Y-111919761D01*
X222987023Y-111872142D01*
X224748928Y-111919761D02*
X224891785Y-111967380D01*
X225129880Y-111967380D01*
X225225119Y-111919761D01*
X225272738Y-111872142D01*
X225320357Y-111776904D01*
X225320357Y-111681666D01*
X225272738Y-111586428D01*
X225225119Y-111538809D01*
X225129880Y-111491190D01*
X224939404Y-111443571D01*
X224844166Y-111395952D01*
X224796547Y-111348333D01*
X224748928Y-111253095D01*
X224748928Y-111157857D01*
X224796547Y-111062619D01*
X224844166Y-111015000D01*
X224939404Y-110967380D01*
X225177500Y-110967380D01*
X225320357Y-111015000D01*
X225748928Y-111443571D02*
X226082261Y-111443571D01*
X226225119Y-111967380D02*
X225748928Y-111967380D01*
X225748928Y-110967380D01*
X226225119Y-110967380D01*
X227177500Y-111015000D02*
X227082261Y-110967380D01*
X226939404Y-110967380D01*
X226796547Y-111015000D01*
X226701309Y-111110238D01*
X226653690Y-111205476D01*
X226606071Y-111395952D01*
X226606071Y-111538809D01*
X226653690Y-111729285D01*
X226701309Y-111824523D01*
X226796547Y-111919761D01*
X226939404Y-111967380D01*
X227034642Y-111967380D01*
X227177500Y-111919761D01*
X227225119Y-111872142D01*
X227225119Y-111538809D01*
X227034642Y-111538809D01*
X227415595Y-112062619D02*
X228177500Y-112062619D01*
X228415595Y-111967380D02*
X228415595Y-110967380D01*
X228653690Y-110967380D01*
X228796547Y-111015000D01*
X228891785Y-111110238D01*
X228939404Y-111205476D01*
X228987023Y-111395952D01*
X228987023Y-111538809D01*
X228939404Y-111729285D01*
X228891785Y-111824523D01*
X228796547Y-111919761D01*
X228653690Y-111967380D01*
X228415595Y-111967380D01*
X221272738Y-96727380D02*
X221272738Y-95727380D01*
X221844166Y-96727380D02*
X221415595Y-96155952D01*
X221844166Y-95727380D02*
X221272738Y-96298809D01*
X222606071Y-96203571D02*
X222748928Y-96251190D01*
X222796547Y-96298809D01*
X222844166Y-96394047D01*
X222844166Y-96536904D01*
X222796547Y-96632142D01*
X222748928Y-96679761D01*
X222653690Y-96727380D01*
X222272738Y-96727380D01*
X222272738Y-95727380D01*
X222606071Y-95727380D01*
X222701309Y-95775000D01*
X222748928Y-95822619D01*
X222796547Y-95917857D01*
X222796547Y-96013095D01*
X222748928Y-96108333D01*
X222701309Y-96155952D01*
X222606071Y-96203571D01*
X222272738Y-96203571D01*
X223844166Y-96727380D02*
X223510833Y-96251190D01*
X223272738Y-96727380D02*
X223272738Y-95727380D01*
X223653690Y-95727380D01*
X223748928Y-95775000D01*
X223796547Y-95822619D01*
X223844166Y-95917857D01*
X223844166Y-96060714D01*
X223796547Y-96155952D01*
X223748928Y-96203571D01*
X223653690Y-96251190D01*
X223272738Y-96251190D01*
X224225119Y-95822619D02*
X224272738Y-95775000D01*
X224367976Y-95727380D01*
X224606071Y-95727380D01*
X224701309Y-95775000D01*
X224748928Y-95822619D01*
X224796547Y-95917857D01*
X224796547Y-96013095D01*
X224748928Y-96155952D01*
X224177500Y-96727380D01*
X224796547Y-96727380D01*
X225987023Y-96727380D02*
X225987023Y-95727380D01*
X226225119Y-95727380D01*
X226367976Y-95775000D01*
X226463214Y-95870238D01*
X226510833Y-95965476D01*
X226558452Y-96155952D01*
X226558452Y-96298809D01*
X226510833Y-96489285D01*
X226463214Y-96584523D01*
X226367976Y-96679761D01*
X226225119Y-96727380D01*
X225987023Y-96727380D01*
X226987023Y-96727380D02*
X226987023Y-95727380D01*
X227987023Y-95775000D02*
X227891785Y-95727380D01*
X227748928Y-95727380D01*
X227606071Y-95775000D01*
X227510833Y-95870238D01*
X227463214Y-95965476D01*
X227415595Y-96155952D01*
X227415595Y-96298809D01*
X227463214Y-96489285D01*
X227510833Y-96584523D01*
X227606071Y-96679761D01*
X227748928Y-96727380D01*
X227844166Y-96727380D01*
X227987023Y-96679761D01*
X228034642Y-96632142D01*
X228034642Y-96298809D01*
X227844166Y-96298809D01*
X228367976Y-95727380D02*
X229034642Y-95727380D01*
X228606071Y-96727380D01*
X220082261Y-114507380D02*
X220082261Y-113507380D01*
X220653690Y-114507380D02*
X220225119Y-113935952D01*
X220653690Y-113507380D02*
X220082261Y-114078809D01*
X221415595Y-113983571D02*
X221558452Y-114031190D01*
X221606071Y-114078809D01*
X221653690Y-114174047D01*
X221653690Y-114316904D01*
X221606071Y-114412142D01*
X221558452Y-114459761D01*
X221463214Y-114507380D01*
X221082261Y-114507380D01*
X221082261Y-113507380D01*
X221415595Y-113507380D01*
X221510833Y-113555000D01*
X221558452Y-113602619D01*
X221606071Y-113697857D01*
X221606071Y-113793095D01*
X221558452Y-113888333D01*
X221510833Y-113935952D01*
X221415595Y-113983571D01*
X221082261Y-113983571D01*
X222653690Y-114412142D02*
X222606071Y-114459761D01*
X222463214Y-114507380D01*
X222367976Y-114507380D01*
X222225119Y-114459761D01*
X222129880Y-114364523D01*
X222082261Y-114269285D01*
X222034642Y-114078809D01*
X222034642Y-113935952D01*
X222082261Y-113745476D01*
X222129880Y-113650238D01*
X222225119Y-113555000D01*
X222367976Y-113507380D01*
X222463214Y-113507380D01*
X222606071Y-113555000D01*
X222653690Y-113602619D01*
X223034642Y-113602619D02*
X223082261Y-113555000D01*
X223177500Y-113507380D01*
X223415595Y-113507380D01*
X223510833Y-113555000D01*
X223558452Y-113602619D01*
X223606071Y-113697857D01*
X223606071Y-113793095D01*
X223558452Y-113935952D01*
X222987023Y-114507380D01*
X223606071Y-114507380D01*
X224748928Y-114459761D02*
X224891785Y-114507380D01*
X225129880Y-114507380D01*
X225225119Y-114459761D01*
X225272738Y-114412142D01*
X225320357Y-114316904D01*
X225320357Y-114221666D01*
X225272738Y-114126428D01*
X225225119Y-114078809D01*
X225129880Y-114031190D01*
X224939404Y-113983571D01*
X224844166Y-113935952D01*
X224796547Y-113888333D01*
X224748928Y-113793095D01*
X224748928Y-113697857D01*
X224796547Y-113602619D01*
X224844166Y-113555000D01*
X224939404Y-113507380D01*
X225177500Y-113507380D01*
X225320357Y-113555000D01*
X225748928Y-113983571D02*
X226082261Y-113983571D01*
X226225119Y-114507380D02*
X225748928Y-114507380D01*
X225748928Y-113507380D01*
X226225119Y-113507380D01*
X227177500Y-113555000D02*
X227082261Y-113507380D01*
X226939404Y-113507380D01*
X226796547Y-113555000D01*
X226701309Y-113650238D01*
X226653690Y-113745476D01*
X226606071Y-113935952D01*
X226606071Y-114078809D01*
X226653690Y-114269285D01*
X226701309Y-114364523D01*
X226796547Y-114459761D01*
X226939404Y-114507380D01*
X227034642Y-114507380D01*
X227177500Y-114459761D01*
X227225119Y-114412142D01*
X227225119Y-114078809D01*
X227034642Y-114078809D01*
X227415595Y-114602619D02*
X228177500Y-114602619D01*
X228987023Y-114412142D02*
X228939404Y-114459761D01*
X228796547Y-114507380D01*
X228701309Y-114507380D01*
X228558452Y-114459761D01*
X228463214Y-114364523D01*
X228415595Y-114269285D01*
X228367976Y-114078809D01*
X228367976Y-113935952D01*
X228415595Y-113745476D01*
X228463214Y-113650238D01*
X228558452Y-113555000D01*
X228701309Y-113507380D01*
X228796547Y-113507380D01*
X228939404Y-113555000D01*
X228987023Y-113602619D01*
X220082261Y-104347380D02*
X220082261Y-103347380D01*
X220653690Y-104347380D02*
X220225119Y-103775952D01*
X220653690Y-103347380D02*
X220082261Y-103918809D01*
X221415595Y-103823571D02*
X221558452Y-103871190D01*
X221606071Y-103918809D01*
X221653690Y-104014047D01*
X221653690Y-104156904D01*
X221606071Y-104252142D01*
X221558452Y-104299761D01*
X221463214Y-104347380D01*
X221082261Y-104347380D01*
X221082261Y-103347380D01*
X221415595Y-103347380D01*
X221510833Y-103395000D01*
X221558452Y-103442619D01*
X221606071Y-103537857D01*
X221606071Y-103633095D01*
X221558452Y-103728333D01*
X221510833Y-103775952D01*
X221415595Y-103823571D01*
X221082261Y-103823571D01*
X222653690Y-104252142D02*
X222606071Y-104299761D01*
X222463214Y-104347380D01*
X222367976Y-104347380D01*
X222225119Y-104299761D01*
X222129880Y-104204523D01*
X222082261Y-104109285D01*
X222034642Y-103918809D01*
X222034642Y-103775952D01*
X222082261Y-103585476D01*
X222129880Y-103490238D01*
X222225119Y-103395000D01*
X222367976Y-103347380D01*
X222463214Y-103347380D01*
X222606071Y-103395000D01*
X222653690Y-103442619D01*
X223510833Y-103347380D02*
X223320357Y-103347380D01*
X223225119Y-103395000D01*
X223177500Y-103442619D01*
X223082261Y-103585476D01*
X223034642Y-103775952D01*
X223034642Y-104156904D01*
X223082261Y-104252142D01*
X223129880Y-104299761D01*
X223225119Y-104347380D01*
X223415595Y-104347380D01*
X223510833Y-104299761D01*
X223558452Y-104252142D01*
X223606071Y-104156904D01*
X223606071Y-103918809D01*
X223558452Y-103823571D01*
X223510833Y-103775952D01*
X223415595Y-103728333D01*
X223225119Y-103728333D01*
X223129880Y-103775952D01*
X223082261Y-103823571D01*
X223034642Y-103918809D01*
X224748928Y-104299761D02*
X224891785Y-104347380D01*
X225129880Y-104347380D01*
X225225119Y-104299761D01*
X225272738Y-104252142D01*
X225320357Y-104156904D01*
X225320357Y-104061666D01*
X225272738Y-103966428D01*
X225225119Y-103918809D01*
X225129880Y-103871190D01*
X224939404Y-103823571D01*
X224844166Y-103775952D01*
X224796547Y-103728333D01*
X224748928Y-103633095D01*
X224748928Y-103537857D01*
X224796547Y-103442619D01*
X224844166Y-103395000D01*
X224939404Y-103347380D01*
X225177500Y-103347380D01*
X225320357Y-103395000D01*
X225748928Y-103823571D02*
X226082261Y-103823571D01*
X226225119Y-104347380D02*
X225748928Y-104347380D01*
X225748928Y-103347380D01*
X226225119Y-103347380D01*
X227177500Y-103395000D02*
X227082261Y-103347380D01*
X226939404Y-103347380D01*
X226796547Y-103395000D01*
X226701309Y-103490238D01*
X226653690Y-103585476D01*
X226606071Y-103775952D01*
X226606071Y-103918809D01*
X226653690Y-104109285D01*
X226701309Y-104204523D01*
X226796547Y-104299761D01*
X226939404Y-104347380D01*
X227034642Y-104347380D01*
X227177500Y-104299761D01*
X227225119Y-104252142D01*
X227225119Y-103918809D01*
X227034642Y-103918809D01*
X227415595Y-104442619D02*
X228177500Y-104442619D01*
X228939404Y-103395000D02*
X228844166Y-103347380D01*
X228701309Y-103347380D01*
X228558452Y-103395000D01*
X228463214Y-103490238D01*
X228415595Y-103585476D01*
X228367976Y-103775952D01*
X228367976Y-103918809D01*
X228415595Y-104109285D01*
X228463214Y-104204523D01*
X228558452Y-104299761D01*
X228701309Y-104347380D01*
X228796547Y-104347380D01*
X228939404Y-104299761D01*
X228987023Y-104252142D01*
X228987023Y-103918809D01*
X228796547Y-103918809D01*
X220225119Y-106887380D02*
X220225119Y-105887380D01*
X220796547Y-106887380D02*
X220367976Y-106315952D01*
X220796547Y-105887380D02*
X220225119Y-106458809D01*
X221558452Y-106363571D02*
X221701309Y-106411190D01*
X221748928Y-106458809D01*
X221796547Y-106554047D01*
X221796547Y-106696904D01*
X221748928Y-106792142D01*
X221701309Y-106839761D01*
X221606071Y-106887380D01*
X221225119Y-106887380D01*
X221225119Y-105887380D01*
X221558452Y-105887380D01*
X221653690Y-105935000D01*
X221701309Y-105982619D01*
X221748928Y-106077857D01*
X221748928Y-106173095D01*
X221701309Y-106268333D01*
X221653690Y-106315952D01*
X221558452Y-106363571D01*
X221225119Y-106363571D01*
X222796547Y-106792142D02*
X222748928Y-106839761D01*
X222606071Y-106887380D01*
X222510833Y-106887380D01*
X222367976Y-106839761D01*
X222272738Y-106744523D01*
X222225119Y-106649285D01*
X222177500Y-106458809D01*
X222177500Y-106315952D01*
X222225119Y-106125476D01*
X222272738Y-106030238D01*
X222367976Y-105935000D01*
X222510833Y-105887380D01*
X222606071Y-105887380D01*
X222748928Y-105935000D01*
X222796547Y-105982619D01*
X223701309Y-105887380D02*
X223225119Y-105887380D01*
X223177500Y-106363571D01*
X223225119Y-106315952D01*
X223320357Y-106268333D01*
X223558452Y-106268333D01*
X223653690Y-106315952D01*
X223701309Y-106363571D01*
X223748928Y-106458809D01*
X223748928Y-106696904D01*
X223701309Y-106792142D01*
X223653690Y-106839761D01*
X223558452Y-106887380D01*
X223320357Y-106887380D01*
X223225119Y-106839761D01*
X223177500Y-106792142D01*
X224891785Y-106839761D02*
X225034642Y-106887380D01*
X225272738Y-106887380D01*
X225367976Y-106839761D01*
X225415595Y-106792142D01*
X225463214Y-106696904D01*
X225463214Y-106601666D01*
X225415595Y-106506428D01*
X225367976Y-106458809D01*
X225272738Y-106411190D01*
X225082261Y-106363571D01*
X224987023Y-106315952D01*
X224939404Y-106268333D01*
X224891785Y-106173095D01*
X224891785Y-106077857D01*
X224939404Y-105982619D01*
X224987023Y-105935000D01*
X225082261Y-105887380D01*
X225320357Y-105887380D01*
X225463214Y-105935000D01*
X225891785Y-106363571D02*
X226225119Y-106363571D01*
X226367976Y-106887380D02*
X225891785Y-106887380D01*
X225891785Y-105887380D01*
X226367976Y-105887380D01*
X227320357Y-105935000D02*
X227225119Y-105887380D01*
X227082261Y-105887380D01*
X226939404Y-105935000D01*
X226844166Y-106030238D01*
X226796547Y-106125476D01*
X226748928Y-106315952D01*
X226748928Y-106458809D01*
X226796547Y-106649285D01*
X226844166Y-106744523D01*
X226939404Y-106839761D01*
X227082261Y-106887380D01*
X227177500Y-106887380D01*
X227320357Y-106839761D01*
X227367976Y-106792142D01*
X227367976Y-106458809D01*
X227177500Y-106458809D01*
X227558452Y-106982619D02*
X228320357Y-106982619D01*
X228891785Y-106363571D02*
X228558452Y-106363571D01*
X228558452Y-106887380D02*
X228558452Y-105887380D01*
X229034642Y-105887380D01*
X220225119Y-119587380D02*
X220225119Y-118587380D01*
X220796547Y-119587380D02*
X220367976Y-119015952D01*
X220796547Y-118587380D02*
X220225119Y-119158809D01*
X221558452Y-119063571D02*
X221701309Y-119111190D01*
X221748928Y-119158809D01*
X221796547Y-119254047D01*
X221796547Y-119396904D01*
X221748928Y-119492142D01*
X221701309Y-119539761D01*
X221606071Y-119587380D01*
X221225119Y-119587380D01*
X221225119Y-118587380D01*
X221558452Y-118587380D01*
X221653690Y-118635000D01*
X221701309Y-118682619D01*
X221748928Y-118777857D01*
X221748928Y-118873095D01*
X221701309Y-118968333D01*
X221653690Y-119015952D01*
X221558452Y-119063571D01*
X221225119Y-119063571D01*
X222796547Y-119492142D02*
X222748928Y-119539761D01*
X222606071Y-119587380D01*
X222510833Y-119587380D01*
X222367976Y-119539761D01*
X222272738Y-119444523D01*
X222225119Y-119349285D01*
X222177500Y-119158809D01*
X222177500Y-119015952D01*
X222225119Y-118825476D01*
X222272738Y-118730238D01*
X222367976Y-118635000D01*
X222510833Y-118587380D01*
X222606071Y-118587380D01*
X222748928Y-118635000D01*
X222796547Y-118682619D01*
X223415595Y-118587380D02*
X223510833Y-118587380D01*
X223606071Y-118635000D01*
X223653690Y-118682619D01*
X223701309Y-118777857D01*
X223748928Y-118968333D01*
X223748928Y-119206428D01*
X223701309Y-119396904D01*
X223653690Y-119492142D01*
X223606071Y-119539761D01*
X223510833Y-119587380D01*
X223415595Y-119587380D01*
X223320357Y-119539761D01*
X223272738Y-119492142D01*
X223225119Y-119396904D01*
X223177500Y-119206428D01*
X223177500Y-118968333D01*
X223225119Y-118777857D01*
X223272738Y-118682619D01*
X223320357Y-118635000D01*
X223415595Y-118587380D01*
X224891785Y-119539761D02*
X225034642Y-119587380D01*
X225272738Y-119587380D01*
X225367976Y-119539761D01*
X225415595Y-119492142D01*
X225463214Y-119396904D01*
X225463214Y-119301666D01*
X225415595Y-119206428D01*
X225367976Y-119158809D01*
X225272738Y-119111190D01*
X225082261Y-119063571D01*
X224987023Y-119015952D01*
X224939404Y-118968333D01*
X224891785Y-118873095D01*
X224891785Y-118777857D01*
X224939404Y-118682619D01*
X224987023Y-118635000D01*
X225082261Y-118587380D01*
X225320357Y-118587380D01*
X225463214Y-118635000D01*
X225891785Y-119063571D02*
X226225119Y-119063571D01*
X226367976Y-119587380D02*
X225891785Y-119587380D01*
X225891785Y-118587380D01*
X226367976Y-118587380D01*
X227320357Y-118635000D02*
X227225119Y-118587380D01*
X227082261Y-118587380D01*
X226939404Y-118635000D01*
X226844166Y-118730238D01*
X226796547Y-118825476D01*
X226748928Y-119015952D01*
X226748928Y-119158809D01*
X226796547Y-119349285D01*
X226844166Y-119444523D01*
X226939404Y-119539761D01*
X227082261Y-119587380D01*
X227177500Y-119587380D01*
X227320357Y-119539761D01*
X227367976Y-119492142D01*
X227367976Y-119158809D01*
X227177500Y-119158809D01*
X227558452Y-119682619D02*
X228320357Y-119682619D01*
X228510833Y-119301666D02*
X228987023Y-119301666D01*
X228415595Y-119587380D02*
X228748928Y-118587380D01*
X229082261Y-119587380D01*
X220177500Y-109427380D02*
X220177500Y-108427380D01*
X220748928Y-109427380D02*
X220320357Y-108855952D01*
X220748928Y-108427380D02*
X220177500Y-108998809D01*
X221510833Y-108903571D02*
X221653690Y-108951190D01*
X221701309Y-108998809D01*
X221748928Y-109094047D01*
X221748928Y-109236904D01*
X221701309Y-109332142D01*
X221653690Y-109379761D01*
X221558452Y-109427380D01*
X221177500Y-109427380D01*
X221177500Y-108427380D01*
X221510833Y-108427380D01*
X221606071Y-108475000D01*
X221653690Y-108522619D01*
X221701309Y-108617857D01*
X221701309Y-108713095D01*
X221653690Y-108808333D01*
X221606071Y-108855952D01*
X221510833Y-108903571D01*
X221177500Y-108903571D01*
X222748928Y-109332142D02*
X222701309Y-109379761D01*
X222558452Y-109427380D01*
X222463214Y-109427380D01*
X222320357Y-109379761D01*
X222225119Y-109284523D01*
X222177500Y-109189285D01*
X222129880Y-108998809D01*
X222129880Y-108855952D01*
X222177500Y-108665476D01*
X222225119Y-108570238D01*
X222320357Y-108475000D01*
X222463214Y-108427380D01*
X222558452Y-108427380D01*
X222701309Y-108475000D01*
X222748928Y-108522619D01*
X223606071Y-108760714D02*
X223606071Y-109427380D01*
X223367976Y-108379761D02*
X223129880Y-109094047D01*
X223748928Y-109094047D01*
X224844166Y-109379761D02*
X224987023Y-109427380D01*
X225225119Y-109427380D01*
X225320357Y-109379761D01*
X225367976Y-109332142D01*
X225415595Y-109236904D01*
X225415595Y-109141666D01*
X225367976Y-109046428D01*
X225320357Y-108998809D01*
X225225119Y-108951190D01*
X225034642Y-108903571D01*
X224939404Y-108855952D01*
X224891785Y-108808333D01*
X224844166Y-108713095D01*
X224844166Y-108617857D01*
X224891785Y-108522619D01*
X224939404Y-108475000D01*
X225034642Y-108427380D01*
X225272738Y-108427380D01*
X225415595Y-108475000D01*
X225844166Y-108903571D02*
X226177500Y-108903571D01*
X226320357Y-109427380D02*
X225844166Y-109427380D01*
X225844166Y-108427380D01*
X226320357Y-108427380D01*
X227272738Y-108475000D02*
X227177500Y-108427380D01*
X227034642Y-108427380D01*
X226891785Y-108475000D01*
X226796547Y-108570238D01*
X226748928Y-108665476D01*
X226701309Y-108855952D01*
X226701309Y-108998809D01*
X226748928Y-109189285D01*
X226796547Y-109284523D01*
X226891785Y-109379761D01*
X227034642Y-109427380D01*
X227129880Y-109427380D01*
X227272738Y-109379761D01*
X227320357Y-109332142D01*
X227320357Y-108998809D01*
X227129880Y-108998809D01*
X227510833Y-109522619D02*
X228272738Y-109522619D01*
X228510833Y-108903571D02*
X228844166Y-108903571D01*
X228987023Y-109427380D02*
X228510833Y-109427380D01*
X228510833Y-108427380D01*
X228987023Y-108427380D01*
X221272738Y-83979761D02*
X221415595Y-84027380D01*
X221653690Y-84027380D01*
X221748928Y-83979761D01*
X221796547Y-83932142D01*
X221844166Y-83836904D01*
X221844166Y-83741666D01*
X221796547Y-83646428D01*
X221748928Y-83598809D01*
X221653690Y-83551190D01*
X221463214Y-83503571D01*
X221367976Y-83455952D01*
X221320357Y-83408333D01*
X221272738Y-83313095D01*
X221272738Y-83217857D01*
X221320357Y-83122619D01*
X221367976Y-83075000D01*
X221463214Y-83027380D01*
X221701309Y-83027380D01*
X221844166Y-83075000D01*
X222272738Y-84027380D02*
X222272738Y-83027380D01*
X222653690Y-83027380D01*
X222748928Y-83075000D01*
X222796547Y-83122619D01*
X222844166Y-83217857D01*
X222844166Y-83360714D01*
X222796547Y-83455952D01*
X222748928Y-83503571D01*
X222653690Y-83551190D01*
X222272738Y-83551190D01*
X223034642Y-84122619D02*
X223796547Y-84122619D01*
X223939404Y-83027380D02*
X224558452Y-83027380D01*
X224225119Y-83408333D01*
X224367976Y-83408333D01*
X224463214Y-83455952D01*
X224510833Y-83503571D01*
X224558452Y-83598809D01*
X224558452Y-83836904D01*
X224510833Y-83932142D01*
X224463214Y-83979761D01*
X224367976Y-84027380D01*
X224082261Y-84027380D01*
X223987023Y-83979761D01*
X223939404Y-83932142D01*
X225701309Y-83979761D02*
X225844166Y-84027380D01*
X226082261Y-84027380D01*
X226177500Y-83979761D01*
X226225119Y-83932142D01*
X226272738Y-83836904D01*
X226272738Y-83741666D01*
X226225119Y-83646428D01*
X226177500Y-83598809D01*
X226082261Y-83551190D01*
X225891785Y-83503571D01*
X225796547Y-83455952D01*
X225748928Y-83408333D01*
X225701309Y-83313095D01*
X225701309Y-83217857D01*
X225748928Y-83122619D01*
X225796547Y-83075000D01*
X225891785Y-83027380D01*
X226129880Y-83027380D01*
X226272738Y-83075000D01*
X226701309Y-84027380D02*
X226701309Y-83027380D01*
X227082261Y-83027380D01*
X227177500Y-83075000D01*
X227225119Y-83122619D01*
X227272738Y-83217857D01*
X227272738Y-83360714D01*
X227225119Y-83455952D01*
X227177500Y-83503571D01*
X227082261Y-83551190D01*
X226701309Y-83551190D01*
X227463214Y-84122619D02*
X228225119Y-84122619D01*
X228367976Y-83027380D02*
X229034642Y-83027380D01*
X228606071Y-84027380D01*
X222606071Y-70327380D02*
X222939404Y-71327380D01*
X223272738Y-70327380D01*
X224177500Y-71232142D02*
X224129880Y-71279761D01*
X223987023Y-71327380D01*
X223891785Y-71327380D01*
X223748928Y-71279761D01*
X223653690Y-71184523D01*
X223606071Y-71089285D01*
X223558452Y-70898809D01*
X223558452Y-70755952D01*
X223606071Y-70565476D01*
X223653690Y-70470238D01*
X223748928Y-70375000D01*
X223891785Y-70327380D01*
X223987023Y-70327380D01*
X224129880Y-70375000D01*
X224177500Y-70422619D01*
X225177500Y-71232142D02*
X225129880Y-71279761D01*
X224987023Y-71327380D01*
X224891785Y-71327380D01*
X224748928Y-71279761D01*
X224653690Y-71184523D01*
X224606071Y-71089285D01*
X224558452Y-70898809D01*
X224558452Y-70755952D01*
X224606071Y-70565476D01*
X224653690Y-70470238D01*
X224748928Y-70375000D01*
X224891785Y-70327380D01*
X224987023Y-70327380D01*
X225129880Y-70375000D01*
X225177500Y-70422619D01*
X226891785Y-70375000D02*
X226796547Y-70327380D01*
X226653690Y-70327380D01*
X226510833Y-70375000D01*
X226415595Y-70470238D01*
X226367976Y-70565476D01*
X226320357Y-70755952D01*
X226320357Y-70898809D01*
X226367976Y-71089285D01*
X226415595Y-71184523D01*
X226510833Y-71279761D01*
X226653690Y-71327380D01*
X226748928Y-71327380D01*
X226891785Y-71279761D01*
X226939404Y-71232142D01*
X226939404Y-70898809D01*
X226748928Y-70898809D01*
X227367976Y-71327380D02*
X227367976Y-70327380D01*
X227939404Y-71327380D01*
X227939404Y-70327380D01*
X228415595Y-71327380D02*
X228415595Y-70327380D01*
X228653690Y-70327380D01*
X228796547Y-70375000D01*
X228891785Y-70470238D01*
X228939404Y-70565476D01*
X228987023Y-70755952D01*
X228987023Y-70898809D01*
X228939404Y-71089285D01*
X228891785Y-71184523D01*
X228796547Y-71279761D01*
X228653690Y-71327380D01*
X228415595Y-71327380D01*
X222606071Y-75407380D02*
X222939404Y-76407380D01*
X223272738Y-75407380D01*
X224177500Y-76312142D02*
X224129880Y-76359761D01*
X223987023Y-76407380D01*
X223891785Y-76407380D01*
X223748928Y-76359761D01*
X223653690Y-76264523D01*
X223606071Y-76169285D01*
X223558452Y-75978809D01*
X223558452Y-75835952D01*
X223606071Y-75645476D01*
X223653690Y-75550238D01*
X223748928Y-75455000D01*
X223891785Y-75407380D01*
X223987023Y-75407380D01*
X224129880Y-75455000D01*
X224177500Y-75502619D01*
X225177500Y-76312142D02*
X225129880Y-76359761D01*
X224987023Y-76407380D01*
X224891785Y-76407380D01*
X224748928Y-76359761D01*
X224653690Y-76264523D01*
X224606071Y-76169285D01*
X224558452Y-75978809D01*
X224558452Y-75835952D01*
X224606071Y-75645476D01*
X224653690Y-75550238D01*
X224748928Y-75455000D01*
X224891785Y-75407380D01*
X224987023Y-75407380D01*
X225129880Y-75455000D01*
X225177500Y-75502619D01*
X226891785Y-75455000D02*
X226796547Y-75407380D01*
X226653690Y-75407380D01*
X226510833Y-75455000D01*
X226415595Y-75550238D01*
X226367976Y-75645476D01*
X226320357Y-75835952D01*
X226320357Y-75978809D01*
X226367976Y-76169285D01*
X226415595Y-76264523D01*
X226510833Y-76359761D01*
X226653690Y-76407380D01*
X226748928Y-76407380D01*
X226891785Y-76359761D01*
X226939404Y-76312142D01*
X226939404Y-75978809D01*
X226748928Y-75978809D01*
X227367976Y-76407380D02*
X227367976Y-75407380D01*
X227939404Y-76407380D01*
X227939404Y-75407380D01*
X228415595Y-76407380D02*
X228415595Y-75407380D01*
X228653690Y-75407380D01*
X228796547Y-75455000D01*
X228891785Y-75550238D01*
X228939404Y-75645476D01*
X228987023Y-75835952D01*
X228987023Y-75978809D01*
X228939404Y-76169285D01*
X228891785Y-76264523D01*
X228796547Y-76359761D01*
X228653690Y-76407380D01*
X228415595Y-76407380D01*
X221272738Y-78899761D02*
X221415595Y-78947380D01*
X221653690Y-78947380D01*
X221748928Y-78899761D01*
X221796547Y-78852142D01*
X221844166Y-78756904D01*
X221844166Y-78661666D01*
X221796547Y-78566428D01*
X221748928Y-78518809D01*
X221653690Y-78471190D01*
X221463214Y-78423571D01*
X221367976Y-78375952D01*
X221320357Y-78328333D01*
X221272738Y-78233095D01*
X221272738Y-78137857D01*
X221320357Y-78042619D01*
X221367976Y-77995000D01*
X221463214Y-77947380D01*
X221701309Y-77947380D01*
X221844166Y-77995000D01*
X222272738Y-78947380D02*
X222272738Y-77947380D01*
X222653690Y-77947380D01*
X222748928Y-77995000D01*
X222796547Y-78042619D01*
X222844166Y-78137857D01*
X222844166Y-78280714D01*
X222796547Y-78375952D01*
X222748928Y-78423571D01*
X222653690Y-78471190D01*
X222272738Y-78471190D01*
X223034642Y-79042619D02*
X223796547Y-79042619D01*
X224558452Y-78947380D02*
X223987023Y-78947380D01*
X224272738Y-78947380D02*
X224272738Y-77947380D01*
X224177500Y-78090238D01*
X224082261Y-78185476D01*
X223987023Y-78233095D01*
X225701309Y-78899761D02*
X225844166Y-78947380D01*
X226082261Y-78947380D01*
X226177500Y-78899761D01*
X226225119Y-78852142D01*
X226272738Y-78756904D01*
X226272738Y-78661666D01*
X226225119Y-78566428D01*
X226177500Y-78518809D01*
X226082261Y-78471190D01*
X225891785Y-78423571D01*
X225796547Y-78375952D01*
X225748928Y-78328333D01*
X225701309Y-78233095D01*
X225701309Y-78137857D01*
X225748928Y-78042619D01*
X225796547Y-77995000D01*
X225891785Y-77947380D01*
X226129880Y-77947380D01*
X226272738Y-77995000D01*
X226701309Y-78947380D02*
X226701309Y-77947380D01*
X227082261Y-77947380D01*
X227177500Y-77995000D01*
X227225119Y-78042619D01*
X227272738Y-78137857D01*
X227272738Y-78280714D01*
X227225119Y-78375952D01*
X227177500Y-78423571D01*
X227082261Y-78471190D01*
X226701309Y-78471190D01*
X227463214Y-79042619D02*
X228225119Y-79042619D01*
X228939404Y-77947380D02*
X228463214Y-77947380D01*
X228415595Y-78423571D01*
X228463214Y-78375952D01*
X228558452Y-78328333D01*
X228796547Y-78328333D01*
X228891785Y-78375952D01*
X228939404Y-78423571D01*
X228987023Y-78518809D01*
X228987023Y-78756904D01*
X228939404Y-78852142D01*
X228891785Y-78899761D01*
X228796547Y-78947380D01*
X228558452Y-78947380D01*
X228463214Y-78899761D01*
X228415595Y-78852142D01*
X219748928Y-91647380D02*
X219748928Y-90647380D01*
X220320357Y-91647380D02*
X219891785Y-91075952D01*
X220320357Y-90647380D02*
X219748928Y-91218809D01*
X220748928Y-91123571D02*
X221082261Y-91123571D01*
X221225119Y-91647380D02*
X220748928Y-91647380D01*
X220748928Y-90647380D01*
X221225119Y-90647380D01*
X221844166Y-91171190D02*
X221844166Y-91647380D01*
X221510833Y-90647380D02*
X221844166Y-91171190D01*
X222177500Y-90647380D01*
X222272738Y-91742619D02*
X223034642Y-91742619D01*
X223844166Y-91647380D02*
X223510833Y-91171190D01*
X223272738Y-91647380D02*
X223272738Y-90647380D01*
X223653690Y-90647380D01*
X223748928Y-90695000D01*
X223796547Y-90742619D01*
X223844166Y-90837857D01*
X223844166Y-90980714D01*
X223796547Y-91075952D01*
X223748928Y-91123571D01*
X223653690Y-91171190D01*
X223272738Y-91171190D01*
X224225119Y-91599761D02*
X224367976Y-91647380D01*
X224606071Y-91647380D01*
X224701309Y-91599761D01*
X224748928Y-91552142D01*
X224796547Y-91456904D01*
X224796547Y-91361666D01*
X224748928Y-91266428D01*
X224701309Y-91218809D01*
X224606071Y-91171190D01*
X224415595Y-91123571D01*
X224320357Y-91075952D01*
X224272738Y-91028333D01*
X224225119Y-90933095D01*
X224225119Y-90837857D01*
X224272738Y-90742619D01*
X224320357Y-90695000D01*
X224415595Y-90647380D01*
X224653690Y-90647380D01*
X224796547Y-90695000D01*
X225987023Y-91647380D02*
X225987023Y-90647380D01*
X226225119Y-90647380D01*
X226367976Y-90695000D01*
X226463214Y-90790238D01*
X226510833Y-90885476D01*
X226558452Y-91075952D01*
X226558452Y-91218809D01*
X226510833Y-91409285D01*
X226463214Y-91504523D01*
X226367976Y-91599761D01*
X226225119Y-91647380D01*
X225987023Y-91647380D01*
X226987023Y-91647380D02*
X226987023Y-90647380D01*
X227987023Y-90695000D02*
X227891785Y-90647380D01*
X227748928Y-90647380D01*
X227606071Y-90695000D01*
X227510833Y-90790238D01*
X227463214Y-90885476D01*
X227415595Y-91075952D01*
X227415595Y-91218809D01*
X227463214Y-91409285D01*
X227510833Y-91504523D01*
X227606071Y-91599761D01*
X227748928Y-91647380D01*
X227844166Y-91647380D01*
X227987023Y-91599761D01*
X228034642Y-91552142D01*
X228034642Y-91218809D01*
X227844166Y-91218809D01*
X228939404Y-90647380D02*
X228463214Y-90647380D01*
X228415595Y-91123571D01*
X228463214Y-91075952D01*
X228558452Y-91028333D01*
X228796547Y-91028333D01*
X228891785Y-91075952D01*
X228939404Y-91123571D01*
X228987023Y-91218809D01*
X228987023Y-91456904D01*
X228939404Y-91552142D01*
X228891785Y-91599761D01*
X228796547Y-91647380D01*
X228558452Y-91647380D01*
X228463214Y-91599761D01*
X228415595Y-91552142D01*
X221272738Y-101807380D02*
X221272738Y-100807380D01*
X221844166Y-101807380D02*
X221415595Y-101235952D01*
X221844166Y-100807380D02*
X221272738Y-101378809D01*
X222606071Y-101283571D02*
X222748928Y-101331190D01*
X222796547Y-101378809D01*
X222844166Y-101474047D01*
X222844166Y-101616904D01*
X222796547Y-101712142D01*
X222748928Y-101759761D01*
X222653690Y-101807380D01*
X222272738Y-101807380D01*
X222272738Y-100807380D01*
X222606071Y-100807380D01*
X222701309Y-100855000D01*
X222748928Y-100902619D01*
X222796547Y-100997857D01*
X222796547Y-101093095D01*
X222748928Y-101188333D01*
X222701309Y-101235952D01*
X222606071Y-101283571D01*
X222272738Y-101283571D01*
X223844166Y-101807380D02*
X223510833Y-101331190D01*
X223272738Y-101807380D02*
X223272738Y-100807380D01*
X223653690Y-100807380D01*
X223748928Y-100855000D01*
X223796547Y-100902619D01*
X223844166Y-100997857D01*
X223844166Y-101140714D01*
X223796547Y-101235952D01*
X223748928Y-101283571D01*
X223653690Y-101331190D01*
X223272738Y-101331190D01*
X224463214Y-100807380D02*
X224558452Y-100807380D01*
X224653690Y-100855000D01*
X224701309Y-100902619D01*
X224748928Y-100997857D01*
X224796547Y-101188333D01*
X224796547Y-101426428D01*
X224748928Y-101616904D01*
X224701309Y-101712142D01*
X224653690Y-101759761D01*
X224558452Y-101807380D01*
X224463214Y-101807380D01*
X224367976Y-101759761D01*
X224320357Y-101712142D01*
X224272738Y-101616904D01*
X224225119Y-101426428D01*
X224225119Y-101188333D01*
X224272738Y-100997857D01*
X224320357Y-100902619D01*
X224367976Y-100855000D01*
X224463214Y-100807380D01*
X225987023Y-101807380D02*
X225987023Y-100807380D01*
X226225119Y-100807380D01*
X226367976Y-100855000D01*
X226463214Y-100950238D01*
X226510833Y-101045476D01*
X226558452Y-101235952D01*
X226558452Y-101378809D01*
X226510833Y-101569285D01*
X226463214Y-101664523D01*
X226367976Y-101759761D01*
X226225119Y-101807380D01*
X225987023Y-101807380D01*
X226987023Y-101807380D02*
X226987023Y-100807380D01*
X227987023Y-100855000D02*
X227891785Y-100807380D01*
X227748928Y-100807380D01*
X227606071Y-100855000D01*
X227510833Y-100950238D01*
X227463214Y-101045476D01*
X227415595Y-101235952D01*
X227415595Y-101378809D01*
X227463214Y-101569285D01*
X227510833Y-101664523D01*
X227606071Y-101759761D01*
X227748928Y-101807380D01*
X227844166Y-101807380D01*
X227987023Y-101759761D01*
X228034642Y-101712142D01*
X228034642Y-101378809D01*
X227844166Y-101378809D01*
X228510833Y-101807380D02*
X228701309Y-101807380D01*
X228796547Y-101759761D01*
X228844166Y-101712142D01*
X228939404Y-101569285D01*
X228987023Y-101378809D01*
X228987023Y-100997857D01*
X228939404Y-100902619D01*
X228891785Y-100855000D01*
X228796547Y-100807380D01*
X228606071Y-100807380D01*
X228510833Y-100855000D01*
X228463214Y-100902619D01*
X228415595Y-100997857D01*
X228415595Y-101235952D01*
X228463214Y-101331190D01*
X228510833Y-101378809D01*
X228606071Y-101426428D01*
X228796547Y-101426428D01*
X228891785Y-101378809D01*
X228939404Y-101331190D01*
X228987023Y-101235952D01*
X220129880Y-93663571D02*
X220463214Y-93663571D01*
X220606071Y-94187380D02*
X220129880Y-94187380D01*
X220129880Y-93187380D01*
X220606071Y-93187380D01*
X221034642Y-94187380D02*
X221034642Y-93187380D01*
X221606071Y-94187380D01*
X221606071Y-93187380D01*
X221844166Y-94282619D02*
X222606071Y-94282619D01*
X222701309Y-93187380D02*
X223272738Y-93187380D01*
X222987023Y-94187380D02*
X222987023Y-93187380D01*
X223463214Y-93187380D02*
X224034642Y-93187380D01*
X223748928Y-94187380D02*
X223748928Y-93187380D01*
X224558452Y-93711190D02*
X224558452Y-94187380D01*
X224225119Y-93187380D02*
X224558452Y-93711190D01*
X224891785Y-93187380D01*
X225987023Y-94187380D02*
X225987023Y-93187380D01*
X226225119Y-93187380D01*
X226367976Y-93235000D01*
X226463214Y-93330238D01*
X226510833Y-93425476D01*
X226558452Y-93615952D01*
X226558452Y-93758809D01*
X226510833Y-93949285D01*
X226463214Y-94044523D01*
X226367976Y-94139761D01*
X226225119Y-94187380D01*
X225987023Y-94187380D01*
X226987023Y-94187380D02*
X226987023Y-93187380D01*
X227987023Y-93235000D02*
X227891785Y-93187380D01*
X227748928Y-93187380D01*
X227606071Y-93235000D01*
X227510833Y-93330238D01*
X227463214Y-93425476D01*
X227415595Y-93615952D01*
X227415595Y-93758809D01*
X227463214Y-93949285D01*
X227510833Y-94044523D01*
X227606071Y-94139761D01*
X227748928Y-94187380D01*
X227844166Y-94187380D01*
X227987023Y-94139761D01*
X228034642Y-94092142D01*
X228034642Y-93758809D01*
X227844166Y-93758809D01*
X228891785Y-93187380D02*
X228701309Y-93187380D01*
X228606071Y-93235000D01*
X228558452Y-93282619D01*
X228463214Y-93425476D01*
X228415595Y-93615952D01*
X228415595Y-93996904D01*
X228463214Y-94092142D01*
X228510833Y-94139761D01*
X228606071Y-94187380D01*
X228796547Y-94187380D01*
X228891785Y-94139761D01*
X228939404Y-94092142D01*
X228987023Y-93996904D01*
X228987023Y-93758809D01*
X228939404Y-93663571D01*
X228891785Y-93615952D01*
X228796547Y-93568333D01*
X228606071Y-93568333D01*
X228510833Y-93615952D01*
X228463214Y-93663571D01*
X228415595Y-93758809D01*
X220082261Y-117047380D02*
X220082261Y-116047380D01*
X220653690Y-117047380D02*
X220225119Y-116475952D01*
X220653690Y-116047380D02*
X220082261Y-116618809D01*
X221415595Y-116523571D02*
X221558452Y-116571190D01*
X221606071Y-116618809D01*
X221653690Y-116714047D01*
X221653690Y-116856904D01*
X221606071Y-116952142D01*
X221558452Y-116999761D01*
X221463214Y-117047380D01*
X221082261Y-117047380D01*
X221082261Y-116047380D01*
X221415595Y-116047380D01*
X221510833Y-116095000D01*
X221558452Y-116142619D01*
X221606071Y-116237857D01*
X221606071Y-116333095D01*
X221558452Y-116428333D01*
X221510833Y-116475952D01*
X221415595Y-116523571D01*
X221082261Y-116523571D01*
X222653690Y-116952142D02*
X222606071Y-116999761D01*
X222463214Y-117047380D01*
X222367976Y-117047380D01*
X222225119Y-116999761D01*
X222129880Y-116904523D01*
X222082261Y-116809285D01*
X222034642Y-116618809D01*
X222034642Y-116475952D01*
X222082261Y-116285476D01*
X222129880Y-116190238D01*
X222225119Y-116095000D01*
X222367976Y-116047380D01*
X222463214Y-116047380D01*
X222606071Y-116095000D01*
X222653690Y-116142619D01*
X223606071Y-117047380D02*
X223034642Y-117047380D01*
X223320357Y-117047380D02*
X223320357Y-116047380D01*
X223225119Y-116190238D01*
X223129880Y-116285476D01*
X223034642Y-116333095D01*
X224748928Y-116999761D02*
X224891785Y-117047380D01*
X225129880Y-117047380D01*
X225225119Y-116999761D01*
X225272738Y-116952142D01*
X225320357Y-116856904D01*
X225320357Y-116761666D01*
X225272738Y-116666428D01*
X225225119Y-116618809D01*
X225129880Y-116571190D01*
X224939404Y-116523571D01*
X224844166Y-116475952D01*
X224796547Y-116428333D01*
X224748928Y-116333095D01*
X224748928Y-116237857D01*
X224796547Y-116142619D01*
X224844166Y-116095000D01*
X224939404Y-116047380D01*
X225177500Y-116047380D01*
X225320357Y-116095000D01*
X225748928Y-116523571D02*
X226082261Y-116523571D01*
X226225119Y-117047380D02*
X225748928Y-117047380D01*
X225748928Y-116047380D01*
X226225119Y-116047380D01*
X227177500Y-116095000D02*
X227082261Y-116047380D01*
X226939404Y-116047380D01*
X226796547Y-116095000D01*
X226701309Y-116190238D01*
X226653690Y-116285476D01*
X226606071Y-116475952D01*
X226606071Y-116618809D01*
X226653690Y-116809285D01*
X226701309Y-116904523D01*
X226796547Y-116999761D01*
X226939404Y-117047380D01*
X227034642Y-117047380D01*
X227177500Y-116999761D01*
X227225119Y-116952142D01*
X227225119Y-116618809D01*
X227034642Y-116618809D01*
X227415595Y-117142619D02*
X228177500Y-117142619D01*
X228748928Y-116523571D02*
X228891785Y-116571190D01*
X228939404Y-116618809D01*
X228987023Y-116714047D01*
X228987023Y-116856904D01*
X228939404Y-116952142D01*
X228891785Y-116999761D01*
X228796547Y-117047380D01*
X228415595Y-117047380D01*
X228415595Y-116047380D01*
X228748928Y-116047380D01*
X228844166Y-116095000D01*
X228891785Y-116142619D01*
X228939404Y-116237857D01*
X228939404Y-116333095D01*
X228891785Y-116428333D01*
X228844166Y-116475952D01*
X228748928Y-116523571D01*
X228415595Y-116523571D01*
X219987023Y-89107380D02*
X219987023Y-88107380D01*
X220558452Y-89107380D02*
X220129880Y-88535952D01*
X220558452Y-88107380D02*
X219987023Y-88678809D01*
X220987023Y-88583571D02*
X221320357Y-88583571D01*
X221463214Y-89107380D02*
X220987023Y-89107380D01*
X220987023Y-88107380D01*
X221463214Y-88107380D01*
X222082261Y-88631190D02*
X222082261Y-89107380D01*
X221748928Y-88107380D02*
X222082261Y-88631190D01*
X222415595Y-88107380D01*
X222510833Y-89202619D02*
X223272738Y-89202619D01*
X223463214Y-89059761D02*
X223606071Y-89107380D01*
X223844166Y-89107380D01*
X223939404Y-89059761D01*
X223987023Y-89012142D01*
X224034642Y-88916904D01*
X224034642Y-88821666D01*
X223987023Y-88726428D01*
X223939404Y-88678809D01*
X223844166Y-88631190D01*
X223653690Y-88583571D01*
X223558452Y-88535952D01*
X223510833Y-88488333D01*
X223463214Y-88393095D01*
X223463214Y-88297857D01*
X223510833Y-88202619D01*
X223558452Y-88155000D01*
X223653690Y-88107380D01*
X223891785Y-88107380D01*
X224034642Y-88155000D01*
X224320357Y-88107380D02*
X224891785Y-88107380D01*
X224606071Y-89107380D02*
X224606071Y-88107380D01*
X225987023Y-89107380D02*
X225987023Y-88107380D01*
X226225119Y-88107380D01*
X226367976Y-88155000D01*
X226463214Y-88250238D01*
X226510833Y-88345476D01*
X226558452Y-88535952D01*
X226558452Y-88678809D01*
X226510833Y-88869285D01*
X226463214Y-88964523D01*
X226367976Y-89059761D01*
X226225119Y-89107380D01*
X225987023Y-89107380D01*
X226987023Y-89107380D02*
X226987023Y-88107380D01*
X227987023Y-88155000D02*
X227891785Y-88107380D01*
X227748928Y-88107380D01*
X227606071Y-88155000D01*
X227510833Y-88250238D01*
X227463214Y-88345476D01*
X227415595Y-88535952D01*
X227415595Y-88678809D01*
X227463214Y-88869285D01*
X227510833Y-88964523D01*
X227606071Y-89059761D01*
X227748928Y-89107380D01*
X227844166Y-89107380D01*
X227987023Y-89059761D01*
X228034642Y-89012142D01*
X228034642Y-88678809D01*
X227844166Y-88678809D01*
X228891785Y-88440714D02*
X228891785Y-89107380D01*
X228653690Y-88059761D02*
X228415595Y-88774047D01*
X229034642Y-88774047D01*
X221272738Y-81439761D02*
X221415595Y-81487380D01*
X221653690Y-81487380D01*
X221748928Y-81439761D01*
X221796547Y-81392142D01*
X221844166Y-81296904D01*
X221844166Y-81201666D01*
X221796547Y-81106428D01*
X221748928Y-81058809D01*
X221653690Y-81011190D01*
X221463214Y-80963571D01*
X221367976Y-80915952D01*
X221320357Y-80868333D01*
X221272738Y-80773095D01*
X221272738Y-80677857D01*
X221320357Y-80582619D01*
X221367976Y-80535000D01*
X221463214Y-80487380D01*
X221701309Y-80487380D01*
X221844166Y-80535000D01*
X222272738Y-81487380D02*
X222272738Y-80487380D01*
X222653690Y-80487380D01*
X222748928Y-80535000D01*
X222796547Y-80582619D01*
X222844166Y-80677857D01*
X222844166Y-80820714D01*
X222796547Y-80915952D01*
X222748928Y-80963571D01*
X222653690Y-81011190D01*
X222272738Y-81011190D01*
X223034642Y-81582619D02*
X223796547Y-81582619D01*
X223987023Y-80582619D02*
X224034642Y-80535000D01*
X224129880Y-80487380D01*
X224367976Y-80487380D01*
X224463214Y-80535000D01*
X224510833Y-80582619D01*
X224558452Y-80677857D01*
X224558452Y-80773095D01*
X224510833Y-80915952D01*
X223939404Y-81487380D01*
X224558452Y-81487380D01*
X225701309Y-81439761D02*
X225844166Y-81487380D01*
X226082261Y-81487380D01*
X226177500Y-81439761D01*
X226225119Y-81392142D01*
X226272738Y-81296904D01*
X226272738Y-81201666D01*
X226225119Y-81106428D01*
X226177500Y-81058809D01*
X226082261Y-81011190D01*
X225891785Y-80963571D01*
X225796547Y-80915952D01*
X225748928Y-80868333D01*
X225701309Y-80773095D01*
X225701309Y-80677857D01*
X225748928Y-80582619D01*
X225796547Y-80535000D01*
X225891785Y-80487380D01*
X226129880Y-80487380D01*
X226272738Y-80535000D01*
X226701309Y-81487380D02*
X226701309Y-80487380D01*
X227082261Y-80487380D01*
X227177500Y-80535000D01*
X227225119Y-80582619D01*
X227272738Y-80677857D01*
X227272738Y-80820714D01*
X227225119Y-80915952D01*
X227177500Y-80963571D01*
X227082261Y-81011190D01*
X226701309Y-81011190D01*
X227463214Y-81582619D02*
X228225119Y-81582619D01*
X228891785Y-80487380D02*
X228701309Y-80487380D01*
X228606071Y-80535000D01*
X228558452Y-80582619D01*
X228463214Y-80725476D01*
X228415595Y-80915952D01*
X228415595Y-81296904D01*
X228463214Y-81392142D01*
X228510833Y-81439761D01*
X228606071Y-81487380D01*
X228796547Y-81487380D01*
X228891785Y-81439761D01*
X228939404Y-81392142D01*
X228987023Y-81296904D01*
X228987023Y-81058809D01*
X228939404Y-80963571D01*
X228891785Y-80915952D01*
X228796547Y-80868333D01*
X228606071Y-80868333D01*
X228510833Y-80915952D01*
X228463214Y-80963571D01*
X228415595Y-81058809D01*
X221272738Y-99267380D02*
X221272738Y-98267380D01*
X221844166Y-99267380D02*
X221415595Y-98695952D01*
X221844166Y-98267380D02*
X221272738Y-98838809D01*
X222606071Y-98743571D02*
X222748928Y-98791190D01*
X222796547Y-98838809D01*
X222844166Y-98934047D01*
X222844166Y-99076904D01*
X222796547Y-99172142D01*
X222748928Y-99219761D01*
X222653690Y-99267380D01*
X222272738Y-99267380D01*
X222272738Y-98267380D01*
X222606071Y-98267380D01*
X222701309Y-98315000D01*
X222748928Y-98362619D01*
X222796547Y-98457857D01*
X222796547Y-98553095D01*
X222748928Y-98648333D01*
X222701309Y-98695952D01*
X222606071Y-98743571D01*
X222272738Y-98743571D01*
X223844166Y-99267380D02*
X223510833Y-98791190D01*
X223272738Y-99267380D02*
X223272738Y-98267380D01*
X223653690Y-98267380D01*
X223748928Y-98315000D01*
X223796547Y-98362619D01*
X223844166Y-98457857D01*
X223844166Y-98600714D01*
X223796547Y-98695952D01*
X223748928Y-98743571D01*
X223653690Y-98791190D01*
X223272738Y-98791190D01*
X224796547Y-99267380D02*
X224225119Y-99267380D01*
X224510833Y-99267380D02*
X224510833Y-98267380D01*
X224415595Y-98410238D01*
X224320357Y-98505476D01*
X224225119Y-98553095D01*
X225987023Y-99267380D02*
X225987023Y-98267380D01*
X226225119Y-98267380D01*
X226367976Y-98315000D01*
X226463214Y-98410238D01*
X226510833Y-98505476D01*
X226558452Y-98695952D01*
X226558452Y-98838809D01*
X226510833Y-99029285D01*
X226463214Y-99124523D01*
X226367976Y-99219761D01*
X226225119Y-99267380D01*
X225987023Y-99267380D01*
X226987023Y-99267380D02*
X226987023Y-98267380D01*
X227987023Y-98315000D02*
X227891785Y-98267380D01*
X227748928Y-98267380D01*
X227606071Y-98315000D01*
X227510833Y-98410238D01*
X227463214Y-98505476D01*
X227415595Y-98695952D01*
X227415595Y-98838809D01*
X227463214Y-99029285D01*
X227510833Y-99124523D01*
X227606071Y-99219761D01*
X227748928Y-99267380D01*
X227844166Y-99267380D01*
X227987023Y-99219761D01*
X228034642Y-99172142D01*
X228034642Y-98838809D01*
X227844166Y-98838809D01*
X228606071Y-98695952D02*
X228510833Y-98648333D01*
X228463214Y-98600714D01*
X228415595Y-98505476D01*
X228415595Y-98457857D01*
X228463214Y-98362619D01*
X228510833Y-98315000D01*
X228606071Y-98267380D01*
X228796547Y-98267380D01*
X228891785Y-98315000D01*
X228939404Y-98362619D01*
X228987023Y-98457857D01*
X228987023Y-98505476D01*
X228939404Y-98600714D01*
X228891785Y-98648333D01*
X228796547Y-98695952D01*
X228606071Y-98695952D01*
X228510833Y-98743571D01*
X228463214Y-98791190D01*
X228415595Y-98886428D01*
X228415595Y-99076904D01*
X228463214Y-99172142D01*
X228510833Y-99219761D01*
X228606071Y-99267380D01*
X228796547Y-99267380D01*
X228891785Y-99219761D01*
X228939404Y-99172142D01*
X228987023Y-99076904D01*
X228987023Y-98886428D01*
X228939404Y-98791190D01*
X228891785Y-98743571D01*
X228796547Y-98695952D01*
X221987023Y-86519761D02*
X222129880Y-86567380D01*
X222367976Y-86567380D01*
X222463214Y-86519761D01*
X222510833Y-86472142D01*
X222558452Y-86376904D01*
X222558452Y-86281666D01*
X222510833Y-86186428D01*
X222463214Y-86138809D01*
X222367976Y-86091190D01*
X222177500Y-86043571D01*
X222082261Y-85995952D01*
X222034642Y-85948333D01*
X221987023Y-85853095D01*
X221987023Y-85757857D01*
X222034642Y-85662619D01*
X222082261Y-85615000D01*
X222177500Y-85567380D01*
X222415595Y-85567380D01*
X222558452Y-85615000D01*
X222939404Y-86519761D02*
X223082261Y-86567380D01*
X223320357Y-86567380D01*
X223415595Y-86519761D01*
X223463214Y-86472142D01*
X223510833Y-86376904D01*
X223510833Y-86281666D01*
X223463214Y-86186428D01*
X223415595Y-86138809D01*
X223320357Y-86091190D01*
X223129880Y-86043571D01*
X223034642Y-85995952D01*
X222987023Y-85948333D01*
X222939404Y-85853095D01*
X222939404Y-85757857D01*
X222987023Y-85662619D01*
X223034642Y-85615000D01*
X223129880Y-85567380D01*
X223367976Y-85567380D01*
X223510833Y-85615000D01*
X223796547Y-85567380D02*
X224367976Y-85567380D01*
X224082261Y-86567380D02*
X224082261Y-85567380D01*
X226225119Y-85900714D02*
X226987023Y-86186428D01*
X226225119Y-86472142D01*
X227606071Y-85995952D02*
X227510833Y-85948333D01*
X227463214Y-85900714D01*
X227415595Y-85805476D01*
X227415595Y-85757857D01*
X227463214Y-85662619D01*
X227510833Y-85615000D01*
X227606071Y-85567380D01*
X227796547Y-85567380D01*
X227891785Y-85615000D01*
X227939404Y-85662619D01*
X227987023Y-85757857D01*
X227987023Y-85805476D01*
X227939404Y-85900714D01*
X227891785Y-85948333D01*
X227796547Y-85995952D01*
X227606071Y-85995952D01*
X227510833Y-86043571D01*
X227463214Y-86091190D01*
X227415595Y-86186428D01*
X227415595Y-86376904D01*
X227463214Y-86472142D01*
X227510833Y-86519761D01*
X227606071Y-86567380D01*
X227796547Y-86567380D01*
X227891785Y-86519761D01*
X227939404Y-86472142D01*
X227987023Y-86376904D01*
X227987023Y-86186428D01*
X227939404Y-86091190D01*
X227891785Y-86043571D01*
X227796547Y-85995952D01*
X228415595Y-86567380D02*
X228415595Y-85567380D01*
X228987023Y-86567380D02*
X228558452Y-85995952D01*
X228987023Y-85567380D02*
X228415595Y-86138809D01*
X222606071Y-72867380D02*
X222939404Y-73867380D01*
X223272738Y-72867380D01*
X224177500Y-73772142D02*
X224129880Y-73819761D01*
X223987023Y-73867380D01*
X223891785Y-73867380D01*
X223748928Y-73819761D01*
X223653690Y-73724523D01*
X223606071Y-73629285D01*
X223558452Y-73438809D01*
X223558452Y-73295952D01*
X223606071Y-73105476D01*
X223653690Y-73010238D01*
X223748928Y-72915000D01*
X223891785Y-72867380D01*
X223987023Y-72867380D01*
X224129880Y-72915000D01*
X224177500Y-72962619D01*
X225177500Y-73772142D02*
X225129880Y-73819761D01*
X224987023Y-73867380D01*
X224891785Y-73867380D01*
X224748928Y-73819761D01*
X224653690Y-73724523D01*
X224606071Y-73629285D01*
X224558452Y-73438809D01*
X224558452Y-73295952D01*
X224606071Y-73105476D01*
X224653690Y-73010238D01*
X224748928Y-72915000D01*
X224891785Y-72867380D01*
X224987023Y-72867380D01*
X225129880Y-72915000D01*
X225177500Y-72962619D01*
X226891785Y-72915000D02*
X226796547Y-72867380D01*
X226653690Y-72867380D01*
X226510833Y-72915000D01*
X226415595Y-73010238D01*
X226367976Y-73105476D01*
X226320357Y-73295952D01*
X226320357Y-73438809D01*
X226367976Y-73629285D01*
X226415595Y-73724523D01*
X226510833Y-73819761D01*
X226653690Y-73867380D01*
X226748928Y-73867380D01*
X226891785Y-73819761D01*
X226939404Y-73772142D01*
X226939404Y-73438809D01*
X226748928Y-73438809D01*
X227367976Y-73867380D02*
X227367976Y-72867380D01*
X227939404Y-73867380D01*
X227939404Y-72867380D01*
X228415595Y-73867380D02*
X228415595Y-72867380D01*
X228653690Y-72867380D01*
X228796547Y-72915000D01*
X228891785Y-73010238D01*
X228939404Y-73105476D01*
X228987023Y-73295952D01*
X228987023Y-73438809D01*
X228939404Y-73629285D01*
X228891785Y-73724523D01*
X228796547Y-73819761D01*
X228653690Y-73867380D01*
X228415595Y-73867380D01*
%TO.C,P2*%
X129768000Y-117576000D02*
X129768000Y-120676000D01*
X150368000Y-120396000D02*
X150368000Y-117856000D01*
X150368000Y-117856000D02*
X132588000Y-117856000D01*
X132588000Y-120396000D02*
X150368000Y-120396000D01*
X132588000Y-120396000D02*
X132588000Y-117856000D01*
X131318000Y-117576000D02*
X129768000Y-117576000D01*
X129768000Y-120676000D02*
X131318000Y-120676000D01*
%TO.C,P3*%
X173228000Y-117856000D02*
X155448000Y-117856000D01*
X155448000Y-120396000D02*
X155448000Y-117856000D01*
X152628000Y-120676000D02*
X154178000Y-120676000D01*
X155448000Y-120396000D02*
X173228000Y-120396000D01*
X154178000Y-117576000D02*
X152628000Y-117576000D01*
X152628000Y-117576000D02*
X152628000Y-120676000D01*
X173228000Y-120396000D02*
X173228000Y-117856000D01*
%TO.C,P4*%
X178308000Y-120396000D02*
X178308000Y-117856000D01*
X196088000Y-117856000D02*
X178308000Y-117856000D01*
X175488000Y-117576000D02*
X175488000Y-120676000D01*
X178308000Y-120396000D02*
X196088000Y-120396000D01*
X196088000Y-120396000D02*
X196088000Y-117856000D01*
X175488000Y-120676000D02*
X177038000Y-120676000D01*
X177038000Y-117576000D02*
X175488000Y-117576000D01*
%TO.C,P5*%
X120904000Y-72136000D02*
X143764000Y-72136000D01*
X143764000Y-69596000D02*
X143764000Y-72136000D01*
X146584000Y-72416000D02*
X146584000Y-69316000D01*
X145034000Y-72416000D02*
X146584000Y-72416000D01*
X143764000Y-69596000D02*
X120904000Y-69596000D01*
X146584000Y-69316000D02*
X145034000Y-69316000D01*
X120904000Y-69596000D02*
X120904000Y-72136000D01*
%TO.C,P6*%
X168428000Y-72416000D02*
X168428000Y-69316000D01*
X165608000Y-69596000D02*
X147828000Y-69596000D01*
X165608000Y-69596000D02*
X165608000Y-72136000D01*
X147828000Y-72136000D02*
X165608000Y-72136000D01*
X166878000Y-72416000D02*
X168428000Y-72416000D01*
X168428000Y-69316000D02*
X166878000Y-69316000D01*
X147828000Y-69596000D02*
X147828000Y-72136000D01*
%TO.C,P7*%
X170688000Y-72136000D02*
X188468000Y-72136000D01*
X189738000Y-72416000D02*
X191288000Y-72416000D01*
X188468000Y-69596000D02*
X170688000Y-69596000D01*
X170688000Y-69596000D02*
X170688000Y-72136000D01*
X191288000Y-69316000D02*
X189738000Y-69316000D01*
X188468000Y-69596000D02*
X188468000Y-72136000D01*
X191288000Y-72416000D02*
X191288000Y-69316000D01*
D13*
%TO.C,J101*%
X198628000Y-69596000D02*
X198628000Y-72136000D01*
D10*
X201168000Y-69596000D02*
X198628000Y-69596000D01*
X196088000Y-71096000D02*
X196088000Y-69596000D01*
X201168000Y-115316000D02*
X201168000Y-72136000D01*
X201168000Y-69596000D02*
X201168000Y-72136000D01*
X198628000Y-72136000D02*
X196088000Y-72136000D01*
X196088000Y-72136000D02*
X196088000Y-115316000D01*
X197588000Y-69596000D02*
X196088000Y-69596000D01*
X196088000Y-115316000D02*
X201168000Y-115316000D01*
D13*
%TO.C,R101*%
X185330000Y-95480000D02*
X185660000Y-95480000D01*
X187740000Y-88940000D02*
X188070000Y-88940000D01*
X188070000Y-88940000D02*
X188070000Y-95480000D01*
X188070000Y-95480000D02*
X187740000Y-95480000D01*
X185660000Y-88940000D02*
X185330000Y-88940000D01*
X185330000Y-88940000D02*
X185330000Y-95480000D01*
%TO.C,D101*%
X185835000Y-81564000D02*
X185835000Y-81720000D01*
X185835000Y-83880000D02*
X185835000Y-84036000D01*
X185835000Y-84035516D02*
G75*
G03*
X189067335Y-83878608I1560000J1235517D01*
G01*
X189067335Y-81721392D02*
G75*
G03*
X185835000Y-81564484I-1672335J-1078609D01*
G01*
X188436130Y-81720163D02*
G75*
G03*
X186354039Y-81720000I-1041130J-1079837D01*
G01*
X186354039Y-83880000D02*
G75*
G03*
X188436130Y-83879837I1040961J1080000D01*
G01*
%TO.C,J102*%
X232495000Y-69545000D02*
X235095000Y-69545000D01*
X229895000Y-70875000D02*
X229895000Y-69545000D01*
X229895000Y-72145000D02*
X229895000Y-120465000D01*
X232495000Y-72145000D02*
X232495000Y-69545000D01*
X229895000Y-120465000D02*
X235095000Y-120465000D01*
X235095000Y-69545000D02*
X235095000Y-120465000D01*
X229895000Y-72145000D02*
X232495000Y-72145000D01*
X229895000Y-69545000D02*
X231225000Y-69545000D01*
%TD*%
D14*
%TO.C,P2*%
X131318000Y-119126000D03*
X133858000Y-119126000D03*
X136398000Y-119126000D03*
X138938000Y-119126000D03*
X141478000Y-119126000D03*
X144018000Y-119126000D03*
X146558000Y-119126000D03*
X149098000Y-119126000D03*
%TD*%
%TO.C,P3*%
X154178000Y-119126000D03*
X156718000Y-119126000D03*
X159258000Y-119126000D03*
X161798000Y-119126000D03*
X164338000Y-119126000D03*
X166878000Y-119126000D03*
X169418000Y-119126000D03*
X171958000Y-119126000D03*
%TD*%
%TO.C,P4*%
X177038000Y-119126000D03*
X179578000Y-119126000D03*
X182118000Y-119126000D03*
X184658000Y-119126000D03*
X187198000Y-119126000D03*
X189738000Y-119126000D03*
X192278000Y-119126000D03*
X194818000Y-119126000D03*
%TD*%
%TO.C,P5*%
X145034000Y-70866000D03*
X142494000Y-70866000D03*
X139954000Y-70866000D03*
X137414000Y-70866000D03*
X134874000Y-70866000D03*
X132334000Y-70866000D03*
X129794000Y-70866000D03*
X127254000Y-70866000D03*
X124714000Y-70866000D03*
X122174000Y-70866000D03*
%TD*%
%TO.C,P6*%
X166878000Y-70866000D03*
X164338000Y-70866000D03*
X161798000Y-70866000D03*
X159258000Y-70866000D03*
X156718000Y-70866000D03*
X154178000Y-70866000D03*
X151638000Y-70866000D03*
X149098000Y-70866000D03*
%TD*%
%TO.C,P7*%
X189738000Y-70866000D03*
X187198000Y-70866000D03*
X184658000Y-70866000D03*
X182118000Y-70866000D03*
X179578000Y-70866000D03*
X177038000Y-70866000D03*
X174498000Y-70866000D03*
X171958000Y-70866000D03*
%TD*%
D15*
%TO.C,J101*%
X197358000Y-70866000D03*
D16*
X199898000Y-70866000D03*
D15*
X197358000Y-73406000D03*
X199898000Y-73406000D03*
X197358000Y-75946000D03*
X199898000Y-75946000D03*
X197358000Y-78486000D03*
X199898000Y-78486000D03*
X197358000Y-81026000D03*
X199898000Y-81026000D03*
X197358000Y-83566000D03*
X199898000Y-83566000D03*
X197358000Y-86106000D03*
X199898000Y-86106000D03*
X197358000Y-88646000D03*
X199898000Y-88646000D03*
X197358000Y-91186000D03*
X199898000Y-91186000D03*
X197358000Y-93726000D03*
X199898000Y-93726000D03*
X197358000Y-96266000D03*
X199898000Y-96266000D03*
X197358000Y-98806000D03*
X199898000Y-98806000D03*
X197358000Y-101346000D03*
X199898000Y-101346000D03*
X197358000Y-103886000D03*
X199898000Y-103886000D03*
X197358000Y-106426000D03*
X199898000Y-106426000D03*
X197358000Y-108966000D03*
X199898000Y-108966000D03*
X197358000Y-111506000D03*
X199898000Y-111506000D03*
X197358000Y-114046000D03*
X199898000Y-114046000D03*
%TD*%
M02*
