%TF.GenerationSoftware,KiCad,Pcbnew,6.0.2+dfsg-1*%
%TF.CreationDate,2022-06-01T22:42:02-04:00*%
%TF.ProjectId,kim1-earthpeople,6b696d31-2d65-4617-9274-6870656f706c,rev?*%
%TF.SameCoordinates,Original*%
%TF.FileFunction,Copper,L1,Top*%
%TF.FilePolarity,Positive*%
%FSLAX46Y46*%
G04 Gerber Fmt 4.6, Leading zero omitted, Abs format (unit mm)*
G04 Created by KiCad (PCBNEW 6.0.2+dfsg-1) date 2022-06-01 22:42:02*
%MOMM*%
%LPD*%
G01*
G04 APERTURE LIST*
%ADD10C,0.750000*%
%TA.AperFunction,NonConductor*%
%ADD11C,0.750000*%
%TD*%
%TA.AperFunction,ComponentPad*%
%ADD12C,1.600000*%
%TD*%
%TA.AperFunction,ComponentPad*%
%ADD13O,1.600000X1.600000*%
%TD*%
%TA.AperFunction,ComponentPad*%
%ADD14R,1.800000X1.800000*%
%TD*%
%TA.AperFunction,ComponentPad*%
%ADD15C,1.800000*%
%TD*%
%TA.AperFunction,ComponentPad*%
%ADD16O,1.727200X2.032000*%
%TD*%
%TA.AperFunction,ComponentPad*%
%ADD17O,1.727200X1.727200*%
%TD*%
%TA.AperFunction,ComponentPad*%
%ADD18C,1.727200*%
%TD*%
%TA.AperFunction,ComponentPad*%
%ADD19R,1.700000X1.700000*%
%TD*%
%TA.AperFunction,ComponentPad*%
%ADD20O,1.700000X1.700000*%
%TD*%
%TA.AperFunction,Conductor*%
%ADD21C,0.250000*%
%TD*%
%TA.AperFunction,Conductor*%
%ADD22C,0.500000*%
%TD*%
G04 APERTURE END LIST*
D10*
D11*
X122628571Y-87642142D02*
X122628571Y-84642142D01*
X124342857Y-87642142D02*
X123057142Y-85927857D01*
X124342857Y-84642142D02*
X122628571Y-86356428D01*
X125628571Y-87642142D02*
X125628571Y-84642142D01*
X127057142Y-87642142D02*
X127057142Y-84642142D01*
X128057142Y-86785000D01*
X129057142Y-84642142D01*
X129057142Y-87642142D01*
X130485714Y-86499285D02*
X132771428Y-86499285D01*
X135771428Y-87642142D02*
X134057142Y-87642142D01*
X134914285Y-87642142D02*
X134914285Y-84642142D01*
X134628571Y-85070714D01*
X134342857Y-85356428D01*
X134057142Y-85499285D01*
X141057142Y-87642142D02*
X140057142Y-86213571D01*
X139342857Y-87642142D02*
X139342857Y-84642142D01*
X140485714Y-84642142D01*
X140771428Y-84785000D01*
X140914285Y-84927857D01*
X141057142Y-85213571D01*
X141057142Y-85642142D01*
X140914285Y-85927857D01*
X140771428Y-86070714D01*
X140485714Y-86213571D01*
X139342857Y-86213571D01*
X142342857Y-86070714D02*
X143342857Y-86070714D01*
X143771428Y-87642142D02*
X142342857Y-87642142D01*
X142342857Y-84642142D01*
X143771428Y-84642142D01*
X145057142Y-87642142D02*
X145057142Y-84642142D01*
X146200000Y-84642142D01*
X146485714Y-84785000D01*
X146628571Y-84927857D01*
X146771428Y-85213571D01*
X146771428Y-85642142D01*
X146628571Y-85927857D01*
X146485714Y-86070714D01*
X146200000Y-86213571D01*
X145057142Y-86213571D01*
X149485714Y-87642142D02*
X148057142Y-87642142D01*
X148057142Y-84642142D01*
X150485714Y-87642142D02*
X150485714Y-84642142D01*
X153628571Y-87356428D02*
X153485714Y-87499285D01*
X153057142Y-87642142D01*
X152771428Y-87642142D01*
X152342857Y-87499285D01*
X152057142Y-87213571D01*
X151914285Y-86927857D01*
X151771428Y-86356428D01*
X151771428Y-85927857D01*
X151914285Y-85356428D01*
X152057142Y-85070714D01*
X152342857Y-84785000D01*
X152771428Y-84642142D01*
X153057142Y-84642142D01*
X153485714Y-84785000D01*
X153628571Y-84927857D01*
X154771428Y-86785000D02*
X156200000Y-86785000D01*
X154485714Y-87642142D02*
X155485714Y-84642142D01*
X156485714Y-87642142D01*
X159771428Y-87642142D02*
X159771428Y-84642142D01*
X161200000Y-87642142D02*
X161200000Y-84642142D01*
X162914285Y-87642142D01*
X162914285Y-84642142D01*
X163914285Y-84642142D02*
X165628571Y-84642142D01*
X164771428Y-87642142D02*
X164771428Y-84642142D01*
X166628571Y-86070714D02*
X167628571Y-86070714D01*
X168057142Y-87642142D02*
X166628571Y-87642142D01*
X166628571Y-84642142D01*
X168057142Y-84642142D01*
X171057142Y-87642142D02*
X170057142Y-86213571D01*
X169342857Y-87642142D02*
X169342857Y-84642142D01*
X170485714Y-84642142D01*
X170771428Y-84785000D01*
X170914285Y-84927857D01*
X171057142Y-85213571D01*
X171057142Y-85642142D01*
X170914285Y-85927857D01*
X170771428Y-86070714D01*
X170485714Y-86213571D01*
X169342857Y-86213571D01*
X173342857Y-86070714D02*
X172342857Y-86070714D01*
X172342857Y-87642142D02*
X172342857Y-84642142D01*
X173771428Y-84642142D01*
X174771428Y-86785000D02*
X176200000Y-86785000D01*
X174485714Y-87642142D02*
X175485714Y-84642142D01*
X176485714Y-87642142D01*
X179200000Y-87356428D02*
X179057142Y-87499285D01*
X178628571Y-87642142D01*
X178342857Y-87642142D01*
X177914285Y-87499285D01*
X177628571Y-87213571D01*
X177485714Y-86927857D01*
X177342857Y-86356428D01*
X177342857Y-85927857D01*
X177485714Y-85356428D01*
X177628571Y-85070714D01*
X177914285Y-84785000D01*
X178342857Y-84642142D01*
X178628571Y-84642142D01*
X179057142Y-84785000D01*
X179200000Y-84927857D01*
X180485714Y-86070714D02*
X181485714Y-86070714D01*
X181914285Y-87642142D02*
X180485714Y-87642142D01*
X180485714Y-84642142D01*
X181914285Y-84642142D01*
X130700000Y-89472142D02*
X130700000Y-91615000D01*
X130557142Y-92043571D01*
X130271428Y-92329285D01*
X129842857Y-92472142D01*
X129557142Y-92472142D01*
X132128571Y-90900714D02*
X133128571Y-90900714D01*
X133557142Y-92472142D02*
X132128571Y-92472142D01*
X132128571Y-89472142D01*
X133557142Y-89472142D01*
X136557142Y-92472142D02*
X135557142Y-91043571D01*
X134842857Y-92472142D02*
X134842857Y-89472142D01*
X135985714Y-89472142D01*
X136271428Y-89615000D01*
X136414285Y-89757857D01*
X136557142Y-90043571D01*
X136557142Y-90472142D01*
X136414285Y-90757857D01*
X136271428Y-90900714D01*
X135985714Y-91043571D01*
X134842857Y-91043571D01*
X137842857Y-90900714D02*
X138842857Y-90900714D01*
X139271428Y-92472142D02*
X137842857Y-92472142D01*
X137842857Y-89472142D01*
X139271428Y-89472142D01*
X140557142Y-92472142D02*
X140557142Y-89472142D01*
X141557142Y-91615000D01*
X142557142Y-89472142D01*
X142557142Y-92472142D01*
X144557142Y-91043571D02*
X144557142Y-92472142D01*
X143557142Y-89472142D02*
X144557142Y-91043571D01*
X145557142Y-89472142D01*
X149700000Y-89472142D02*
X149700000Y-91615000D01*
X149557142Y-92043571D01*
X149271428Y-92329285D01*
X148842857Y-92472142D01*
X148557142Y-92472142D01*
X153271428Y-92329285D02*
X153700000Y-92472142D01*
X154414285Y-92472142D01*
X154700000Y-92329285D01*
X154842857Y-92186428D01*
X154985714Y-91900714D01*
X154985714Y-91615000D01*
X154842857Y-91329285D01*
X154700000Y-91186428D01*
X154414285Y-91043571D01*
X153842857Y-90900714D01*
X153557142Y-90757857D01*
X153414285Y-90615000D01*
X153271428Y-90329285D01*
X153271428Y-90043571D01*
X153414285Y-89757857D01*
X153557142Y-89615000D01*
X153842857Y-89472142D01*
X154557142Y-89472142D01*
X154985714Y-89615000D01*
X155842857Y-89472142D02*
X157557142Y-89472142D01*
X156700000Y-92472142D02*
X156700000Y-89472142D01*
X158414285Y-91615000D02*
X159842857Y-91615000D01*
X158128571Y-92472142D02*
X159128571Y-89472142D01*
X160128571Y-92472142D01*
X162842857Y-92472142D02*
X161842857Y-91043571D01*
X161128571Y-92472142D02*
X161128571Y-89472142D01*
X162271428Y-89472142D01*
X162557142Y-89615000D01*
X162700000Y-89757857D01*
X162842857Y-90043571D01*
X162842857Y-90472142D01*
X162700000Y-90757857D01*
X162557142Y-90900714D01*
X162271428Y-91043571D01*
X161128571Y-91043571D01*
X165842857Y-92186428D02*
X165700000Y-92329285D01*
X165271428Y-92472142D01*
X164985714Y-92472142D01*
X164557142Y-92329285D01*
X164271428Y-92043571D01*
X164128571Y-91757857D01*
X163985714Y-91186428D01*
X163985714Y-90757857D01*
X164128571Y-90186428D01*
X164271428Y-89900714D01*
X164557142Y-89615000D01*
X164985714Y-89472142D01*
X165271428Y-89472142D01*
X165700000Y-89615000D01*
X165842857Y-89757857D01*
X167128571Y-92472142D02*
X167128571Y-89472142D01*
X167128571Y-90900714D02*
X168842857Y-90900714D01*
X168842857Y-92472142D02*
X168842857Y-89472142D01*
X170271428Y-90900714D02*
X171271428Y-90900714D01*
X171700000Y-92472142D02*
X170271428Y-92472142D01*
X170271428Y-89472142D01*
X171700000Y-89472142D01*
X174700000Y-92472142D02*
X173700000Y-91043571D01*
X172985714Y-92472142D02*
X172985714Y-89472142D01*
X174128571Y-89472142D01*
X174414285Y-89615000D01*
X174557142Y-89757857D01*
X174700000Y-90043571D01*
X174700000Y-90472142D01*
X174557142Y-90757857D01*
X174414285Y-90900714D01*
X174128571Y-91043571D01*
X172985714Y-91043571D01*
D12*
%TO.P,R101,1*%
%TO.N,Net-(D101-Pad2)*%
X186700000Y-88400000D03*
D13*
%TO.P,R101,2*%
%TO.N,3V3*%
X186700000Y-96020000D03*
%TD*%
D14*
%TO.P,D101,1,K*%
%TO.N,GND*%
X186125000Y-82800000D03*
D15*
%TO.P,D101,2,A*%
%TO.N,Net-(D101-Pad2)*%
X188665000Y-82800000D03*
%TD*%
D16*
%TO.P,P2,1,Pin_1*%
%TO.N,unconnected-(P2-Pad1)*%
X131318000Y-119126000D03*
%TO.P,P2,2,Pin_2*%
%TO.N,unconnected-(P2-Pad2)*%
X133858000Y-119126000D03*
%TO.P,P2,3,Pin_3*%
%TO.N,unconnected-(P2-Pad3)*%
X136398000Y-119126000D03*
%TO.P,P2,4,Pin_4*%
%TO.N,unconnected-(P2-Pad4)*%
X138938000Y-119126000D03*
%TO.P,P2,5,Pin_5*%
%TO.N,unconnected-(P2-Pad5)*%
X141478000Y-119126000D03*
%TO.P,P2,6,Pin_6*%
%TO.N,GND*%
X144018000Y-119126000D03*
%TO.P,P2,7,Pin_7*%
X146558000Y-119126000D03*
%TO.P,P2,8,Pin_8*%
%TO.N,unconnected-(P2-Pad8)*%
X149098000Y-119126000D03*
%TD*%
%TO.P,P3,1,Pin_1*%
%TO.N,5V*%
X154178000Y-119126000D03*
%TO.P,P3,2,Pin_2*%
%TO.N,unconnected-(P3-Pad2)*%
X156718000Y-119126000D03*
%TO.P,P3,3,Pin_3*%
%TO.N,unconnected-(P3-Pad3)*%
X159258000Y-119126000D03*
%TO.P,P3,4,Pin_4*%
%TO.N,unconnected-(P3-Pad4)*%
X161798000Y-119126000D03*
%TO.P,P3,5,Pin_5*%
%TO.N,unconnected-(P3-Pad5)*%
X164338000Y-119126000D03*
%TO.P,P3,6,Pin_6*%
%TO.N,unconnected-(P3-Pad6)*%
X166878000Y-119126000D03*
%TO.P,P3,7,Pin_7*%
%TO.N,unconnected-(P3-Pad7)*%
X169418000Y-119126000D03*
%TO.P,P3,8,Pin_8*%
%TO.N,GND*%
X171958000Y-119126000D03*
%TD*%
%TO.P,P4,1,Pin_1*%
%TO.N,3V3*%
X177038000Y-119126000D03*
%TO.P,P4,2,Pin_2*%
%TO.N,unconnected-(P4-Pad2)*%
X179578000Y-119126000D03*
%TO.P,P4,3,Pin_3*%
%TO.N,unconnected-(P4-Pad3)*%
X182118000Y-119126000D03*
%TO.P,P4,4,Pin_4*%
%TO.N,unconnected-(P4-Pad4)*%
X184658000Y-119126000D03*
%TO.P,P4,5,Pin_5*%
%TO.N,unconnected-(P4-Pad5)*%
X187198000Y-119126000D03*
%TO.P,P4,6,Pin_6*%
%TO.N,unconnected-(P4-Pad6)*%
X189738000Y-119126000D03*
%TO.P,P4,7,Pin_7*%
%TO.N,unconnected-(P4-Pad7)*%
X192278000Y-119126000D03*
%TO.P,P4,8,Pin_8*%
%TO.N,GND*%
X194818000Y-119126000D03*
%TD*%
%TO.P,P5,1,Pin_1*%
%TO.N,unconnected-(P5-Pad1)*%
X145034000Y-70866000D03*
%TO.P,P5,2,Pin_2*%
%TO.N,unconnected-(P5-Pad2)*%
X142494000Y-70866000D03*
%TO.P,P5,3,Pin_3*%
%TO.N,unconnected-(P5-Pad3)*%
X139954000Y-70866000D03*
%TO.P,P5,4,Pin_4*%
%TO.N,unconnected-(P5-Pad4)*%
X137414000Y-70866000D03*
%TO.P,P5,5,Pin_5*%
%TO.N,unconnected-(P5-Pad5)*%
X134874000Y-70866000D03*
%TO.P,P5,6,Pin_6*%
%TO.N,unconnected-(P5-Pad6)*%
X132334000Y-70866000D03*
%TO.P,P5,7,Pin_7*%
%TO.N,unconnected-(P5-Pad7)*%
X129794000Y-70866000D03*
%TO.P,P5,8,Pin_8*%
%TO.N,unconnected-(P5-Pad8)*%
X127254000Y-70866000D03*
%TO.P,P5,9,Pin_9*%
%TO.N,unconnected-(P5-Pad9)*%
X124714000Y-70866000D03*
%TO.P,P5,10,Pin_10*%
%TO.N,unconnected-(P5-Pad10)*%
X122174000Y-70866000D03*
%TD*%
%TO.P,P6,1,Pin_1*%
%TO.N,3V3*%
X166878000Y-70866000D03*
%TO.P,P6,2,Pin_2*%
%TO.N,unconnected-(P6-Pad2)*%
X164338000Y-70866000D03*
%TO.P,P6,3,Pin_3*%
%TO.N,unconnected-(P6-Pad3)*%
X161798000Y-70866000D03*
%TO.P,P6,4,Pin_4*%
%TO.N,unconnected-(P6-Pad4)*%
X159258000Y-70866000D03*
%TO.P,P6,5,Pin_5*%
%TO.N,unconnected-(P6-Pad5)*%
X156718000Y-70866000D03*
%TO.P,P6,6,Pin_6*%
%TO.N,unconnected-(P6-Pad6)*%
X154178000Y-70866000D03*
%TO.P,P6,7,Pin_7*%
%TO.N,unconnected-(P6-Pad7)*%
X151638000Y-70866000D03*
%TO.P,P6,8,Pin_8*%
%TO.N,GND*%
X149098000Y-70866000D03*
%TD*%
%TO.P,P7,1,Pin_1*%
%TO.N,5V*%
X189738000Y-70866000D03*
%TO.P,P7,2,Pin_2*%
%TO.N,unconnected-(P7-Pad2)*%
X187198000Y-70866000D03*
%TO.P,P7,3,Pin_3*%
%TO.N,unconnected-(P7-Pad3)*%
X184658000Y-70866000D03*
%TO.P,P7,4,Pin_4*%
%TO.N,unconnected-(P7-Pad4)*%
X182118000Y-70866000D03*
%TO.P,P7,5,Pin_5*%
%TO.N,unconnected-(P7-Pad5)*%
X179578000Y-70866000D03*
%TO.P,P7,6,Pin_6*%
%TO.N,unconnected-(P7-Pad6)*%
X177038000Y-70866000D03*
%TO.P,P7,7,Pin_7*%
%TO.N,unconnected-(P7-Pad7)*%
X174498000Y-70866000D03*
%TO.P,P7,8,Pin_8*%
%TO.N,GND*%
X171958000Y-70866000D03*
%TD*%
D17*
%TO.P,J101,1,Pin_1*%
%TO.N,3V3*%
X197358000Y-70866000D03*
D18*
%TO.P,J101,2,Pin_2*%
%TO.N,5V*%
X199898000Y-70866000D03*
D17*
%TO.P,J101,3,Pin_3*%
%TO.N,SPARE1*%
X197358000Y-73406000D03*
%TO.P,J101,4,Pin_4*%
%TO.N,SPARE6*%
X199898000Y-73406000D03*
%TO.P,J101,5,Pin_5*%
%TO.N,SPARE5*%
X197358000Y-75946000D03*
%TO.P,J101,6,Pin_6*%
%TO.N,SPARE7*%
X199898000Y-75946000D03*
%TO.P,J101,7,Pin_7*%
%TO.N,SST_KEY*%
X197358000Y-78486000D03*
%TO.P,J101,8,Pin_8*%
%TO.N,EXP_RAM*%
X199898000Y-78486000D03*
%TO.P,J101,9,Pin_9*%
%TO.N,ST_KEY*%
X197358000Y-81026000D03*
%TO.P,J101,10,Pin_10*%
%TO.N,LED_DIG_4*%
X199898000Y-81026000D03*
%TO.P,J101,11,Pin_11*%
%TO.N,RS_KEY*%
X197358000Y-83566000D03*
%TO.P,J101,12,Pin_12*%
%TO.N,LED_DIG_5*%
X199898000Y-83566000D03*
%TO.P,J101,13,Pin_13*%
%TO.N,ENABLE_TTY*%
X197358000Y-86106000D03*
%TO.P,J101,14,Pin_14*%
%TO.N,LED_DIG_6*%
X199898000Y-86106000D03*
%TO.P,J101,15,Pin_15*%
%TO.N,KB_ROW_2*%
X197358000Y-88646000D03*
%TO.P,J101,16,Pin_16*%
%TO.N,LED_DIG_7*%
X199898000Y-88646000D03*
%TO.P,J101,17,Pin_17*%
%TO.N,KB_ROW_1*%
X197358000Y-91186000D03*
%TO.P,J101,18,Pin_18*%
%TO.N,LED_DIG_8*%
X199898000Y-91186000D03*
%TO.P,J101,19,Pin_19*%
%TO.N,KB_ROW_0*%
X197358000Y-93726000D03*
%TO.P,J101,20,Pin_20*%
%TO.N,LED_DIG_9*%
X199898000Y-93726000D03*
%TO.P,J101,21,Pin_21*%
%TO.N,KB_COL_6*%
X197358000Y-96266000D03*
%TO.P,J101,22,Pin_22*%
%TO.N,LED_SEG_6*%
X199898000Y-96266000D03*
%TO.P,J101,23,Pin_23*%
%TO.N,KB_COL_5*%
X197358000Y-98806000D03*
%TO.P,J101,24,Pin_24*%
%TO.N,LED_SEG_5*%
X199898000Y-98806000D03*
%TO.P,J101,25,Pin_25*%
%TO.N,KB_COL_4*%
X197358000Y-101346000D03*
%TO.P,J101,26,Pin_26*%
%TO.N,LED_SEG_4*%
X199898000Y-101346000D03*
%TO.P,J101,27,Pin_27*%
%TO.N,KB_COL_3*%
X197358000Y-103886000D03*
%TO.P,J101,28,Pin_28*%
%TO.N,LED_SEG_3*%
X199898000Y-103886000D03*
%TO.P,J101,29,Pin_29*%
%TO.N,KB_COL_2*%
X197358000Y-106426000D03*
%TO.P,J101,30,Pin_30*%
%TO.N,LED_SEG_2*%
X199898000Y-106426000D03*
%TO.P,J101,31,Pin_31*%
%TO.N,KB_COL_1*%
X197358000Y-108966000D03*
%TO.P,J101,32,Pin_32*%
%TO.N,LED_SEG_1*%
X199898000Y-108966000D03*
%TO.P,J101,33,Pin_33*%
%TO.N,KB_COL_0*%
X197358000Y-111506000D03*
%TO.P,J101,34,Pin_34*%
%TO.N,LED_SEG_0*%
X199898000Y-111506000D03*
%TO.P,J101,35,Pin_35*%
%TO.N,GND*%
X197358000Y-114046000D03*
%TO.P,J101,36,Pin_36*%
X199898000Y-114046000D03*
%TD*%
D19*
%TO.P,J102,1,Pin_1*%
%TO.N,3V3*%
X226225000Y-70875000D03*
D20*
%TO.P,J102,2,Pin_2*%
%TO.N,GND*%
X228765000Y-70875000D03*
%TO.P,J102,3,Pin_3*%
%TO.N,3V3*%
X226225000Y-73415000D03*
%TO.P,J102,4,Pin_4*%
%TO.N,GND*%
X228765000Y-73415000D03*
%TO.P,J102,5,Pin_5*%
%TO.N,3V3*%
X226225000Y-75955000D03*
%TO.P,J102,6,Pin_6*%
%TO.N,GND*%
X228765000Y-75955000D03*
%TO.P,J102,7,Pin_7*%
%TO.N,SPARE1*%
X226225000Y-78495000D03*
%TO.P,J102,8,Pin_8*%
%TO.N,SPARE5*%
X228765000Y-78495000D03*
%TO.P,J102,9,Pin_9*%
%TO.N,SPARE2*%
X226225000Y-81035000D03*
%TO.P,J102,10,Pin_10*%
%TO.N,SPARE6*%
X228765000Y-81035000D03*
%TO.P,J102,11,Pin_11*%
%TO.N,SPARE3*%
X226225000Y-83575000D03*
%TO.P,J102,12,Pin_12*%
%TO.N,SPARE7*%
X228765000Y-83575000D03*
%TO.P,J102,13,Pin_13*%
%TO.N,SST_KEY*%
X226225000Y-86115000D03*
%TO.P,J102,14,Pin_14*%
%TO.N,EXP_RAM*%
X228765000Y-86115000D03*
%TO.P,J102,15,Pin_15*%
%TO.N,ST_KEY*%
X226225000Y-88655000D03*
%TO.P,J102,16,Pin_16*%
%TO.N,LED_DIG_4*%
X228765000Y-88655000D03*
%TO.P,J102,17,Pin_17*%
%TO.N,RS_KEY*%
X226225000Y-91195000D03*
%TO.P,J102,18,Pin_18*%
%TO.N,LED_DIG_5*%
X228765000Y-91195000D03*
%TO.P,J102,19,Pin_19*%
%TO.N,ENABLE_TTY*%
X226225000Y-93735000D03*
%TO.P,J102,20,Pin_20*%
%TO.N,LED_DIG_6*%
X228765000Y-93735000D03*
%TO.P,J102,21,Pin_21*%
%TO.N,KB_ROW_2*%
X226225000Y-96275000D03*
%TO.P,J102,22,Pin_22*%
%TO.N,LED_DIG_7*%
X228765000Y-96275000D03*
%TO.P,J102,23,Pin_23*%
%TO.N,KB_ROW_1*%
X226225000Y-98815000D03*
%TO.P,J102,24,Pin_24*%
%TO.N,LED_DIG_8*%
X228765000Y-98815000D03*
%TO.P,J102,25,Pin_25*%
%TO.N,KB_ROW_0*%
X226225000Y-101355000D03*
%TO.P,J102,26,Pin_26*%
%TO.N,LED_DIG_9*%
X228765000Y-101355000D03*
%TO.P,J102,27,Pin_27*%
%TO.N,KB_COL_6*%
X226225000Y-103895000D03*
%TO.P,J102,28,Pin_28*%
%TO.N,LED_SEG_6*%
X228765000Y-103895000D03*
%TO.P,J102,29,Pin_29*%
%TO.N,KB_COL_5*%
X226225000Y-106435000D03*
%TO.P,J102,30,Pin_30*%
%TO.N,LED_SEG_5*%
X228765000Y-106435000D03*
%TO.P,J102,31,Pin_31*%
%TO.N,KB_COL_4*%
X226225000Y-108975000D03*
%TO.P,J102,32,Pin_32*%
%TO.N,LED_SEG_4*%
X228765000Y-108975000D03*
%TO.P,J102,33,Pin_33*%
%TO.N,KB_COL_3*%
X226225000Y-111515000D03*
%TO.P,J102,34,Pin_34*%
%TO.N,LED_SEG_3*%
X228765000Y-111515000D03*
%TO.P,J102,35,Pin_35*%
%TO.N,KB_COL_2*%
X226225000Y-114055000D03*
%TO.P,J102,36,Pin_36*%
%TO.N,LED_SEG_2*%
X228765000Y-114055000D03*
%TO.P,J102,37,Pin_37*%
%TO.N,KB_COL_1*%
X226225000Y-116595000D03*
%TO.P,J102,38,Pin_38*%
%TO.N,LED_SEG_1*%
X228765000Y-116595000D03*
%TO.P,J102,39,Pin_39*%
%TO.N,KB_COL_0*%
X226225000Y-119135000D03*
%TO.P,J102,40,Pin_40*%
%TO.N,LED_SEG_0*%
X228765000Y-119135000D03*
%TD*%
D21*
%TO.N,Net-(D101-Pad2)*%
X188665000Y-86435000D02*
X186700000Y-88400000D01*
X188665000Y-82800000D02*
X188665000Y-86435000D01*
%TO.N,LED_SEG_0*%
X207540600Y-117959700D02*
X201086900Y-111506000D01*
X226781800Y-117959700D02*
X207540600Y-117959700D01*
X227589700Y-118767600D02*
X226781800Y-117959700D01*
X227589700Y-119135000D02*
X227589700Y-118767600D01*
X228765000Y-119135000D02*
X227589700Y-119135000D01*
X199898000Y-111506000D02*
X201086900Y-111506000D01*
%TO.N,LED_SEG_1*%
X207540600Y-115419700D02*
X201086900Y-108966000D01*
X226781800Y-115419700D02*
X207540600Y-115419700D01*
X227589700Y-116227600D02*
X226781800Y-115419700D01*
X227589700Y-116595000D02*
X227589700Y-116227600D01*
X228765000Y-116595000D02*
X227589700Y-116595000D01*
X199898000Y-108966000D02*
X201086900Y-108966000D01*
%TO.N,LED_SEG_2*%
X207540600Y-112879700D02*
X201086900Y-106426000D01*
X226781800Y-112879700D02*
X207540600Y-112879700D01*
X227589700Y-113687600D02*
X226781800Y-112879700D01*
X227589700Y-114055000D02*
X227589700Y-113687600D01*
X228765000Y-114055000D02*
X227589700Y-114055000D01*
X199898000Y-106426000D02*
X201086900Y-106426000D01*
%TO.N,LED_SEG_3*%
X207540600Y-110339700D02*
X201086900Y-103886000D01*
X226781800Y-110339700D02*
X207540600Y-110339700D01*
X227589700Y-111147600D02*
X226781800Y-110339700D01*
X227589700Y-111515000D02*
X227589700Y-111147600D01*
X228765000Y-111515000D02*
X227589700Y-111515000D01*
X199898000Y-103886000D02*
X201086900Y-103886000D01*
%TO.N,LED_SEG_4*%
X207540600Y-107799700D02*
X201086900Y-101346000D01*
X226781800Y-107799700D02*
X207540600Y-107799700D01*
X227589700Y-108607600D02*
X226781800Y-107799700D01*
X227589700Y-108975000D02*
X227589700Y-108607600D01*
X228765000Y-108975000D02*
X227589700Y-108975000D01*
X199898000Y-101346000D02*
X201086900Y-101346000D01*
%TO.N,LED_SEG_5*%
X207540600Y-105259700D02*
X201086900Y-98806000D01*
X226781800Y-105259700D02*
X207540600Y-105259700D01*
X227589700Y-106067600D02*
X226781800Y-105259700D01*
X227589700Y-106435000D02*
X227589700Y-106067600D01*
X228765000Y-106435000D02*
X227589700Y-106435000D01*
X199898000Y-98806000D02*
X201086900Y-98806000D01*
%TO.N,LED_SEG_6*%
X207540600Y-102719700D02*
X201086900Y-96266000D01*
X226781800Y-102719700D02*
X207540600Y-102719700D01*
X227589700Y-103527600D02*
X226781800Y-102719700D01*
X227589700Y-103895000D02*
X227589700Y-103527600D01*
X228765000Y-103895000D02*
X227589700Y-103895000D01*
X199898000Y-96266000D02*
X201086900Y-96266000D01*
%TO.N,LED_DIG_9*%
X207540600Y-100179700D02*
X201086900Y-93726000D01*
X226781800Y-100179700D02*
X207540600Y-100179700D01*
X227589700Y-100987600D02*
X226781800Y-100179700D01*
X227589700Y-101355000D02*
X227589700Y-100987600D01*
X228765000Y-101355000D02*
X227589700Y-101355000D01*
X199898000Y-93726000D02*
X201086900Y-93726000D01*
%TO.N,LED_DIG_8*%
X207540600Y-97639700D02*
X201086900Y-91186000D01*
X226781800Y-97639700D02*
X207540600Y-97639700D01*
X227589700Y-98447600D02*
X226781800Y-97639700D01*
X227589700Y-98815000D02*
X227589700Y-98447600D01*
X228765000Y-98815000D02*
X227589700Y-98815000D01*
X199898000Y-91186000D02*
X201086900Y-91186000D01*
%TO.N,LED_DIG_7*%
X207540600Y-95099700D02*
X201086900Y-88646000D01*
X226781800Y-95099700D02*
X207540600Y-95099700D01*
X227589700Y-95907600D02*
X226781800Y-95099700D01*
X227589700Y-96275000D02*
X227589700Y-95907600D01*
X228765000Y-96275000D02*
X227589700Y-96275000D01*
X199898000Y-88646000D02*
X201086900Y-88646000D01*
%TO.N,LED_DIG_6*%
X207540600Y-92559700D02*
X201086900Y-86106000D01*
X226781800Y-92559700D02*
X207540600Y-92559700D01*
X227589700Y-93367600D02*
X226781800Y-92559700D01*
X227589700Y-93735000D02*
X227589700Y-93367600D01*
X228765000Y-93735000D02*
X227589700Y-93735000D01*
X199898000Y-86106000D02*
X201086900Y-86106000D01*
%TO.N,LED_DIG_5*%
X207540600Y-90019700D02*
X201086900Y-83566000D01*
X226781800Y-90019700D02*
X207540600Y-90019700D01*
X227589700Y-90827600D02*
X226781800Y-90019700D01*
X227589700Y-91195000D02*
X227589700Y-90827600D01*
X228765000Y-91195000D02*
X227589700Y-91195000D01*
X199898000Y-83566000D02*
X201086900Y-83566000D01*
%TO.N,LED_DIG_4*%
X207540600Y-87479700D02*
X201086900Y-81026000D01*
X226781800Y-87479700D02*
X207540600Y-87479700D01*
X227589700Y-88287600D02*
X226781800Y-87479700D01*
X227589700Y-88655000D02*
X227589700Y-88287600D01*
X228765000Y-88655000D02*
X227589700Y-88655000D01*
X199898000Y-81026000D02*
X201086900Y-81026000D01*
%TO.N,EXP_RAM*%
X207540600Y-84939700D02*
X201086900Y-78486000D01*
X226781800Y-84939700D02*
X207540600Y-84939700D01*
X227589700Y-85747600D02*
X226781800Y-84939700D01*
X227589700Y-86115000D02*
X227589700Y-85747600D01*
X228765000Y-86115000D02*
X227589700Y-86115000D01*
X199898000Y-78486000D02*
X201086900Y-78486000D01*
%TO.N,SPARE7*%
X207540600Y-82399700D02*
X201086900Y-75946000D01*
X226781800Y-82399700D02*
X207540600Y-82399700D01*
X227589700Y-83207600D02*
X226781800Y-82399700D01*
X227589700Y-83575000D02*
X227589700Y-83207600D01*
X228765000Y-83575000D02*
X227589700Y-83575000D01*
X199898000Y-75946000D02*
X201086900Y-75946000D01*
%TO.N,SPARE6*%
X207540600Y-79859700D02*
X201086900Y-73406000D01*
X226781800Y-79859700D02*
X207540600Y-79859700D01*
X227589700Y-80667600D02*
X226781800Y-79859700D01*
X227589700Y-81035000D02*
X227589700Y-80667600D01*
X228765000Y-81035000D02*
X227589700Y-81035000D01*
X199898000Y-73406000D02*
X201086900Y-73406000D01*
D22*
%TO.N,GND*%
X144018000Y-119126000D02*
X145331900Y-119126000D01*
X146558000Y-119126000D02*
X145331900Y-119126000D01*
X169162800Y-69384700D02*
X170644100Y-70866000D01*
X150579300Y-69384700D02*
X169162800Y-69384700D01*
X149098000Y-70866000D02*
X150579300Y-69384700D01*
X171958000Y-70866000D02*
X170644100Y-70866000D01*
X148079800Y-120647800D02*
X146558000Y-119126000D01*
X170436200Y-120647800D02*
X148079800Y-120647800D01*
X171958000Y-119126000D02*
X170436200Y-120647800D01*
X186125000Y-82800000D02*
X186125000Y-84150300D01*
X171958000Y-119126000D02*
X173271900Y-119126000D01*
X187855000Y-104542900D02*
X173271900Y-119126000D01*
X185442900Y-102130900D02*
X187855000Y-104542900D01*
X185442900Y-84832400D02*
X185442900Y-102130900D01*
X186125000Y-84150300D02*
X185442900Y-84832400D01*
X199898000Y-114046000D02*
X198584100Y-114046000D01*
X187855000Y-104542900D02*
X197358000Y-114046000D01*
X197358000Y-114046000D02*
X198584100Y-114046000D01*
%TO.N,3V3*%
X226225000Y-70875000D02*
X224924700Y-70875000D01*
X166878000Y-70866000D02*
X168191900Y-70866000D01*
X197358000Y-70866000D02*
X196044100Y-70866000D01*
X223597700Y-69548000D02*
X224924700Y-70875000D01*
X198676000Y-69548000D02*
X223597700Y-69548000D01*
X197358000Y-70866000D02*
X198676000Y-69548000D01*
X186700000Y-96020000D02*
X186700000Y-94769700D01*
X190029100Y-91440600D02*
X186700000Y-94769700D01*
X190029100Y-72353200D02*
X190029100Y-91440600D01*
X169679100Y-72353200D02*
X190029100Y-72353200D01*
X168191900Y-70866000D02*
X169679100Y-72353200D01*
X194556900Y-72353200D02*
X196044100Y-70866000D01*
X190029100Y-72353200D02*
X194556900Y-72353200D01*
%TD*%
M02*
