M48
; DRILL file {KiCad 6.0.2+dfsg-1} date Sun 29 May 2022 07:59:46 PM EDT
; FORMAT={-:-/ absolute / inch / decimal}
; #@! TF.CreationDate,2022-05-29T19:59:46-04:00
; #@! TF.GenerationSoftware,Kicad,Pcbnew,6.0.2+dfsg-1
; #@! TF.FileFunction,Plated,1,2,PTH
FMAT,2
INCH
; #@! TA.AperFunction,Plated,PTH,ViaDrill
T1C0.0157
; #@! TA.AperFunction,Plated,PTH,ComponentDrill
T2C0.0315
; #@! TA.AperFunction,Plated,PTH,ComponentDrill
T3C0.0394
; #@! TA.AperFunction,Plated,PTH,ComponentDrill
T4C0.0512
%
G90
G05
T1
X4.2101Y-4.4651
X4.2231Y-4.6893
X4.5922Y-5.8001
X4.6014Y-5.8436
X5.5938Y-5.5922
X5.646Y-6.8685
T2
X2.5654Y-3.6165
X2.5657Y-3.9825
X2.5657Y-4.5825
X2.598Y-3.2
X2.6654Y-3.5165
X2.6657Y-3.9825
X2.6657Y-4.5825
X2.7654Y-3.6165
X2.7657Y-3.9825
X2.7657Y-4.5825
X2.8657Y-3.9825
X2.8657Y-4.5825
X2.8803Y-3.4524
X2.8803Y-3.7524
X2.898Y-3.2
X2.9657Y-3.9825
X2.9657Y-4.5825
X3.0014Y-5.1142
X3.0014Y-5.2402
X3.0772Y-3.6165
X3.0776Y-3.9825
X3.0776Y-4.5825
X3.0998Y-5.1142
X3.0998Y-5.2402
X3.1098Y-3.2
X3.1772Y-3.5165
X3.1776Y-3.9825
X3.1776Y-4.5825
X3.1982Y-5.1142
X3.1982Y-5.2402
X3.2772Y-3.6165
X3.2776Y-3.9825
X3.2776Y-4.5825
X3.3776Y-3.9825
X3.3776Y-4.5825
X3.3921Y-3.4524
X3.3921Y-3.7524
X3.4098Y-3.2
X3.4776Y-3.9825
X3.4776Y-4.5825
X3.589Y-3.6165
X3.5894Y-3.9825
X3.5894Y-4.5825
X3.6217Y-3.2
X3.689Y-3.5165
X3.6894Y-3.9825
X3.6894Y-4.5825
X3.789Y-3.6165
X3.7894Y-3.9825
X3.7894Y-4.5825
X3.8894Y-3.9825
X3.8894Y-4.5825
X3.9039Y-3.4524
X3.9039Y-3.7524
X3.9217Y-3.2
X3.9894Y-3.9825
X3.9894Y-4.5825
X4.1008Y-3.6165
X4.1012Y-3.9825
X4.1012Y-4.5825
X4.1335Y-3.2
X4.2008Y-3.5165
X4.2012Y-3.9825
X4.2012Y-4.5825
X4.3008Y-3.6165
X4.3012Y-3.9825
X4.3012Y-4.5825
X4.4012Y-3.9825
X4.4012Y-4.5825
X4.4157Y-3.4524
X4.4157Y-3.7524
X4.4335Y-3.2
X4.5012Y-3.9825
X4.5012Y-4.5825
X4.8685Y-3.6165
X4.8689Y-3.9825
X4.8689Y-4.5825
X4.9012Y-3.2
X4.9685Y-3.5165
X4.9689Y-3.9825
X4.9689Y-4.5825
X5.0685Y-3.6165
X5.0689Y-3.9825
X5.0689Y-4.5825
X5.1689Y-3.9825
X5.1689Y-4.5825
X5.1835Y-3.4524
X5.1835Y-3.7524
X5.2012Y-3.2
X5.2689Y-3.9825
X5.2689Y-4.5825
X5.3803Y-3.6165
X5.3807Y-3.9825
X5.3807Y-4.5825
X5.413Y-3.2
X5.4803Y-3.5165
X5.4807Y-3.9825
X5.4807Y-4.5825
X5.5803Y-3.6165
X5.5807Y-3.9825
X5.5807Y-4.5825
X5.6807Y-3.9825
X5.6807Y-4.5825
X5.6953Y-3.4524
X5.6953Y-3.7524
X5.713Y-3.2
X5.7807Y-3.9825
X5.7807Y-4.5825
X5.83Y-4.9724
X5.83Y-5.2724
X5.83Y-5.5812
X5.83Y-5.8812
X5.83Y-6.19
X5.83Y-6.49
X5.83Y-6.7988
X5.83Y-7.0988
X5.83Y-7.4076
X5.83Y-7.7076
X5.83Y-8.0164
X5.83Y-8.3164
X5.83Y-8.6252
X5.83Y-8.9252
T3
X2.4197Y-2.9811
X2.5197Y-2.9811
X2.8199Y-2.9813
X2.9199Y-2.9813
X3.2226Y-2.5587
X3.2226Y-2.6587
X3.2234Y-2.2898
X3.2234Y-2.3898
X3.3226Y-2.5587
X3.3226Y-2.6587
X3.3234Y-2.2898
X3.3234Y-2.3898
X3.4226Y-2.5587
X3.4226Y-2.6587
X3.4234Y-2.2898
X3.4234Y-2.3898
X3.5226Y-2.5587
X3.5226Y-2.6587
X3.5234Y-2.2898
X3.5234Y-2.3898
X3.6226Y-2.5587
X3.6226Y-2.6587
X3.6234Y-2.2898
X3.6234Y-2.3898
X3.7226Y-2.5587
X3.7226Y-2.6587
X3.7234Y-2.2898
X3.7234Y-2.3898
X3.8226Y-2.5587
X3.8226Y-2.6587
X3.8234Y-2.2898
X3.8234Y-2.3898
X3.9226Y-2.5587
X3.9226Y-2.6587
X3.9234Y-2.2898
X3.9234Y-2.3898
X4.0226Y-2.5587
X4.0226Y-2.6587
X4.0234Y-2.2898
X4.0234Y-2.3898
X4.1226Y-2.5587
X4.1226Y-2.6587
X4.1234Y-2.2898
X4.1234Y-2.3898
X4.2226Y-2.5587
X4.2226Y-2.6587
X4.2234Y-2.2898
X4.2234Y-2.3898
X4.3226Y-2.5587
X4.3226Y-2.6587
X4.3234Y-2.2898
X4.3234Y-2.3898
X4.4226Y-2.5587
X4.4226Y-2.6587
X4.4234Y-2.2898
X4.4234Y-2.3898
X4.5226Y-2.5587
X4.5226Y-2.6587
X4.5234Y-2.2898
X4.5234Y-2.3898
X4.6226Y-2.5587
X4.6226Y-2.6587
X4.6234Y-2.2898
X4.6234Y-2.3898
X4.7226Y-2.5587
X4.7226Y-2.6587
X4.7234Y-2.2898
X4.7234Y-2.3898
X4.8226Y-2.5587
X4.8226Y-2.6587
X4.8234Y-2.2898
X4.8234Y-2.3898
X4.9226Y-2.5587
X4.9226Y-2.6587
X4.9234Y-2.2898
X4.9234Y-2.3898
X5.0226Y-2.5587
X5.0226Y-2.6587
X5.0234Y-2.2898
X5.0234Y-2.3898
X5.1226Y-2.5587
X5.1226Y-2.6587
X5.1234Y-2.2898
X5.1234Y-2.3898
T4
X2.8505Y-5.7874
X2.8505Y-5.9843
X2.8505Y-6.4961
X2.8505Y-6.6929
X2.8505Y-7.2047
X2.8505Y-7.4016
X2.8505Y-7.9134
X2.8505Y-8.1102
X2.8505Y-8.622
X2.8505Y-8.8189
X3.3426Y-5.7874
X3.3426Y-5.9843
X3.3426Y-6.4961
X3.3426Y-6.6929
X3.3426Y-7.2047
X3.3426Y-7.4016
X3.3426Y-7.9134
X3.3426Y-8.1102
X3.3426Y-8.622
X3.3426Y-8.8189
X3.5592Y-5.0787
X3.5592Y-5.2756
X3.5592Y-5.7874
X3.5592Y-5.9843
X3.5592Y-6.4961
X3.5592Y-6.6929
X3.5592Y-7.2047
X3.5592Y-7.4016
X3.5592Y-7.9134
X3.5592Y-8.1102
X3.5592Y-8.622
X3.5592Y-8.8189
X4.0513Y-5.0787
X4.0513Y-5.2756
X4.0513Y-5.7874
X4.0513Y-5.9843
X4.0513Y-6.4961
X4.0513Y-6.6929
X4.0513Y-7.2047
X4.0513Y-7.4016
X4.0513Y-7.9134
X4.0513Y-8.1102
X4.0513Y-8.622
X4.0513Y-8.8189
X4.2678Y-5.0787
X4.2678Y-5.2756
X4.2678Y-5.7874
X4.2678Y-5.9843
X4.2678Y-6.4961
X4.2678Y-6.6929
X4.2678Y-7.2047
X4.2678Y-7.4016
X4.2678Y-7.9134
X4.2678Y-8.1102
X4.2678Y-8.622
X4.2678Y-8.8189
X4.7599Y-5.0787
X4.7599Y-5.2756
X4.7599Y-5.7874
X4.7599Y-5.9843
X4.7599Y-6.4961
X4.7599Y-6.6929
X4.7599Y-7.2047
X4.7599Y-7.4016
X4.7599Y-7.9134
X4.7599Y-8.1102
X4.7599Y-8.622
X4.7599Y-8.8189
X4.9765Y-5.0787
X4.9765Y-5.2756
X5.0156Y-5.7874
X5.0156Y-5.9843
X5.0156Y-6.4961
X5.0156Y-6.6929
X5.0156Y-7.2047
X5.0156Y-7.4016
X5.0156Y-7.9134
X5.0156Y-8.1102
X5.0156Y-8.622
X5.0156Y-8.8189
X5.4686Y-5.0787
X5.4686Y-5.2756
X5.5078Y-5.7874
X5.5078Y-5.9843
X5.5078Y-6.4961
X5.5078Y-6.6929
X5.5078Y-7.2047
X5.5078Y-7.4016
X5.5078Y-7.9134
X5.5078Y-8.1102
X5.5078Y-8.622
X5.5078Y-8.8189
T0
M30
