M48
; DRILL file {KiCad 6.0.2+dfsg-1} date Sun 29 May 2022 07:40:48 PM EDT
; FORMAT={-:-/ absolute / inch / decimal}
; #@! TF.CreationDate,2022-05-29T19:40:48-04:00
; #@! TF.GenerationSoftware,Kicad,Pcbnew,6.0.2+dfsg-1
; #@! TF.FileFunction,Plated,1,2,PTH
FMAT,2
INCH
; #@! TA.AperFunction,Plated,PTH,ViaDrill
T1C0.0157
; #@! TA.AperFunction,Plated,PTH,ComponentDrill
T2C0.0394
%
G90
G05
T1
X4.028Y-3.3163
T2
X3.62Y-2.82
X3.62Y-2.92
X3.62Y-3.02
X3.62Y-3.12
X3.62Y-3.22
X3.62Y-3.32
X3.62Y-3.42
X3.62Y-3.52
X3.62Y-3.62
X3.62Y-3.72
X3.62Y-3.82
X3.62Y-3.92
X3.62Y-4.02
X3.62Y-4.12
X3.62Y-4.22
X3.62Y-4.32
X3.62Y-4.42
X3.62Y-4.52
X3.62Y-4.62
X3.62Y-4.72
X3.72Y-2.82
X3.72Y-2.92
X3.72Y-3.02
X3.72Y-3.12
X3.72Y-3.22
X3.72Y-3.32
X3.72Y-3.42
X3.72Y-3.52
X3.72Y-3.62
X3.72Y-3.72
X3.72Y-3.82
X3.72Y-3.92
X3.72Y-4.02
X3.72Y-4.12
X3.72Y-4.22
X3.72Y-4.32
X3.72Y-4.42
X3.72Y-4.52
X3.72Y-4.62
X3.72Y-4.72
X4.48Y-3.11
X4.48Y-3.21
X4.48Y-3.31
X4.48Y-3.41
X4.48Y-3.51
X4.48Y-3.61
X4.48Y-3.71
X4.48Y-3.81
X4.48Y-3.91
X4.48Y-4.01
X4.48Y-4.11
X4.48Y-4.21
X4.48Y-4.31
X4.48Y-4.41
X4.58Y-3.11
X4.58Y-3.21
X4.58Y-3.31
X4.58Y-3.41
X4.58Y-3.51
X4.58Y-3.61
X4.58Y-3.71
X4.58Y-3.81
X4.58Y-3.91
X4.58Y-4.01
X4.58Y-4.11
X4.58Y-4.21
X4.58Y-4.31
X4.58Y-4.41
X4.78Y-2.81
X4.78Y-2.91
X4.78Y-4.61
X4.78Y-4.71
X4.88Y-2.81
X4.88Y-2.91
X4.88Y-4.61
X4.88Y-4.71
X4.98Y-2.81
X4.98Y-2.91
X4.98Y-4.61
X4.98Y-4.71
X5.08Y-2.81
X5.08Y-2.91
X5.08Y-4.61
X5.08Y-4.71
X5.18Y-2.81
X5.18Y-2.91
X5.18Y-4.61
X5.18Y-4.71
X5.28Y-2.81
X5.28Y-2.91
X5.28Y-4.61
X5.28Y-4.71
X5.38Y-2.81
X5.38Y-2.91
X5.38Y-4.61
X5.38Y-4.71
X5.48Y-2.81
X5.48Y-2.91
X5.48Y-4.61
X5.48Y-4.71
X5.58Y-2.81
X5.58Y-2.91
X5.58Y-4.61
X5.58Y-4.71
X5.68Y-2.81
X5.68Y-2.91
X5.68Y-4.61
X5.68Y-4.71
X5.78Y-2.81
X5.78Y-2.91
X5.78Y-4.61
X5.78Y-4.71
X5.88Y-2.81
X5.88Y-2.91
X5.88Y-4.61
X5.88Y-4.71
X5.98Y-2.81
X5.98Y-2.91
X5.98Y-4.61
X5.98Y-4.71
X6.08Y-2.81
X6.08Y-2.91
X6.08Y-4.61
X6.08Y-4.71
X6.28Y-3.11
X6.28Y-3.21
X6.28Y-3.31
X6.28Y-3.41
X6.28Y-3.51
X6.28Y-3.61
X6.28Y-3.71
X6.28Y-3.81
X6.28Y-3.91
X6.28Y-4.01
X6.28Y-4.11
X6.28Y-4.21
X6.28Y-4.31
X6.28Y-4.41
X6.38Y-3.11
X6.38Y-3.21
X6.38Y-3.31
X6.38Y-3.41
X6.38Y-3.51
X6.38Y-3.61
X6.38Y-3.71
X6.38Y-3.81
X6.38Y-3.91
X6.38Y-4.01
X6.38Y-4.11
X6.38Y-4.21
X6.38Y-4.31
X6.38Y-4.41
X6.5598Y-4.7
X6.57Y-3.01
X6.57Y-3.11
X6.57Y-3.21
X6.57Y-3.31
X6.57Y-3.41
X6.57Y-3.51
X6.57Y-3.61
X6.57Y-3.71
X6.57Y-3.81
X6.57Y-3.91
X6.57Y-4.01
X6.57Y-4.11
X6.57Y-4.21
X6.57Y-4.31
X6.57Y-4.41
X6.57Y-4.51
X6.6598Y-4.7
T0
M30
