%TF.GenerationSoftware,KiCad,Pcbnew,6.0.2+dfsg-1*%
%TF.CreationDate,2022-05-29T19:40:52-04:00*%
%TF.ProjectId,kim-ep2c5,6b696d2d-6570-4326-9335-2e6b69636164,rev?*%
%TF.SameCoordinates,Original*%
%TF.FileFunction,Legend,Top*%
%TF.FilePolarity,Positive*%
%FSLAX46Y46*%
G04 Gerber Fmt 4.6, Leading zero omitted, Abs format (unit mm)*
G04 Created by KiCad (PCBNEW 6.0.2+dfsg-1) date 2022-05-29 19:40:52*
%MOMM*%
%LPD*%
G01*
G04 APERTURE LIST*
%ADD10C,0.150000*%
%ADD11C,0.120000*%
G04 APERTURE END LIST*
D10*
X170164190Y-122372380D02*
X170164190Y-121372380D01*
X170640380Y-122372380D02*
X170640380Y-121372380D01*
X171211809Y-122372380D01*
X171211809Y-121372380D01*
X165020761Y-121372380D02*
X165592190Y-121372380D01*
X165306476Y-122372380D02*
X165306476Y-121372380D01*
X165782666Y-121372380D02*
X166354095Y-121372380D01*
X166068380Y-122372380D02*
X166068380Y-121372380D01*
X166877904Y-121896190D02*
X166877904Y-122372380D01*
X166544571Y-121372380D02*
X166877904Y-121896190D01*
X167211238Y-121372380D01*
X169013333Y-110002380D02*
X169013333Y-109002380D01*
X169394285Y-109002380D01*
X169489523Y-109050000D01*
X169537142Y-109097619D01*
X169584761Y-109192857D01*
X169584761Y-109335714D01*
X169537142Y-109430952D01*
X169489523Y-109478571D01*
X169394285Y-109526190D01*
X169013333Y-109526190D01*
X169965714Y-109716666D02*
X170441904Y-109716666D01*
X169870476Y-110002380D02*
X170203809Y-109002380D01*
X170537142Y-110002380D01*
X170822857Y-109097619D02*
X170870476Y-109050000D01*
X170965714Y-109002380D01*
X171203809Y-109002380D01*
X171299047Y-109050000D01*
X171346666Y-109097619D01*
X171394285Y-109192857D01*
X171394285Y-109288095D01*
X171346666Y-109430952D01*
X170775238Y-110002380D01*
X171394285Y-110002380D01*
X168941904Y-92222380D02*
X168941904Y-91222380D01*
X169322857Y-91222380D01*
X169418095Y-91270000D01*
X169465714Y-91317619D01*
X169513333Y-91412857D01*
X169513333Y-91555714D01*
X169465714Y-91650952D01*
X169418095Y-91698571D01*
X169322857Y-91746190D01*
X168941904Y-91746190D01*
X170275238Y-91698571D02*
X170418095Y-91746190D01*
X170465714Y-91793809D01*
X170513333Y-91889047D01*
X170513333Y-92031904D01*
X170465714Y-92127142D01*
X170418095Y-92174761D01*
X170322857Y-92222380D01*
X169941904Y-92222380D01*
X169941904Y-91222380D01*
X170275238Y-91222380D01*
X170370476Y-91270000D01*
X170418095Y-91317619D01*
X170465714Y-91412857D01*
X170465714Y-91508095D01*
X170418095Y-91603333D01*
X170370476Y-91650952D01*
X170275238Y-91698571D01*
X169941904Y-91698571D01*
X171465714Y-92222380D02*
X170894285Y-92222380D01*
X171180000Y-92222380D02*
X171180000Y-91222380D01*
X171084761Y-91365238D01*
X170989523Y-91460476D01*
X170894285Y-91508095D01*
X129096476Y-88082380D02*
X129096476Y-87082380D01*
X129667904Y-88082380D02*
X129239333Y-87510952D01*
X129667904Y-87082380D02*
X129096476Y-87653809D01*
X130096476Y-88082380D02*
X130096476Y-87082380D01*
X130572666Y-88082380D02*
X130572666Y-87082380D01*
X130906000Y-87796666D01*
X131239333Y-87082380D01*
X131239333Y-88082380D01*
X131715523Y-87701428D02*
X132477428Y-87701428D01*
X133477428Y-88082380D02*
X132906000Y-88082380D01*
X133191714Y-88082380D02*
X133191714Y-87082380D01*
X133096476Y-87225238D01*
X133001238Y-87320476D01*
X132906000Y-87368095D01*
X135001238Y-87558571D02*
X134667904Y-87558571D01*
X134667904Y-88082380D02*
X134667904Y-87082380D01*
X135144095Y-87082380D01*
X135525047Y-88082380D02*
X135525047Y-87082380D01*
X135906000Y-87082380D01*
X136001238Y-87130000D01*
X136048857Y-87177619D01*
X136096476Y-87272857D01*
X136096476Y-87415714D01*
X136048857Y-87510952D01*
X136001238Y-87558571D01*
X135906000Y-87606190D01*
X135525047Y-87606190D01*
X137048857Y-87130000D02*
X136953619Y-87082380D01*
X136810761Y-87082380D01*
X136667904Y-87130000D01*
X136572666Y-87225238D01*
X136525047Y-87320476D01*
X136477428Y-87510952D01*
X136477428Y-87653809D01*
X136525047Y-87844285D01*
X136572666Y-87939523D01*
X136667904Y-88034761D01*
X136810761Y-88082380D01*
X136906000Y-88082380D01*
X137048857Y-88034761D01*
X137096476Y-87987142D01*
X137096476Y-87653809D01*
X136906000Y-87653809D01*
X137477428Y-87796666D02*
X137953619Y-87796666D01*
X137382190Y-88082380D02*
X137715523Y-87082380D01*
X138048857Y-88082380D01*
X139715523Y-88082380D02*
X139382190Y-87606190D01*
X139144095Y-88082380D02*
X139144095Y-87082380D01*
X139525047Y-87082380D01*
X139620285Y-87130000D01*
X139667904Y-87177619D01*
X139715523Y-87272857D01*
X139715523Y-87415714D01*
X139667904Y-87510952D01*
X139620285Y-87558571D01*
X139525047Y-87606190D01*
X139144095Y-87606190D01*
X140144095Y-87558571D02*
X140477428Y-87558571D01*
X140620285Y-88082380D02*
X140144095Y-88082380D01*
X140144095Y-87082380D01*
X140620285Y-87082380D01*
X141048857Y-88082380D02*
X141048857Y-87082380D01*
X141429809Y-87082380D01*
X141525047Y-87130000D01*
X141572666Y-87177619D01*
X141620285Y-87272857D01*
X141620285Y-87415714D01*
X141572666Y-87510952D01*
X141525047Y-87558571D01*
X141429809Y-87606190D01*
X141048857Y-87606190D01*
X142525047Y-88082380D02*
X142048857Y-88082380D01*
X142048857Y-87082380D01*
X142858380Y-88082380D02*
X142858380Y-87082380D01*
X143906000Y-87987142D02*
X143858380Y-88034761D01*
X143715523Y-88082380D01*
X143620285Y-88082380D01*
X143477428Y-88034761D01*
X143382190Y-87939523D01*
X143334571Y-87844285D01*
X143286952Y-87653809D01*
X143286952Y-87510952D01*
X143334571Y-87320476D01*
X143382190Y-87225238D01*
X143477428Y-87130000D01*
X143620285Y-87082380D01*
X143715523Y-87082380D01*
X143858380Y-87130000D01*
X143906000Y-87177619D01*
X144286952Y-87796666D02*
X144763142Y-87796666D01*
X144191714Y-88082380D02*
X144525047Y-87082380D01*
X144858380Y-88082380D01*
X168941904Y-76982380D02*
X168941904Y-75982380D01*
X169322857Y-75982380D01*
X169418095Y-76030000D01*
X169465714Y-76077619D01*
X169513333Y-76172857D01*
X169513333Y-76315714D01*
X169465714Y-76410952D01*
X169418095Y-76458571D01*
X169322857Y-76506190D01*
X168941904Y-76506190D01*
X170275238Y-76458571D02*
X170418095Y-76506190D01*
X170465714Y-76553809D01*
X170513333Y-76649047D01*
X170513333Y-76791904D01*
X170465714Y-76887142D01*
X170418095Y-76934761D01*
X170322857Y-76982380D01*
X169941904Y-76982380D01*
X169941904Y-75982380D01*
X170275238Y-75982380D01*
X170370476Y-76030000D01*
X170418095Y-76077619D01*
X170465714Y-76172857D01*
X170465714Y-76268095D01*
X170418095Y-76363333D01*
X170370476Y-76410952D01*
X170275238Y-76458571D01*
X169941904Y-76458571D01*
X170846666Y-75982380D02*
X171513333Y-75982380D01*
X171084761Y-76982380D01*
X168941904Y-82062380D02*
X168941904Y-81062380D01*
X169322857Y-81062380D01*
X169418095Y-81110000D01*
X169465714Y-81157619D01*
X169513333Y-81252857D01*
X169513333Y-81395714D01*
X169465714Y-81490952D01*
X169418095Y-81538571D01*
X169322857Y-81586190D01*
X168941904Y-81586190D01*
X170275238Y-81538571D02*
X170418095Y-81586190D01*
X170465714Y-81633809D01*
X170513333Y-81729047D01*
X170513333Y-81871904D01*
X170465714Y-81967142D01*
X170418095Y-82014761D01*
X170322857Y-82062380D01*
X169941904Y-82062380D01*
X169941904Y-81062380D01*
X170275238Y-81062380D01*
X170370476Y-81110000D01*
X170418095Y-81157619D01*
X170465714Y-81252857D01*
X170465714Y-81348095D01*
X170418095Y-81443333D01*
X170370476Y-81490952D01*
X170275238Y-81538571D01*
X169941904Y-81538571D01*
X171418095Y-81062380D02*
X170941904Y-81062380D01*
X170894285Y-81538571D01*
X170941904Y-81490952D01*
X171037142Y-81443333D01*
X171275238Y-81443333D01*
X171370476Y-81490952D01*
X171418095Y-81538571D01*
X171465714Y-81633809D01*
X171465714Y-81871904D01*
X171418095Y-81967142D01*
X171370476Y-82014761D01*
X171275238Y-82062380D01*
X171037142Y-82062380D01*
X170941904Y-82014761D01*
X170894285Y-81967142D01*
X168941904Y-94762380D02*
X168941904Y-93762380D01*
X169322857Y-93762380D01*
X169418095Y-93810000D01*
X169465714Y-93857619D01*
X169513333Y-93952857D01*
X169513333Y-94095714D01*
X169465714Y-94190952D01*
X169418095Y-94238571D01*
X169322857Y-94286190D01*
X168941904Y-94286190D01*
X170275238Y-94238571D02*
X170418095Y-94286190D01*
X170465714Y-94333809D01*
X170513333Y-94429047D01*
X170513333Y-94571904D01*
X170465714Y-94667142D01*
X170418095Y-94714761D01*
X170322857Y-94762380D01*
X169941904Y-94762380D01*
X169941904Y-93762380D01*
X170275238Y-93762380D01*
X170370476Y-93810000D01*
X170418095Y-93857619D01*
X170465714Y-93952857D01*
X170465714Y-94048095D01*
X170418095Y-94143333D01*
X170370476Y-94190952D01*
X170275238Y-94238571D01*
X169941904Y-94238571D01*
X171132380Y-93762380D02*
X171227619Y-93762380D01*
X171322857Y-93810000D01*
X171370476Y-93857619D01*
X171418095Y-93952857D01*
X171465714Y-94143333D01*
X171465714Y-94381428D01*
X171418095Y-94571904D01*
X171370476Y-94667142D01*
X171322857Y-94714761D01*
X171227619Y-94762380D01*
X171132380Y-94762380D01*
X171037142Y-94714761D01*
X170989523Y-94667142D01*
X170941904Y-94571904D01*
X170894285Y-94381428D01*
X170894285Y-94143333D01*
X170941904Y-93952857D01*
X170989523Y-93857619D01*
X171037142Y-93810000D01*
X171132380Y-93762380D01*
X169013333Y-97302380D02*
X169013333Y-96302380D01*
X169394285Y-96302380D01*
X169489523Y-96350000D01*
X169537142Y-96397619D01*
X169584761Y-96492857D01*
X169584761Y-96635714D01*
X169537142Y-96730952D01*
X169489523Y-96778571D01*
X169394285Y-96826190D01*
X169013333Y-96826190D01*
X169965714Y-97016666D02*
X170441904Y-97016666D01*
X169870476Y-97302380D02*
X170203809Y-96302380D01*
X170537142Y-97302380D01*
X170775238Y-96302380D02*
X171441904Y-96302380D01*
X171013333Y-97302380D01*
X169013333Y-99842380D02*
X169013333Y-98842380D01*
X169394285Y-98842380D01*
X169489523Y-98890000D01*
X169537142Y-98937619D01*
X169584761Y-99032857D01*
X169584761Y-99175714D01*
X169537142Y-99270952D01*
X169489523Y-99318571D01*
X169394285Y-99366190D01*
X169013333Y-99366190D01*
X169965714Y-99556666D02*
X170441904Y-99556666D01*
X169870476Y-99842380D02*
X170203809Y-98842380D01*
X170537142Y-99842380D01*
X171299047Y-98842380D02*
X171108571Y-98842380D01*
X171013333Y-98890000D01*
X170965714Y-98937619D01*
X170870476Y-99080476D01*
X170822857Y-99270952D01*
X170822857Y-99651904D01*
X170870476Y-99747142D01*
X170918095Y-99794761D01*
X171013333Y-99842380D01*
X171203809Y-99842380D01*
X171299047Y-99794761D01*
X171346666Y-99747142D01*
X171394285Y-99651904D01*
X171394285Y-99413809D01*
X171346666Y-99318571D01*
X171299047Y-99270952D01*
X171203809Y-99223333D01*
X171013333Y-99223333D01*
X170918095Y-99270952D01*
X170870476Y-99318571D01*
X170822857Y-99413809D01*
X169013333Y-107462380D02*
X169013333Y-106462380D01*
X169394285Y-106462380D01*
X169489523Y-106510000D01*
X169537142Y-106557619D01*
X169584761Y-106652857D01*
X169584761Y-106795714D01*
X169537142Y-106890952D01*
X169489523Y-106938571D01*
X169394285Y-106986190D01*
X169013333Y-106986190D01*
X169965714Y-107176666D02*
X170441904Y-107176666D01*
X169870476Y-107462380D02*
X170203809Y-106462380D01*
X170537142Y-107462380D01*
X170775238Y-106462380D02*
X171394285Y-106462380D01*
X171060952Y-106843333D01*
X171203809Y-106843333D01*
X171299047Y-106890952D01*
X171346666Y-106938571D01*
X171394285Y-107033809D01*
X171394285Y-107271904D01*
X171346666Y-107367142D01*
X171299047Y-107414761D01*
X171203809Y-107462380D01*
X170918095Y-107462380D01*
X170822857Y-107414761D01*
X170775238Y-107367142D01*
X168941904Y-87142380D02*
X168941904Y-86142380D01*
X169322857Y-86142380D01*
X169418095Y-86190000D01*
X169465714Y-86237619D01*
X169513333Y-86332857D01*
X169513333Y-86475714D01*
X169465714Y-86570952D01*
X169418095Y-86618571D01*
X169322857Y-86666190D01*
X168941904Y-86666190D01*
X170275238Y-86618571D02*
X170418095Y-86666190D01*
X170465714Y-86713809D01*
X170513333Y-86809047D01*
X170513333Y-86951904D01*
X170465714Y-87047142D01*
X170418095Y-87094761D01*
X170322857Y-87142380D01*
X169941904Y-87142380D01*
X169941904Y-86142380D01*
X170275238Y-86142380D01*
X170370476Y-86190000D01*
X170418095Y-86237619D01*
X170465714Y-86332857D01*
X170465714Y-86428095D01*
X170418095Y-86523333D01*
X170370476Y-86570952D01*
X170275238Y-86618571D01*
X169941904Y-86618571D01*
X170846666Y-86142380D02*
X171465714Y-86142380D01*
X171132380Y-86523333D01*
X171275238Y-86523333D01*
X171370476Y-86570952D01*
X171418095Y-86618571D01*
X171465714Y-86713809D01*
X171465714Y-86951904D01*
X171418095Y-87047142D01*
X171370476Y-87094761D01*
X171275238Y-87142380D01*
X170989523Y-87142380D01*
X170894285Y-87094761D01*
X170846666Y-87047142D01*
X169013333Y-104922380D02*
X169013333Y-103922380D01*
X169394285Y-103922380D01*
X169489523Y-103970000D01*
X169537142Y-104017619D01*
X169584761Y-104112857D01*
X169584761Y-104255714D01*
X169537142Y-104350952D01*
X169489523Y-104398571D01*
X169394285Y-104446190D01*
X169013333Y-104446190D01*
X169965714Y-104636666D02*
X170441904Y-104636666D01*
X169870476Y-104922380D02*
X170203809Y-103922380D01*
X170537142Y-104922380D01*
X171299047Y-104255714D02*
X171299047Y-104922380D01*
X171060952Y-103874761D02*
X170822857Y-104589047D01*
X171441904Y-104589047D01*
X168941904Y-102382380D02*
X168941904Y-101382380D01*
X169322857Y-101382380D01*
X169418095Y-101430000D01*
X169465714Y-101477619D01*
X169513333Y-101572857D01*
X169513333Y-101715714D01*
X169465714Y-101810952D01*
X169418095Y-101858571D01*
X169322857Y-101906190D01*
X168941904Y-101906190D01*
X170275238Y-101858571D02*
X170418095Y-101906190D01*
X170465714Y-101953809D01*
X170513333Y-102049047D01*
X170513333Y-102191904D01*
X170465714Y-102287142D01*
X170418095Y-102334761D01*
X170322857Y-102382380D01*
X169941904Y-102382380D01*
X169941904Y-101382380D01*
X170275238Y-101382380D01*
X170370476Y-101430000D01*
X170418095Y-101477619D01*
X170465714Y-101572857D01*
X170465714Y-101668095D01*
X170418095Y-101763333D01*
X170370476Y-101810952D01*
X170275238Y-101858571D01*
X169941904Y-101858571D01*
X171418095Y-101382380D02*
X170941904Y-101382380D01*
X170894285Y-101858571D01*
X170941904Y-101810952D01*
X171037142Y-101763333D01*
X171275238Y-101763333D01*
X171370476Y-101810952D01*
X171418095Y-101858571D01*
X171465714Y-101953809D01*
X171465714Y-102191904D01*
X171418095Y-102287142D01*
X171370476Y-102334761D01*
X171275238Y-102382380D01*
X171037142Y-102382380D01*
X170941904Y-102334761D01*
X170894285Y-102287142D01*
X168941904Y-89682380D02*
X168941904Y-88682380D01*
X169322857Y-88682380D01*
X169418095Y-88730000D01*
X169465714Y-88777619D01*
X169513333Y-88872857D01*
X169513333Y-89015714D01*
X169465714Y-89110952D01*
X169418095Y-89158571D01*
X169322857Y-89206190D01*
X168941904Y-89206190D01*
X170275238Y-89158571D02*
X170418095Y-89206190D01*
X170465714Y-89253809D01*
X170513333Y-89349047D01*
X170513333Y-89491904D01*
X170465714Y-89587142D01*
X170418095Y-89634761D01*
X170322857Y-89682380D01*
X169941904Y-89682380D01*
X169941904Y-88682380D01*
X170275238Y-88682380D01*
X170370476Y-88730000D01*
X170418095Y-88777619D01*
X170465714Y-88872857D01*
X170465714Y-88968095D01*
X170418095Y-89063333D01*
X170370476Y-89110952D01*
X170275238Y-89158571D01*
X169941904Y-89158571D01*
X170894285Y-88777619D02*
X170941904Y-88730000D01*
X171037142Y-88682380D01*
X171275238Y-88682380D01*
X171370476Y-88730000D01*
X171418095Y-88777619D01*
X171465714Y-88872857D01*
X171465714Y-88968095D01*
X171418095Y-89110952D01*
X170846666Y-89682380D01*
X171465714Y-89682380D01*
X169013333Y-115082380D02*
X169013333Y-114082380D01*
X169394285Y-114082380D01*
X169489523Y-114130000D01*
X169537142Y-114177619D01*
X169584761Y-114272857D01*
X169584761Y-114415714D01*
X169537142Y-114510952D01*
X169489523Y-114558571D01*
X169394285Y-114606190D01*
X169013333Y-114606190D01*
X169965714Y-114796666D02*
X170441904Y-114796666D01*
X169870476Y-115082380D02*
X170203809Y-114082380D01*
X170537142Y-115082380D01*
X171060952Y-114082380D02*
X171156190Y-114082380D01*
X171251428Y-114130000D01*
X171299047Y-114177619D01*
X171346666Y-114272857D01*
X171394285Y-114463333D01*
X171394285Y-114701428D01*
X171346666Y-114891904D01*
X171299047Y-114987142D01*
X171251428Y-115034761D01*
X171156190Y-115082380D01*
X171060952Y-115082380D01*
X170965714Y-115034761D01*
X170918095Y-114987142D01*
X170870476Y-114891904D01*
X170822857Y-114701428D01*
X170822857Y-114463333D01*
X170870476Y-114272857D01*
X170918095Y-114177619D01*
X170965714Y-114130000D01*
X171060952Y-114082380D01*
X168941904Y-79522380D02*
X168941904Y-78522380D01*
X169322857Y-78522380D01*
X169418095Y-78570000D01*
X169465714Y-78617619D01*
X169513333Y-78712857D01*
X169513333Y-78855714D01*
X169465714Y-78950952D01*
X169418095Y-78998571D01*
X169322857Y-79046190D01*
X168941904Y-79046190D01*
X170275238Y-78998571D02*
X170418095Y-79046190D01*
X170465714Y-79093809D01*
X170513333Y-79189047D01*
X170513333Y-79331904D01*
X170465714Y-79427142D01*
X170418095Y-79474761D01*
X170322857Y-79522380D01*
X169941904Y-79522380D01*
X169941904Y-78522380D01*
X170275238Y-78522380D01*
X170370476Y-78570000D01*
X170418095Y-78617619D01*
X170465714Y-78712857D01*
X170465714Y-78808095D01*
X170418095Y-78903333D01*
X170370476Y-78950952D01*
X170275238Y-78998571D01*
X169941904Y-78998571D01*
X171370476Y-78522380D02*
X171180000Y-78522380D01*
X171084761Y-78570000D01*
X171037142Y-78617619D01*
X170941904Y-78760476D01*
X170894285Y-78950952D01*
X170894285Y-79331904D01*
X170941904Y-79427142D01*
X170989523Y-79474761D01*
X171084761Y-79522380D01*
X171275238Y-79522380D01*
X171370476Y-79474761D01*
X171418095Y-79427142D01*
X171465714Y-79331904D01*
X171465714Y-79093809D01*
X171418095Y-78998571D01*
X171370476Y-78950952D01*
X171275238Y-78903333D01*
X171084761Y-78903333D01*
X170989523Y-78950952D01*
X170941904Y-78998571D01*
X170894285Y-79093809D01*
X168941904Y-84602380D02*
X168941904Y-83602380D01*
X169322857Y-83602380D01*
X169418095Y-83650000D01*
X169465714Y-83697619D01*
X169513333Y-83792857D01*
X169513333Y-83935714D01*
X169465714Y-84030952D01*
X169418095Y-84078571D01*
X169322857Y-84126190D01*
X168941904Y-84126190D01*
X170275238Y-84078571D02*
X170418095Y-84126190D01*
X170465714Y-84173809D01*
X170513333Y-84269047D01*
X170513333Y-84411904D01*
X170465714Y-84507142D01*
X170418095Y-84554761D01*
X170322857Y-84602380D01*
X169941904Y-84602380D01*
X169941904Y-83602380D01*
X170275238Y-83602380D01*
X170370476Y-83650000D01*
X170418095Y-83697619D01*
X170465714Y-83792857D01*
X170465714Y-83888095D01*
X170418095Y-83983333D01*
X170370476Y-84030952D01*
X170275238Y-84078571D01*
X169941904Y-84078571D01*
X171370476Y-83935714D02*
X171370476Y-84602380D01*
X171132380Y-83554761D02*
X170894285Y-84269047D01*
X171513333Y-84269047D01*
X169013333Y-112542380D02*
X169013333Y-111542380D01*
X169394285Y-111542380D01*
X169489523Y-111590000D01*
X169537142Y-111637619D01*
X169584761Y-111732857D01*
X169584761Y-111875714D01*
X169537142Y-111970952D01*
X169489523Y-112018571D01*
X169394285Y-112066190D01*
X169013333Y-112066190D01*
X169965714Y-112256666D02*
X170441904Y-112256666D01*
X169870476Y-112542380D02*
X170203809Y-111542380D01*
X170537142Y-112542380D01*
X171394285Y-112542380D02*
X170822857Y-112542380D01*
X171108571Y-112542380D02*
X171108571Y-111542380D01*
X171013333Y-111685238D01*
X170918095Y-111780476D01*
X170822857Y-111828095D01*
%TO.C,U101*%
X137477714Y-93226380D02*
X137477714Y-94035904D01*
X137525333Y-94131142D01*
X137572952Y-94178761D01*
X137668190Y-94226380D01*
X137858666Y-94226380D01*
X137953904Y-94178761D01*
X138001523Y-94131142D01*
X138049142Y-94035904D01*
X138049142Y-93226380D01*
X139049142Y-94226380D02*
X138477714Y-94226380D01*
X138763428Y-94226380D02*
X138763428Y-93226380D01*
X138668190Y-93369238D01*
X138572952Y-93464476D01*
X138477714Y-93512095D01*
X139668190Y-93226380D02*
X139763428Y-93226380D01*
X139858666Y-93274000D01*
X139906285Y-93321619D01*
X139953904Y-93416857D01*
X140001523Y-93607333D01*
X140001523Y-93845428D01*
X139953904Y-94035904D01*
X139906285Y-94131142D01*
X139858666Y-94178761D01*
X139763428Y-94226380D01*
X139668190Y-94226380D01*
X139572952Y-94178761D01*
X139525333Y-94131142D01*
X139477714Y-94035904D01*
X139430095Y-93845428D01*
X139430095Y-93607333D01*
X139477714Y-93416857D01*
X139525333Y-93321619D01*
X139572952Y-93274000D01*
X139668190Y-93226380D01*
X140953904Y-94226380D02*
X140382476Y-94226380D01*
X140668190Y-94226380D02*
X140668190Y-93226380D01*
X140572952Y-93369238D01*
X140477714Y-93464476D01*
X140382476Y-93512095D01*
X121912000Y-112170785D02*
X121959619Y-112075547D01*
X121959619Y-111932690D01*
X121912000Y-111789833D01*
X121816761Y-111694595D01*
X121721523Y-111646976D01*
X121531047Y-111599357D01*
X121388190Y-111599357D01*
X121197714Y-111646976D01*
X121102476Y-111694595D01*
X121007238Y-111789833D01*
X120959619Y-111932690D01*
X120959619Y-112027928D01*
X121007238Y-112170785D01*
X121054857Y-112218404D01*
X121388190Y-112218404D01*
X121388190Y-112027928D01*
X120959619Y-112646976D02*
X121959619Y-112646976D01*
X120959619Y-113218404D01*
X121959619Y-113218404D01*
X120959619Y-113694595D02*
X121959619Y-113694595D01*
X121959619Y-113932690D01*
X121912000Y-114075547D01*
X121816761Y-114170785D01*
X121721523Y-114218404D01*
X121531047Y-114266023D01*
X121388190Y-114266023D01*
X121197714Y-114218404D01*
X121102476Y-114170785D01*
X121007238Y-114075547D01*
X120959619Y-113932690D01*
X120959619Y-113694595D01*
X141279619Y-110170785D02*
X141279619Y-110361261D01*
X141327238Y-110456500D01*
X141374857Y-110504119D01*
X141517714Y-110599357D01*
X141708190Y-110646976D01*
X142089142Y-110646976D01*
X142184380Y-110599357D01*
X142232000Y-110551738D01*
X142279619Y-110456500D01*
X142279619Y-110266023D01*
X142232000Y-110170785D01*
X142184380Y-110123166D01*
X142089142Y-110075547D01*
X141851047Y-110075547D01*
X141755809Y-110123166D01*
X141708190Y-110170785D01*
X141660571Y-110266023D01*
X141660571Y-110456500D01*
X141708190Y-110551738D01*
X141755809Y-110599357D01*
X141851047Y-110646976D01*
X141946285Y-111504119D02*
X141279619Y-111504119D01*
X142327238Y-111266023D02*
X141612952Y-111027928D01*
X141612952Y-111646976D01*
X141279619Y-112837452D02*
X141279619Y-113027928D01*
X141327238Y-113123166D01*
X141374857Y-113170785D01*
X141517714Y-113266023D01*
X141708190Y-113313642D01*
X142089142Y-113313642D01*
X142184380Y-113266023D01*
X142232000Y-113218404D01*
X142279619Y-113123166D01*
X142279619Y-112932690D01*
X142232000Y-112837452D01*
X142184380Y-112789833D01*
X142089142Y-112742214D01*
X141851047Y-112742214D01*
X141755809Y-112789833D01*
X141708190Y-112837452D01*
X141660571Y-112932690D01*
X141660571Y-113123166D01*
X141708190Y-113218404D01*
X141755809Y-113266023D01*
X141851047Y-113313642D01*
X142279619Y-113646976D02*
X142279619Y-114266023D01*
X141898666Y-113932690D01*
X141898666Y-114075547D01*
X141851047Y-114170785D01*
X141803428Y-114218404D01*
X141708190Y-114266023D01*
X141470095Y-114266023D01*
X141374857Y-114218404D01*
X141327238Y-114170785D01*
X141279619Y-114075547D01*
X141279619Y-113789833D01*
X141327238Y-113694595D01*
X141374857Y-113646976D01*
X146359619Y-109694595D02*
X146359619Y-109123166D01*
X146359619Y-109408880D02*
X147359619Y-109408880D01*
X147216761Y-109313642D01*
X147121523Y-109218404D01*
X147073904Y-109123166D01*
X147359619Y-110313642D02*
X147359619Y-110408880D01*
X147312000Y-110504119D01*
X147264380Y-110551738D01*
X147169142Y-110599357D01*
X146978666Y-110646976D01*
X146740571Y-110646976D01*
X146550095Y-110599357D01*
X146454857Y-110551738D01*
X146407238Y-110504119D01*
X146359619Y-110408880D01*
X146359619Y-110313642D01*
X146407238Y-110218404D01*
X146454857Y-110170785D01*
X146550095Y-110123166D01*
X146740571Y-110075547D01*
X146978666Y-110075547D01*
X147169142Y-110123166D01*
X147264380Y-110170785D01*
X147312000Y-110218404D01*
X147359619Y-110313642D01*
X147359619Y-111266023D02*
X147359619Y-111361261D01*
X147312000Y-111456500D01*
X147264380Y-111504119D01*
X147169142Y-111551738D01*
X146978666Y-111599357D01*
X146740571Y-111599357D01*
X146550095Y-111551738D01*
X146454857Y-111504119D01*
X146407238Y-111456500D01*
X146359619Y-111361261D01*
X146359619Y-111266023D01*
X146407238Y-111170785D01*
X146454857Y-111123166D01*
X146550095Y-111075547D01*
X146740571Y-111027928D01*
X146978666Y-111027928D01*
X147169142Y-111075547D01*
X147264380Y-111123166D01*
X147312000Y-111170785D01*
X147359619Y-111266023D01*
X146359619Y-112837452D02*
X146359619Y-113027928D01*
X146407238Y-113123166D01*
X146454857Y-113170785D01*
X146597714Y-113266023D01*
X146788190Y-113313642D01*
X147169142Y-113313642D01*
X147264380Y-113266023D01*
X147312000Y-113218404D01*
X147359619Y-113123166D01*
X147359619Y-112932690D01*
X147312000Y-112837452D01*
X147264380Y-112789833D01*
X147169142Y-112742214D01*
X146931047Y-112742214D01*
X146835809Y-112789833D01*
X146788190Y-112837452D01*
X146740571Y-112932690D01*
X146740571Y-113123166D01*
X146788190Y-113218404D01*
X146835809Y-113266023D01*
X146931047Y-113313642D01*
X146359619Y-113789833D02*
X146359619Y-113980309D01*
X146407238Y-114075547D01*
X146454857Y-114123166D01*
X146597714Y-114218404D01*
X146788190Y-114266023D01*
X147169142Y-114266023D01*
X147264380Y-114218404D01*
X147312000Y-114170785D01*
X147359619Y-114075547D01*
X147359619Y-113885071D01*
X147312000Y-113789833D01*
X147264380Y-113742214D01*
X147169142Y-113694595D01*
X146931047Y-113694595D01*
X146835809Y-113742214D01*
X146788190Y-113789833D01*
X146740571Y-113885071D01*
X146740571Y-114075547D01*
X146788190Y-114170785D01*
X146835809Y-114218404D01*
X146931047Y-114266023D01*
X152439619Y-76372690D02*
X152439619Y-76991738D01*
X152058666Y-76658404D01*
X152058666Y-76801261D01*
X152011047Y-76896500D01*
X151963428Y-76944119D01*
X151868190Y-76991738D01*
X151630095Y-76991738D01*
X151534857Y-76944119D01*
X151487238Y-76896500D01*
X151439619Y-76801261D01*
X151439619Y-76515547D01*
X151487238Y-76420309D01*
X151534857Y-76372690D01*
X152106285Y-78610785D02*
X151439619Y-78610785D01*
X152487238Y-78372690D02*
X151772952Y-78134595D01*
X151772952Y-78753642D01*
X151255452Y-81034000D02*
X151160214Y-80986380D01*
X151017357Y-80986380D01*
X150874500Y-81034000D01*
X150779261Y-81129238D01*
X150731642Y-81224476D01*
X150684023Y-81414952D01*
X150684023Y-81557809D01*
X150731642Y-81748285D01*
X150779261Y-81843523D01*
X150874500Y-81938761D01*
X151017357Y-81986380D01*
X151112595Y-81986380D01*
X151255452Y-81938761D01*
X151303071Y-81891142D01*
X151303071Y-81557809D01*
X151112595Y-81557809D01*
X151731642Y-81986380D02*
X151731642Y-80986380D01*
X152303071Y-81986380D01*
X152303071Y-80986380D01*
X152779261Y-81986380D02*
X152779261Y-80986380D01*
X153017357Y-80986380D01*
X153160214Y-81034000D01*
X153255452Y-81129238D01*
X153303071Y-81224476D01*
X153350690Y-81414952D01*
X153350690Y-81557809D01*
X153303071Y-81748285D01*
X153255452Y-81843523D01*
X153160214Y-81938761D01*
X153017357Y-81986380D01*
X152779261Y-81986380D01*
X154684023Y-81891142D02*
X154731642Y-81938761D01*
X154684023Y-81986380D01*
X154636404Y-81938761D01*
X154684023Y-81891142D01*
X154684023Y-81986380D01*
X154493547Y-81034000D02*
X154588785Y-80986380D01*
X154826880Y-80986380D01*
X154922119Y-81034000D01*
X154969738Y-81129238D01*
X154969738Y-81224476D01*
X154922119Y-81319714D01*
X154874500Y-81367333D01*
X154779261Y-81414952D01*
X154731642Y-81462571D01*
X154684023Y-81557809D01*
X154684023Y-81605428D01*
X155541166Y-81891142D02*
X155588785Y-81938761D01*
X155541166Y-81986380D01*
X155493547Y-81938761D01*
X155541166Y-81891142D01*
X155541166Y-81986380D01*
X155350690Y-81034000D02*
X155445928Y-80986380D01*
X155684023Y-80986380D01*
X155779261Y-81034000D01*
X155826880Y-81129238D01*
X155826880Y-81224476D01*
X155779261Y-81319714D01*
X155731642Y-81367333D01*
X155636404Y-81414952D01*
X155588785Y-81462571D01*
X155541166Y-81557809D01*
X155541166Y-81605428D01*
X156398309Y-81891142D02*
X156445928Y-81938761D01*
X156398309Y-81986380D01*
X156350690Y-81938761D01*
X156398309Y-81891142D01*
X156398309Y-81986380D01*
X156207833Y-81034000D02*
X156303071Y-80986380D01*
X156541166Y-80986380D01*
X156636404Y-81034000D01*
X156684023Y-81129238D01*
X156684023Y-81224476D01*
X156636404Y-81319714D01*
X156588785Y-81367333D01*
X156493547Y-81414952D01*
X156445928Y-81462571D01*
X156398309Y-81557809D01*
X156398309Y-81605428D01*
X143819619Y-110170785D02*
X143819619Y-110361261D01*
X143867238Y-110456500D01*
X143914857Y-110504119D01*
X144057714Y-110599357D01*
X144248190Y-110646976D01*
X144629142Y-110646976D01*
X144724380Y-110599357D01*
X144772000Y-110551738D01*
X144819619Y-110456500D01*
X144819619Y-110266023D01*
X144772000Y-110170785D01*
X144724380Y-110123166D01*
X144629142Y-110075547D01*
X144391047Y-110075547D01*
X144295809Y-110123166D01*
X144248190Y-110170785D01*
X144200571Y-110266023D01*
X144200571Y-110456500D01*
X144248190Y-110551738D01*
X144295809Y-110599357D01*
X144391047Y-110646976D01*
X144819619Y-110980309D02*
X144819619Y-111646976D01*
X143819619Y-111218404D01*
X143819619Y-112837452D02*
X143819619Y-113027928D01*
X143867238Y-113123166D01*
X143914857Y-113170785D01*
X144057714Y-113266023D01*
X144248190Y-113313642D01*
X144629142Y-113313642D01*
X144724380Y-113266023D01*
X144772000Y-113218404D01*
X144819619Y-113123166D01*
X144819619Y-112932690D01*
X144772000Y-112837452D01*
X144724380Y-112789833D01*
X144629142Y-112742214D01*
X144391047Y-112742214D01*
X144295809Y-112789833D01*
X144248190Y-112837452D01*
X144200571Y-112932690D01*
X144200571Y-113123166D01*
X144248190Y-113218404D01*
X144295809Y-113266023D01*
X144391047Y-113313642D01*
X144819619Y-114170785D02*
X144819619Y-113980309D01*
X144772000Y-113885071D01*
X144724380Y-113837452D01*
X144581523Y-113742214D01*
X144391047Y-113694595D01*
X144010095Y-113694595D01*
X143914857Y-113742214D01*
X143867238Y-113789833D01*
X143819619Y-113885071D01*
X143819619Y-114075547D01*
X143867238Y-114170785D01*
X143914857Y-114218404D01*
X144010095Y-114266023D01*
X144248190Y-114266023D01*
X144343428Y-114218404D01*
X144391047Y-114170785D01*
X144438666Y-114075547D01*
X144438666Y-113885071D01*
X144391047Y-113789833D01*
X144343428Y-113742214D01*
X144248190Y-113694595D01*
X151160214Y-99766380D02*
X150588785Y-99766380D01*
X150874500Y-99766380D02*
X150874500Y-98766380D01*
X150779261Y-98909238D01*
X150684023Y-99004476D01*
X150588785Y-99052095D01*
X151541166Y-98861619D02*
X151588785Y-98814000D01*
X151684023Y-98766380D01*
X151922119Y-98766380D01*
X152017357Y-98814000D01*
X152064976Y-98861619D01*
X152112595Y-98956857D01*
X152112595Y-99052095D01*
X152064976Y-99194952D01*
X151493547Y-99766380D01*
X152112595Y-99766380D01*
X153017357Y-98766380D02*
X152541166Y-98766380D01*
X152493547Y-99242571D01*
X152541166Y-99194952D01*
X152636404Y-99147333D01*
X152874500Y-99147333D01*
X152969738Y-99194952D01*
X153017357Y-99242571D01*
X153064976Y-99337809D01*
X153064976Y-99575904D01*
X153017357Y-99671142D01*
X152969738Y-99718761D01*
X152874500Y-99766380D01*
X152636404Y-99766380D01*
X152541166Y-99718761D01*
X152493547Y-99671142D01*
X154779261Y-99766380D02*
X154207833Y-99766380D01*
X154493547Y-99766380D02*
X154493547Y-98766380D01*
X154398309Y-98909238D01*
X154303071Y-99004476D01*
X154207833Y-99052095D01*
X155160214Y-98861619D02*
X155207833Y-98814000D01*
X155303071Y-98766380D01*
X155541166Y-98766380D01*
X155636404Y-98814000D01*
X155684023Y-98861619D01*
X155731642Y-98956857D01*
X155731642Y-99052095D01*
X155684023Y-99194952D01*
X155112595Y-99766380D01*
X155731642Y-99766380D01*
X156112595Y-98861619D02*
X156160214Y-98814000D01*
X156255452Y-98766380D01*
X156493547Y-98766380D01*
X156588785Y-98814000D01*
X156636404Y-98861619D01*
X156684023Y-98956857D01*
X156684023Y-99052095D01*
X156636404Y-99194952D01*
X156064976Y-99766380D01*
X156684023Y-99766380D01*
X151160214Y-104846380D02*
X150588785Y-104846380D01*
X150874500Y-104846380D02*
X150874500Y-103846380D01*
X150779261Y-103989238D01*
X150684023Y-104084476D01*
X150588785Y-104132095D01*
X152112595Y-104846380D02*
X151541166Y-104846380D01*
X151826880Y-104846380D02*
X151826880Y-103846380D01*
X151731642Y-103989238D01*
X151636404Y-104084476D01*
X151541166Y-104132095D01*
X152588785Y-104846380D02*
X152779261Y-104846380D01*
X152874500Y-104798761D01*
X152922119Y-104751142D01*
X153017357Y-104608285D01*
X153064976Y-104417809D01*
X153064976Y-104036857D01*
X153017357Y-103941619D01*
X152969738Y-103894000D01*
X152874500Y-103846380D01*
X152684023Y-103846380D01*
X152588785Y-103894000D01*
X152541166Y-103941619D01*
X152493547Y-104036857D01*
X152493547Y-104274952D01*
X152541166Y-104370190D01*
X152588785Y-104417809D01*
X152684023Y-104465428D01*
X152874500Y-104465428D01*
X152969738Y-104417809D01*
X153017357Y-104370190D01*
X153064976Y-104274952D01*
X154779261Y-104846380D02*
X154207833Y-104846380D01*
X154493547Y-104846380D02*
X154493547Y-103846380D01*
X154398309Y-103989238D01*
X154303071Y-104084476D01*
X154207833Y-104132095D01*
X155731642Y-104846380D02*
X155160214Y-104846380D01*
X155445928Y-104846380D02*
X155445928Y-103846380D01*
X155350690Y-103989238D01*
X155255452Y-104084476D01*
X155160214Y-104132095D01*
X156303071Y-104274952D02*
X156207833Y-104227333D01*
X156160214Y-104179714D01*
X156112595Y-104084476D01*
X156112595Y-104036857D01*
X156160214Y-103941619D01*
X156207833Y-103894000D01*
X156303071Y-103846380D01*
X156493547Y-103846380D01*
X156588785Y-103894000D01*
X156636404Y-103941619D01*
X156684023Y-104036857D01*
X156684023Y-104084476D01*
X156636404Y-104179714D01*
X156588785Y-104227333D01*
X156493547Y-104274952D01*
X156303071Y-104274952D01*
X156207833Y-104322571D01*
X156160214Y-104370190D01*
X156112595Y-104465428D01*
X156112595Y-104655904D01*
X156160214Y-104751142D01*
X156207833Y-104798761D01*
X156303071Y-104846380D01*
X156493547Y-104846380D01*
X156588785Y-104798761D01*
X156636404Y-104751142D01*
X156684023Y-104655904D01*
X156684023Y-104465428D01*
X156636404Y-104370190D01*
X156588785Y-104322571D01*
X156493547Y-104274952D01*
X154932000Y-76715904D02*
X154979619Y-76620666D01*
X154979619Y-76477809D01*
X154932000Y-76334952D01*
X154836761Y-76239714D01*
X154741523Y-76192095D01*
X154551047Y-76144476D01*
X154408190Y-76144476D01*
X154217714Y-76192095D01*
X154122476Y-76239714D01*
X154027238Y-76334952D01*
X153979619Y-76477809D01*
X153979619Y-76573047D01*
X154027238Y-76715904D01*
X154074857Y-76763523D01*
X154408190Y-76763523D01*
X154408190Y-76573047D01*
X119636166Y-86399714D02*
X119636166Y-87066380D01*
X119398071Y-86018761D02*
X119159976Y-86733047D01*
X119779023Y-86733047D01*
X120064738Y-86066380D02*
X120731404Y-86066380D01*
X120302833Y-87066380D01*
X122302833Y-86399714D02*
X122302833Y-87066380D01*
X122064738Y-86018761D02*
X121826642Y-86733047D01*
X122445690Y-86733047D01*
X122969500Y-86494952D02*
X122874261Y-86447333D01*
X122826642Y-86399714D01*
X122779023Y-86304476D01*
X122779023Y-86256857D01*
X122826642Y-86161619D01*
X122874261Y-86114000D01*
X122969500Y-86066380D01*
X123159976Y-86066380D01*
X123255214Y-86114000D01*
X123302833Y-86161619D01*
X123350452Y-86256857D01*
X123350452Y-86304476D01*
X123302833Y-86399714D01*
X123255214Y-86447333D01*
X123159976Y-86494952D01*
X122969500Y-86494952D01*
X122874261Y-86542571D01*
X122826642Y-86590190D01*
X122779023Y-86685428D01*
X122779023Y-86875904D01*
X122826642Y-86971142D01*
X122874261Y-87018761D01*
X122969500Y-87066380D01*
X123159976Y-87066380D01*
X123255214Y-87018761D01*
X123302833Y-86971142D01*
X123350452Y-86875904D01*
X123350452Y-86685428D01*
X123302833Y-86590190D01*
X123255214Y-86542571D01*
X123159976Y-86494952D01*
X134564380Y-76741976D02*
X134612000Y-76789595D01*
X134659619Y-76884833D01*
X134659619Y-77122928D01*
X134612000Y-77218166D01*
X134564380Y-77265785D01*
X134469142Y-77313404D01*
X134373904Y-77313404D01*
X134231047Y-77265785D01*
X133659619Y-76694357D01*
X133659619Y-77313404D01*
X134659619Y-77646738D02*
X134659619Y-78313404D01*
X133659619Y-77884833D01*
X134564380Y-79408642D02*
X134612000Y-79456261D01*
X134659619Y-79551500D01*
X134659619Y-79789595D01*
X134612000Y-79884833D01*
X134564380Y-79932452D01*
X134469142Y-79980071D01*
X134373904Y-79980071D01*
X134231047Y-79932452D01*
X133659619Y-79361023D01*
X133659619Y-79980071D01*
X134659619Y-80837214D02*
X134659619Y-80646738D01*
X134612000Y-80551500D01*
X134564380Y-80503880D01*
X134421523Y-80408642D01*
X134231047Y-80361023D01*
X133850095Y-80361023D01*
X133754857Y-80408642D01*
X133707238Y-80456261D01*
X133659619Y-80551500D01*
X133659619Y-80741976D01*
X133707238Y-80837214D01*
X133754857Y-80884833D01*
X133850095Y-80932452D01*
X134088190Y-80932452D01*
X134183428Y-80884833D01*
X134231047Y-80837214D01*
X134278666Y-80741976D01*
X134278666Y-80551500D01*
X134231047Y-80456261D01*
X134183428Y-80408642D01*
X134088190Y-80361023D01*
X151160214Y-87066380D02*
X150588785Y-87066380D01*
X150874500Y-87066380D02*
X150874500Y-86066380D01*
X150779261Y-86209238D01*
X150684023Y-86304476D01*
X150588785Y-86352095D01*
X152017357Y-86399714D02*
X152017357Y-87066380D01*
X151779261Y-86018761D02*
X151541166Y-86733047D01*
X152160214Y-86733047D01*
X153064976Y-87066380D02*
X152493547Y-87066380D01*
X152779261Y-87066380D02*
X152779261Y-86066380D01*
X152684023Y-86209238D01*
X152588785Y-86304476D01*
X152493547Y-86352095D01*
X154779261Y-87066380D02*
X154207833Y-87066380D01*
X154493547Y-87066380D02*
X154493547Y-86066380D01*
X154398309Y-86209238D01*
X154303071Y-86304476D01*
X154207833Y-86352095D01*
X155112595Y-86066380D02*
X155731642Y-86066380D01*
X155398309Y-86447333D01*
X155541166Y-86447333D01*
X155636404Y-86494952D01*
X155684023Y-86542571D01*
X155731642Y-86637809D01*
X155731642Y-86875904D01*
X155684023Y-86971142D01*
X155636404Y-87018761D01*
X155541166Y-87066380D01*
X155255452Y-87066380D01*
X155160214Y-87018761D01*
X155112595Y-86971142D01*
X156207833Y-87066380D02*
X156398309Y-87066380D01*
X156493547Y-87018761D01*
X156541166Y-86971142D01*
X156636404Y-86828285D01*
X156684023Y-86637809D01*
X156684023Y-86256857D01*
X156636404Y-86161619D01*
X156588785Y-86114000D01*
X156493547Y-86066380D01*
X156303071Y-86066380D01*
X156207833Y-86114000D01*
X156160214Y-86161619D01*
X156112595Y-86256857D01*
X156112595Y-86494952D01*
X156160214Y-86590190D01*
X156207833Y-86637809D01*
X156303071Y-86685428D01*
X156493547Y-86685428D01*
X156588785Y-86637809D01*
X156636404Y-86590190D01*
X156684023Y-86494952D01*
X119636166Y-101306380D02*
X119445690Y-101306380D01*
X119350452Y-101354000D01*
X119302833Y-101401619D01*
X119207595Y-101544476D01*
X119159976Y-101734952D01*
X119159976Y-102115904D01*
X119207595Y-102211142D01*
X119255214Y-102258761D01*
X119350452Y-102306380D01*
X119540928Y-102306380D01*
X119636166Y-102258761D01*
X119683785Y-102211142D01*
X119731404Y-102115904D01*
X119731404Y-101877809D01*
X119683785Y-101782571D01*
X119636166Y-101734952D01*
X119540928Y-101687333D01*
X119350452Y-101687333D01*
X119255214Y-101734952D01*
X119207595Y-101782571D01*
X119159976Y-101877809D01*
X120636166Y-101306380D02*
X120159976Y-101306380D01*
X120112357Y-101782571D01*
X120159976Y-101734952D01*
X120255214Y-101687333D01*
X120493309Y-101687333D01*
X120588547Y-101734952D01*
X120636166Y-101782571D01*
X120683785Y-101877809D01*
X120683785Y-102115904D01*
X120636166Y-102211142D01*
X120588547Y-102258761D01*
X120493309Y-102306380D01*
X120255214Y-102306380D01*
X120159976Y-102258761D01*
X120112357Y-102211142D01*
X122302833Y-101306380D02*
X122112357Y-101306380D01*
X122017119Y-101354000D01*
X121969500Y-101401619D01*
X121874261Y-101544476D01*
X121826642Y-101734952D01*
X121826642Y-102115904D01*
X121874261Y-102211142D01*
X121921880Y-102258761D01*
X122017119Y-102306380D01*
X122207595Y-102306380D01*
X122302833Y-102258761D01*
X122350452Y-102211142D01*
X122398071Y-102115904D01*
X122398071Y-101877809D01*
X122350452Y-101782571D01*
X122302833Y-101734952D01*
X122207595Y-101687333D01*
X122017119Y-101687333D01*
X121921880Y-101734952D01*
X121874261Y-101782571D01*
X121826642Y-101877809D01*
X122731404Y-101306380D02*
X123398071Y-101306380D01*
X122969500Y-102306380D01*
X119112357Y-106386380D02*
X119779023Y-106386380D01*
X119350452Y-107386380D01*
X120683785Y-107386380D02*
X120112357Y-107386380D01*
X120398071Y-107386380D02*
X120398071Y-106386380D01*
X120302833Y-106529238D01*
X120207595Y-106624476D01*
X120112357Y-106672095D01*
X121779023Y-106386380D02*
X122445690Y-106386380D01*
X122017119Y-107386380D01*
X122779023Y-106481619D02*
X122826642Y-106434000D01*
X122921880Y-106386380D01*
X123159976Y-106386380D01*
X123255214Y-106434000D01*
X123302833Y-106481619D01*
X123350452Y-106576857D01*
X123350452Y-106672095D01*
X123302833Y-106814952D01*
X122731404Y-107386380D01*
X123350452Y-107386380D01*
X119419619Y-110680666D02*
X118419619Y-111014000D01*
X119419619Y-111347333D01*
X118514857Y-112252095D02*
X118467238Y-112204476D01*
X118419619Y-112061619D01*
X118419619Y-111966380D01*
X118467238Y-111823523D01*
X118562476Y-111728285D01*
X118657714Y-111680666D01*
X118848190Y-111633047D01*
X118991047Y-111633047D01*
X119181523Y-111680666D01*
X119276761Y-111728285D01*
X119372000Y-111823523D01*
X119419619Y-111966380D01*
X119419619Y-112061619D01*
X119372000Y-112204476D01*
X119324380Y-112252095D01*
X118514857Y-113252095D02*
X118467238Y-113204476D01*
X118419619Y-113061619D01*
X118419619Y-112966380D01*
X118467238Y-112823523D01*
X118562476Y-112728285D01*
X118657714Y-112680666D01*
X118848190Y-112633047D01*
X118991047Y-112633047D01*
X119181523Y-112680666D01*
X119276761Y-112728285D01*
X119372000Y-112823523D01*
X119419619Y-112966380D01*
X119419619Y-113061619D01*
X119372000Y-113204476D01*
X119324380Y-113252095D01*
X119636166Y-81319714D02*
X119636166Y-81986380D01*
X119398071Y-80938761D02*
X119159976Y-81653047D01*
X119779023Y-81653047D01*
X120112357Y-81081619D02*
X120159976Y-81034000D01*
X120255214Y-80986380D01*
X120493309Y-80986380D01*
X120588547Y-81034000D01*
X120636166Y-81081619D01*
X120683785Y-81176857D01*
X120683785Y-81272095D01*
X120636166Y-81414952D01*
X120064738Y-81986380D01*
X120683785Y-81986380D01*
X122302833Y-81319714D02*
X122302833Y-81986380D01*
X122064738Y-80938761D02*
X121826642Y-81653047D01*
X122445690Y-81653047D01*
X122731404Y-80986380D02*
X123350452Y-80986380D01*
X123017119Y-81367333D01*
X123159976Y-81367333D01*
X123255214Y-81414952D01*
X123302833Y-81462571D01*
X123350452Y-81557809D01*
X123350452Y-81795904D01*
X123302833Y-81891142D01*
X123255214Y-81938761D01*
X123159976Y-81986380D01*
X122874261Y-81986380D01*
X122779023Y-81938761D01*
X122731404Y-81891142D01*
X148899619Y-108742214D02*
X148899619Y-108170785D01*
X148899619Y-108456500D02*
X149899619Y-108456500D01*
X149756761Y-108361261D01*
X149661523Y-108266023D01*
X149613904Y-108170785D01*
X149899619Y-109361261D02*
X149899619Y-109456500D01*
X149852000Y-109551738D01*
X149804380Y-109599357D01*
X149709142Y-109646976D01*
X149518666Y-109694595D01*
X149280571Y-109694595D01*
X149090095Y-109646976D01*
X148994857Y-109599357D01*
X148947238Y-109551738D01*
X148899619Y-109456500D01*
X148899619Y-109361261D01*
X148947238Y-109266023D01*
X148994857Y-109218404D01*
X149090095Y-109170785D01*
X149280571Y-109123166D01*
X149518666Y-109123166D01*
X149709142Y-109170785D01*
X149804380Y-109218404D01*
X149852000Y-109266023D01*
X149899619Y-109361261D01*
X149899619Y-110027928D02*
X149899619Y-110646976D01*
X149518666Y-110313642D01*
X149518666Y-110456500D01*
X149471047Y-110551738D01*
X149423428Y-110599357D01*
X149328190Y-110646976D01*
X149090095Y-110646976D01*
X148994857Y-110599357D01*
X148947238Y-110551738D01*
X148899619Y-110456500D01*
X148899619Y-110170785D01*
X148947238Y-110075547D01*
X148994857Y-110027928D01*
X148899619Y-112361261D02*
X148899619Y-111789833D01*
X148899619Y-112075547D02*
X149899619Y-112075547D01*
X149756761Y-111980309D01*
X149661523Y-111885071D01*
X149613904Y-111789833D01*
X149899619Y-112980309D02*
X149899619Y-113075547D01*
X149852000Y-113170785D01*
X149804380Y-113218404D01*
X149709142Y-113266023D01*
X149518666Y-113313642D01*
X149280571Y-113313642D01*
X149090095Y-113266023D01*
X148994857Y-113218404D01*
X148947238Y-113170785D01*
X148899619Y-113075547D01*
X148899619Y-112980309D01*
X148947238Y-112885071D01*
X148994857Y-112837452D01*
X149090095Y-112789833D01*
X149280571Y-112742214D01*
X149518666Y-112742214D01*
X149709142Y-112789833D01*
X149804380Y-112837452D01*
X149852000Y-112885071D01*
X149899619Y-112980309D01*
X148899619Y-114266023D02*
X148899619Y-113694595D01*
X148899619Y-113980309D02*
X149899619Y-113980309D01*
X149756761Y-113885071D01*
X149661523Y-113789833D01*
X149613904Y-113694595D01*
X124499619Y-110027928D02*
X124499619Y-110694595D01*
X123499619Y-110266023D01*
X124166285Y-111504119D02*
X123499619Y-111504119D01*
X124547238Y-111266023D02*
X123832952Y-111027928D01*
X123832952Y-111646976D01*
X124499619Y-112694595D02*
X124499619Y-113361261D01*
X123499619Y-112932690D01*
X124499619Y-113646976D02*
X124499619Y-114266023D01*
X124118666Y-113932690D01*
X124118666Y-114075547D01*
X124071047Y-114170785D01*
X124023428Y-114218404D01*
X123928190Y-114266023D01*
X123690095Y-114266023D01*
X123594857Y-114218404D01*
X123547238Y-114170785D01*
X123499619Y-114075547D01*
X123499619Y-113789833D01*
X123547238Y-113694595D01*
X123594857Y-113646976D01*
X153074857Y-114006380D02*
X153408190Y-115006380D01*
X153741523Y-114006380D01*
X154789142Y-113958761D02*
X153932000Y-115244476D01*
X155646285Y-114054000D02*
X155551047Y-114006380D01*
X155408190Y-114006380D01*
X155265333Y-114054000D01*
X155170095Y-114149238D01*
X155122476Y-114244476D01*
X155074857Y-114434952D01*
X155074857Y-114577809D01*
X155122476Y-114768285D01*
X155170095Y-114863523D01*
X155265333Y-114958761D01*
X155408190Y-115006380D01*
X155503428Y-115006380D01*
X155646285Y-114958761D01*
X155693904Y-114911142D01*
X155693904Y-114577809D01*
X155503428Y-114577809D01*
X119636166Y-98766380D02*
X119445690Y-98766380D01*
X119350452Y-98814000D01*
X119302833Y-98861619D01*
X119207595Y-99004476D01*
X119159976Y-99194952D01*
X119159976Y-99575904D01*
X119207595Y-99671142D01*
X119255214Y-99718761D01*
X119350452Y-99766380D01*
X119540928Y-99766380D01*
X119636166Y-99718761D01*
X119683785Y-99671142D01*
X119731404Y-99575904D01*
X119731404Y-99337809D01*
X119683785Y-99242571D01*
X119636166Y-99194952D01*
X119540928Y-99147333D01*
X119350452Y-99147333D01*
X119255214Y-99194952D01*
X119207595Y-99242571D01*
X119159976Y-99337809D01*
X120064738Y-98766380D02*
X120683785Y-98766380D01*
X120350452Y-99147333D01*
X120493309Y-99147333D01*
X120588547Y-99194952D01*
X120636166Y-99242571D01*
X120683785Y-99337809D01*
X120683785Y-99575904D01*
X120636166Y-99671142D01*
X120588547Y-99718761D01*
X120493309Y-99766380D01*
X120207595Y-99766380D01*
X120112357Y-99718761D01*
X120064738Y-99671142D01*
X122302833Y-98766380D02*
X122112357Y-98766380D01*
X122017119Y-98814000D01*
X121969500Y-98861619D01*
X121874261Y-99004476D01*
X121826642Y-99194952D01*
X121826642Y-99575904D01*
X121874261Y-99671142D01*
X121921880Y-99718761D01*
X122017119Y-99766380D01*
X122207595Y-99766380D01*
X122302833Y-99718761D01*
X122350452Y-99671142D01*
X122398071Y-99575904D01*
X122398071Y-99337809D01*
X122350452Y-99242571D01*
X122302833Y-99194952D01*
X122207595Y-99147333D01*
X122017119Y-99147333D01*
X121921880Y-99194952D01*
X121874261Y-99242571D01*
X121826642Y-99337809D01*
X123255214Y-99099714D02*
X123255214Y-99766380D01*
X123017119Y-98718761D02*
X122779023Y-99433047D01*
X123398071Y-99433047D01*
X141279619Y-77313404D02*
X141279619Y-76741976D01*
X141279619Y-77027690D02*
X142279619Y-77027690D01*
X142136761Y-76932452D01*
X142041523Y-76837214D01*
X141993904Y-76741976D01*
X142279619Y-77646738D02*
X142279619Y-78313404D01*
X141279619Y-77884833D01*
X141279619Y-79980071D02*
X141279619Y-79408642D01*
X141279619Y-79694357D02*
X142279619Y-79694357D01*
X142136761Y-79599119D01*
X142041523Y-79503880D01*
X141993904Y-79408642D01*
X141851047Y-80551500D02*
X141898666Y-80456261D01*
X141946285Y-80408642D01*
X142041523Y-80361023D01*
X142089142Y-80361023D01*
X142184380Y-80408642D01*
X142232000Y-80456261D01*
X142279619Y-80551500D01*
X142279619Y-80741976D01*
X142232000Y-80837214D01*
X142184380Y-80884833D01*
X142089142Y-80932452D01*
X142041523Y-80932452D01*
X141946285Y-80884833D01*
X141898666Y-80837214D01*
X141851047Y-80741976D01*
X141851047Y-80551500D01*
X141803428Y-80456261D01*
X141755809Y-80408642D01*
X141660571Y-80361023D01*
X141470095Y-80361023D01*
X141374857Y-80408642D01*
X141327238Y-80456261D01*
X141279619Y-80551500D01*
X141279619Y-80741976D01*
X141327238Y-80837214D01*
X141374857Y-80884833D01*
X141470095Y-80932452D01*
X141660571Y-80932452D01*
X141755809Y-80884833D01*
X141803428Y-80837214D01*
X141851047Y-80741976D01*
X151160214Y-102306380D02*
X150588785Y-102306380D01*
X150874500Y-102306380D02*
X150874500Y-101306380D01*
X150779261Y-101449238D01*
X150684023Y-101544476D01*
X150588785Y-101592095D01*
X151541166Y-101401619D02*
X151588785Y-101354000D01*
X151684023Y-101306380D01*
X151922119Y-101306380D01*
X152017357Y-101354000D01*
X152064976Y-101401619D01*
X152112595Y-101496857D01*
X152112595Y-101592095D01*
X152064976Y-101734952D01*
X151493547Y-102306380D01*
X152112595Y-102306380D01*
X153064976Y-102306380D02*
X152493547Y-102306380D01*
X152779261Y-102306380D02*
X152779261Y-101306380D01*
X152684023Y-101449238D01*
X152588785Y-101544476D01*
X152493547Y-101592095D01*
X154779261Y-102306380D02*
X154207833Y-102306380D01*
X154493547Y-102306380D02*
X154493547Y-101306380D01*
X154398309Y-101449238D01*
X154303071Y-101544476D01*
X154207833Y-101592095D01*
X155160214Y-101401619D02*
X155207833Y-101354000D01*
X155303071Y-101306380D01*
X155541166Y-101306380D01*
X155636404Y-101354000D01*
X155684023Y-101401619D01*
X155731642Y-101496857D01*
X155731642Y-101592095D01*
X155684023Y-101734952D01*
X155112595Y-102306380D01*
X155731642Y-102306380D01*
X156350690Y-101306380D02*
X156445928Y-101306380D01*
X156541166Y-101354000D01*
X156588785Y-101401619D01*
X156636404Y-101496857D01*
X156684023Y-101687333D01*
X156684023Y-101925428D01*
X156636404Y-102115904D01*
X156588785Y-102211142D01*
X156541166Y-102258761D01*
X156445928Y-102306380D01*
X156350690Y-102306380D01*
X156255452Y-102258761D01*
X156207833Y-102211142D01*
X156160214Y-102115904D01*
X156112595Y-101925428D01*
X156112595Y-101687333D01*
X156160214Y-101496857D01*
X156207833Y-101401619D01*
X156255452Y-101354000D01*
X156350690Y-101306380D01*
X144772000Y-77313404D02*
X144819619Y-77218166D01*
X144819619Y-77075309D01*
X144772000Y-76932452D01*
X144676761Y-76837214D01*
X144581523Y-76789595D01*
X144391047Y-76741976D01*
X144248190Y-76741976D01*
X144057714Y-76789595D01*
X143962476Y-76837214D01*
X143867238Y-76932452D01*
X143819619Y-77075309D01*
X143819619Y-77170547D01*
X143867238Y-77313404D01*
X143914857Y-77361023D01*
X144248190Y-77361023D01*
X144248190Y-77170547D01*
X143819619Y-77789595D02*
X144819619Y-77789595D01*
X143819619Y-78361023D01*
X144819619Y-78361023D01*
X143819619Y-78837214D02*
X144819619Y-78837214D01*
X144819619Y-79075309D01*
X144772000Y-79218166D01*
X144676761Y-79313404D01*
X144581523Y-79361023D01*
X144391047Y-79408642D01*
X144248190Y-79408642D01*
X144057714Y-79361023D01*
X143962476Y-79313404D01*
X143867238Y-79218166D01*
X143819619Y-79075309D01*
X143819619Y-78837214D01*
X122745333Y-77001619D02*
X122412000Y-76001619D01*
X122078666Y-77001619D01*
X121173904Y-76096857D02*
X121221523Y-76049238D01*
X121364380Y-76001619D01*
X121459619Y-76001619D01*
X121602476Y-76049238D01*
X121697714Y-76144476D01*
X121745333Y-76239714D01*
X121792952Y-76430190D01*
X121792952Y-76573047D01*
X121745333Y-76763523D01*
X121697714Y-76858761D01*
X121602476Y-76954000D01*
X121459619Y-77001619D01*
X121364380Y-77001619D01*
X121221523Y-76954000D01*
X121173904Y-76906380D01*
X120173904Y-76096857D02*
X120221523Y-76049238D01*
X120364380Y-76001619D01*
X120459619Y-76001619D01*
X120602476Y-76049238D01*
X120697714Y-76144476D01*
X120745333Y-76239714D01*
X120792952Y-76430190D01*
X120792952Y-76573047D01*
X120745333Y-76763523D01*
X120697714Y-76858761D01*
X120602476Y-76954000D01*
X120459619Y-77001619D01*
X120364380Y-77001619D01*
X120221523Y-76954000D01*
X120173904Y-76906380D01*
X119683785Y-91146380D02*
X119207595Y-91146380D01*
X119159976Y-91622571D01*
X119207595Y-91574952D01*
X119302833Y-91527333D01*
X119540928Y-91527333D01*
X119636166Y-91574952D01*
X119683785Y-91622571D01*
X119731404Y-91717809D01*
X119731404Y-91955904D01*
X119683785Y-92051142D01*
X119636166Y-92098761D01*
X119540928Y-92146380D01*
X119302833Y-92146380D01*
X119207595Y-92098761D01*
X119159976Y-92051142D01*
X120064738Y-91146380D02*
X120683785Y-91146380D01*
X120350452Y-91527333D01*
X120493309Y-91527333D01*
X120588547Y-91574952D01*
X120636166Y-91622571D01*
X120683785Y-91717809D01*
X120683785Y-91955904D01*
X120636166Y-92051142D01*
X120588547Y-92098761D01*
X120493309Y-92146380D01*
X120207595Y-92146380D01*
X120112357Y-92098761D01*
X120064738Y-92051142D01*
X122350452Y-91146380D02*
X121874261Y-91146380D01*
X121826642Y-91622571D01*
X121874261Y-91574952D01*
X121969500Y-91527333D01*
X122207595Y-91527333D01*
X122302833Y-91574952D01*
X122350452Y-91622571D01*
X122398071Y-91717809D01*
X122398071Y-91955904D01*
X122350452Y-92051142D01*
X122302833Y-92098761D01*
X122207595Y-92146380D01*
X121969500Y-92146380D01*
X121874261Y-92098761D01*
X121826642Y-92051142D01*
X123302833Y-91146380D02*
X122826642Y-91146380D01*
X122779023Y-91622571D01*
X122826642Y-91574952D01*
X122921880Y-91527333D01*
X123159976Y-91527333D01*
X123255214Y-91574952D01*
X123302833Y-91622571D01*
X123350452Y-91717809D01*
X123350452Y-91955904D01*
X123302833Y-92051142D01*
X123255214Y-92098761D01*
X123159976Y-92146380D01*
X122921880Y-92146380D01*
X122826642Y-92098761D01*
X122779023Y-92051142D01*
X126747238Y-102306380D02*
X126747238Y-101306380D01*
X127080571Y-102020666D01*
X127413904Y-101306380D01*
X127413904Y-102306380D01*
X128032952Y-102306380D02*
X127937714Y-102258761D01*
X127890095Y-102211142D01*
X127842476Y-102115904D01*
X127842476Y-101830190D01*
X127890095Y-101734952D01*
X127937714Y-101687333D01*
X128032952Y-101639714D01*
X128175809Y-101639714D01*
X128271047Y-101687333D01*
X128318666Y-101734952D01*
X128366285Y-101830190D01*
X128366285Y-102115904D01*
X128318666Y-102211142D01*
X128271047Y-102258761D01*
X128175809Y-102306380D01*
X128032952Y-102306380D01*
X129223428Y-101639714D02*
X129223428Y-102306380D01*
X128794857Y-101639714D02*
X128794857Y-102163523D01*
X128842476Y-102258761D01*
X128937714Y-102306380D01*
X129080571Y-102306380D01*
X129175809Y-102258761D01*
X129223428Y-102211142D01*
X129699619Y-101639714D02*
X129699619Y-102306380D01*
X129699619Y-101734952D02*
X129747238Y-101687333D01*
X129842476Y-101639714D01*
X129985333Y-101639714D01*
X130080571Y-101687333D01*
X130128190Y-101782571D01*
X130128190Y-102306380D01*
X130461523Y-101639714D02*
X130842476Y-101639714D01*
X130604380Y-101306380D02*
X130604380Y-102163523D01*
X130652000Y-102258761D01*
X130747238Y-102306380D01*
X130842476Y-102306380D01*
X131937714Y-101782571D02*
X132271047Y-101782571D01*
X132413904Y-102306380D02*
X131937714Y-102306380D01*
X131937714Y-101306380D01*
X132413904Y-101306380D01*
X132842476Y-102306380D02*
X132842476Y-101306380D01*
X133223428Y-101306380D01*
X133318666Y-101354000D01*
X133366285Y-101401619D01*
X133413904Y-101496857D01*
X133413904Y-101639714D01*
X133366285Y-101734952D01*
X133318666Y-101782571D01*
X133223428Y-101830190D01*
X132842476Y-101830190D01*
X133794857Y-101401619D02*
X133842476Y-101354000D01*
X133937714Y-101306380D01*
X134175809Y-101306380D01*
X134271047Y-101354000D01*
X134318666Y-101401619D01*
X134366285Y-101496857D01*
X134366285Y-101592095D01*
X134318666Y-101734952D01*
X133747238Y-102306380D01*
X134366285Y-102306380D01*
X135366285Y-102211142D02*
X135318666Y-102258761D01*
X135175809Y-102306380D01*
X135080571Y-102306380D01*
X134937714Y-102258761D01*
X134842476Y-102163523D01*
X134794857Y-102068285D01*
X134747238Y-101877809D01*
X134747238Y-101734952D01*
X134794857Y-101544476D01*
X134842476Y-101449238D01*
X134937714Y-101354000D01*
X135080571Y-101306380D01*
X135175809Y-101306380D01*
X135318666Y-101354000D01*
X135366285Y-101401619D01*
X136271047Y-101306380D02*
X135794857Y-101306380D01*
X135747238Y-101782571D01*
X135794857Y-101734952D01*
X135890095Y-101687333D01*
X136128190Y-101687333D01*
X136223428Y-101734952D01*
X136271047Y-101782571D01*
X136318666Y-101877809D01*
X136318666Y-102115904D01*
X136271047Y-102211142D01*
X136223428Y-102258761D01*
X136128190Y-102306380D01*
X135890095Y-102306380D01*
X135794857Y-102258761D01*
X135747238Y-102211142D01*
X136604380Y-101306380D02*
X137175809Y-101306380D01*
X136890095Y-102306380D02*
X136890095Y-101306380D01*
X138032952Y-102306380D02*
X137461523Y-102306380D01*
X137747238Y-102306380D02*
X137747238Y-101306380D01*
X137652000Y-101449238D01*
X137556761Y-101544476D01*
X137461523Y-101592095D01*
X138890095Y-101639714D02*
X138890095Y-102306380D01*
X138652000Y-101258761D02*
X138413904Y-101973047D01*
X139032952Y-101973047D01*
X139842476Y-101639714D02*
X139842476Y-102306380D01*
X139604380Y-101258761D02*
X139366285Y-101973047D01*
X139985333Y-101973047D01*
X141128190Y-102306380D02*
X141128190Y-101306380D01*
X141128190Y-101687333D02*
X141223428Y-101639714D01*
X141413904Y-101639714D01*
X141509142Y-101687333D01*
X141556761Y-101734952D01*
X141604380Y-101830190D01*
X141604380Y-102115904D01*
X141556761Y-102211142D01*
X141509142Y-102258761D01*
X141413904Y-102306380D01*
X141223428Y-102306380D01*
X141128190Y-102258761D01*
X142413904Y-102258761D02*
X142318666Y-102306380D01*
X142128190Y-102306380D01*
X142032952Y-102258761D01*
X141985333Y-102163523D01*
X141985333Y-101782571D01*
X142032952Y-101687333D01*
X142128190Y-101639714D01*
X142318666Y-101639714D01*
X142413904Y-101687333D01*
X142461523Y-101782571D01*
X142461523Y-101877809D01*
X141985333Y-101973047D01*
X142890095Y-101639714D02*
X142890095Y-102306380D01*
X142890095Y-101734952D02*
X142937714Y-101687333D01*
X143032952Y-101639714D01*
X143175809Y-101639714D01*
X143271047Y-101687333D01*
X143318666Y-101782571D01*
X143318666Y-102306380D01*
X144175809Y-102258761D02*
X144080571Y-102306380D01*
X143890095Y-102306380D01*
X143794857Y-102258761D01*
X143747238Y-102163523D01*
X143747238Y-101782571D01*
X143794857Y-101687333D01*
X143890095Y-101639714D01*
X144080571Y-101639714D01*
X144175809Y-101687333D01*
X144223428Y-101782571D01*
X144223428Y-101877809D01*
X143747238Y-101973047D01*
X145080571Y-102306380D02*
X145080571Y-101782571D01*
X145032952Y-101687333D01*
X144937714Y-101639714D01*
X144747238Y-101639714D01*
X144652000Y-101687333D01*
X145080571Y-102258761D02*
X144985333Y-102306380D01*
X144747238Y-102306380D01*
X144652000Y-102258761D01*
X144604380Y-102163523D01*
X144604380Y-102068285D01*
X144652000Y-101973047D01*
X144747238Y-101925428D01*
X144985333Y-101925428D01*
X145080571Y-101877809D01*
X145413904Y-101639714D02*
X145794857Y-101639714D01*
X145556761Y-101306380D02*
X145556761Y-102163523D01*
X145604380Y-102258761D01*
X145699619Y-102306380D01*
X145794857Y-102306380D01*
X146128190Y-102306380D02*
X146128190Y-101306380D01*
X146556761Y-102306380D02*
X146556761Y-101782571D01*
X146509142Y-101687333D01*
X146413904Y-101639714D01*
X146271047Y-101639714D01*
X146175809Y-101687333D01*
X146128190Y-101734952D01*
X119636166Y-103846380D02*
X119445690Y-103846380D01*
X119350452Y-103894000D01*
X119302833Y-103941619D01*
X119207595Y-104084476D01*
X119159976Y-104274952D01*
X119159976Y-104655904D01*
X119207595Y-104751142D01*
X119255214Y-104798761D01*
X119350452Y-104846380D01*
X119540928Y-104846380D01*
X119636166Y-104798761D01*
X119683785Y-104751142D01*
X119731404Y-104655904D01*
X119731404Y-104417809D01*
X119683785Y-104322571D01*
X119636166Y-104274952D01*
X119540928Y-104227333D01*
X119350452Y-104227333D01*
X119255214Y-104274952D01*
X119207595Y-104322571D01*
X119159976Y-104417809D01*
X120207595Y-104846380D02*
X120398071Y-104846380D01*
X120493309Y-104798761D01*
X120540928Y-104751142D01*
X120636166Y-104608285D01*
X120683785Y-104417809D01*
X120683785Y-104036857D01*
X120636166Y-103941619D01*
X120588547Y-103894000D01*
X120493309Y-103846380D01*
X120302833Y-103846380D01*
X120207595Y-103894000D01*
X120159976Y-103941619D01*
X120112357Y-104036857D01*
X120112357Y-104274952D01*
X120159976Y-104370190D01*
X120207595Y-104417809D01*
X120302833Y-104465428D01*
X120493309Y-104465428D01*
X120588547Y-104417809D01*
X120636166Y-104370190D01*
X120683785Y-104274952D01*
X121779023Y-103846380D02*
X122445690Y-103846380D01*
X122017119Y-104846380D01*
X123017119Y-103846380D02*
X123112357Y-103846380D01*
X123207595Y-103894000D01*
X123255214Y-103941619D01*
X123302833Y-104036857D01*
X123350452Y-104227333D01*
X123350452Y-104465428D01*
X123302833Y-104655904D01*
X123255214Y-104751142D01*
X123207595Y-104798761D01*
X123112357Y-104846380D01*
X123017119Y-104846380D01*
X122921880Y-104798761D01*
X122874261Y-104751142D01*
X122826642Y-104655904D01*
X122779023Y-104465428D01*
X122779023Y-104227333D01*
X122826642Y-104036857D01*
X122874261Y-103941619D01*
X122921880Y-103894000D01*
X123017119Y-103846380D01*
X119636166Y-83859714D02*
X119636166Y-84526380D01*
X119398071Y-83478761D02*
X119159976Y-84193047D01*
X119779023Y-84193047D01*
X120588547Y-83859714D02*
X120588547Y-84526380D01*
X120350452Y-83478761D02*
X120112357Y-84193047D01*
X120731404Y-84193047D01*
X122302833Y-83859714D02*
X122302833Y-84526380D01*
X122064738Y-83478761D02*
X121826642Y-84193047D01*
X122445690Y-84193047D01*
X123302833Y-83526380D02*
X122826642Y-83526380D01*
X122779023Y-84002571D01*
X122826642Y-83954952D01*
X122921880Y-83907333D01*
X123159976Y-83907333D01*
X123255214Y-83954952D01*
X123302833Y-84002571D01*
X123350452Y-84097809D01*
X123350452Y-84335904D01*
X123302833Y-84431142D01*
X123255214Y-84478761D01*
X123159976Y-84526380D01*
X122921880Y-84526380D01*
X122826642Y-84478761D01*
X122779023Y-84431142D01*
X146359619Y-76837214D02*
X146359619Y-77027690D01*
X146407238Y-77122928D01*
X146454857Y-77170547D01*
X146597714Y-77265785D01*
X146788190Y-77313404D01*
X147169142Y-77313404D01*
X147264380Y-77265785D01*
X147312000Y-77218166D01*
X147359619Y-77122928D01*
X147359619Y-76932452D01*
X147312000Y-76837214D01*
X147264380Y-76789595D01*
X147169142Y-76741976D01*
X146931047Y-76741976D01*
X146835809Y-76789595D01*
X146788190Y-76837214D01*
X146740571Y-76932452D01*
X146740571Y-77122928D01*
X146788190Y-77218166D01*
X146835809Y-77265785D01*
X146931047Y-77313404D01*
X147312000Y-79027690D02*
X147359619Y-78932452D01*
X147359619Y-78789595D01*
X147312000Y-78646738D01*
X147216761Y-78551500D01*
X147121523Y-78503880D01*
X146931047Y-78456261D01*
X146788190Y-78456261D01*
X146597714Y-78503880D01*
X146502476Y-78551500D01*
X146407238Y-78646738D01*
X146359619Y-78789595D01*
X146359619Y-78884833D01*
X146407238Y-79027690D01*
X146454857Y-79075309D01*
X146788190Y-79075309D01*
X146788190Y-78884833D01*
X146359619Y-79503880D02*
X147359619Y-79503880D01*
X146359619Y-80075309D01*
X147359619Y-80075309D01*
X146359619Y-80551500D02*
X147359619Y-80551500D01*
X147359619Y-80789595D01*
X147312000Y-80932452D01*
X147216761Y-81027690D01*
X147121523Y-81075309D01*
X146931047Y-81122928D01*
X146788190Y-81122928D01*
X146597714Y-81075309D01*
X146502476Y-81027690D01*
X146407238Y-80932452D01*
X146359619Y-80789595D01*
X146359619Y-80551500D01*
X154064976Y-78446380D02*
X154398309Y-79446380D01*
X154731642Y-78446380D01*
X155779261Y-78398761D02*
X154922119Y-79684476D01*
X156636404Y-78494000D02*
X156541166Y-78446380D01*
X156398309Y-78446380D01*
X156255452Y-78494000D01*
X156160214Y-78589238D01*
X156112595Y-78684476D01*
X156064976Y-78874952D01*
X156064976Y-79017809D01*
X156112595Y-79208285D01*
X156160214Y-79303523D01*
X156255452Y-79398761D01*
X156398309Y-79446380D01*
X156493547Y-79446380D01*
X156636404Y-79398761D01*
X156684023Y-79351142D01*
X156684023Y-79017809D01*
X156493547Y-79017809D01*
X132437714Y-104798761D02*
X132342476Y-104846380D01*
X132152000Y-104846380D01*
X132056761Y-104798761D01*
X132009142Y-104751142D01*
X131961523Y-104655904D01*
X131961523Y-104370190D01*
X132009142Y-104274952D01*
X132056761Y-104227333D01*
X132152000Y-104179714D01*
X132342476Y-104179714D01*
X132437714Y-104227333D01*
X132866285Y-104846380D02*
X132866285Y-104179714D01*
X132866285Y-103846380D02*
X132818666Y-103894000D01*
X132866285Y-103941619D01*
X132913904Y-103894000D01*
X132866285Y-103846380D01*
X132866285Y-103941619D01*
X133342476Y-104846380D02*
X133342476Y-104179714D01*
X133342476Y-104370190D02*
X133390095Y-104274952D01*
X133437714Y-104227333D01*
X133532952Y-104179714D01*
X133628190Y-104179714D01*
X134390095Y-104798761D02*
X134294857Y-104846380D01*
X134104380Y-104846380D01*
X134009142Y-104798761D01*
X133961523Y-104751142D01*
X133913904Y-104655904D01*
X133913904Y-104370190D01*
X133961523Y-104274952D01*
X134009142Y-104227333D01*
X134104380Y-104179714D01*
X134294857Y-104179714D01*
X134390095Y-104227333D01*
X135247238Y-104179714D02*
X135247238Y-104846380D01*
X134818666Y-104179714D02*
X134818666Y-104703523D01*
X134866285Y-104798761D01*
X134961523Y-104846380D01*
X135104380Y-104846380D01*
X135199619Y-104798761D01*
X135247238Y-104751142D01*
X135723428Y-104846380D02*
X135723428Y-104179714D01*
X135723428Y-103846380D02*
X135675809Y-103894000D01*
X135723428Y-103941619D01*
X135771047Y-103894000D01*
X135723428Y-103846380D01*
X135723428Y-103941619D01*
X136056761Y-104179714D02*
X136437714Y-104179714D01*
X136199619Y-103846380D02*
X136199619Y-104703523D01*
X136247238Y-104798761D01*
X136342476Y-104846380D01*
X136437714Y-104846380D01*
X137532952Y-104846380D02*
X137532952Y-103846380D01*
X137532952Y-104227333D02*
X137628190Y-104179714D01*
X137818666Y-104179714D01*
X137913904Y-104227333D01*
X137961523Y-104274952D01*
X138009142Y-104370190D01*
X138009142Y-104655904D01*
X137961523Y-104751142D01*
X137913904Y-104798761D01*
X137818666Y-104846380D01*
X137628190Y-104846380D01*
X137532952Y-104798761D01*
X138580571Y-104846380D02*
X138485333Y-104798761D01*
X138437714Y-104751142D01*
X138390095Y-104655904D01*
X138390095Y-104370190D01*
X138437714Y-104274952D01*
X138485333Y-104227333D01*
X138580571Y-104179714D01*
X138723428Y-104179714D01*
X138818666Y-104227333D01*
X138866285Y-104274952D01*
X138913904Y-104370190D01*
X138913904Y-104655904D01*
X138866285Y-104751142D01*
X138818666Y-104798761D01*
X138723428Y-104846380D01*
X138580571Y-104846380D01*
X139771047Y-104846380D02*
X139771047Y-104322571D01*
X139723428Y-104227333D01*
X139628190Y-104179714D01*
X139437714Y-104179714D01*
X139342476Y-104227333D01*
X139771047Y-104798761D02*
X139675809Y-104846380D01*
X139437714Y-104846380D01*
X139342476Y-104798761D01*
X139294857Y-104703523D01*
X139294857Y-104608285D01*
X139342476Y-104513047D01*
X139437714Y-104465428D01*
X139675809Y-104465428D01*
X139771047Y-104417809D01*
X140247238Y-104846380D02*
X140247238Y-104179714D01*
X140247238Y-104370190D02*
X140294857Y-104274952D01*
X140342476Y-104227333D01*
X140437714Y-104179714D01*
X140532952Y-104179714D01*
X141294857Y-104846380D02*
X141294857Y-103846380D01*
X141294857Y-104798761D02*
X141199619Y-104846380D01*
X141009142Y-104846380D01*
X140913904Y-104798761D01*
X140866285Y-104751142D01*
X140818666Y-104655904D01*
X140818666Y-104370190D01*
X140866285Y-104274952D01*
X140913904Y-104227333D01*
X141009142Y-104179714D01*
X141199619Y-104179714D01*
X141294857Y-104227333D01*
X149899619Y-76372690D02*
X149899619Y-77039357D01*
X148899619Y-76610785D01*
X149471047Y-78325071D02*
X149518666Y-78229833D01*
X149566285Y-78182214D01*
X149661523Y-78134595D01*
X149709142Y-78134595D01*
X149804380Y-78182214D01*
X149852000Y-78229833D01*
X149899619Y-78325071D01*
X149899619Y-78515547D01*
X149852000Y-78610785D01*
X149804380Y-78658404D01*
X149709142Y-78706023D01*
X149661523Y-78706023D01*
X149566285Y-78658404D01*
X149518666Y-78610785D01*
X149471047Y-78515547D01*
X149471047Y-78325071D01*
X149423428Y-78229833D01*
X149375809Y-78182214D01*
X149280571Y-78134595D01*
X149090095Y-78134595D01*
X148994857Y-78182214D01*
X148947238Y-78229833D01*
X148899619Y-78325071D01*
X148899619Y-78515547D01*
X148947238Y-78610785D01*
X148994857Y-78658404D01*
X149090095Y-78706023D01*
X149280571Y-78706023D01*
X149375809Y-78658404D01*
X149423428Y-78610785D01*
X149471047Y-78515547D01*
X151160214Y-92146380D02*
X150588785Y-92146380D01*
X150874500Y-92146380D02*
X150874500Y-91146380D01*
X150779261Y-91289238D01*
X150684023Y-91384476D01*
X150588785Y-91432095D01*
X151493547Y-91146380D02*
X152112595Y-91146380D01*
X151779261Y-91527333D01*
X151922119Y-91527333D01*
X152017357Y-91574952D01*
X152064976Y-91622571D01*
X152112595Y-91717809D01*
X152112595Y-91955904D01*
X152064976Y-92051142D01*
X152017357Y-92098761D01*
X151922119Y-92146380D01*
X151636404Y-92146380D01*
X151541166Y-92098761D01*
X151493547Y-92051142D01*
X153017357Y-91146380D02*
X152541166Y-91146380D01*
X152493547Y-91622571D01*
X152541166Y-91574952D01*
X152636404Y-91527333D01*
X152874500Y-91527333D01*
X152969738Y-91574952D01*
X153017357Y-91622571D01*
X153064976Y-91717809D01*
X153064976Y-91955904D01*
X153017357Y-92051142D01*
X152969738Y-92098761D01*
X152874500Y-92146380D01*
X152636404Y-92146380D01*
X152541166Y-92098761D01*
X152493547Y-92051142D01*
X154779261Y-92146380D02*
X154207833Y-92146380D01*
X154493547Y-92146380D02*
X154493547Y-91146380D01*
X154398309Y-91289238D01*
X154303071Y-91384476D01*
X154207833Y-91432095D01*
X155112595Y-91146380D02*
X155731642Y-91146380D01*
X155398309Y-91527333D01*
X155541166Y-91527333D01*
X155636404Y-91574952D01*
X155684023Y-91622571D01*
X155731642Y-91717809D01*
X155731642Y-91955904D01*
X155684023Y-92051142D01*
X155636404Y-92098761D01*
X155541166Y-92146380D01*
X155255452Y-92146380D01*
X155160214Y-92098761D01*
X155112595Y-92051142D01*
X156588785Y-91479714D02*
X156588785Y-92146380D01*
X156350690Y-91098761D02*
X156112595Y-91813047D01*
X156731642Y-91813047D01*
X138739619Y-110170785D02*
X138739619Y-110361261D01*
X138787238Y-110456500D01*
X138834857Y-110504119D01*
X138977714Y-110599357D01*
X139168190Y-110646976D01*
X139549142Y-110646976D01*
X139644380Y-110599357D01*
X139692000Y-110551738D01*
X139739619Y-110456500D01*
X139739619Y-110266023D01*
X139692000Y-110170785D01*
X139644380Y-110123166D01*
X139549142Y-110075547D01*
X139311047Y-110075547D01*
X139215809Y-110123166D01*
X139168190Y-110170785D01*
X139120571Y-110266023D01*
X139120571Y-110456500D01*
X139168190Y-110551738D01*
X139215809Y-110599357D01*
X139311047Y-110646976D01*
X139644380Y-111027928D02*
X139692000Y-111075547D01*
X139739619Y-111170785D01*
X139739619Y-111408880D01*
X139692000Y-111504119D01*
X139644380Y-111551738D01*
X139549142Y-111599357D01*
X139453904Y-111599357D01*
X139311047Y-111551738D01*
X138739619Y-110980309D01*
X138739619Y-111599357D01*
X138739619Y-112837452D02*
X138739619Y-113027928D01*
X138787238Y-113123166D01*
X138834857Y-113170785D01*
X138977714Y-113266023D01*
X139168190Y-113313642D01*
X139549142Y-113313642D01*
X139644380Y-113266023D01*
X139692000Y-113218404D01*
X139739619Y-113123166D01*
X139739619Y-112932690D01*
X139692000Y-112837452D01*
X139644380Y-112789833D01*
X139549142Y-112742214D01*
X139311047Y-112742214D01*
X139215809Y-112789833D01*
X139168190Y-112837452D01*
X139120571Y-112932690D01*
X139120571Y-113123166D01*
X139168190Y-113218404D01*
X139215809Y-113266023D01*
X139311047Y-113313642D01*
X138739619Y-114266023D02*
X138739619Y-113694595D01*
X138739619Y-113980309D02*
X139739619Y-113980309D01*
X139596761Y-113885071D01*
X139501523Y-113789833D01*
X139453904Y-113694595D01*
X151160214Y-107386380D02*
X150588785Y-107386380D01*
X150874500Y-107386380D02*
X150874500Y-106386380D01*
X150779261Y-106529238D01*
X150684023Y-106624476D01*
X150588785Y-106672095D01*
X152112595Y-107386380D02*
X151541166Y-107386380D01*
X151826880Y-107386380D02*
X151826880Y-106386380D01*
X151731642Y-106529238D01*
X151636404Y-106624476D01*
X151541166Y-106672095D01*
X153017357Y-106386380D02*
X152541166Y-106386380D01*
X152493547Y-106862571D01*
X152541166Y-106814952D01*
X152636404Y-106767333D01*
X152874500Y-106767333D01*
X152969738Y-106814952D01*
X153017357Y-106862571D01*
X153064976Y-106957809D01*
X153064976Y-107195904D01*
X153017357Y-107291142D01*
X152969738Y-107338761D01*
X152874500Y-107386380D01*
X152636404Y-107386380D01*
X152541166Y-107338761D01*
X152493547Y-107291142D01*
X154779261Y-107386380D02*
X154207833Y-107386380D01*
X154493547Y-107386380D02*
X154493547Y-106386380D01*
X154398309Y-106529238D01*
X154303071Y-106624476D01*
X154207833Y-106672095D01*
X155731642Y-107386380D02*
X155160214Y-107386380D01*
X155445928Y-107386380D02*
X155445928Y-106386380D01*
X155350690Y-106529238D01*
X155255452Y-106624476D01*
X155160214Y-106672095D01*
X156588785Y-106719714D02*
X156588785Y-107386380D01*
X156350690Y-106338761D02*
X156112595Y-107053047D01*
X156731642Y-107053047D01*
X139644380Y-76741976D02*
X139692000Y-76789595D01*
X139739619Y-76884833D01*
X139739619Y-77122928D01*
X139692000Y-77218166D01*
X139644380Y-77265785D01*
X139549142Y-77313404D01*
X139453904Y-77313404D01*
X139311047Y-77265785D01*
X138739619Y-76694357D01*
X138739619Y-77313404D01*
X139644380Y-77694357D02*
X139692000Y-77741976D01*
X139739619Y-77837214D01*
X139739619Y-78075309D01*
X139692000Y-78170547D01*
X139644380Y-78218166D01*
X139549142Y-78265785D01*
X139453904Y-78265785D01*
X139311047Y-78218166D01*
X138739619Y-77646738D01*
X138739619Y-78265785D01*
X139644380Y-79408642D02*
X139692000Y-79456261D01*
X139739619Y-79551500D01*
X139739619Y-79789595D01*
X139692000Y-79884833D01*
X139644380Y-79932452D01*
X139549142Y-79980071D01*
X139453904Y-79980071D01*
X139311047Y-79932452D01*
X138739619Y-79361023D01*
X138739619Y-79980071D01*
X138739619Y-80932452D02*
X138739619Y-80361023D01*
X138739619Y-80646738D02*
X139739619Y-80646738D01*
X139596761Y-80551500D01*
X139501523Y-80456261D01*
X139453904Y-80361023D01*
X119683785Y-96226380D02*
X119207595Y-96226380D01*
X119159976Y-96702571D01*
X119207595Y-96654952D01*
X119302833Y-96607333D01*
X119540928Y-96607333D01*
X119636166Y-96654952D01*
X119683785Y-96702571D01*
X119731404Y-96797809D01*
X119731404Y-97035904D01*
X119683785Y-97131142D01*
X119636166Y-97178761D01*
X119540928Y-97226380D01*
X119302833Y-97226380D01*
X119207595Y-97178761D01*
X119159976Y-97131142D01*
X120207595Y-97226380D02*
X120398071Y-97226380D01*
X120493309Y-97178761D01*
X120540928Y-97131142D01*
X120636166Y-96988285D01*
X120683785Y-96797809D01*
X120683785Y-96416857D01*
X120636166Y-96321619D01*
X120588547Y-96274000D01*
X120493309Y-96226380D01*
X120302833Y-96226380D01*
X120207595Y-96274000D01*
X120159976Y-96321619D01*
X120112357Y-96416857D01*
X120112357Y-96654952D01*
X120159976Y-96750190D01*
X120207595Y-96797809D01*
X120302833Y-96845428D01*
X120493309Y-96845428D01*
X120588547Y-96797809D01*
X120636166Y-96750190D01*
X120683785Y-96654952D01*
X122302833Y-96226380D02*
X122112357Y-96226380D01*
X122017119Y-96274000D01*
X121969500Y-96321619D01*
X121874261Y-96464476D01*
X121826642Y-96654952D01*
X121826642Y-97035904D01*
X121874261Y-97131142D01*
X121921880Y-97178761D01*
X122017119Y-97226380D01*
X122207595Y-97226380D01*
X122302833Y-97178761D01*
X122350452Y-97131142D01*
X122398071Y-97035904D01*
X122398071Y-96797809D01*
X122350452Y-96702571D01*
X122302833Y-96654952D01*
X122207595Y-96607333D01*
X122017119Y-96607333D01*
X121921880Y-96654952D01*
X121874261Y-96702571D01*
X121826642Y-96797809D01*
X123017119Y-96226380D02*
X123112357Y-96226380D01*
X123207595Y-96274000D01*
X123255214Y-96321619D01*
X123302833Y-96416857D01*
X123350452Y-96607333D01*
X123350452Y-96845428D01*
X123302833Y-97035904D01*
X123255214Y-97131142D01*
X123207595Y-97178761D01*
X123112357Y-97226380D01*
X123017119Y-97226380D01*
X122921880Y-97178761D01*
X122874261Y-97131142D01*
X122826642Y-97035904D01*
X122779023Y-96845428D01*
X122779023Y-96607333D01*
X122826642Y-96416857D01*
X122874261Y-96321619D01*
X122921880Y-96274000D01*
X123017119Y-96226380D01*
X119636166Y-78779714D02*
X119636166Y-79446380D01*
X119398071Y-78398761D02*
X119159976Y-79113047D01*
X119779023Y-79113047D01*
X120350452Y-78446380D02*
X120445690Y-78446380D01*
X120540928Y-78494000D01*
X120588547Y-78541619D01*
X120636166Y-78636857D01*
X120683785Y-78827333D01*
X120683785Y-79065428D01*
X120636166Y-79255904D01*
X120588547Y-79351142D01*
X120540928Y-79398761D01*
X120445690Y-79446380D01*
X120350452Y-79446380D01*
X120255214Y-79398761D01*
X120207595Y-79351142D01*
X120159976Y-79255904D01*
X120112357Y-79065428D01*
X120112357Y-78827333D01*
X120159976Y-78636857D01*
X120207595Y-78541619D01*
X120255214Y-78494000D01*
X120350452Y-78446380D01*
X122302833Y-78779714D02*
X122302833Y-79446380D01*
X122064738Y-78398761D02*
X121826642Y-79113047D01*
X122445690Y-79113047D01*
X123350452Y-79446380D02*
X122779023Y-79446380D01*
X123064738Y-79446380D02*
X123064738Y-78446380D01*
X122969500Y-78589238D01*
X122874261Y-78684476D01*
X122779023Y-78732095D01*
X127039619Y-76694357D02*
X127039619Y-77313404D01*
X126658666Y-76980071D01*
X126658666Y-77122928D01*
X126611047Y-77218166D01*
X126563428Y-77265785D01*
X126468190Y-77313404D01*
X126230095Y-77313404D01*
X126134857Y-77265785D01*
X126087238Y-77218166D01*
X126039619Y-77122928D01*
X126039619Y-76837214D01*
X126087238Y-76741976D01*
X126134857Y-76694357D01*
X126944380Y-77694357D02*
X126992000Y-77741976D01*
X127039619Y-77837214D01*
X127039619Y-78075309D01*
X126992000Y-78170547D01*
X126944380Y-78218166D01*
X126849142Y-78265785D01*
X126753904Y-78265785D01*
X126611047Y-78218166D01*
X126039619Y-77646738D01*
X126039619Y-78265785D01*
X127039619Y-79361023D02*
X127039619Y-79980071D01*
X126658666Y-79646738D01*
X126658666Y-79789595D01*
X126611047Y-79884833D01*
X126563428Y-79932452D01*
X126468190Y-79980071D01*
X126230095Y-79980071D01*
X126134857Y-79932452D01*
X126087238Y-79884833D01*
X126039619Y-79789595D01*
X126039619Y-79503880D01*
X126087238Y-79408642D01*
X126134857Y-79361023D01*
X126039619Y-80932452D02*
X126039619Y-80361023D01*
X126039619Y-80646738D02*
X127039619Y-80646738D01*
X126896761Y-80551500D01*
X126801523Y-80456261D01*
X126753904Y-80361023D01*
X131691047Y-110266023D02*
X131738666Y-110170785D01*
X131786285Y-110123166D01*
X131881523Y-110075547D01*
X131929142Y-110075547D01*
X132024380Y-110123166D01*
X132072000Y-110170785D01*
X132119619Y-110266023D01*
X132119619Y-110456500D01*
X132072000Y-110551738D01*
X132024380Y-110599357D01*
X131929142Y-110646976D01*
X131881523Y-110646976D01*
X131786285Y-110599357D01*
X131738666Y-110551738D01*
X131691047Y-110456500D01*
X131691047Y-110266023D01*
X131643428Y-110170785D01*
X131595809Y-110123166D01*
X131500571Y-110075547D01*
X131310095Y-110075547D01*
X131214857Y-110123166D01*
X131167238Y-110170785D01*
X131119619Y-110266023D01*
X131119619Y-110456500D01*
X131167238Y-110551738D01*
X131214857Y-110599357D01*
X131310095Y-110646976D01*
X131500571Y-110646976D01*
X131595809Y-110599357D01*
X131643428Y-110551738D01*
X131691047Y-110456500D01*
X132119619Y-111504119D02*
X132119619Y-111313642D01*
X132072000Y-111218404D01*
X132024380Y-111170785D01*
X131881523Y-111075547D01*
X131691047Y-111027928D01*
X131310095Y-111027928D01*
X131214857Y-111075547D01*
X131167238Y-111123166D01*
X131119619Y-111218404D01*
X131119619Y-111408880D01*
X131167238Y-111504119D01*
X131214857Y-111551738D01*
X131310095Y-111599357D01*
X131548190Y-111599357D01*
X131643428Y-111551738D01*
X131691047Y-111504119D01*
X131738666Y-111408880D01*
X131738666Y-111218404D01*
X131691047Y-111123166D01*
X131643428Y-111075547D01*
X131548190Y-111027928D01*
X131691047Y-112932690D02*
X131738666Y-112837452D01*
X131786285Y-112789833D01*
X131881523Y-112742214D01*
X131929142Y-112742214D01*
X132024380Y-112789833D01*
X132072000Y-112837452D01*
X132119619Y-112932690D01*
X132119619Y-113123166D01*
X132072000Y-113218404D01*
X132024380Y-113266023D01*
X131929142Y-113313642D01*
X131881523Y-113313642D01*
X131786285Y-113266023D01*
X131738666Y-113218404D01*
X131691047Y-113123166D01*
X131691047Y-112932690D01*
X131643428Y-112837452D01*
X131595809Y-112789833D01*
X131500571Y-112742214D01*
X131310095Y-112742214D01*
X131214857Y-112789833D01*
X131167238Y-112837452D01*
X131119619Y-112932690D01*
X131119619Y-113123166D01*
X131167238Y-113218404D01*
X131214857Y-113266023D01*
X131310095Y-113313642D01*
X131500571Y-113313642D01*
X131595809Y-113266023D01*
X131643428Y-113218404D01*
X131691047Y-113123166D01*
X131119619Y-114266023D02*
X131119619Y-113694595D01*
X131119619Y-113980309D02*
X132119619Y-113980309D01*
X131976761Y-113885071D01*
X131881523Y-113789833D01*
X131833904Y-113694595D01*
X132119619Y-76646738D02*
X131119619Y-76980071D01*
X132119619Y-77313404D01*
X131214857Y-78218166D02*
X131167238Y-78170547D01*
X131119619Y-78027690D01*
X131119619Y-77932452D01*
X131167238Y-77789595D01*
X131262476Y-77694357D01*
X131357714Y-77646738D01*
X131548190Y-77599119D01*
X131691047Y-77599119D01*
X131881523Y-77646738D01*
X131976761Y-77694357D01*
X132072000Y-77789595D01*
X132119619Y-77932452D01*
X132119619Y-78027690D01*
X132072000Y-78170547D01*
X132024380Y-78218166D01*
X131214857Y-79218166D02*
X131167238Y-79170547D01*
X131119619Y-79027690D01*
X131119619Y-78932452D01*
X131167238Y-78789595D01*
X131262476Y-78694357D01*
X131357714Y-78646738D01*
X131548190Y-78599119D01*
X131691047Y-78599119D01*
X131881523Y-78646738D01*
X131976761Y-78694357D01*
X132072000Y-78789595D01*
X132119619Y-78932452D01*
X132119619Y-79027690D01*
X132072000Y-79170547D01*
X132024380Y-79218166D01*
X131119619Y-80170547D02*
X131119619Y-79599119D01*
X131119619Y-79884833D02*
X132119619Y-79884833D01*
X131976761Y-79789595D01*
X131881523Y-79694357D01*
X131833904Y-79599119D01*
X131214857Y-80599119D02*
X131167238Y-80646738D01*
X131119619Y-80599119D01*
X131167238Y-80551500D01*
X131214857Y-80599119D01*
X131119619Y-80599119D01*
X132024380Y-81027690D02*
X132072000Y-81075309D01*
X132119619Y-81170547D01*
X132119619Y-81408642D01*
X132072000Y-81503880D01*
X132024380Y-81551500D01*
X131929142Y-81599119D01*
X131833904Y-81599119D01*
X131691047Y-81551500D01*
X131119619Y-80980071D01*
X131119619Y-81599119D01*
X151160214Y-97226380D02*
X150588785Y-97226380D01*
X150874500Y-97226380D02*
X150874500Y-96226380D01*
X150779261Y-96369238D01*
X150684023Y-96464476D01*
X150588785Y-96512095D01*
X151541166Y-96321619D02*
X151588785Y-96274000D01*
X151684023Y-96226380D01*
X151922119Y-96226380D01*
X152017357Y-96274000D01*
X152064976Y-96321619D01*
X152112595Y-96416857D01*
X152112595Y-96512095D01*
X152064976Y-96654952D01*
X151493547Y-97226380D01*
X152112595Y-97226380D01*
X152588785Y-97226380D02*
X152779261Y-97226380D01*
X152874500Y-97178761D01*
X152922119Y-97131142D01*
X153017357Y-96988285D01*
X153064976Y-96797809D01*
X153064976Y-96416857D01*
X153017357Y-96321619D01*
X152969738Y-96274000D01*
X152874500Y-96226380D01*
X152684023Y-96226380D01*
X152588785Y-96274000D01*
X152541166Y-96321619D01*
X152493547Y-96416857D01*
X152493547Y-96654952D01*
X152541166Y-96750190D01*
X152588785Y-96797809D01*
X152684023Y-96845428D01*
X152874500Y-96845428D01*
X152969738Y-96797809D01*
X153017357Y-96750190D01*
X153064976Y-96654952D01*
X154779261Y-97226380D02*
X154207833Y-97226380D01*
X154493547Y-97226380D02*
X154493547Y-96226380D01*
X154398309Y-96369238D01*
X154303071Y-96464476D01*
X154207833Y-96512095D01*
X155160214Y-96321619D02*
X155207833Y-96274000D01*
X155303071Y-96226380D01*
X155541166Y-96226380D01*
X155636404Y-96274000D01*
X155684023Y-96321619D01*
X155731642Y-96416857D01*
X155731642Y-96512095D01*
X155684023Y-96654952D01*
X155112595Y-97226380D01*
X155731642Y-97226380D01*
X156588785Y-96226380D02*
X156398309Y-96226380D01*
X156303071Y-96274000D01*
X156255452Y-96321619D01*
X156160214Y-96464476D01*
X156112595Y-96654952D01*
X156112595Y-97035904D01*
X156160214Y-97131142D01*
X156207833Y-97178761D01*
X156303071Y-97226380D01*
X156493547Y-97226380D01*
X156588785Y-97178761D01*
X156636404Y-97131142D01*
X156684023Y-97035904D01*
X156684023Y-96797809D01*
X156636404Y-96702571D01*
X156588785Y-96654952D01*
X156493547Y-96607333D01*
X156303071Y-96607333D01*
X156207833Y-96654952D01*
X156160214Y-96702571D01*
X156112595Y-96797809D01*
X129151047Y-110266023D02*
X129198666Y-110170785D01*
X129246285Y-110123166D01*
X129341523Y-110075547D01*
X129389142Y-110075547D01*
X129484380Y-110123166D01*
X129532000Y-110170785D01*
X129579619Y-110266023D01*
X129579619Y-110456500D01*
X129532000Y-110551738D01*
X129484380Y-110599357D01*
X129389142Y-110646976D01*
X129341523Y-110646976D01*
X129246285Y-110599357D01*
X129198666Y-110551738D01*
X129151047Y-110456500D01*
X129151047Y-110266023D01*
X129103428Y-110170785D01*
X129055809Y-110123166D01*
X128960571Y-110075547D01*
X128770095Y-110075547D01*
X128674857Y-110123166D01*
X128627238Y-110170785D01*
X128579619Y-110266023D01*
X128579619Y-110456500D01*
X128627238Y-110551738D01*
X128674857Y-110599357D01*
X128770095Y-110646976D01*
X128960571Y-110646976D01*
X129055809Y-110599357D01*
X129103428Y-110551738D01*
X129151047Y-110456500D01*
X129579619Y-111266023D02*
X129579619Y-111361261D01*
X129532000Y-111456500D01*
X129484380Y-111504119D01*
X129389142Y-111551738D01*
X129198666Y-111599357D01*
X128960571Y-111599357D01*
X128770095Y-111551738D01*
X128674857Y-111504119D01*
X128627238Y-111456500D01*
X128579619Y-111361261D01*
X128579619Y-111266023D01*
X128627238Y-111170785D01*
X128674857Y-111123166D01*
X128770095Y-111075547D01*
X128960571Y-111027928D01*
X129198666Y-111027928D01*
X129389142Y-111075547D01*
X129484380Y-111123166D01*
X129532000Y-111170785D01*
X129579619Y-111266023D01*
X129579619Y-112694595D02*
X129579619Y-113361261D01*
X128579619Y-112932690D01*
X128579619Y-113789833D02*
X128579619Y-113980309D01*
X128627238Y-114075547D01*
X128674857Y-114123166D01*
X128817714Y-114218404D01*
X129008190Y-114266023D01*
X129389142Y-114266023D01*
X129484380Y-114218404D01*
X129532000Y-114170785D01*
X129579619Y-114075547D01*
X129579619Y-113885071D01*
X129532000Y-113789833D01*
X129484380Y-113742214D01*
X129389142Y-113694595D01*
X129151047Y-113694595D01*
X129055809Y-113742214D01*
X129008190Y-113789833D01*
X128960571Y-113885071D01*
X128960571Y-114075547D01*
X129008190Y-114170785D01*
X129055809Y-114218404D01*
X129151047Y-114266023D01*
X151892000Y-108551738D02*
X151939619Y-108456500D01*
X151939619Y-108313642D01*
X151892000Y-108170785D01*
X151796761Y-108075547D01*
X151701523Y-108027928D01*
X151511047Y-107980309D01*
X151368190Y-107980309D01*
X151177714Y-108027928D01*
X151082476Y-108075547D01*
X150987238Y-108170785D01*
X150939619Y-108313642D01*
X150939619Y-108408880D01*
X150987238Y-108551738D01*
X151034857Y-108599357D01*
X151368190Y-108599357D01*
X151368190Y-108408880D01*
X150939619Y-109027928D02*
X151939619Y-109027928D01*
X150939619Y-109599357D01*
X151939619Y-109599357D01*
X150939619Y-110075547D02*
X151939619Y-110075547D01*
X151939619Y-110313642D01*
X151892000Y-110456500D01*
X151796761Y-110551738D01*
X151701523Y-110599357D01*
X151511047Y-110646976D01*
X151368190Y-110646976D01*
X151177714Y-110599357D01*
X151082476Y-110551738D01*
X150987238Y-110456500D01*
X150939619Y-110313642D01*
X150939619Y-110075547D01*
X150939619Y-112361261D02*
X150939619Y-111789833D01*
X150939619Y-112075547D02*
X151939619Y-112075547D01*
X151796761Y-111980309D01*
X151701523Y-111885071D01*
X151653904Y-111789833D01*
X151939619Y-112980309D02*
X151939619Y-113075547D01*
X151892000Y-113170785D01*
X151844380Y-113218404D01*
X151749142Y-113266023D01*
X151558666Y-113313642D01*
X151320571Y-113313642D01*
X151130095Y-113266023D01*
X151034857Y-113218404D01*
X150987238Y-113170785D01*
X150939619Y-113075547D01*
X150939619Y-112980309D01*
X150987238Y-112885071D01*
X151034857Y-112837452D01*
X151130095Y-112789833D01*
X151320571Y-112742214D01*
X151558666Y-112742214D01*
X151749142Y-112789833D01*
X151844380Y-112837452D01*
X151892000Y-112885071D01*
X151939619Y-112980309D01*
X151606285Y-114170785D02*
X150939619Y-114170785D01*
X151987238Y-113932690D02*
X151272952Y-113694595D01*
X151272952Y-114313642D01*
X151160214Y-89606380D02*
X150588785Y-89606380D01*
X150874500Y-89606380D02*
X150874500Y-88606380D01*
X150779261Y-88749238D01*
X150684023Y-88844476D01*
X150588785Y-88892095D01*
X151493547Y-88606380D02*
X152112595Y-88606380D01*
X151779261Y-88987333D01*
X151922119Y-88987333D01*
X152017357Y-89034952D01*
X152064976Y-89082571D01*
X152112595Y-89177809D01*
X152112595Y-89415904D01*
X152064976Y-89511142D01*
X152017357Y-89558761D01*
X151922119Y-89606380D01*
X151636404Y-89606380D01*
X151541166Y-89558761D01*
X151493547Y-89511142D01*
X152445928Y-88606380D02*
X153112595Y-88606380D01*
X152684023Y-89606380D01*
X154779261Y-89606380D02*
X154207833Y-89606380D01*
X154493547Y-89606380D02*
X154493547Y-88606380D01*
X154398309Y-88749238D01*
X154303071Y-88844476D01*
X154207833Y-88892095D01*
X155112595Y-88606380D02*
X155731642Y-88606380D01*
X155398309Y-88987333D01*
X155541166Y-88987333D01*
X155636404Y-89034952D01*
X155684023Y-89082571D01*
X155731642Y-89177809D01*
X155731642Y-89415904D01*
X155684023Y-89511142D01*
X155636404Y-89558761D01*
X155541166Y-89606380D01*
X155255452Y-89606380D01*
X155160214Y-89558761D01*
X155112595Y-89511142D01*
X156588785Y-88606380D02*
X156398309Y-88606380D01*
X156303071Y-88654000D01*
X156255452Y-88701619D01*
X156160214Y-88844476D01*
X156112595Y-89034952D01*
X156112595Y-89415904D01*
X156160214Y-89511142D01*
X156207833Y-89558761D01*
X156303071Y-89606380D01*
X156493547Y-89606380D01*
X156588785Y-89558761D01*
X156636404Y-89511142D01*
X156684023Y-89415904D01*
X156684023Y-89177809D01*
X156636404Y-89082571D01*
X156588785Y-89034952D01*
X156493547Y-88987333D01*
X156303071Y-88987333D01*
X156207833Y-89034952D01*
X156160214Y-89082571D01*
X156112595Y-89177809D01*
X119683785Y-93686380D02*
X119207595Y-93686380D01*
X119159976Y-94162571D01*
X119207595Y-94114952D01*
X119302833Y-94067333D01*
X119540928Y-94067333D01*
X119636166Y-94114952D01*
X119683785Y-94162571D01*
X119731404Y-94257809D01*
X119731404Y-94495904D01*
X119683785Y-94591142D01*
X119636166Y-94638761D01*
X119540928Y-94686380D01*
X119302833Y-94686380D01*
X119207595Y-94638761D01*
X119159976Y-94591142D01*
X120064738Y-93686380D02*
X120731404Y-93686380D01*
X120302833Y-94686380D01*
X122350452Y-93686380D02*
X121874261Y-93686380D01*
X121826642Y-94162571D01*
X121874261Y-94114952D01*
X121969500Y-94067333D01*
X122207595Y-94067333D01*
X122302833Y-94114952D01*
X122350452Y-94162571D01*
X122398071Y-94257809D01*
X122398071Y-94495904D01*
X122350452Y-94591142D01*
X122302833Y-94638761D01*
X122207595Y-94686380D01*
X121969500Y-94686380D01*
X121874261Y-94638761D01*
X121826642Y-94591142D01*
X122969500Y-94114952D02*
X122874261Y-94067333D01*
X122826642Y-94019714D01*
X122779023Y-93924476D01*
X122779023Y-93876857D01*
X122826642Y-93781619D01*
X122874261Y-93734000D01*
X122969500Y-93686380D01*
X123159976Y-93686380D01*
X123255214Y-93734000D01*
X123302833Y-93781619D01*
X123350452Y-93876857D01*
X123350452Y-93924476D01*
X123302833Y-94019714D01*
X123255214Y-94067333D01*
X123159976Y-94114952D01*
X122969500Y-94114952D01*
X122874261Y-94162571D01*
X122826642Y-94210190D01*
X122779023Y-94305428D01*
X122779023Y-94495904D01*
X122826642Y-94591142D01*
X122874261Y-94638761D01*
X122969500Y-94686380D01*
X123159976Y-94686380D01*
X123255214Y-94638761D01*
X123302833Y-94591142D01*
X123350452Y-94495904D01*
X123350452Y-94305428D01*
X123302833Y-94210190D01*
X123255214Y-94162571D01*
X123159976Y-94114952D01*
X127039619Y-110027928D02*
X127039619Y-110694595D01*
X126039619Y-110266023D01*
X127039619Y-111504119D02*
X127039619Y-111313642D01*
X126992000Y-111218404D01*
X126944380Y-111170785D01*
X126801523Y-111075547D01*
X126611047Y-111027928D01*
X126230095Y-111027928D01*
X126134857Y-111075547D01*
X126087238Y-111123166D01*
X126039619Y-111218404D01*
X126039619Y-111408880D01*
X126087238Y-111504119D01*
X126134857Y-111551738D01*
X126230095Y-111599357D01*
X126468190Y-111599357D01*
X126563428Y-111551738D01*
X126611047Y-111504119D01*
X126658666Y-111408880D01*
X126658666Y-111218404D01*
X126611047Y-111123166D01*
X126563428Y-111075547D01*
X126468190Y-111027928D01*
X127039619Y-112694595D02*
X127039619Y-113361261D01*
X126039619Y-112932690D01*
X127039619Y-114218404D02*
X127039619Y-113742214D01*
X126563428Y-113694595D01*
X126611047Y-113742214D01*
X126658666Y-113837452D01*
X126658666Y-114075547D01*
X126611047Y-114170785D01*
X126563428Y-114218404D01*
X126468190Y-114266023D01*
X126230095Y-114266023D01*
X126134857Y-114218404D01*
X126087238Y-114170785D01*
X126039619Y-114075547D01*
X126039619Y-113837452D01*
X126087238Y-113742214D01*
X126134857Y-113694595D01*
X137104380Y-76741976D02*
X137152000Y-76789595D01*
X137199619Y-76884833D01*
X137199619Y-77122928D01*
X137152000Y-77218166D01*
X137104380Y-77265785D01*
X137009142Y-77313404D01*
X136913904Y-77313404D01*
X136771047Y-77265785D01*
X136199619Y-76694357D01*
X136199619Y-77313404D01*
X137199619Y-78218166D02*
X137199619Y-77741976D01*
X136723428Y-77694357D01*
X136771047Y-77741976D01*
X136818666Y-77837214D01*
X136818666Y-78075309D01*
X136771047Y-78170547D01*
X136723428Y-78218166D01*
X136628190Y-78265785D01*
X136390095Y-78265785D01*
X136294857Y-78218166D01*
X136247238Y-78170547D01*
X136199619Y-78075309D01*
X136199619Y-77837214D01*
X136247238Y-77741976D01*
X136294857Y-77694357D01*
X137104380Y-79408642D02*
X137152000Y-79456261D01*
X137199619Y-79551500D01*
X137199619Y-79789595D01*
X137152000Y-79884833D01*
X137104380Y-79932452D01*
X137009142Y-79980071D01*
X136913904Y-79980071D01*
X136771047Y-79932452D01*
X136199619Y-79361023D01*
X136199619Y-79980071D01*
X136866285Y-80837214D02*
X136199619Y-80837214D01*
X137247238Y-80599119D02*
X136532952Y-80361023D01*
X136532952Y-80980071D01*
X119731404Y-108974000D02*
X119636166Y-108926380D01*
X119493309Y-108926380D01*
X119350452Y-108974000D01*
X119255214Y-109069238D01*
X119207595Y-109164476D01*
X119159976Y-109354952D01*
X119159976Y-109497809D01*
X119207595Y-109688285D01*
X119255214Y-109783523D01*
X119350452Y-109878761D01*
X119493309Y-109926380D01*
X119588547Y-109926380D01*
X119731404Y-109878761D01*
X119779023Y-109831142D01*
X119779023Y-109497809D01*
X119588547Y-109497809D01*
X120207595Y-109926380D02*
X120207595Y-108926380D01*
X120779023Y-109926380D01*
X120779023Y-108926380D01*
X121255214Y-109926380D02*
X121255214Y-108926380D01*
X121493309Y-108926380D01*
X121636166Y-108974000D01*
X121731404Y-109069238D01*
X121779023Y-109164476D01*
X121826642Y-109354952D01*
X121826642Y-109497809D01*
X121779023Y-109688285D01*
X121731404Y-109783523D01*
X121636166Y-109878761D01*
X121493309Y-109926380D01*
X121255214Y-109926380D01*
X119683785Y-88606380D02*
X119207595Y-88606380D01*
X119159976Y-89082571D01*
X119207595Y-89034952D01*
X119302833Y-88987333D01*
X119540928Y-88987333D01*
X119636166Y-89034952D01*
X119683785Y-89082571D01*
X119731404Y-89177809D01*
X119731404Y-89415904D01*
X119683785Y-89511142D01*
X119636166Y-89558761D01*
X119540928Y-89606380D01*
X119302833Y-89606380D01*
X119207595Y-89558761D01*
X119159976Y-89511142D01*
X120683785Y-89606380D02*
X120112357Y-89606380D01*
X120398071Y-89606380D02*
X120398071Y-88606380D01*
X120302833Y-88749238D01*
X120207595Y-88844476D01*
X120112357Y-88892095D01*
X122350452Y-88606380D02*
X121874261Y-88606380D01*
X121826642Y-89082571D01*
X121874261Y-89034952D01*
X121969500Y-88987333D01*
X122207595Y-88987333D01*
X122302833Y-89034952D01*
X122350452Y-89082571D01*
X122398071Y-89177809D01*
X122398071Y-89415904D01*
X122350452Y-89511142D01*
X122302833Y-89558761D01*
X122207595Y-89606380D01*
X121969500Y-89606380D01*
X121874261Y-89558761D01*
X121826642Y-89511142D01*
X122779023Y-88701619D02*
X122826642Y-88654000D01*
X122921880Y-88606380D01*
X123159976Y-88606380D01*
X123255214Y-88654000D01*
X123302833Y-88701619D01*
X123350452Y-88796857D01*
X123350452Y-88892095D01*
X123302833Y-89034952D01*
X122731404Y-89606380D01*
X123350452Y-89606380D01*
X129579619Y-76694357D02*
X129579619Y-77313404D01*
X129198666Y-76980071D01*
X129198666Y-77122928D01*
X129151047Y-77218166D01*
X129103428Y-77265785D01*
X129008190Y-77313404D01*
X128770095Y-77313404D01*
X128674857Y-77265785D01*
X128627238Y-77218166D01*
X128579619Y-77122928D01*
X128579619Y-76837214D01*
X128627238Y-76741976D01*
X128674857Y-76694357D01*
X129579619Y-77932452D02*
X129579619Y-78027690D01*
X129532000Y-78122928D01*
X129484380Y-78170547D01*
X129389142Y-78218166D01*
X129198666Y-78265785D01*
X128960571Y-78265785D01*
X128770095Y-78218166D01*
X128674857Y-78170547D01*
X128627238Y-78122928D01*
X128579619Y-78027690D01*
X128579619Y-77932452D01*
X128627238Y-77837214D01*
X128674857Y-77789595D01*
X128770095Y-77741976D01*
X128960571Y-77694357D01*
X129198666Y-77694357D01*
X129389142Y-77741976D01*
X129484380Y-77789595D01*
X129532000Y-77837214D01*
X129579619Y-77932452D01*
X129484380Y-79408642D02*
X129532000Y-79456261D01*
X129579619Y-79551500D01*
X129579619Y-79789595D01*
X129532000Y-79884833D01*
X129484380Y-79932452D01*
X129389142Y-79980071D01*
X129293904Y-79980071D01*
X129151047Y-79932452D01*
X128579619Y-79361023D01*
X128579619Y-79980071D01*
X129151047Y-80551500D02*
X129198666Y-80456261D01*
X129246285Y-80408642D01*
X129341523Y-80361023D01*
X129389142Y-80361023D01*
X129484380Y-80408642D01*
X129532000Y-80456261D01*
X129579619Y-80551500D01*
X129579619Y-80741976D01*
X129532000Y-80837214D01*
X129484380Y-80884833D01*
X129389142Y-80932452D01*
X129341523Y-80932452D01*
X129246285Y-80884833D01*
X129198666Y-80837214D01*
X129151047Y-80741976D01*
X129151047Y-80551500D01*
X129103428Y-80456261D01*
X129055809Y-80408642D01*
X128960571Y-80361023D01*
X128770095Y-80361023D01*
X128674857Y-80408642D01*
X128627238Y-80456261D01*
X128579619Y-80551500D01*
X128579619Y-80741976D01*
X128627238Y-80837214D01*
X128674857Y-80884833D01*
X128770095Y-80932452D01*
X128960571Y-80932452D01*
X129055809Y-80884833D01*
X129103428Y-80837214D01*
X129151047Y-80741976D01*
X153670095Y-111514000D02*
X153574857Y-111466380D01*
X153432000Y-111466380D01*
X153289142Y-111514000D01*
X153193904Y-111609238D01*
X153146285Y-111704476D01*
X153098666Y-111894952D01*
X153098666Y-112037809D01*
X153146285Y-112228285D01*
X153193904Y-112323523D01*
X153289142Y-112418761D01*
X153432000Y-112466380D01*
X153527238Y-112466380D01*
X153670095Y-112418761D01*
X153717714Y-112371142D01*
X153717714Y-112037809D01*
X153527238Y-112037809D01*
X154146285Y-112466380D02*
X154146285Y-111466380D01*
X154717714Y-112466380D01*
X154717714Y-111466380D01*
X155193904Y-112466380D02*
X155193904Y-111466380D01*
X155432000Y-111466380D01*
X155574857Y-111514000D01*
X155670095Y-111609238D01*
X155717714Y-111704476D01*
X155765333Y-111894952D01*
X155765333Y-112037809D01*
X155717714Y-112228285D01*
X155670095Y-112323523D01*
X155574857Y-112418761D01*
X155432000Y-112466380D01*
X155193904Y-112466380D01*
X151160214Y-94686380D02*
X150588785Y-94686380D01*
X150874500Y-94686380D02*
X150874500Y-93686380D01*
X150779261Y-93829238D01*
X150684023Y-93924476D01*
X150588785Y-93972095D01*
X151493547Y-93686380D02*
X152112595Y-93686380D01*
X151779261Y-94067333D01*
X151922119Y-94067333D01*
X152017357Y-94114952D01*
X152064976Y-94162571D01*
X152112595Y-94257809D01*
X152112595Y-94495904D01*
X152064976Y-94591142D01*
X152017357Y-94638761D01*
X151922119Y-94686380D01*
X151636404Y-94686380D01*
X151541166Y-94638761D01*
X151493547Y-94591142D01*
X152445928Y-93686380D02*
X153064976Y-93686380D01*
X152731642Y-94067333D01*
X152874500Y-94067333D01*
X152969738Y-94114952D01*
X153017357Y-94162571D01*
X153064976Y-94257809D01*
X153064976Y-94495904D01*
X153017357Y-94591142D01*
X152969738Y-94638761D01*
X152874500Y-94686380D01*
X152588785Y-94686380D01*
X152493547Y-94638761D01*
X152445928Y-94591142D01*
X154779261Y-94686380D02*
X154207833Y-94686380D01*
X154493547Y-94686380D02*
X154493547Y-93686380D01*
X154398309Y-93829238D01*
X154303071Y-93924476D01*
X154207833Y-93972095D01*
X155112595Y-93686380D02*
X155731642Y-93686380D01*
X155398309Y-94067333D01*
X155541166Y-94067333D01*
X155636404Y-94114952D01*
X155684023Y-94162571D01*
X155731642Y-94257809D01*
X155731642Y-94495904D01*
X155684023Y-94591142D01*
X155636404Y-94638761D01*
X155541166Y-94686380D01*
X155255452Y-94686380D01*
X155160214Y-94638761D01*
X155112595Y-94591142D01*
X156112595Y-93781619D02*
X156160214Y-93734000D01*
X156255452Y-93686380D01*
X156493547Y-93686380D01*
X156588785Y-93734000D01*
X156636404Y-93781619D01*
X156684023Y-93876857D01*
X156684023Y-93972095D01*
X156636404Y-94114952D01*
X156064976Y-94686380D01*
X156684023Y-94686380D01*
X152779261Y-109926380D02*
X152207833Y-109926380D01*
X152493547Y-109926380D02*
X152493547Y-108926380D01*
X152398309Y-109069238D01*
X152303071Y-109164476D01*
X152207833Y-109212095D01*
X153731642Y-109926380D02*
X153160214Y-109926380D01*
X153445928Y-109926380D02*
X153445928Y-108926380D01*
X153350690Y-109069238D01*
X153255452Y-109164476D01*
X153160214Y-109212095D01*
X154064976Y-108926380D02*
X154684023Y-108926380D01*
X154350690Y-109307333D01*
X154493547Y-109307333D01*
X154588785Y-109354952D01*
X154636404Y-109402571D01*
X154684023Y-109497809D01*
X154684023Y-109735904D01*
X154636404Y-109831142D01*
X154588785Y-109878761D01*
X154493547Y-109926380D01*
X154207833Y-109926380D01*
X154112595Y-109878761D01*
X154064976Y-109831142D01*
X155826880Y-108878761D02*
X154969738Y-110164476D01*
X156112595Y-109021619D02*
X156160214Y-108974000D01*
X156255452Y-108926380D01*
X156493547Y-108926380D01*
X156588785Y-108974000D01*
X156636404Y-109021619D01*
X156684023Y-109116857D01*
X156684023Y-109212095D01*
X156636404Y-109354952D01*
X156064976Y-109926380D01*
X156684023Y-109926380D01*
X136199619Y-110170785D02*
X136199619Y-110361261D01*
X136247238Y-110456500D01*
X136294857Y-110504119D01*
X136437714Y-110599357D01*
X136628190Y-110646976D01*
X137009142Y-110646976D01*
X137104380Y-110599357D01*
X137152000Y-110551738D01*
X137199619Y-110456500D01*
X137199619Y-110266023D01*
X137152000Y-110170785D01*
X137104380Y-110123166D01*
X137009142Y-110075547D01*
X136771047Y-110075547D01*
X136675809Y-110123166D01*
X136628190Y-110170785D01*
X136580571Y-110266023D01*
X136580571Y-110456500D01*
X136628190Y-110551738D01*
X136675809Y-110599357D01*
X136771047Y-110646976D01*
X137199619Y-111266023D02*
X137199619Y-111361261D01*
X137152000Y-111456500D01*
X137104380Y-111504119D01*
X137009142Y-111551738D01*
X136818666Y-111599357D01*
X136580571Y-111599357D01*
X136390095Y-111551738D01*
X136294857Y-111504119D01*
X136247238Y-111456500D01*
X136199619Y-111361261D01*
X136199619Y-111266023D01*
X136247238Y-111170785D01*
X136294857Y-111123166D01*
X136390095Y-111075547D01*
X136580571Y-111027928D01*
X136818666Y-111027928D01*
X137009142Y-111075547D01*
X137104380Y-111123166D01*
X137152000Y-111170785D01*
X137199619Y-111266023D01*
X136771047Y-112932690D02*
X136818666Y-112837452D01*
X136866285Y-112789833D01*
X136961523Y-112742214D01*
X137009142Y-112742214D01*
X137104380Y-112789833D01*
X137152000Y-112837452D01*
X137199619Y-112932690D01*
X137199619Y-113123166D01*
X137152000Y-113218404D01*
X137104380Y-113266023D01*
X137009142Y-113313642D01*
X136961523Y-113313642D01*
X136866285Y-113266023D01*
X136818666Y-113218404D01*
X136771047Y-113123166D01*
X136771047Y-112932690D01*
X136723428Y-112837452D01*
X136675809Y-112789833D01*
X136580571Y-112742214D01*
X136390095Y-112742214D01*
X136294857Y-112789833D01*
X136247238Y-112837452D01*
X136199619Y-112932690D01*
X136199619Y-113123166D01*
X136247238Y-113218404D01*
X136294857Y-113266023D01*
X136390095Y-113313642D01*
X136580571Y-113313642D01*
X136675809Y-113266023D01*
X136723428Y-113218404D01*
X136771047Y-113123166D01*
X136199619Y-113789833D02*
X136199619Y-113980309D01*
X136247238Y-114075547D01*
X136294857Y-114123166D01*
X136437714Y-114218404D01*
X136628190Y-114266023D01*
X137009142Y-114266023D01*
X137104380Y-114218404D01*
X137152000Y-114170785D01*
X137199619Y-114075547D01*
X137199619Y-113885071D01*
X137152000Y-113789833D01*
X137104380Y-113742214D01*
X137009142Y-113694595D01*
X136771047Y-113694595D01*
X136675809Y-113742214D01*
X136628190Y-113789833D01*
X136580571Y-113885071D01*
X136580571Y-114075547D01*
X136628190Y-114170785D01*
X136675809Y-114218404D01*
X136771047Y-114266023D01*
X134231047Y-110266023D02*
X134278666Y-110170785D01*
X134326285Y-110123166D01*
X134421523Y-110075547D01*
X134469142Y-110075547D01*
X134564380Y-110123166D01*
X134612000Y-110170785D01*
X134659619Y-110266023D01*
X134659619Y-110456500D01*
X134612000Y-110551738D01*
X134564380Y-110599357D01*
X134469142Y-110646976D01*
X134421523Y-110646976D01*
X134326285Y-110599357D01*
X134278666Y-110551738D01*
X134231047Y-110456500D01*
X134231047Y-110266023D01*
X134183428Y-110170785D01*
X134135809Y-110123166D01*
X134040571Y-110075547D01*
X133850095Y-110075547D01*
X133754857Y-110123166D01*
X133707238Y-110170785D01*
X133659619Y-110266023D01*
X133659619Y-110456500D01*
X133707238Y-110551738D01*
X133754857Y-110599357D01*
X133850095Y-110646976D01*
X134040571Y-110646976D01*
X134135809Y-110599357D01*
X134183428Y-110551738D01*
X134231047Y-110456500D01*
X134231047Y-111218404D02*
X134278666Y-111123166D01*
X134326285Y-111075547D01*
X134421523Y-111027928D01*
X134469142Y-111027928D01*
X134564380Y-111075547D01*
X134612000Y-111123166D01*
X134659619Y-111218404D01*
X134659619Y-111408880D01*
X134612000Y-111504119D01*
X134564380Y-111551738D01*
X134469142Y-111599357D01*
X134421523Y-111599357D01*
X134326285Y-111551738D01*
X134278666Y-111504119D01*
X134231047Y-111408880D01*
X134231047Y-111218404D01*
X134183428Y-111123166D01*
X134135809Y-111075547D01*
X134040571Y-111027928D01*
X133850095Y-111027928D01*
X133754857Y-111075547D01*
X133707238Y-111123166D01*
X133659619Y-111218404D01*
X133659619Y-111408880D01*
X133707238Y-111504119D01*
X133754857Y-111551738D01*
X133850095Y-111599357D01*
X134040571Y-111599357D01*
X134135809Y-111551738D01*
X134183428Y-111504119D01*
X134231047Y-111408880D01*
X134231047Y-112932690D02*
X134278666Y-112837452D01*
X134326285Y-112789833D01*
X134421523Y-112742214D01*
X134469142Y-112742214D01*
X134564380Y-112789833D01*
X134612000Y-112837452D01*
X134659619Y-112932690D01*
X134659619Y-113123166D01*
X134612000Y-113218404D01*
X134564380Y-113266023D01*
X134469142Y-113313642D01*
X134421523Y-113313642D01*
X134326285Y-113266023D01*
X134278666Y-113218404D01*
X134231047Y-113123166D01*
X134231047Y-112932690D01*
X134183428Y-112837452D01*
X134135809Y-112789833D01*
X134040571Y-112742214D01*
X133850095Y-112742214D01*
X133754857Y-112789833D01*
X133707238Y-112837452D01*
X133659619Y-112932690D01*
X133659619Y-113123166D01*
X133707238Y-113218404D01*
X133754857Y-113266023D01*
X133850095Y-113313642D01*
X134040571Y-113313642D01*
X134135809Y-113266023D01*
X134183428Y-113218404D01*
X134231047Y-113123166D01*
X134659619Y-113646976D02*
X134659619Y-114313642D01*
X133659619Y-113885071D01*
X124952000Y-77313404D02*
X124999619Y-77218166D01*
X124999619Y-77075309D01*
X124952000Y-76932452D01*
X124856761Y-76837214D01*
X124761523Y-76789595D01*
X124571047Y-76741976D01*
X124428190Y-76741976D01*
X124237714Y-76789595D01*
X124142476Y-76837214D01*
X124047238Y-76932452D01*
X123999619Y-77075309D01*
X123999619Y-77170547D01*
X124047238Y-77313404D01*
X124094857Y-77361023D01*
X124428190Y-77361023D01*
X124428190Y-77170547D01*
X123999619Y-77789595D02*
X124999619Y-77789595D01*
X123999619Y-78361023D01*
X124999619Y-78361023D01*
X123999619Y-78837214D02*
X124999619Y-78837214D01*
X124999619Y-79075309D01*
X124952000Y-79218166D01*
X124856761Y-79313404D01*
X124761523Y-79361023D01*
X124571047Y-79408642D01*
X124428190Y-79408642D01*
X124237714Y-79361023D01*
X124142476Y-79313404D01*
X124047238Y-79218166D01*
X123999619Y-79075309D01*
X123999619Y-78837214D01*
X151160214Y-84526380D02*
X150588785Y-84526380D01*
X150874500Y-84526380D02*
X150874500Y-83526380D01*
X150779261Y-83669238D01*
X150684023Y-83764476D01*
X150588785Y-83812095D01*
X152017357Y-83859714D02*
X152017357Y-84526380D01*
X151779261Y-83478761D02*
X151541166Y-84193047D01*
X152160214Y-84193047D01*
X152445928Y-83526380D02*
X153064976Y-83526380D01*
X152731642Y-83907333D01*
X152874500Y-83907333D01*
X152969738Y-83954952D01*
X153017357Y-84002571D01*
X153064976Y-84097809D01*
X153064976Y-84335904D01*
X153017357Y-84431142D01*
X152969738Y-84478761D01*
X152874500Y-84526380D01*
X152588785Y-84526380D01*
X152493547Y-84478761D01*
X152445928Y-84431142D01*
X154779261Y-84526380D02*
X154207833Y-84526380D01*
X154493547Y-84526380D02*
X154493547Y-83526380D01*
X154398309Y-83669238D01*
X154303071Y-83764476D01*
X154207833Y-83812095D01*
X155636404Y-83859714D02*
X155636404Y-84526380D01*
X155398309Y-83478761D02*
X155160214Y-84193047D01*
X155779261Y-84193047D01*
X156112595Y-83621619D02*
X156160214Y-83574000D01*
X156255452Y-83526380D01*
X156493547Y-83526380D01*
X156588785Y-83574000D01*
X156636404Y-83621619D01*
X156684023Y-83716857D01*
X156684023Y-83812095D01*
X156636404Y-83954952D01*
X156064976Y-84526380D01*
X156684023Y-84526380D01*
%TO.C,J101*%
X88680619Y-71617285D02*
X87966333Y-71617285D01*
X87823476Y-71569666D01*
X87728238Y-71474428D01*
X87680619Y-71331571D01*
X87680619Y-71236333D01*
X87680619Y-72617285D02*
X87680619Y-72045857D01*
X87680619Y-72331571D02*
X88680619Y-72331571D01*
X88537761Y-72236333D01*
X88442523Y-72141095D01*
X88394904Y-72045857D01*
X88680619Y-73236333D02*
X88680619Y-73331571D01*
X88633000Y-73426809D01*
X88585380Y-73474428D01*
X88490142Y-73522047D01*
X88299666Y-73569666D01*
X88061571Y-73569666D01*
X87871095Y-73522047D01*
X87775857Y-73474428D01*
X87728238Y-73426809D01*
X87680619Y-73331571D01*
X87680619Y-73236333D01*
X87728238Y-73141095D01*
X87775857Y-73093476D01*
X87871095Y-73045857D01*
X88061571Y-72998238D01*
X88299666Y-72998238D01*
X88490142Y-73045857D01*
X88585380Y-73093476D01*
X88633000Y-73141095D01*
X88680619Y-73236333D01*
X87680619Y-74522047D02*
X87680619Y-73950619D01*
X87680619Y-74236333D02*
X88680619Y-74236333D01*
X88537761Y-74141095D01*
X88442523Y-74045857D01*
X88394904Y-73950619D01*
X105535500Y-81335619D02*
X105535500Y-82335619D01*
X104964071Y-81335619D02*
X105392642Y-81907047D01*
X104964071Y-82335619D02*
X105535500Y-81764190D01*
X104202166Y-81859428D02*
X104059309Y-81811809D01*
X104011690Y-81764190D01*
X103964071Y-81668952D01*
X103964071Y-81526095D01*
X104011690Y-81430857D01*
X104059309Y-81383238D01*
X104154547Y-81335619D01*
X104535500Y-81335619D01*
X104535500Y-82335619D01*
X104202166Y-82335619D01*
X104106928Y-82288000D01*
X104059309Y-82240380D01*
X104011690Y-82145142D01*
X104011690Y-82049904D01*
X104059309Y-81954666D01*
X104106928Y-81907047D01*
X104202166Y-81859428D01*
X104535500Y-81859428D01*
X102964071Y-81430857D02*
X103011690Y-81383238D01*
X103154547Y-81335619D01*
X103249785Y-81335619D01*
X103392642Y-81383238D01*
X103487880Y-81478476D01*
X103535500Y-81573714D01*
X103583119Y-81764190D01*
X103583119Y-81907047D01*
X103535500Y-82097523D01*
X103487880Y-82192761D01*
X103392642Y-82288000D01*
X103249785Y-82335619D01*
X103154547Y-82335619D01*
X103011690Y-82288000D01*
X102964071Y-82240380D01*
X102106928Y-82002285D02*
X102106928Y-81335619D01*
X102345023Y-82383238D02*
X102583119Y-81668952D01*
X101964071Y-81668952D01*
X100868833Y-81383238D02*
X100725976Y-81335619D01*
X100487880Y-81335619D01*
X100392642Y-81383238D01*
X100345023Y-81430857D01*
X100297404Y-81526095D01*
X100297404Y-81621333D01*
X100345023Y-81716571D01*
X100392642Y-81764190D01*
X100487880Y-81811809D01*
X100678357Y-81859428D01*
X100773595Y-81907047D01*
X100821214Y-81954666D01*
X100868833Y-82049904D01*
X100868833Y-82145142D01*
X100821214Y-82240380D01*
X100773595Y-82288000D01*
X100678357Y-82335619D01*
X100440261Y-82335619D01*
X100297404Y-82288000D01*
X99868833Y-81859428D02*
X99535500Y-81859428D01*
X99392642Y-81335619D02*
X99868833Y-81335619D01*
X99868833Y-82335619D01*
X99392642Y-82335619D01*
X98440261Y-82288000D02*
X98535500Y-82335619D01*
X98678357Y-82335619D01*
X98821214Y-82288000D01*
X98916452Y-82192761D01*
X98964071Y-82097523D01*
X99011690Y-81907047D01*
X99011690Y-81764190D01*
X98964071Y-81573714D01*
X98916452Y-81478476D01*
X98821214Y-81383238D01*
X98678357Y-81335619D01*
X98583119Y-81335619D01*
X98440261Y-81383238D01*
X98392642Y-81430857D01*
X98392642Y-81764190D01*
X98583119Y-81764190D01*
X98202166Y-81240380D02*
X97440261Y-81240380D01*
X97202166Y-81859428D02*
X96868833Y-81859428D01*
X96725976Y-81335619D02*
X97202166Y-81335619D01*
X97202166Y-82335619D01*
X96725976Y-82335619D01*
X103106928Y-115355619D02*
X102773595Y-114355619D01*
X102440261Y-115355619D01*
X101535500Y-114450857D02*
X101583119Y-114403238D01*
X101725976Y-114355619D01*
X101821214Y-114355619D01*
X101964071Y-114403238D01*
X102059309Y-114498476D01*
X102106928Y-114593714D01*
X102154547Y-114784190D01*
X102154547Y-114927047D01*
X102106928Y-115117523D01*
X102059309Y-115212761D01*
X101964071Y-115308000D01*
X101821214Y-115355619D01*
X101725976Y-115355619D01*
X101583119Y-115308000D01*
X101535500Y-115260380D01*
X100535500Y-114450857D02*
X100583119Y-114403238D01*
X100725976Y-114355619D01*
X100821214Y-114355619D01*
X100964071Y-114403238D01*
X101059309Y-114498476D01*
X101106928Y-114593714D01*
X101154547Y-114784190D01*
X101154547Y-114927047D01*
X101106928Y-115117523D01*
X101059309Y-115212761D01*
X100964071Y-115308000D01*
X100821214Y-115355619D01*
X100725976Y-115355619D01*
X100583119Y-115308000D01*
X100535500Y-115260380D01*
X98821214Y-115308000D02*
X98916452Y-115355619D01*
X99059309Y-115355619D01*
X99202166Y-115308000D01*
X99297404Y-115212761D01*
X99345023Y-115117523D01*
X99392642Y-114927047D01*
X99392642Y-114784190D01*
X99345023Y-114593714D01*
X99297404Y-114498476D01*
X99202166Y-114403238D01*
X99059309Y-114355619D01*
X98964071Y-114355619D01*
X98821214Y-114403238D01*
X98773595Y-114450857D01*
X98773595Y-114784190D01*
X98964071Y-114784190D01*
X98345023Y-114355619D02*
X98345023Y-115355619D01*
X97773595Y-114355619D01*
X97773595Y-115355619D01*
X97297404Y-114355619D02*
X97297404Y-115355619D01*
X97059309Y-115355619D01*
X96916452Y-115308000D01*
X96821214Y-115212761D01*
X96773595Y-115117523D01*
X96725976Y-114927047D01*
X96725976Y-114784190D01*
X96773595Y-114593714D01*
X96821214Y-114498476D01*
X96916452Y-114403238D01*
X97059309Y-114355619D01*
X97297404Y-114355619D01*
X105630738Y-76255619D02*
X105630738Y-77255619D01*
X105059309Y-76255619D02*
X105487880Y-76827047D01*
X105059309Y-77255619D02*
X105630738Y-76684190D01*
X104297404Y-76779428D02*
X104154547Y-76731809D01*
X104106928Y-76684190D01*
X104059309Y-76588952D01*
X104059309Y-76446095D01*
X104106928Y-76350857D01*
X104154547Y-76303238D01*
X104249785Y-76255619D01*
X104630738Y-76255619D01*
X104630738Y-77255619D01*
X104297404Y-77255619D01*
X104202166Y-77208000D01*
X104154547Y-77160380D01*
X104106928Y-77065142D01*
X104106928Y-76969904D01*
X104154547Y-76874666D01*
X104202166Y-76827047D01*
X104297404Y-76779428D01*
X104630738Y-76779428D01*
X103059309Y-76350857D02*
X103106928Y-76303238D01*
X103249785Y-76255619D01*
X103345023Y-76255619D01*
X103487880Y-76303238D01*
X103583119Y-76398476D01*
X103630738Y-76493714D01*
X103678357Y-76684190D01*
X103678357Y-76827047D01*
X103630738Y-77017523D01*
X103583119Y-77112761D01*
X103487880Y-77208000D01*
X103345023Y-77255619D01*
X103249785Y-77255619D01*
X103106928Y-77208000D01*
X103059309Y-77160380D01*
X102678357Y-77160380D02*
X102630738Y-77208000D01*
X102535500Y-77255619D01*
X102297404Y-77255619D01*
X102202166Y-77208000D01*
X102154547Y-77160380D01*
X102106928Y-77065142D01*
X102106928Y-76969904D01*
X102154547Y-76827047D01*
X102725976Y-76255619D01*
X102106928Y-76255619D01*
X100964071Y-76303238D02*
X100821214Y-76255619D01*
X100583119Y-76255619D01*
X100487880Y-76303238D01*
X100440261Y-76350857D01*
X100392642Y-76446095D01*
X100392642Y-76541333D01*
X100440261Y-76636571D01*
X100487880Y-76684190D01*
X100583119Y-76731809D01*
X100773595Y-76779428D01*
X100868833Y-76827047D01*
X100916452Y-76874666D01*
X100964071Y-76969904D01*
X100964071Y-77065142D01*
X100916452Y-77160380D01*
X100868833Y-77208000D01*
X100773595Y-77255619D01*
X100535500Y-77255619D01*
X100392642Y-77208000D01*
X99964071Y-76779428D02*
X99630738Y-76779428D01*
X99487880Y-76255619D02*
X99964071Y-76255619D01*
X99964071Y-77255619D01*
X99487880Y-77255619D01*
X98535500Y-77208000D02*
X98630738Y-77255619D01*
X98773595Y-77255619D01*
X98916452Y-77208000D01*
X99011690Y-77112761D01*
X99059309Y-77017523D01*
X99106928Y-76827047D01*
X99106928Y-76684190D01*
X99059309Y-76493714D01*
X99011690Y-76398476D01*
X98916452Y-76303238D01*
X98773595Y-76255619D01*
X98678357Y-76255619D01*
X98535500Y-76303238D01*
X98487880Y-76350857D01*
X98487880Y-76684190D01*
X98678357Y-76684190D01*
X98297404Y-76160380D02*
X97535500Y-76160380D01*
X96725976Y-76350857D02*
X96773595Y-76303238D01*
X96916452Y-76255619D01*
X97011690Y-76255619D01*
X97154547Y-76303238D01*
X97249785Y-76398476D01*
X97297404Y-76493714D01*
X97345023Y-76684190D01*
X97345023Y-76827047D01*
X97297404Y-77017523D01*
X97249785Y-77112761D01*
X97154547Y-77208000D01*
X97011690Y-77255619D01*
X96916452Y-77255619D01*
X96773595Y-77208000D01*
X96725976Y-77160380D01*
X105964071Y-99115619D02*
X105964071Y-100115619D01*
X105392642Y-99115619D02*
X105821214Y-99687047D01*
X105392642Y-100115619D02*
X105964071Y-99544190D01*
X104964071Y-99639428D02*
X104630738Y-99639428D01*
X104487880Y-99115619D02*
X104964071Y-99115619D01*
X104964071Y-100115619D01*
X104487880Y-100115619D01*
X103868833Y-99591809D02*
X103868833Y-99115619D01*
X104202166Y-100115619D02*
X103868833Y-99591809D01*
X103535500Y-100115619D01*
X103440261Y-99020380D02*
X102678357Y-99020380D01*
X101868833Y-99115619D02*
X102202166Y-99591809D01*
X102440261Y-99115619D02*
X102440261Y-100115619D01*
X102059309Y-100115619D01*
X101964071Y-100068000D01*
X101916452Y-100020380D01*
X101868833Y-99925142D01*
X101868833Y-99782285D01*
X101916452Y-99687047D01*
X101964071Y-99639428D01*
X102059309Y-99591809D01*
X102440261Y-99591809D01*
X101487880Y-99163238D02*
X101345023Y-99115619D01*
X101106928Y-99115619D01*
X101011690Y-99163238D01*
X100964071Y-99210857D01*
X100916452Y-99306095D01*
X100916452Y-99401333D01*
X100964071Y-99496571D01*
X101011690Y-99544190D01*
X101106928Y-99591809D01*
X101297404Y-99639428D01*
X101392642Y-99687047D01*
X101440261Y-99734666D01*
X101487880Y-99829904D01*
X101487880Y-99925142D01*
X101440261Y-100020380D01*
X101392642Y-100068000D01*
X101297404Y-100115619D01*
X101059309Y-100115619D01*
X100916452Y-100068000D01*
X99725976Y-99115619D02*
X99725976Y-100115619D01*
X99487880Y-100115619D01*
X99345023Y-100068000D01*
X99249785Y-99972761D01*
X99202166Y-99877523D01*
X99154547Y-99687047D01*
X99154547Y-99544190D01*
X99202166Y-99353714D01*
X99249785Y-99258476D01*
X99345023Y-99163238D01*
X99487880Y-99115619D01*
X99725976Y-99115619D01*
X98725976Y-99115619D02*
X98725976Y-100115619D01*
X97725976Y-100068000D02*
X97821214Y-100115619D01*
X97964071Y-100115619D01*
X98106928Y-100068000D01*
X98202166Y-99972761D01*
X98249785Y-99877523D01*
X98297404Y-99687047D01*
X98297404Y-99544190D01*
X98249785Y-99353714D01*
X98202166Y-99258476D01*
X98106928Y-99163238D01*
X97964071Y-99115619D01*
X97868833Y-99115619D01*
X97725976Y-99163238D01*
X97678357Y-99210857D01*
X97678357Y-99544190D01*
X97868833Y-99544190D01*
X96773595Y-100115619D02*
X97249785Y-100115619D01*
X97297404Y-99639428D01*
X97249785Y-99687047D01*
X97154547Y-99734666D01*
X96916452Y-99734666D01*
X96821214Y-99687047D01*
X96773595Y-99639428D01*
X96725976Y-99544190D01*
X96725976Y-99306095D01*
X96773595Y-99210857D01*
X96821214Y-99163238D01*
X96916452Y-99115619D01*
X97154547Y-99115619D01*
X97249785Y-99163238D01*
X97297404Y-99210857D01*
X103725976Y-104243238D02*
X103583119Y-104195619D01*
X103345023Y-104195619D01*
X103249785Y-104243238D01*
X103202166Y-104290857D01*
X103154547Y-104386095D01*
X103154547Y-104481333D01*
X103202166Y-104576571D01*
X103249785Y-104624190D01*
X103345023Y-104671809D01*
X103535500Y-104719428D01*
X103630738Y-104767047D01*
X103678357Y-104814666D01*
X103725976Y-104909904D01*
X103725976Y-105005142D01*
X103678357Y-105100380D01*
X103630738Y-105148000D01*
X103535500Y-105195619D01*
X103297404Y-105195619D01*
X103154547Y-105148000D01*
X102773595Y-104243238D02*
X102630738Y-104195619D01*
X102392642Y-104195619D01*
X102297404Y-104243238D01*
X102249785Y-104290857D01*
X102202166Y-104386095D01*
X102202166Y-104481333D01*
X102249785Y-104576571D01*
X102297404Y-104624190D01*
X102392642Y-104671809D01*
X102583119Y-104719428D01*
X102678357Y-104767047D01*
X102725976Y-104814666D01*
X102773595Y-104909904D01*
X102773595Y-105005142D01*
X102725976Y-105100380D01*
X102678357Y-105148000D01*
X102583119Y-105195619D01*
X102345023Y-105195619D01*
X102202166Y-105148000D01*
X101916452Y-105195619D02*
X101345023Y-105195619D01*
X101630738Y-104195619D02*
X101630738Y-105195619D01*
X99487880Y-104862285D02*
X98725976Y-104576571D01*
X99487880Y-104290857D01*
X98106928Y-104767047D02*
X98202166Y-104814666D01*
X98249785Y-104862285D01*
X98297404Y-104957523D01*
X98297404Y-105005142D01*
X98249785Y-105100380D01*
X98202166Y-105148000D01*
X98106928Y-105195619D01*
X97916452Y-105195619D01*
X97821214Y-105148000D01*
X97773595Y-105100380D01*
X97725976Y-105005142D01*
X97725976Y-104957523D01*
X97773595Y-104862285D01*
X97821214Y-104814666D01*
X97916452Y-104767047D01*
X98106928Y-104767047D01*
X98202166Y-104719428D01*
X98249785Y-104671809D01*
X98297404Y-104576571D01*
X98297404Y-104386095D01*
X98249785Y-104290857D01*
X98202166Y-104243238D01*
X98106928Y-104195619D01*
X97916452Y-104195619D01*
X97821214Y-104243238D01*
X97773595Y-104290857D01*
X97725976Y-104386095D01*
X97725976Y-104576571D01*
X97773595Y-104671809D01*
X97821214Y-104719428D01*
X97916452Y-104767047D01*
X97297404Y-104195619D02*
X97297404Y-105195619D01*
X96725976Y-104195619D02*
X97154547Y-104767047D01*
X96725976Y-105195619D02*
X97297404Y-104624190D01*
X104440261Y-94035619D02*
X104440261Y-95035619D01*
X103868833Y-94035619D02*
X104297404Y-94607047D01*
X103868833Y-95035619D02*
X104440261Y-94464190D01*
X103106928Y-94559428D02*
X102964071Y-94511809D01*
X102916452Y-94464190D01*
X102868833Y-94368952D01*
X102868833Y-94226095D01*
X102916452Y-94130857D01*
X102964071Y-94083238D01*
X103059309Y-94035619D01*
X103440261Y-94035619D01*
X103440261Y-95035619D01*
X103106928Y-95035619D01*
X103011690Y-94988000D01*
X102964071Y-94940380D01*
X102916452Y-94845142D01*
X102916452Y-94749904D01*
X102964071Y-94654666D01*
X103011690Y-94607047D01*
X103106928Y-94559428D01*
X103440261Y-94559428D01*
X101868833Y-94035619D02*
X102202166Y-94511809D01*
X102440261Y-94035619D02*
X102440261Y-95035619D01*
X102059309Y-95035619D01*
X101964071Y-94988000D01*
X101916452Y-94940380D01*
X101868833Y-94845142D01*
X101868833Y-94702285D01*
X101916452Y-94607047D01*
X101964071Y-94559428D01*
X102059309Y-94511809D01*
X102440261Y-94511809D01*
X101487880Y-94940380D02*
X101440261Y-94988000D01*
X101345023Y-95035619D01*
X101106928Y-95035619D01*
X101011690Y-94988000D01*
X100964071Y-94940380D01*
X100916452Y-94845142D01*
X100916452Y-94749904D01*
X100964071Y-94607047D01*
X101535500Y-94035619D01*
X100916452Y-94035619D01*
X99725976Y-94035619D02*
X99725976Y-95035619D01*
X99487880Y-95035619D01*
X99345023Y-94988000D01*
X99249785Y-94892761D01*
X99202166Y-94797523D01*
X99154547Y-94607047D01*
X99154547Y-94464190D01*
X99202166Y-94273714D01*
X99249785Y-94178476D01*
X99345023Y-94083238D01*
X99487880Y-94035619D01*
X99725976Y-94035619D01*
X98725976Y-94035619D02*
X98725976Y-95035619D01*
X97725976Y-94988000D02*
X97821214Y-95035619D01*
X97964071Y-95035619D01*
X98106928Y-94988000D01*
X98202166Y-94892761D01*
X98249785Y-94797523D01*
X98297404Y-94607047D01*
X98297404Y-94464190D01*
X98249785Y-94273714D01*
X98202166Y-94178476D01*
X98106928Y-94083238D01*
X97964071Y-94035619D01*
X97868833Y-94035619D01*
X97725976Y-94083238D01*
X97678357Y-94130857D01*
X97678357Y-94464190D01*
X97868833Y-94464190D01*
X97345023Y-95035619D02*
X96678357Y-95035619D01*
X97106928Y-94035619D01*
X104440261Y-111863238D02*
X104297404Y-111815619D01*
X104059309Y-111815619D01*
X103964071Y-111863238D01*
X103916452Y-111910857D01*
X103868833Y-112006095D01*
X103868833Y-112101333D01*
X103916452Y-112196571D01*
X103964071Y-112244190D01*
X104059309Y-112291809D01*
X104249785Y-112339428D01*
X104345023Y-112387047D01*
X104392642Y-112434666D01*
X104440261Y-112529904D01*
X104440261Y-112625142D01*
X104392642Y-112720380D01*
X104345023Y-112768000D01*
X104249785Y-112815619D01*
X104011690Y-112815619D01*
X103868833Y-112768000D01*
X103440261Y-111815619D02*
X103440261Y-112815619D01*
X103059309Y-112815619D01*
X102964071Y-112768000D01*
X102916452Y-112720380D01*
X102868833Y-112625142D01*
X102868833Y-112482285D01*
X102916452Y-112387047D01*
X102964071Y-112339428D01*
X103059309Y-112291809D01*
X103440261Y-112291809D01*
X102678357Y-111720380D02*
X101916452Y-111720380D01*
X101154547Y-111815619D02*
X101725976Y-111815619D01*
X101440261Y-111815619D02*
X101440261Y-112815619D01*
X101535500Y-112672761D01*
X101630738Y-112577523D01*
X101725976Y-112529904D01*
X100011690Y-111863238D02*
X99868833Y-111815619D01*
X99630738Y-111815619D01*
X99535500Y-111863238D01*
X99487880Y-111910857D01*
X99440261Y-112006095D01*
X99440261Y-112101333D01*
X99487880Y-112196571D01*
X99535500Y-112244190D01*
X99630738Y-112291809D01*
X99821214Y-112339428D01*
X99916452Y-112387047D01*
X99964071Y-112434666D01*
X100011690Y-112529904D01*
X100011690Y-112625142D01*
X99964071Y-112720380D01*
X99916452Y-112768000D01*
X99821214Y-112815619D01*
X99583119Y-112815619D01*
X99440261Y-112768000D01*
X99011690Y-111815619D02*
X99011690Y-112815619D01*
X98630738Y-112815619D01*
X98535500Y-112768000D01*
X98487880Y-112720380D01*
X98440261Y-112625142D01*
X98440261Y-112482285D01*
X98487880Y-112387047D01*
X98535500Y-112339428D01*
X98630738Y-112291809D01*
X99011690Y-112291809D01*
X98249785Y-111720380D02*
X97487880Y-111720380D01*
X96773595Y-112815619D02*
X97249785Y-112815619D01*
X97297404Y-112339428D01*
X97249785Y-112387047D01*
X97154547Y-112434666D01*
X96916452Y-112434666D01*
X96821214Y-112387047D01*
X96773595Y-112339428D01*
X96725976Y-112244190D01*
X96725976Y-112006095D01*
X96773595Y-111910857D01*
X96821214Y-111863238D01*
X96916452Y-111815619D01*
X97154547Y-111815619D01*
X97249785Y-111863238D01*
X97297404Y-111910857D01*
X105725976Y-101655619D02*
X105725976Y-102655619D01*
X105154547Y-101655619D02*
X105583119Y-102227047D01*
X105154547Y-102655619D02*
X105725976Y-102084190D01*
X104725976Y-102179428D02*
X104392642Y-102179428D01*
X104249785Y-101655619D02*
X104725976Y-101655619D01*
X104725976Y-102655619D01*
X104249785Y-102655619D01*
X103630738Y-102131809D02*
X103630738Y-101655619D01*
X103964071Y-102655619D02*
X103630738Y-102131809D01*
X103297404Y-102655619D01*
X103202166Y-101560380D02*
X102440261Y-101560380D01*
X102249785Y-101703238D02*
X102106928Y-101655619D01*
X101868833Y-101655619D01*
X101773595Y-101703238D01*
X101725976Y-101750857D01*
X101678357Y-101846095D01*
X101678357Y-101941333D01*
X101725976Y-102036571D01*
X101773595Y-102084190D01*
X101868833Y-102131809D01*
X102059309Y-102179428D01*
X102154547Y-102227047D01*
X102202166Y-102274666D01*
X102249785Y-102369904D01*
X102249785Y-102465142D01*
X102202166Y-102560380D01*
X102154547Y-102608000D01*
X102059309Y-102655619D01*
X101821214Y-102655619D01*
X101678357Y-102608000D01*
X101392642Y-102655619D02*
X100821214Y-102655619D01*
X101106928Y-101655619D02*
X101106928Y-102655619D01*
X99725976Y-101655619D02*
X99725976Y-102655619D01*
X99487880Y-102655619D01*
X99345023Y-102608000D01*
X99249785Y-102512761D01*
X99202166Y-102417523D01*
X99154547Y-102227047D01*
X99154547Y-102084190D01*
X99202166Y-101893714D01*
X99249785Y-101798476D01*
X99345023Y-101703238D01*
X99487880Y-101655619D01*
X99725976Y-101655619D01*
X98725976Y-101655619D02*
X98725976Y-102655619D01*
X97725976Y-102608000D02*
X97821214Y-102655619D01*
X97964071Y-102655619D01*
X98106928Y-102608000D01*
X98202166Y-102512761D01*
X98249785Y-102417523D01*
X98297404Y-102227047D01*
X98297404Y-102084190D01*
X98249785Y-101893714D01*
X98202166Y-101798476D01*
X98106928Y-101703238D01*
X97964071Y-101655619D01*
X97868833Y-101655619D01*
X97725976Y-101703238D01*
X97678357Y-101750857D01*
X97678357Y-102084190D01*
X97868833Y-102084190D01*
X96821214Y-102322285D02*
X96821214Y-101655619D01*
X97059309Y-102703238D02*
X97297404Y-101988952D01*
X96678357Y-101988952D01*
X103106928Y-120435619D02*
X102773595Y-119435619D01*
X102440261Y-120435619D01*
X101535500Y-119530857D02*
X101583119Y-119483238D01*
X101725976Y-119435619D01*
X101821214Y-119435619D01*
X101964071Y-119483238D01*
X102059309Y-119578476D01*
X102106928Y-119673714D01*
X102154547Y-119864190D01*
X102154547Y-120007047D01*
X102106928Y-120197523D01*
X102059309Y-120292761D01*
X101964071Y-120388000D01*
X101821214Y-120435619D01*
X101725976Y-120435619D01*
X101583119Y-120388000D01*
X101535500Y-120340380D01*
X100535500Y-119530857D02*
X100583119Y-119483238D01*
X100725976Y-119435619D01*
X100821214Y-119435619D01*
X100964071Y-119483238D01*
X101059309Y-119578476D01*
X101106928Y-119673714D01*
X101154547Y-119864190D01*
X101154547Y-120007047D01*
X101106928Y-120197523D01*
X101059309Y-120292761D01*
X100964071Y-120388000D01*
X100821214Y-120435619D01*
X100725976Y-120435619D01*
X100583119Y-120388000D01*
X100535500Y-120340380D01*
X98821214Y-120388000D02*
X98916452Y-120435619D01*
X99059309Y-120435619D01*
X99202166Y-120388000D01*
X99297404Y-120292761D01*
X99345023Y-120197523D01*
X99392642Y-120007047D01*
X99392642Y-119864190D01*
X99345023Y-119673714D01*
X99297404Y-119578476D01*
X99202166Y-119483238D01*
X99059309Y-119435619D01*
X98964071Y-119435619D01*
X98821214Y-119483238D01*
X98773595Y-119530857D01*
X98773595Y-119864190D01*
X98964071Y-119864190D01*
X98345023Y-119435619D02*
X98345023Y-120435619D01*
X97773595Y-119435619D01*
X97773595Y-120435619D01*
X97297404Y-119435619D02*
X97297404Y-120435619D01*
X97059309Y-120435619D01*
X96916452Y-120388000D01*
X96821214Y-120292761D01*
X96773595Y-120197523D01*
X96725976Y-120007047D01*
X96725976Y-119864190D01*
X96773595Y-119673714D01*
X96821214Y-119578476D01*
X96916452Y-119483238D01*
X97059309Y-119435619D01*
X97297404Y-119435619D01*
X105583119Y-97099428D02*
X105249785Y-97099428D01*
X105106928Y-96575619D02*
X105583119Y-96575619D01*
X105583119Y-97575619D01*
X105106928Y-97575619D01*
X104678357Y-96575619D02*
X104678357Y-97575619D01*
X104106928Y-96575619D01*
X104106928Y-97575619D01*
X103868833Y-96480380D02*
X103106928Y-96480380D01*
X103011690Y-97575619D02*
X102440261Y-97575619D01*
X102725976Y-96575619D02*
X102725976Y-97575619D01*
X102249785Y-97575619D02*
X101678357Y-97575619D01*
X101964071Y-96575619D02*
X101964071Y-97575619D01*
X101154547Y-97051809D02*
X101154547Y-96575619D01*
X101487880Y-97575619D02*
X101154547Y-97051809D01*
X100821214Y-97575619D01*
X99725976Y-96575619D02*
X99725976Y-97575619D01*
X99487880Y-97575619D01*
X99345023Y-97528000D01*
X99249785Y-97432761D01*
X99202166Y-97337523D01*
X99154547Y-97147047D01*
X99154547Y-97004190D01*
X99202166Y-96813714D01*
X99249785Y-96718476D01*
X99345023Y-96623238D01*
X99487880Y-96575619D01*
X99725976Y-96575619D01*
X98725976Y-96575619D02*
X98725976Y-97575619D01*
X97725976Y-97528000D02*
X97821214Y-97575619D01*
X97964071Y-97575619D01*
X98106928Y-97528000D01*
X98202166Y-97432761D01*
X98249785Y-97337523D01*
X98297404Y-97147047D01*
X98297404Y-97004190D01*
X98249785Y-96813714D01*
X98202166Y-96718476D01*
X98106928Y-96623238D01*
X97964071Y-96575619D01*
X97868833Y-96575619D01*
X97725976Y-96623238D01*
X97678357Y-96670857D01*
X97678357Y-97004190D01*
X97868833Y-97004190D01*
X96821214Y-97575619D02*
X97011690Y-97575619D01*
X97106928Y-97528000D01*
X97154547Y-97480380D01*
X97249785Y-97337523D01*
X97297404Y-97147047D01*
X97297404Y-96766095D01*
X97249785Y-96670857D01*
X97202166Y-96623238D01*
X97106928Y-96575619D01*
X96916452Y-96575619D01*
X96821214Y-96623238D01*
X96773595Y-96670857D01*
X96725976Y-96766095D01*
X96725976Y-97004190D01*
X96773595Y-97099428D01*
X96821214Y-97147047D01*
X96916452Y-97194666D01*
X97106928Y-97194666D01*
X97202166Y-97147047D01*
X97249785Y-97099428D01*
X97297404Y-97004190D01*
X105487880Y-71175619D02*
X105487880Y-72175619D01*
X104916452Y-71175619D02*
X105345023Y-71747047D01*
X104916452Y-72175619D02*
X105487880Y-71604190D01*
X104154547Y-71699428D02*
X104011690Y-71651809D01*
X103964071Y-71604190D01*
X103916452Y-71508952D01*
X103916452Y-71366095D01*
X103964071Y-71270857D01*
X104011690Y-71223238D01*
X104106928Y-71175619D01*
X104487880Y-71175619D01*
X104487880Y-72175619D01*
X104154547Y-72175619D01*
X104059309Y-72128000D01*
X104011690Y-72080380D01*
X103964071Y-71985142D01*
X103964071Y-71889904D01*
X104011690Y-71794666D01*
X104059309Y-71747047D01*
X104154547Y-71699428D01*
X104487880Y-71699428D01*
X102916452Y-71270857D02*
X102964071Y-71223238D01*
X103106928Y-71175619D01*
X103202166Y-71175619D01*
X103345023Y-71223238D01*
X103440261Y-71318476D01*
X103487880Y-71413714D01*
X103535500Y-71604190D01*
X103535500Y-71747047D01*
X103487880Y-71937523D01*
X103440261Y-72032761D01*
X103345023Y-72128000D01*
X103202166Y-72175619D01*
X103106928Y-72175619D01*
X102964071Y-72128000D01*
X102916452Y-72080380D01*
X102297404Y-72175619D02*
X102202166Y-72175619D01*
X102106928Y-72128000D01*
X102059309Y-72080380D01*
X102011690Y-71985142D01*
X101964071Y-71794666D01*
X101964071Y-71556571D01*
X102011690Y-71366095D01*
X102059309Y-71270857D01*
X102106928Y-71223238D01*
X102202166Y-71175619D01*
X102297404Y-71175619D01*
X102392642Y-71223238D01*
X102440261Y-71270857D01*
X102487880Y-71366095D01*
X102535500Y-71556571D01*
X102535500Y-71794666D01*
X102487880Y-71985142D01*
X102440261Y-72080380D01*
X102392642Y-72128000D01*
X102297404Y-72175619D01*
X100821214Y-71223238D02*
X100678357Y-71175619D01*
X100440261Y-71175619D01*
X100345023Y-71223238D01*
X100297404Y-71270857D01*
X100249785Y-71366095D01*
X100249785Y-71461333D01*
X100297404Y-71556571D01*
X100345023Y-71604190D01*
X100440261Y-71651809D01*
X100630738Y-71699428D01*
X100725976Y-71747047D01*
X100773595Y-71794666D01*
X100821214Y-71889904D01*
X100821214Y-71985142D01*
X100773595Y-72080380D01*
X100725976Y-72128000D01*
X100630738Y-72175619D01*
X100392642Y-72175619D01*
X100249785Y-72128000D01*
X99821214Y-71699428D02*
X99487880Y-71699428D01*
X99345023Y-71175619D02*
X99821214Y-71175619D01*
X99821214Y-72175619D01*
X99345023Y-72175619D01*
X98392642Y-72128000D02*
X98487880Y-72175619D01*
X98630738Y-72175619D01*
X98773595Y-72128000D01*
X98868833Y-72032761D01*
X98916452Y-71937523D01*
X98964071Y-71747047D01*
X98964071Y-71604190D01*
X98916452Y-71413714D01*
X98868833Y-71318476D01*
X98773595Y-71223238D01*
X98630738Y-71175619D01*
X98535500Y-71175619D01*
X98392642Y-71223238D01*
X98345023Y-71270857D01*
X98345023Y-71604190D01*
X98535500Y-71604190D01*
X98154547Y-71080380D02*
X97392642Y-71080380D01*
X97202166Y-71461333D02*
X96725976Y-71461333D01*
X97297404Y-71175619D02*
X96964071Y-72175619D01*
X96630738Y-71175619D01*
X104440261Y-106783238D02*
X104297404Y-106735619D01*
X104059309Y-106735619D01*
X103964071Y-106783238D01*
X103916452Y-106830857D01*
X103868833Y-106926095D01*
X103868833Y-107021333D01*
X103916452Y-107116571D01*
X103964071Y-107164190D01*
X104059309Y-107211809D01*
X104249785Y-107259428D01*
X104345023Y-107307047D01*
X104392642Y-107354666D01*
X104440261Y-107449904D01*
X104440261Y-107545142D01*
X104392642Y-107640380D01*
X104345023Y-107688000D01*
X104249785Y-107735619D01*
X104011690Y-107735619D01*
X103868833Y-107688000D01*
X103440261Y-106735619D02*
X103440261Y-107735619D01*
X103059309Y-107735619D01*
X102964071Y-107688000D01*
X102916452Y-107640380D01*
X102868833Y-107545142D01*
X102868833Y-107402285D01*
X102916452Y-107307047D01*
X102964071Y-107259428D01*
X103059309Y-107211809D01*
X103440261Y-107211809D01*
X102678357Y-106640380D02*
X101916452Y-106640380D01*
X101773595Y-107735619D02*
X101154547Y-107735619D01*
X101487880Y-107354666D01*
X101345023Y-107354666D01*
X101249785Y-107307047D01*
X101202166Y-107259428D01*
X101154547Y-107164190D01*
X101154547Y-106926095D01*
X101202166Y-106830857D01*
X101249785Y-106783238D01*
X101345023Y-106735619D01*
X101630738Y-106735619D01*
X101725976Y-106783238D01*
X101773595Y-106830857D01*
X100011690Y-106783238D02*
X99868833Y-106735619D01*
X99630738Y-106735619D01*
X99535500Y-106783238D01*
X99487880Y-106830857D01*
X99440261Y-106926095D01*
X99440261Y-107021333D01*
X99487880Y-107116571D01*
X99535500Y-107164190D01*
X99630738Y-107211809D01*
X99821214Y-107259428D01*
X99916452Y-107307047D01*
X99964071Y-107354666D01*
X100011690Y-107449904D01*
X100011690Y-107545142D01*
X99964071Y-107640380D01*
X99916452Y-107688000D01*
X99821214Y-107735619D01*
X99583119Y-107735619D01*
X99440261Y-107688000D01*
X99011690Y-106735619D02*
X99011690Y-107735619D01*
X98630738Y-107735619D01*
X98535500Y-107688000D01*
X98487880Y-107640380D01*
X98440261Y-107545142D01*
X98440261Y-107402285D01*
X98487880Y-107307047D01*
X98535500Y-107259428D01*
X98630738Y-107211809D01*
X99011690Y-107211809D01*
X98249785Y-106640380D02*
X97487880Y-106640380D01*
X97345023Y-107735619D02*
X96678357Y-107735619D01*
X97106928Y-106735619D01*
X103106928Y-117895619D02*
X102773595Y-116895619D01*
X102440261Y-117895619D01*
X101535500Y-116990857D02*
X101583119Y-116943238D01*
X101725976Y-116895619D01*
X101821214Y-116895619D01*
X101964071Y-116943238D01*
X102059309Y-117038476D01*
X102106928Y-117133714D01*
X102154547Y-117324190D01*
X102154547Y-117467047D01*
X102106928Y-117657523D01*
X102059309Y-117752761D01*
X101964071Y-117848000D01*
X101821214Y-117895619D01*
X101725976Y-117895619D01*
X101583119Y-117848000D01*
X101535500Y-117800380D01*
X100535500Y-116990857D02*
X100583119Y-116943238D01*
X100725976Y-116895619D01*
X100821214Y-116895619D01*
X100964071Y-116943238D01*
X101059309Y-117038476D01*
X101106928Y-117133714D01*
X101154547Y-117324190D01*
X101154547Y-117467047D01*
X101106928Y-117657523D01*
X101059309Y-117752761D01*
X100964071Y-117848000D01*
X100821214Y-117895619D01*
X100725976Y-117895619D01*
X100583119Y-117848000D01*
X100535500Y-117800380D01*
X98821214Y-117848000D02*
X98916452Y-117895619D01*
X99059309Y-117895619D01*
X99202166Y-117848000D01*
X99297404Y-117752761D01*
X99345023Y-117657523D01*
X99392642Y-117467047D01*
X99392642Y-117324190D01*
X99345023Y-117133714D01*
X99297404Y-117038476D01*
X99202166Y-116943238D01*
X99059309Y-116895619D01*
X98964071Y-116895619D01*
X98821214Y-116943238D01*
X98773595Y-116990857D01*
X98773595Y-117324190D01*
X98964071Y-117324190D01*
X98345023Y-116895619D02*
X98345023Y-117895619D01*
X97773595Y-116895619D01*
X97773595Y-117895619D01*
X97297404Y-116895619D02*
X97297404Y-117895619D01*
X97059309Y-117895619D01*
X96916452Y-117848000D01*
X96821214Y-117752761D01*
X96773595Y-117657523D01*
X96725976Y-117467047D01*
X96725976Y-117324190D01*
X96773595Y-117133714D01*
X96821214Y-117038476D01*
X96916452Y-116943238D01*
X97059309Y-116895619D01*
X97297404Y-116895619D01*
X105487880Y-83875619D02*
X105487880Y-84875619D01*
X104916452Y-83875619D02*
X105345023Y-84447047D01*
X104916452Y-84875619D02*
X105487880Y-84304190D01*
X104154547Y-84399428D02*
X104011690Y-84351809D01*
X103964071Y-84304190D01*
X103916452Y-84208952D01*
X103916452Y-84066095D01*
X103964071Y-83970857D01*
X104011690Y-83923238D01*
X104106928Y-83875619D01*
X104487880Y-83875619D01*
X104487880Y-84875619D01*
X104154547Y-84875619D01*
X104059309Y-84828000D01*
X104011690Y-84780380D01*
X103964071Y-84685142D01*
X103964071Y-84589904D01*
X104011690Y-84494666D01*
X104059309Y-84447047D01*
X104154547Y-84399428D01*
X104487880Y-84399428D01*
X102916452Y-83970857D02*
X102964071Y-83923238D01*
X103106928Y-83875619D01*
X103202166Y-83875619D01*
X103345023Y-83923238D01*
X103440261Y-84018476D01*
X103487880Y-84113714D01*
X103535500Y-84304190D01*
X103535500Y-84447047D01*
X103487880Y-84637523D01*
X103440261Y-84732761D01*
X103345023Y-84828000D01*
X103202166Y-84875619D01*
X103106928Y-84875619D01*
X102964071Y-84828000D01*
X102916452Y-84780380D01*
X102011690Y-84875619D02*
X102487880Y-84875619D01*
X102535500Y-84399428D01*
X102487880Y-84447047D01*
X102392642Y-84494666D01*
X102154547Y-84494666D01*
X102059309Y-84447047D01*
X102011690Y-84399428D01*
X101964071Y-84304190D01*
X101964071Y-84066095D01*
X102011690Y-83970857D01*
X102059309Y-83923238D01*
X102154547Y-83875619D01*
X102392642Y-83875619D01*
X102487880Y-83923238D01*
X102535500Y-83970857D01*
X100821214Y-83923238D02*
X100678357Y-83875619D01*
X100440261Y-83875619D01*
X100345023Y-83923238D01*
X100297404Y-83970857D01*
X100249785Y-84066095D01*
X100249785Y-84161333D01*
X100297404Y-84256571D01*
X100345023Y-84304190D01*
X100440261Y-84351809D01*
X100630738Y-84399428D01*
X100725976Y-84447047D01*
X100773595Y-84494666D01*
X100821214Y-84589904D01*
X100821214Y-84685142D01*
X100773595Y-84780380D01*
X100725976Y-84828000D01*
X100630738Y-84875619D01*
X100392642Y-84875619D01*
X100249785Y-84828000D01*
X99821214Y-84399428D02*
X99487880Y-84399428D01*
X99345023Y-83875619D02*
X99821214Y-83875619D01*
X99821214Y-84875619D01*
X99345023Y-84875619D01*
X98392642Y-84828000D02*
X98487880Y-84875619D01*
X98630738Y-84875619D01*
X98773595Y-84828000D01*
X98868833Y-84732761D01*
X98916452Y-84637523D01*
X98964071Y-84447047D01*
X98964071Y-84304190D01*
X98916452Y-84113714D01*
X98868833Y-84018476D01*
X98773595Y-83923238D01*
X98630738Y-83875619D01*
X98535500Y-83875619D01*
X98392642Y-83923238D01*
X98345023Y-83970857D01*
X98345023Y-84304190D01*
X98535500Y-84304190D01*
X98154547Y-83780380D02*
X97392642Y-83780380D01*
X96821214Y-84399428D02*
X97154547Y-84399428D01*
X97154547Y-83875619D02*
X97154547Y-84875619D01*
X96678357Y-84875619D01*
X105630738Y-78795619D02*
X105630738Y-79795619D01*
X105059309Y-78795619D02*
X105487880Y-79367047D01*
X105059309Y-79795619D02*
X105630738Y-79224190D01*
X104297404Y-79319428D02*
X104154547Y-79271809D01*
X104106928Y-79224190D01*
X104059309Y-79128952D01*
X104059309Y-78986095D01*
X104106928Y-78890857D01*
X104154547Y-78843238D01*
X104249785Y-78795619D01*
X104630738Y-78795619D01*
X104630738Y-79795619D01*
X104297404Y-79795619D01*
X104202166Y-79748000D01*
X104154547Y-79700380D01*
X104106928Y-79605142D01*
X104106928Y-79509904D01*
X104154547Y-79414666D01*
X104202166Y-79367047D01*
X104297404Y-79319428D01*
X104630738Y-79319428D01*
X103059309Y-78890857D02*
X103106928Y-78843238D01*
X103249785Y-78795619D01*
X103345023Y-78795619D01*
X103487880Y-78843238D01*
X103583119Y-78938476D01*
X103630738Y-79033714D01*
X103678357Y-79224190D01*
X103678357Y-79367047D01*
X103630738Y-79557523D01*
X103583119Y-79652761D01*
X103487880Y-79748000D01*
X103345023Y-79795619D01*
X103249785Y-79795619D01*
X103106928Y-79748000D01*
X103059309Y-79700380D01*
X102725976Y-79795619D02*
X102106928Y-79795619D01*
X102440261Y-79414666D01*
X102297404Y-79414666D01*
X102202166Y-79367047D01*
X102154547Y-79319428D01*
X102106928Y-79224190D01*
X102106928Y-78986095D01*
X102154547Y-78890857D01*
X102202166Y-78843238D01*
X102297404Y-78795619D01*
X102583119Y-78795619D01*
X102678357Y-78843238D01*
X102725976Y-78890857D01*
X100964071Y-78843238D02*
X100821214Y-78795619D01*
X100583119Y-78795619D01*
X100487880Y-78843238D01*
X100440261Y-78890857D01*
X100392642Y-78986095D01*
X100392642Y-79081333D01*
X100440261Y-79176571D01*
X100487880Y-79224190D01*
X100583119Y-79271809D01*
X100773595Y-79319428D01*
X100868833Y-79367047D01*
X100916452Y-79414666D01*
X100964071Y-79509904D01*
X100964071Y-79605142D01*
X100916452Y-79700380D01*
X100868833Y-79748000D01*
X100773595Y-79795619D01*
X100535500Y-79795619D01*
X100392642Y-79748000D01*
X99964071Y-79319428D02*
X99630738Y-79319428D01*
X99487880Y-78795619D02*
X99964071Y-78795619D01*
X99964071Y-79795619D01*
X99487880Y-79795619D01*
X98535500Y-79748000D02*
X98630738Y-79795619D01*
X98773595Y-79795619D01*
X98916452Y-79748000D01*
X99011690Y-79652761D01*
X99059309Y-79557523D01*
X99106928Y-79367047D01*
X99106928Y-79224190D01*
X99059309Y-79033714D01*
X99011690Y-78938476D01*
X98916452Y-78843238D01*
X98773595Y-78795619D01*
X98678357Y-78795619D01*
X98535500Y-78843238D01*
X98487880Y-78890857D01*
X98487880Y-79224190D01*
X98678357Y-79224190D01*
X98297404Y-78700380D02*
X97535500Y-78700380D01*
X97297404Y-78795619D02*
X97297404Y-79795619D01*
X97059309Y-79795619D01*
X96916452Y-79748000D01*
X96821214Y-79652761D01*
X96773595Y-79557523D01*
X96725976Y-79367047D01*
X96725976Y-79224190D01*
X96773595Y-79033714D01*
X96821214Y-78938476D01*
X96916452Y-78843238D01*
X97059309Y-78795619D01*
X97297404Y-78795619D01*
X104440261Y-91495619D02*
X104440261Y-92495619D01*
X103868833Y-91495619D02*
X104297404Y-92067047D01*
X103868833Y-92495619D02*
X104440261Y-91924190D01*
X103106928Y-92019428D02*
X102964071Y-91971809D01*
X102916452Y-91924190D01*
X102868833Y-91828952D01*
X102868833Y-91686095D01*
X102916452Y-91590857D01*
X102964071Y-91543238D01*
X103059309Y-91495619D01*
X103440261Y-91495619D01*
X103440261Y-92495619D01*
X103106928Y-92495619D01*
X103011690Y-92448000D01*
X102964071Y-92400380D01*
X102916452Y-92305142D01*
X102916452Y-92209904D01*
X102964071Y-92114666D01*
X103011690Y-92067047D01*
X103106928Y-92019428D01*
X103440261Y-92019428D01*
X101868833Y-91495619D02*
X102202166Y-91971809D01*
X102440261Y-91495619D02*
X102440261Y-92495619D01*
X102059309Y-92495619D01*
X101964071Y-92448000D01*
X101916452Y-92400380D01*
X101868833Y-92305142D01*
X101868833Y-92162285D01*
X101916452Y-92067047D01*
X101964071Y-92019428D01*
X102059309Y-91971809D01*
X102440261Y-91971809D01*
X100916452Y-91495619D02*
X101487880Y-91495619D01*
X101202166Y-91495619D02*
X101202166Y-92495619D01*
X101297404Y-92352761D01*
X101392642Y-92257523D01*
X101487880Y-92209904D01*
X99725976Y-91495619D02*
X99725976Y-92495619D01*
X99487880Y-92495619D01*
X99345023Y-92448000D01*
X99249785Y-92352761D01*
X99202166Y-92257523D01*
X99154547Y-92067047D01*
X99154547Y-91924190D01*
X99202166Y-91733714D01*
X99249785Y-91638476D01*
X99345023Y-91543238D01*
X99487880Y-91495619D01*
X99725976Y-91495619D01*
X98725976Y-91495619D02*
X98725976Y-92495619D01*
X97725976Y-92448000D02*
X97821214Y-92495619D01*
X97964071Y-92495619D01*
X98106928Y-92448000D01*
X98202166Y-92352761D01*
X98249785Y-92257523D01*
X98297404Y-92067047D01*
X98297404Y-91924190D01*
X98249785Y-91733714D01*
X98202166Y-91638476D01*
X98106928Y-91543238D01*
X97964071Y-91495619D01*
X97868833Y-91495619D01*
X97725976Y-91543238D01*
X97678357Y-91590857D01*
X97678357Y-91924190D01*
X97868833Y-91924190D01*
X97106928Y-92067047D02*
X97202166Y-92114666D01*
X97249785Y-92162285D01*
X97297404Y-92257523D01*
X97297404Y-92305142D01*
X97249785Y-92400380D01*
X97202166Y-92448000D01*
X97106928Y-92495619D01*
X96916452Y-92495619D01*
X96821214Y-92448000D01*
X96773595Y-92400380D01*
X96725976Y-92305142D01*
X96725976Y-92257523D01*
X96773595Y-92162285D01*
X96821214Y-92114666D01*
X96916452Y-92067047D01*
X97106928Y-92067047D01*
X97202166Y-92019428D01*
X97249785Y-91971809D01*
X97297404Y-91876571D01*
X97297404Y-91686095D01*
X97249785Y-91590857D01*
X97202166Y-91543238D01*
X97106928Y-91495619D01*
X96916452Y-91495619D01*
X96821214Y-91543238D01*
X96773595Y-91590857D01*
X96725976Y-91686095D01*
X96725976Y-91876571D01*
X96773595Y-91971809D01*
X96821214Y-92019428D01*
X96916452Y-92067047D01*
X104440261Y-109323238D02*
X104297404Y-109275619D01*
X104059309Y-109275619D01*
X103964071Y-109323238D01*
X103916452Y-109370857D01*
X103868833Y-109466095D01*
X103868833Y-109561333D01*
X103916452Y-109656571D01*
X103964071Y-109704190D01*
X104059309Y-109751809D01*
X104249785Y-109799428D01*
X104345023Y-109847047D01*
X104392642Y-109894666D01*
X104440261Y-109989904D01*
X104440261Y-110085142D01*
X104392642Y-110180380D01*
X104345023Y-110228000D01*
X104249785Y-110275619D01*
X104011690Y-110275619D01*
X103868833Y-110228000D01*
X103440261Y-109275619D02*
X103440261Y-110275619D01*
X103059309Y-110275619D01*
X102964071Y-110228000D01*
X102916452Y-110180380D01*
X102868833Y-110085142D01*
X102868833Y-109942285D01*
X102916452Y-109847047D01*
X102964071Y-109799428D01*
X103059309Y-109751809D01*
X103440261Y-109751809D01*
X102678357Y-109180380D02*
X101916452Y-109180380D01*
X101725976Y-110180380D02*
X101678357Y-110228000D01*
X101583119Y-110275619D01*
X101345023Y-110275619D01*
X101249785Y-110228000D01*
X101202166Y-110180380D01*
X101154547Y-110085142D01*
X101154547Y-109989904D01*
X101202166Y-109847047D01*
X101773595Y-109275619D01*
X101154547Y-109275619D01*
X100011690Y-109323238D02*
X99868833Y-109275619D01*
X99630738Y-109275619D01*
X99535500Y-109323238D01*
X99487880Y-109370857D01*
X99440261Y-109466095D01*
X99440261Y-109561333D01*
X99487880Y-109656571D01*
X99535500Y-109704190D01*
X99630738Y-109751809D01*
X99821214Y-109799428D01*
X99916452Y-109847047D01*
X99964071Y-109894666D01*
X100011690Y-109989904D01*
X100011690Y-110085142D01*
X99964071Y-110180380D01*
X99916452Y-110228000D01*
X99821214Y-110275619D01*
X99583119Y-110275619D01*
X99440261Y-110228000D01*
X99011690Y-109275619D02*
X99011690Y-110275619D01*
X98630738Y-110275619D01*
X98535500Y-110228000D01*
X98487880Y-110180380D01*
X98440261Y-110085142D01*
X98440261Y-109942285D01*
X98487880Y-109847047D01*
X98535500Y-109799428D01*
X98630738Y-109751809D01*
X99011690Y-109751809D01*
X98249785Y-109180380D02*
X97487880Y-109180380D01*
X96821214Y-110275619D02*
X97011690Y-110275619D01*
X97106928Y-110228000D01*
X97154547Y-110180380D01*
X97249785Y-110037523D01*
X97297404Y-109847047D01*
X97297404Y-109466095D01*
X97249785Y-109370857D01*
X97202166Y-109323238D01*
X97106928Y-109275619D01*
X96916452Y-109275619D01*
X96821214Y-109323238D01*
X96773595Y-109370857D01*
X96725976Y-109466095D01*
X96725976Y-109704190D01*
X96773595Y-109799428D01*
X96821214Y-109847047D01*
X96916452Y-109894666D01*
X97106928Y-109894666D01*
X97202166Y-109847047D01*
X97249785Y-109799428D01*
X97297404Y-109704190D01*
X105630738Y-73715619D02*
X105630738Y-74715619D01*
X105059309Y-73715619D02*
X105487880Y-74287047D01*
X105059309Y-74715619D02*
X105630738Y-74144190D01*
X104297404Y-74239428D02*
X104154547Y-74191809D01*
X104106928Y-74144190D01*
X104059309Y-74048952D01*
X104059309Y-73906095D01*
X104106928Y-73810857D01*
X104154547Y-73763238D01*
X104249785Y-73715619D01*
X104630738Y-73715619D01*
X104630738Y-74715619D01*
X104297404Y-74715619D01*
X104202166Y-74668000D01*
X104154547Y-74620380D01*
X104106928Y-74525142D01*
X104106928Y-74429904D01*
X104154547Y-74334666D01*
X104202166Y-74287047D01*
X104297404Y-74239428D01*
X104630738Y-74239428D01*
X103059309Y-73810857D02*
X103106928Y-73763238D01*
X103249785Y-73715619D01*
X103345023Y-73715619D01*
X103487880Y-73763238D01*
X103583119Y-73858476D01*
X103630738Y-73953714D01*
X103678357Y-74144190D01*
X103678357Y-74287047D01*
X103630738Y-74477523D01*
X103583119Y-74572761D01*
X103487880Y-74668000D01*
X103345023Y-74715619D01*
X103249785Y-74715619D01*
X103106928Y-74668000D01*
X103059309Y-74620380D01*
X102106928Y-73715619D02*
X102678357Y-73715619D01*
X102392642Y-73715619D02*
X102392642Y-74715619D01*
X102487880Y-74572761D01*
X102583119Y-74477523D01*
X102678357Y-74429904D01*
X100964071Y-73763238D02*
X100821214Y-73715619D01*
X100583119Y-73715619D01*
X100487880Y-73763238D01*
X100440261Y-73810857D01*
X100392642Y-73906095D01*
X100392642Y-74001333D01*
X100440261Y-74096571D01*
X100487880Y-74144190D01*
X100583119Y-74191809D01*
X100773595Y-74239428D01*
X100868833Y-74287047D01*
X100916452Y-74334666D01*
X100964071Y-74429904D01*
X100964071Y-74525142D01*
X100916452Y-74620380D01*
X100868833Y-74668000D01*
X100773595Y-74715619D01*
X100535500Y-74715619D01*
X100392642Y-74668000D01*
X99964071Y-74239428D02*
X99630738Y-74239428D01*
X99487880Y-73715619D02*
X99964071Y-73715619D01*
X99964071Y-74715619D01*
X99487880Y-74715619D01*
X98535500Y-74668000D02*
X98630738Y-74715619D01*
X98773595Y-74715619D01*
X98916452Y-74668000D01*
X99011690Y-74572761D01*
X99059309Y-74477523D01*
X99106928Y-74287047D01*
X99106928Y-74144190D01*
X99059309Y-73953714D01*
X99011690Y-73858476D01*
X98916452Y-73763238D01*
X98773595Y-73715619D01*
X98678357Y-73715619D01*
X98535500Y-73763238D01*
X98487880Y-73810857D01*
X98487880Y-74144190D01*
X98678357Y-74144190D01*
X98297404Y-73620380D02*
X97535500Y-73620380D01*
X96964071Y-74239428D02*
X96821214Y-74191809D01*
X96773595Y-74144190D01*
X96725976Y-74048952D01*
X96725976Y-73906095D01*
X96773595Y-73810857D01*
X96821214Y-73763238D01*
X96916452Y-73715619D01*
X97297404Y-73715619D01*
X97297404Y-74715619D01*
X96964071Y-74715619D01*
X96868833Y-74668000D01*
X96821214Y-74620380D01*
X96773595Y-74525142D01*
X96773595Y-74429904D01*
X96821214Y-74334666D01*
X96868833Y-74287047D01*
X96964071Y-74239428D01*
X97297404Y-74239428D01*
X105630738Y-86415619D02*
X105630738Y-87415619D01*
X105059309Y-86415619D02*
X105487880Y-86987047D01*
X105059309Y-87415619D02*
X105630738Y-86844190D01*
X104297404Y-86939428D02*
X104154547Y-86891809D01*
X104106928Y-86844190D01*
X104059309Y-86748952D01*
X104059309Y-86606095D01*
X104106928Y-86510857D01*
X104154547Y-86463238D01*
X104249785Y-86415619D01*
X104630738Y-86415619D01*
X104630738Y-87415619D01*
X104297404Y-87415619D01*
X104202166Y-87368000D01*
X104154547Y-87320380D01*
X104106928Y-87225142D01*
X104106928Y-87129904D01*
X104154547Y-87034666D01*
X104202166Y-86987047D01*
X104297404Y-86939428D01*
X104630738Y-86939428D01*
X103059309Y-86510857D02*
X103106928Y-86463238D01*
X103249785Y-86415619D01*
X103345023Y-86415619D01*
X103487880Y-86463238D01*
X103583119Y-86558476D01*
X103630738Y-86653714D01*
X103678357Y-86844190D01*
X103678357Y-86987047D01*
X103630738Y-87177523D01*
X103583119Y-87272761D01*
X103487880Y-87368000D01*
X103345023Y-87415619D01*
X103249785Y-87415619D01*
X103106928Y-87368000D01*
X103059309Y-87320380D01*
X102202166Y-87415619D02*
X102392642Y-87415619D01*
X102487880Y-87368000D01*
X102535500Y-87320380D01*
X102630738Y-87177523D01*
X102678357Y-86987047D01*
X102678357Y-86606095D01*
X102630738Y-86510857D01*
X102583119Y-86463238D01*
X102487880Y-86415619D01*
X102297404Y-86415619D01*
X102202166Y-86463238D01*
X102154547Y-86510857D01*
X102106928Y-86606095D01*
X102106928Y-86844190D01*
X102154547Y-86939428D01*
X102202166Y-86987047D01*
X102297404Y-87034666D01*
X102487880Y-87034666D01*
X102583119Y-86987047D01*
X102630738Y-86939428D01*
X102678357Y-86844190D01*
X100964071Y-86463238D02*
X100821214Y-86415619D01*
X100583119Y-86415619D01*
X100487880Y-86463238D01*
X100440261Y-86510857D01*
X100392642Y-86606095D01*
X100392642Y-86701333D01*
X100440261Y-86796571D01*
X100487880Y-86844190D01*
X100583119Y-86891809D01*
X100773595Y-86939428D01*
X100868833Y-86987047D01*
X100916452Y-87034666D01*
X100964071Y-87129904D01*
X100964071Y-87225142D01*
X100916452Y-87320380D01*
X100868833Y-87368000D01*
X100773595Y-87415619D01*
X100535500Y-87415619D01*
X100392642Y-87368000D01*
X99964071Y-86939428D02*
X99630738Y-86939428D01*
X99487880Y-86415619D02*
X99964071Y-86415619D01*
X99964071Y-87415619D01*
X99487880Y-87415619D01*
X98535500Y-87368000D02*
X98630738Y-87415619D01*
X98773595Y-87415619D01*
X98916452Y-87368000D01*
X99011690Y-87272761D01*
X99059309Y-87177523D01*
X99106928Y-86987047D01*
X99106928Y-86844190D01*
X99059309Y-86653714D01*
X99011690Y-86558476D01*
X98916452Y-86463238D01*
X98773595Y-86415619D01*
X98678357Y-86415619D01*
X98535500Y-86463238D01*
X98487880Y-86510857D01*
X98487880Y-86844190D01*
X98678357Y-86844190D01*
X98297404Y-86320380D02*
X97535500Y-86320380D01*
X96773595Y-87368000D02*
X96868833Y-87415619D01*
X97011690Y-87415619D01*
X97154547Y-87368000D01*
X97249785Y-87272761D01*
X97297404Y-87177523D01*
X97345023Y-86987047D01*
X97345023Y-86844190D01*
X97297404Y-86653714D01*
X97249785Y-86558476D01*
X97154547Y-86463238D01*
X97011690Y-86415619D01*
X96916452Y-86415619D01*
X96773595Y-86463238D01*
X96725976Y-86510857D01*
X96725976Y-86844190D01*
X96916452Y-86844190D01*
X104440261Y-88955619D02*
X104440261Y-89955619D01*
X103868833Y-88955619D02*
X104297404Y-89527047D01*
X103868833Y-89955619D02*
X104440261Y-89384190D01*
X103106928Y-89479428D02*
X102964071Y-89431809D01*
X102916452Y-89384190D01*
X102868833Y-89288952D01*
X102868833Y-89146095D01*
X102916452Y-89050857D01*
X102964071Y-89003238D01*
X103059309Y-88955619D01*
X103440261Y-88955619D01*
X103440261Y-89955619D01*
X103106928Y-89955619D01*
X103011690Y-89908000D01*
X102964071Y-89860380D01*
X102916452Y-89765142D01*
X102916452Y-89669904D01*
X102964071Y-89574666D01*
X103011690Y-89527047D01*
X103106928Y-89479428D01*
X103440261Y-89479428D01*
X101868833Y-88955619D02*
X102202166Y-89431809D01*
X102440261Y-88955619D02*
X102440261Y-89955619D01*
X102059309Y-89955619D01*
X101964071Y-89908000D01*
X101916452Y-89860380D01*
X101868833Y-89765142D01*
X101868833Y-89622285D01*
X101916452Y-89527047D01*
X101964071Y-89479428D01*
X102059309Y-89431809D01*
X102440261Y-89431809D01*
X101249785Y-89955619D02*
X101154547Y-89955619D01*
X101059309Y-89908000D01*
X101011690Y-89860380D01*
X100964071Y-89765142D01*
X100916452Y-89574666D01*
X100916452Y-89336571D01*
X100964071Y-89146095D01*
X101011690Y-89050857D01*
X101059309Y-89003238D01*
X101154547Y-88955619D01*
X101249785Y-88955619D01*
X101345023Y-89003238D01*
X101392642Y-89050857D01*
X101440261Y-89146095D01*
X101487880Y-89336571D01*
X101487880Y-89574666D01*
X101440261Y-89765142D01*
X101392642Y-89860380D01*
X101345023Y-89908000D01*
X101249785Y-89955619D01*
X99725976Y-88955619D02*
X99725976Y-89955619D01*
X99487880Y-89955619D01*
X99345023Y-89908000D01*
X99249785Y-89812761D01*
X99202166Y-89717523D01*
X99154547Y-89527047D01*
X99154547Y-89384190D01*
X99202166Y-89193714D01*
X99249785Y-89098476D01*
X99345023Y-89003238D01*
X99487880Y-88955619D01*
X99725976Y-88955619D01*
X98725976Y-88955619D02*
X98725976Y-89955619D01*
X97725976Y-89908000D02*
X97821214Y-89955619D01*
X97964071Y-89955619D01*
X98106928Y-89908000D01*
X98202166Y-89812761D01*
X98249785Y-89717523D01*
X98297404Y-89527047D01*
X98297404Y-89384190D01*
X98249785Y-89193714D01*
X98202166Y-89098476D01*
X98106928Y-89003238D01*
X97964071Y-88955619D01*
X97868833Y-88955619D01*
X97725976Y-89003238D01*
X97678357Y-89050857D01*
X97678357Y-89384190D01*
X97868833Y-89384190D01*
X97202166Y-88955619D02*
X97011690Y-88955619D01*
X96916452Y-89003238D01*
X96868833Y-89050857D01*
X96773595Y-89193714D01*
X96725976Y-89384190D01*
X96725976Y-89765142D01*
X96773595Y-89860380D01*
X96821214Y-89908000D01*
X96916452Y-89955619D01*
X97106928Y-89955619D01*
X97202166Y-89908000D01*
X97249785Y-89860380D01*
X97297404Y-89765142D01*
X97297404Y-89527047D01*
X97249785Y-89431809D01*
X97202166Y-89384190D01*
X97106928Y-89336571D01*
X96916452Y-89336571D01*
X96821214Y-89384190D01*
X96773595Y-89431809D01*
X96725976Y-89527047D01*
%TO.C,J102*%
X162036285Y-113168380D02*
X162036285Y-113882666D01*
X161988666Y-114025523D01*
X161893428Y-114120761D01*
X161750571Y-114168380D01*
X161655333Y-114168380D01*
X163036285Y-114168380D02*
X162464857Y-114168380D01*
X162750571Y-114168380D02*
X162750571Y-113168380D01*
X162655333Y-113311238D01*
X162560095Y-113406476D01*
X162464857Y-113454095D01*
X163655333Y-113168380D02*
X163750571Y-113168380D01*
X163845809Y-113216000D01*
X163893428Y-113263619D01*
X163941047Y-113358857D01*
X163988666Y-113549333D01*
X163988666Y-113787428D01*
X163941047Y-113977904D01*
X163893428Y-114073142D01*
X163845809Y-114120761D01*
X163750571Y-114168380D01*
X163655333Y-114168380D01*
X163560095Y-114120761D01*
X163512476Y-114073142D01*
X163464857Y-113977904D01*
X163417238Y-113787428D01*
X163417238Y-113549333D01*
X163464857Y-113358857D01*
X163512476Y-113263619D01*
X163560095Y-113216000D01*
X163655333Y-113168380D01*
X164369619Y-113263619D02*
X164417238Y-113216000D01*
X164512476Y-113168380D01*
X164750571Y-113168380D01*
X164845809Y-113216000D01*
X164893428Y-113263619D01*
X164941047Y-113358857D01*
X164941047Y-113454095D01*
X164893428Y-113596952D01*
X164322000Y-114168380D01*
X164941047Y-114168380D01*
D11*
%TO.C,U101*%
X118872000Y-117094000D02*
G75*
G03*
X118872000Y-117094000I-2540000J0D01*
G01*
X118872000Y-119634000D02*
G75*
G03*
X118872000Y-119634000I0J0D01*
G01*
%TO.C,J101*%
X93218000Y-118618000D02*
X93218000Y-121218000D01*
X90618000Y-121218000D02*
X90618000Y-70298000D01*
X95818000Y-118618000D02*
X95818000Y-70298000D01*
X95818000Y-70298000D02*
X90618000Y-70298000D01*
X95818000Y-119888000D02*
X95818000Y-121218000D01*
X93218000Y-121218000D02*
X90618000Y-121218000D01*
X95818000Y-118618000D02*
X93218000Y-118618000D01*
X95818000Y-121218000D02*
X94488000Y-121218000D01*
%TO.C,J102*%
X166878000Y-75124000D02*
X168208000Y-75124000D01*
X168208000Y-75124000D02*
X168208000Y-76454000D01*
X165548000Y-115884000D02*
X168208000Y-115884000D01*
X168208000Y-77724000D02*
X168208000Y-115884000D01*
X165548000Y-77724000D02*
X168208000Y-77724000D01*
X165548000Y-77724000D02*
X165548000Y-115884000D01*
%TO.C,J103*%
X166619000Y-120710000D02*
X165289000Y-120710000D01*
X170489000Y-120710000D02*
X170489000Y-118050000D01*
X167889000Y-120710000D02*
X170489000Y-120710000D01*
X167889000Y-120710000D02*
X167889000Y-118050000D01*
X165289000Y-120710000D02*
X165289000Y-119380000D01*
X167889000Y-118050000D02*
X170489000Y-118050000D01*
%TD*%
M02*
