%TF.GenerationSoftware,KiCad,Pcbnew,6.0.2+dfsg-1*%
%TF.CreationDate,2022-05-29T19:40:52-04:00*%
%TF.ProjectId,kim-ep2c5,6b696d2d-6570-4326-9335-2e6b69636164,rev?*%
%TF.SameCoordinates,Original*%
%TF.FileFunction,Legend,Bot*%
%TF.FilePolarity,Positive*%
%FSLAX46Y46*%
G04 Gerber Fmt 4.6, Leading zero omitted, Abs format (unit mm)*
G04 Created by KiCad (PCBNEW 6.0.2+dfsg-1) date 2022-05-29 19:40:52*
%MOMM*%
%LPD*%
G01*
G04 APERTURE LIST*
%ADD10C,0.150000*%
G04 APERTURE END LIST*
D10*
%TO.C,J101*%
X105030261Y-110132761D02*
X104887404Y-110180380D01*
X104649309Y-110180380D01*
X104554071Y-110132761D01*
X104506452Y-110085142D01*
X104458833Y-109989904D01*
X104458833Y-109894666D01*
X104506452Y-109799428D01*
X104554071Y-109751809D01*
X104649309Y-109704190D01*
X104839785Y-109656571D01*
X104935023Y-109608952D01*
X104982642Y-109561333D01*
X105030261Y-109466095D01*
X105030261Y-109370857D01*
X104982642Y-109275619D01*
X104935023Y-109228000D01*
X104839785Y-109180380D01*
X104601690Y-109180380D01*
X104458833Y-109228000D01*
X104030261Y-110180380D02*
X104030261Y-109180380D01*
X103649309Y-109180380D01*
X103554071Y-109228000D01*
X103506452Y-109275619D01*
X103458833Y-109370857D01*
X103458833Y-109513714D01*
X103506452Y-109608952D01*
X103554071Y-109656571D01*
X103649309Y-109704190D01*
X104030261Y-109704190D01*
X103268357Y-110275619D02*
X102506452Y-110275619D01*
X102315976Y-109275619D02*
X102268357Y-109228000D01*
X102173119Y-109180380D01*
X101935023Y-109180380D01*
X101839785Y-109228000D01*
X101792166Y-109275619D01*
X101744547Y-109370857D01*
X101744547Y-109466095D01*
X101792166Y-109608952D01*
X102363595Y-110180380D01*
X101744547Y-110180380D01*
X100601690Y-110132761D02*
X100458833Y-110180380D01*
X100220738Y-110180380D01*
X100125500Y-110132761D01*
X100077880Y-110085142D01*
X100030261Y-109989904D01*
X100030261Y-109894666D01*
X100077880Y-109799428D01*
X100125500Y-109751809D01*
X100220738Y-109704190D01*
X100411214Y-109656571D01*
X100506452Y-109608952D01*
X100554071Y-109561333D01*
X100601690Y-109466095D01*
X100601690Y-109370857D01*
X100554071Y-109275619D01*
X100506452Y-109228000D01*
X100411214Y-109180380D01*
X100173119Y-109180380D01*
X100030261Y-109228000D01*
X99601690Y-110180380D02*
X99601690Y-109180380D01*
X99220738Y-109180380D01*
X99125500Y-109228000D01*
X99077880Y-109275619D01*
X99030261Y-109370857D01*
X99030261Y-109513714D01*
X99077880Y-109608952D01*
X99125500Y-109656571D01*
X99220738Y-109704190D01*
X99601690Y-109704190D01*
X98839785Y-110275619D02*
X98077880Y-110275619D01*
X97411214Y-109180380D02*
X97601690Y-109180380D01*
X97696928Y-109228000D01*
X97744547Y-109275619D01*
X97839785Y-109418476D01*
X97887404Y-109608952D01*
X97887404Y-109989904D01*
X97839785Y-110085142D01*
X97792166Y-110132761D01*
X97696928Y-110180380D01*
X97506452Y-110180380D01*
X97411214Y-110132761D01*
X97363595Y-110085142D01*
X97315976Y-109989904D01*
X97315976Y-109751809D01*
X97363595Y-109656571D01*
X97411214Y-109608952D01*
X97506452Y-109561333D01*
X97696928Y-109561333D01*
X97792166Y-109608952D01*
X97839785Y-109656571D01*
X97887404Y-109751809D01*
X103696928Y-119340380D02*
X103363595Y-120340380D01*
X103030261Y-119340380D01*
X102125500Y-120245142D02*
X102173119Y-120292761D01*
X102315976Y-120340380D01*
X102411214Y-120340380D01*
X102554071Y-120292761D01*
X102649309Y-120197523D01*
X102696928Y-120102285D01*
X102744547Y-119911809D01*
X102744547Y-119768952D01*
X102696928Y-119578476D01*
X102649309Y-119483238D01*
X102554071Y-119388000D01*
X102411214Y-119340380D01*
X102315976Y-119340380D01*
X102173119Y-119388000D01*
X102125500Y-119435619D01*
X101125500Y-120245142D02*
X101173119Y-120292761D01*
X101315976Y-120340380D01*
X101411214Y-120340380D01*
X101554071Y-120292761D01*
X101649309Y-120197523D01*
X101696928Y-120102285D01*
X101744547Y-119911809D01*
X101744547Y-119768952D01*
X101696928Y-119578476D01*
X101649309Y-119483238D01*
X101554071Y-119388000D01*
X101411214Y-119340380D01*
X101315976Y-119340380D01*
X101173119Y-119388000D01*
X101125500Y-119435619D01*
X99411214Y-119388000D02*
X99506452Y-119340380D01*
X99649309Y-119340380D01*
X99792166Y-119388000D01*
X99887404Y-119483238D01*
X99935023Y-119578476D01*
X99982642Y-119768952D01*
X99982642Y-119911809D01*
X99935023Y-120102285D01*
X99887404Y-120197523D01*
X99792166Y-120292761D01*
X99649309Y-120340380D01*
X99554071Y-120340380D01*
X99411214Y-120292761D01*
X99363595Y-120245142D01*
X99363595Y-119911809D01*
X99554071Y-119911809D01*
X98935023Y-120340380D02*
X98935023Y-119340380D01*
X98363595Y-120340380D01*
X98363595Y-119340380D01*
X97887404Y-120340380D02*
X97887404Y-119340380D01*
X97649309Y-119340380D01*
X97506452Y-119388000D01*
X97411214Y-119483238D01*
X97363595Y-119578476D01*
X97315976Y-119768952D01*
X97315976Y-119911809D01*
X97363595Y-120102285D01*
X97411214Y-120197523D01*
X97506452Y-120292761D01*
X97649309Y-120340380D01*
X97887404Y-120340380D01*
X106554071Y-100020380D02*
X106554071Y-99020380D01*
X105982642Y-100020380D02*
X106411214Y-99448952D01*
X105982642Y-99020380D02*
X106554071Y-99591809D01*
X105554071Y-99496571D02*
X105220738Y-99496571D01*
X105077880Y-100020380D02*
X105554071Y-100020380D01*
X105554071Y-99020380D01*
X105077880Y-99020380D01*
X104458833Y-99544190D02*
X104458833Y-100020380D01*
X104792166Y-99020380D02*
X104458833Y-99544190D01*
X104125500Y-99020380D01*
X104030261Y-100115619D02*
X103268357Y-100115619D01*
X102458833Y-100020380D02*
X102792166Y-99544190D01*
X103030261Y-100020380D02*
X103030261Y-99020380D01*
X102649309Y-99020380D01*
X102554071Y-99068000D01*
X102506452Y-99115619D01*
X102458833Y-99210857D01*
X102458833Y-99353714D01*
X102506452Y-99448952D01*
X102554071Y-99496571D01*
X102649309Y-99544190D01*
X103030261Y-99544190D01*
X102077880Y-99972761D02*
X101935023Y-100020380D01*
X101696928Y-100020380D01*
X101601690Y-99972761D01*
X101554071Y-99925142D01*
X101506452Y-99829904D01*
X101506452Y-99734666D01*
X101554071Y-99639428D01*
X101601690Y-99591809D01*
X101696928Y-99544190D01*
X101887404Y-99496571D01*
X101982642Y-99448952D01*
X102030261Y-99401333D01*
X102077880Y-99306095D01*
X102077880Y-99210857D01*
X102030261Y-99115619D01*
X101982642Y-99068000D01*
X101887404Y-99020380D01*
X101649309Y-99020380D01*
X101506452Y-99068000D01*
X100315976Y-100020380D02*
X100315976Y-99020380D01*
X100077880Y-99020380D01*
X99935023Y-99068000D01*
X99839785Y-99163238D01*
X99792166Y-99258476D01*
X99744547Y-99448952D01*
X99744547Y-99591809D01*
X99792166Y-99782285D01*
X99839785Y-99877523D01*
X99935023Y-99972761D01*
X100077880Y-100020380D01*
X100315976Y-100020380D01*
X99315976Y-100020380D02*
X99315976Y-99020380D01*
X98315976Y-99068000D02*
X98411214Y-99020380D01*
X98554071Y-99020380D01*
X98696928Y-99068000D01*
X98792166Y-99163238D01*
X98839785Y-99258476D01*
X98887404Y-99448952D01*
X98887404Y-99591809D01*
X98839785Y-99782285D01*
X98792166Y-99877523D01*
X98696928Y-99972761D01*
X98554071Y-100020380D01*
X98458833Y-100020380D01*
X98315976Y-99972761D01*
X98268357Y-99925142D01*
X98268357Y-99591809D01*
X98458833Y-99591809D01*
X97363595Y-99020380D02*
X97839785Y-99020380D01*
X97887404Y-99496571D01*
X97839785Y-99448952D01*
X97744547Y-99401333D01*
X97506452Y-99401333D01*
X97411214Y-99448952D01*
X97363595Y-99496571D01*
X97315976Y-99591809D01*
X97315976Y-99829904D01*
X97363595Y-99925142D01*
X97411214Y-99972761D01*
X97506452Y-100020380D01*
X97744547Y-100020380D01*
X97839785Y-99972761D01*
X97887404Y-99925142D01*
X103696928Y-116800380D02*
X103363595Y-117800380D01*
X103030261Y-116800380D01*
X102125500Y-117705142D02*
X102173119Y-117752761D01*
X102315976Y-117800380D01*
X102411214Y-117800380D01*
X102554071Y-117752761D01*
X102649309Y-117657523D01*
X102696928Y-117562285D01*
X102744547Y-117371809D01*
X102744547Y-117228952D01*
X102696928Y-117038476D01*
X102649309Y-116943238D01*
X102554071Y-116848000D01*
X102411214Y-116800380D01*
X102315976Y-116800380D01*
X102173119Y-116848000D01*
X102125500Y-116895619D01*
X101125500Y-117705142D02*
X101173119Y-117752761D01*
X101315976Y-117800380D01*
X101411214Y-117800380D01*
X101554071Y-117752761D01*
X101649309Y-117657523D01*
X101696928Y-117562285D01*
X101744547Y-117371809D01*
X101744547Y-117228952D01*
X101696928Y-117038476D01*
X101649309Y-116943238D01*
X101554071Y-116848000D01*
X101411214Y-116800380D01*
X101315976Y-116800380D01*
X101173119Y-116848000D01*
X101125500Y-116895619D01*
X99411214Y-116848000D02*
X99506452Y-116800380D01*
X99649309Y-116800380D01*
X99792166Y-116848000D01*
X99887404Y-116943238D01*
X99935023Y-117038476D01*
X99982642Y-117228952D01*
X99982642Y-117371809D01*
X99935023Y-117562285D01*
X99887404Y-117657523D01*
X99792166Y-117752761D01*
X99649309Y-117800380D01*
X99554071Y-117800380D01*
X99411214Y-117752761D01*
X99363595Y-117705142D01*
X99363595Y-117371809D01*
X99554071Y-117371809D01*
X98935023Y-117800380D02*
X98935023Y-116800380D01*
X98363595Y-117800380D01*
X98363595Y-116800380D01*
X97887404Y-117800380D02*
X97887404Y-116800380D01*
X97649309Y-116800380D01*
X97506452Y-116848000D01*
X97411214Y-116943238D01*
X97363595Y-117038476D01*
X97315976Y-117228952D01*
X97315976Y-117371809D01*
X97363595Y-117562285D01*
X97411214Y-117657523D01*
X97506452Y-117752761D01*
X97649309Y-117800380D01*
X97887404Y-117800380D01*
X106173119Y-96956571D02*
X105839785Y-96956571D01*
X105696928Y-97480380D02*
X106173119Y-97480380D01*
X106173119Y-96480380D01*
X105696928Y-96480380D01*
X105268357Y-97480380D02*
X105268357Y-96480380D01*
X104696928Y-97480380D01*
X104696928Y-96480380D01*
X104458833Y-97575619D02*
X103696928Y-97575619D01*
X103601690Y-96480380D02*
X103030261Y-96480380D01*
X103315976Y-97480380D02*
X103315976Y-96480380D01*
X102839785Y-96480380D02*
X102268357Y-96480380D01*
X102554071Y-97480380D02*
X102554071Y-96480380D01*
X101744547Y-97004190D02*
X101744547Y-97480380D01*
X102077880Y-96480380D02*
X101744547Y-97004190D01*
X101411214Y-96480380D01*
X100315976Y-97480380D02*
X100315976Y-96480380D01*
X100077880Y-96480380D01*
X99935023Y-96528000D01*
X99839785Y-96623238D01*
X99792166Y-96718476D01*
X99744547Y-96908952D01*
X99744547Y-97051809D01*
X99792166Y-97242285D01*
X99839785Y-97337523D01*
X99935023Y-97432761D01*
X100077880Y-97480380D01*
X100315976Y-97480380D01*
X99315976Y-97480380D02*
X99315976Y-96480380D01*
X98315976Y-96528000D02*
X98411214Y-96480380D01*
X98554071Y-96480380D01*
X98696928Y-96528000D01*
X98792166Y-96623238D01*
X98839785Y-96718476D01*
X98887404Y-96908952D01*
X98887404Y-97051809D01*
X98839785Y-97242285D01*
X98792166Y-97337523D01*
X98696928Y-97432761D01*
X98554071Y-97480380D01*
X98458833Y-97480380D01*
X98315976Y-97432761D01*
X98268357Y-97385142D01*
X98268357Y-97051809D01*
X98458833Y-97051809D01*
X97411214Y-96480380D02*
X97601690Y-96480380D01*
X97696928Y-96528000D01*
X97744547Y-96575619D01*
X97839785Y-96718476D01*
X97887404Y-96908952D01*
X97887404Y-97289904D01*
X97839785Y-97385142D01*
X97792166Y-97432761D01*
X97696928Y-97480380D01*
X97506452Y-97480380D01*
X97411214Y-97432761D01*
X97363595Y-97385142D01*
X97315976Y-97289904D01*
X97315976Y-97051809D01*
X97363595Y-96956571D01*
X97411214Y-96908952D01*
X97506452Y-96861333D01*
X97696928Y-96861333D01*
X97792166Y-96908952D01*
X97839785Y-96956571D01*
X97887404Y-97051809D01*
X106220738Y-87320380D02*
X106220738Y-86320380D01*
X105649309Y-87320380D02*
X106077880Y-86748952D01*
X105649309Y-86320380D02*
X106220738Y-86891809D01*
X104887404Y-86796571D02*
X104744547Y-86844190D01*
X104696928Y-86891809D01*
X104649309Y-86987047D01*
X104649309Y-87129904D01*
X104696928Y-87225142D01*
X104744547Y-87272761D01*
X104839785Y-87320380D01*
X105220738Y-87320380D01*
X105220738Y-86320380D01*
X104887404Y-86320380D01*
X104792166Y-86368000D01*
X104744547Y-86415619D01*
X104696928Y-86510857D01*
X104696928Y-86606095D01*
X104744547Y-86701333D01*
X104792166Y-86748952D01*
X104887404Y-86796571D01*
X105220738Y-86796571D01*
X103649309Y-87225142D02*
X103696928Y-87272761D01*
X103839785Y-87320380D01*
X103935023Y-87320380D01*
X104077880Y-87272761D01*
X104173119Y-87177523D01*
X104220738Y-87082285D01*
X104268357Y-86891809D01*
X104268357Y-86748952D01*
X104220738Y-86558476D01*
X104173119Y-86463238D01*
X104077880Y-86368000D01*
X103935023Y-86320380D01*
X103839785Y-86320380D01*
X103696928Y-86368000D01*
X103649309Y-86415619D01*
X102792166Y-86320380D02*
X102982642Y-86320380D01*
X103077880Y-86368000D01*
X103125500Y-86415619D01*
X103220738Y-86558476D01*
X103268357Y-86748952D01*
X103268357Y-87129904D01*
X103220738Y-87225142D01*
X103173119Y-87272761D01*
X103077880Y-87320380D01*
X102887404Y-87320380D01*
X102792166Y-87272761D01*
X102744547Y-87225142D01*
X102696928Y-87129904D01*
X102696928Y-86891809D01*
X102744547Y-86796571D01*
X102792166Y-86748952D01*
X102887404Y-86701333D01*
X103077880Y-86701333D01*
X103173119Y-86748952D01*
X103220738Y-86796571D01*
X103268357Y-86891809D01*
X101554071Y-87272761D02*
X101411214Y-87320380D01*
X101173119Y-87320380D01*
X101077880Y-87272761D01*
X101030261Y-87225142D01*
X100982642Y-87129904D01*
X100982642Y-87034666D01*
X101030261Y-86939428D01*
X101077880Y-86891809D01*
X101173119Y-86844190D01*
X101363595Y-86796571D01*
X101458833Y-86748952D01*
X101506452Y-86701333D01*
X101554071Y-86606095D01*
X101554071Y-86510857D01*
X101506452Y-86415619D01*
X101458833Y-86368000D01*
X101363595Y-86320380D01*
X101125500Y-86320380D01*
X100982642Y-86368000D01*
X100554071Y-86796571D02*
X100220738Y-86796571D01*
X100077880Y-87320380D02*
X100554071Y-87320380D01*
X100554071Y-86320380D01*
X100077880Y-86320380D01*
X99125500Y-86368000D02*
X99220738Y-86320380D01*
X99363595Y-86320380D01*
X99506452Y-86368000D01*
X99601690Y-86463238D01*
X99649309Y-86558476D01*
X99696928Y-86748952D01*
X99696928Y-86891809D01*
X99649309Y-87082285D01*
X99601690Y-87177523D01*
X99506452Y-87272761D01*
X99363595Y-87320380D01*
X99268357Y-87320380D01*
X99125500Y-87272761D01*
X99077880Y-87225142D01*
X99077880Y-86891809D01*
X99268357Y-86891809D01*
X98887404Y-87415619D02*
X98125500Y-87415619D01*
X97363595Y-86368000D02*
X97458833Y-86320380D01*
X97601690Y-86320380D01*
X97744547Y-86368000D01*
X97839785Y-86463238D01*
X97887404Y-86558476D01*
X97935023Y-86748952D01*
X97935023Y-86891809D01*
X97887404Y-87082285D01*
X97839785Y-87177523D01*
X97744547Y-87272761D01*
X97601690Y-87320380D01*
X97506452Y-87320380D01*
X97363595Y-87272761D01*
X97315976Y-87225142D01*
X97315976Y-86891809D01*
X97506452Y-86891809D01*
X105030261Y-112672761D02*
X104887404Y-112720380D01*
X104649309Y-112720380D01*
X104554071Y-112672761D01*
X104506452Y-112625142D01*
X104458833Y-112529904D01*
X104458833Y-112434666D01*
X104506452Y-112339428D01*
X104554071Y-112291809D01*
X104649309Y-112244190D01*
X104839785Y-112196571D01*
X104935023Y-112148952D01*
X104982642Y-112101333D01*
X105030261Y-112006095D01*
X105030261Y-111910857D01*
X104982642Y-111815619D01*
X104935023Y-111768000D01*
X104839785Y-111720380D01*
X104601690Y-111720380D01*
X104458833Y-111768000D01*
X104030261Y-112720380D02*
X104030261Y-111720380D01*
X103649309Y-111720380D01*
X103554071Y-111768000D01*
X103506452Y-111815619D01*
X103458833Y-111910857D01*
X103458833Y-112053714D01*
X103506452Y-112148952D01*
X103554071Y-112196571D01*
X103649309Y-112244190D01*
X104030261Y-112244190D01*
X103268357Y-112815619D02*
X102506452Y-112815619D01*
X101744547Y-112720380D02*
X102315976Y-112720380D01*
X102030261Y-112720380D02*
X102030261Y-111720380D01*
X102125500Y-111863238D01*
X102220738Y-111958476D01*
X102315976Y-112006095D01*
X100601690Y-112672761D02*
X100458833Y-112720380D01*
X100220738Y-112720380D01*
X100125500Y-112672761D01*
X100077880Y-112625142D01*
X100030261Y-112529904D01*
X100030261Y-112434666D01*
X100077880Y-112339428D01*
X100125500Y-112291809D01*
X100220738Y-112244190D01*
X100411214Y-112196571D01*
X100506452Y-112148952D01*
X100554071Y-112101333D01*
X100601690Y-112006095D01*
X100601690Y-111910857D01*
X100554071Y-111815619D01*
X100506452Y-111768000D01*
X100411214Y-111720380D01*
X100173119Y-111720380D01*
X100030261Y-111768000D01*
X99601690Y-112720380D02*
X99601690Y-111720380D01*
X99220738Y-111720380D01*
X99125500Y-111768000D01*
X99077880Y-111815619D01*
X99030261Y-111910857D01*
X99030261Y-112053714D01*
X99077880Y-112148952D01*
X99125500Y-112196571D01*
X99220738Y-112244190D01*
X99601690Y-112244190D01*
X98839785Y-112815619D02*
X98077880Y-112815619D01*
X97363595Y-111720380D02*
X97839785Y-111720380D01*
X97887404Y-112196571D01*
X97839785Y-112148952D01*
X97744547Y-112101333D01*
X97506452Y-112101333D01*
X97411214Y-112148952D01*
X97363595Y-112196571D01*
X97315976Y-112291809D01*
X97315976Y-112529904D01*
X97363595Y-112625142D01*
X97411214Y-112672761D01*
X97506452Y-112720380D01*
X97744547Y-112720380D01*
X97839785Y-112672761D01*
X97887404Y-112625142D01*
X105030261Y-94940380D02*
X105030261Y-93940380D01*
X104458833Y-94940380D02*
X104887404Y-94368952D01*
X104458833Y-93940380D02*
X105030261Y-94511809D01*
X103696928Y-94416571D02*
X103554071Y-94464190D01*
X103506452Y-94511809D01*
X103458833Y-94607047D01*
X103458833Y-94749904D01*
X103506452Y-94845142D01*
X103554071Y-94892761D01*
X103649309Y-94940380D01*
X104030261Y-94940380D01*
X104030261Y-93940380D01*
X103696928Y-93940380D01*
X103601690Y-93988000D01*
X103554071Y-94035619D01*
X103506452Y-94130857D01*
X103506452Y-94226095D01*
X103554071Y-94321333D01*
X103601690Y-94368952D01*
X103696928Y-94416571D01*
X104030261Y-94416571D01*
X102458833Y-94940380D02*
X102792166Y-94464190D01*
X103030261Y-94940380D02*
X103030261Y-93940380D01*
X102649309Y-93940380D01*
X102554071Y-93988000D01*
X102506452Y-94035619D01*
X102458833Y-94130857D01*
X102458833Y-94273714D01*
X102506452Y-94368952D01*
X102554071Y-94416571D01*
X102649309Y-94464190D01*
X103030261Y-94464190D01*
X102077880Y-94035619D02*
X102030261Y-93988000D01*
X101935023Y-93940380D01*
X101696928Y-93940380D01*
X101601690Y-93988000D01*
X101554071Y-94035619D01*
X101506452Y-94130857D01*
X101506452Y-94226095D01*
X101554071Y-94368952D01*
X102125500Y-94940380D01*
X101506452Y-94940380D01*
X100315976Y-94940380D02*
X100315976Y-93940380D01*
X100077880Y-93940380D01*
X99935023Y-93988000D01*
X99839785Y-94083238D01*
X99792166Y-94178476D01*
X99744547Y-94368952D01*
X99744547Y-94511809D01*
X99792166Y-94702285D01*
X99839785Y-94797523D01*
X99935023Y-94892761D01*
X100077880Y-94940380D01*
X100315976Y-94940380D01*
X99315976Y-94940380D02*
X99315976Y-93940380D01*
X98315976Y-93988000D02*
X98411214Y-93940380D01*
X98554071Y-93940380D01*
X98696928Y-93988000D01*
X98792166Y-94083238D01*
X98839785Y-94178476D01*
X98887404Y-94368952D01*
X98887404Y-94511809D01*
X98839785Y-94702285D01*
X98792166Y-94797523D01*
X98696928Y-94892761D01*
X98554071Y-94940380D01*
X98458833Y-94940380D01*
X98315976Y-94892761D01*
X98268357Y-94845142D01*
X98268357Y-94511809D01*
X98458833Y-94511809D01*
X97935023Y-93940380D02*
X97268357Y-93940380D01*
X97696928Y-94940380D01*
X106125500Y-82240380D02*
X106125500Y-81240380D01*
X105554071Y-82240380D02*
X105982642Y-81668952D01*
X105554071Y-81240380D02*
X106125500Y-81811809D01*
X104792166Y-81716571D02*
X104649309Y-81764190D01*
X104601690Y-81811809D01*
X104554071Y-81907047D01*
X104554071Y-82049904D01*
X104601690Y-82145142D01*
X104649309Y-82192761D01*
X104744547Y-82240380D01*
X105125500Y-82240380D01*
X105125500Y-81240380D01*
X104792166Y-81240380D01*
X104696928Y-81288000D01*
X104649309Y-81335619D01*
X104601690Y-81430857D01*
X104601690Y-81526095D01*
X104649309Y-81621333D01*
X104696928Y-81668952D01*
X104792166Y-81716571D01*
X105125500Y-81716571D01*
X103554071Y-82145142D02*
X103601690Y-82192761D01*
X103744547Y-82240380D01*
X103839785Y-82240380D01*
X103982642Y-82192761D01*
X104077880Y-82097523D01*
X104125500Y-82002285D01*
X104173119Y-81811809D01*
X104173119Y-81668952D01*
X104125500Y-81478476D01*
X104077880Y-81383238D01*
X103982642Y-81288000D01*
X103839785Y-81240380D01*
X103744547Y-81240380D01*
X103601690Y-81288000D01*
X103554071Y-81335619D01*
X102696928Y-81573714D02*
X102696928Y-82240380D01*
X102935023Y-81192761D02*
X103173119Y-81907047D01*
X102554071Y-81907047D01*
X101458833Y-82192761D02*
X101315976Y-82240380D01*
X101077880Y-82240380D01*
X100982642Y-82192761D01*
X100935023Y-82145142D01*
X100887404Y-82049904D01*
X100887404Y-81954666D01*
X100935023Y-81859428D01*
X100982642Y-81811809D01*
X101077880Y-81764190D01*
X101268357Y-81716571D01*
X101363595Y-81668952D01*
X101411214Y-81621333D01*
X101458833Y-81526095D01*
X101458833Y-81430857D01*
X101411214Y-81335619D01*
X101363595Y-81288000D01*
X101268357Y-81240380D01*
X101030261Y-81240380D01*
X100887404Y-81288000D01*
X100458833Y-81716571D02*
X100125500Y-81716571D01*
X99982642Y-82240380D02*
X100458833Y-82240380D01*
X100458833Y-81240380D01*
X99982642Y-81240380D01*
X99030261Y-81288000D02*
X99125500Y-81240380D01*
X99268357Y-81240380D01*
X99411214Y-81288000D01*
X99506452Y-81383238D01*
X99554071Y-81478476D01*
X99601690Y-81668952D01*
X99601690Y-81811809D01*
X99554071Y-82002285D01*
X99506452Y-82097523D01*
X99411214Y-82192761D01*
X99268357Y-82240380D01*
X99173119Y-82240380D01*
X99030261Y-82192761D01*
X98982642Y-82145142D01*
X98982642Y-81811809D01*
X99173119Y-81811809D01*
X98792166Y-82335619D02*
X98030261Y-82335619D01*
X97792166Y-81716571D02*
X97458833Y-81716571D01*
X97315976Y-82240380D02*
X97792166Y-82240380D01*
X97792166Y-81240380D01*
X97315976Y-81240380D01*
X106220738Y-74620380D02*
X106220738Y-73620380D01*
X105649309Y-74620380D02*
X106077880Y-74048952D01*
X105649309Y-73620380D02*
X106220738Y-74191809D01*
X104887404Y-74096571D02*
X104744547Y-74144190D01*
X104696928Y-74191809D01*
X104649309Y-74287047D01*
X104649309Y-74429904D01*
X104696928Y-74525142D01*
X104744547Y-74572761D01*
X104839785Y-74620380D01*
X105220738Y-74620380D01*
X105220738Y-73620380D01*
X104887404Y-73620380D01*
X104792166Y-73668000D01*
X104744547Y-73715619D01*
X104696928Y-73810857D01*
X104696928Y-73906095D01*
X104744547Y-74001333D01*
X104792166Y-74048952D01*
X104887404Y-74096571D01*
X105220738Y-74096571D01*
X103649309Y-74525142D02*
X103696928Y-74572761D01*
X103839785Y-74620380D01*
X103935023Y-74620380D01*
X104077880Y-74572761D01*
X104173119Y-74477523D01*
X104220738Y-74382285D01*
X104268357Y-74191809D01*
X104268357Y-74048952D01*
X104220738Y-73858476D01*
X104173119Y-73763238D01*
X104077880Y-73668000D01*
X103935023Y-73620380D01*
X103839785Y-73620380D01*
X103696928Y-73668000D01*
X103649309Y-73715619D01*
X102696928Y-74620380D02*
X103268357Y-74620380D01*
X102982642Y-74620380D02*
X102982642Y-73620380D01*
X103077880Y-73763238D01*
X103173119Y-73858476D01*
X103268357Y-73906095D01*
X101554071Y-74572761D02*
X101411214Y-74620380D01*
X101173119Y-74620380D01*
X101077880Y-74572761D01*
X101030261Y-74525142D01*
X100982642Y-74429904D01*
X100982642Y-74334666D01*
X101030261Y-74239428D01*
X101077880Y-74191809D01*
X101173119Y-74144190D01*
X101363595Y-74096571D01*
X101458833Y-74048952D01*
X101506452Y-74001333D01*
X101554071Y-73906095D01*
X101554071Y-73810857D01*
X101506452Y-73715619D01*
X101458833Y-73668000D01*
X101363595Y-73620380D01*
X101125500Y-73620380D01*
X100982642Y-73668000D01*
X100554071Y-74096571D02*
X100220738Y-74096571D01*
X100077880Y-74620380D02*
X100554071Y-74620380D01*
X100554071Y-73620380D01*
X100077880Y-73620380D01*
X99125500Y-73668000D02*
X99220738Y-73620380D01*
X99363595Y-73620380D01*
X99506452Y-73668000D01*
X99601690Y-73763238D01*
X99649309Y-73858476D01*
X99696928Y-74048952D01*
X99696928Y-74191809D01*
X99649309Y-74382285D01*
X99601690Y-74477523D01*
X99506452Y-74572761D01*
X99363595Y-74620380D01*
X99268357Y-74620380D01*
X99125500Y-74572761D01*
X99077880Y-74525142D01*
X99077880Y-74191809D01*
X99268357Y-74191809D01*
X98887404Y-74715619D02*
X98125500Y-74715619D01*
X97554071Y-74096571D02*
X97411214Y-74144190D01*
X97363595Y-74191809D01*
X97315976Y-74287047D01*
X97315976Y-74429904D01*
X97363595Y-74525142D01*
X97411214Y-74572761D01*
X97506452Y-74620380D01*
X97887404Y-74620380D01*
X97887404Y-73620380D01*
X97554071Y-73620380D01*
X97458833Y-73668000D01*
X97411214Y-73715619D01*
X97363595Y-73810857D01*
X97363595Y-73906095D01*
X97411214Y-74001333D01*
X97458833Y-74048952D01*
X97554071Y-74096571D01*
X97887404Y-74096571D01*
X106077880Y-72080380D02*
X106077880Y-71080380D01*
X105506452Y-72080380D02*
X105935023Y-71508952D01*
X105506452Y-71080380D02*
X106077880Y-71651809D01*
X104744547Y-71556571D02*
X104601690Y-71604190D01*
X104554071Y-71651809D01*
X104506452Y-71747047D01*
X104506452Y-71889904D01*
X104554071Y-71985142D01*
X104601690Y-72032761D01*
X104696928Y-72080380D01*
X105077880Y-72080380D01*
X105077880Y-71080380D01*
X104744547Y-71080380D01*
X104649309Y-71128000D01*
X104601690Y-71175619D01*
X104554071Y-71270857D01*
X104554071Y-71366095D01*
X104601690Y-71461333D01*
X104649309Y-71508952D01*
X104744547Y-71556571D01*
X105077880Y-71556571D01*
X103506452Y-71985142D02*
X103554071Y-72032761D01*
X103696928Y-72080380D01*
X103792166Y-72080380D01*
X103935023Y-72032761D01*
X104030261Y-71937523D01*
X104077880Y-71842285D01*
X104125500Y-71651809D01*
X104125500Y-71508952D01*
X104077880Y-71318476D01*
X104030261Y-71223238D01*
X103935023Y-71128000D01*
X103792166Y-71080380D01*
X103696928Y-71080380D01*
X103554071Y-71128000D01*
X103506452Y-71175619D01*
X102887404Y-71080380D02*
X102792166Y-71080380D01*
X102696928Y-71128000D01*
X102649309Y-71175619D01*
X102601690Y-71270857D01*
X102554071Y-71461333D01*
X102554071Y-71699428D01*
X102601690Y-71889904D01*
X102649309Y-71985142D01*
X102696928Y-72032761D01*
X102792166Y-72080380D01*
X102887404Y-72080380D01*
X102982642Y-72032761D01*
X103030261Y-71985142D01*
X103077880Y-71889904D01*
X103125500Y-71699428D01*
X103125500Y-71461333D01*
X103077880Y-71270857D01*
X103030261Y-71175619D01*
X102982642Y-71128000D01*
X102887404Y-71080380D01*
X101411214Y-72032761D02*
X101268357Y-72080380D01*
X101030261Y-72080380D01*
X100935023Y-72032761D01*
X100887404Y-71985142D01*
X100839785Y-71889904D01*
X100839785Y-71794666D01*
X100887404Y-71699428D01*
X100935023Y-71651809D01*
X101030261Y-71604190D01*
X101220738Y-71556571D01*
X101315976Y-71508952D01*
X101363595Y-71461333D01*
X101411214Y-71366095D01*
X101411214Y-71270857D01*
X101363595Y-71175619D01*
X101315976Y-71128000D01*
X101220738Y-71080380D01*
X100982642Y-71080380D01*
X100839785Y-71128000D01*
X100411214Y-71556571D02*
X100077880Y-71556571D01*
X99935023Y-72080380D02*
X100411214Y-72080380D01*
X100411214Y-71080380D01*
X99935023Y-71080380D01*
X98982642Y-71128000D02*
X99077880Y-71080380D01*
X99220738Y-71080380D01*
X99363595Y-71128000D01*
X99458833Y-71223238D01*
X99506452Y-71318476D01*
X99554071Y-71508952D01*
X99554071Y-71651809D01*
X99506452Y-71842285D01*
X99458833Y-71937523D01*
X99363595Y-72032761D01*
X99220738Y-72080380D01*
X99125500Y-72080380D01*
X98982642Y-72032761D01*
X98935023Y-71985142D01*
X98935023Y-71651809D01*
X99125500Y-71651809D01*
X98744547Y-72175619D02*
X97982642Y-72175619D01*
X97792166Y-71794666D02*
X97315976Y-71794666D01*
X97887404Y-72080380D02*
X97554071Y-71080380D01*
X97220738Y-72080380D01*
X106315976Y-102560380D02*
X106315976Y-101560380D01*
X105744547Y-102560380D02*
X106173119Y-101988952D01*
X105744547Y-101560380D02*
X106315976Y-102131809D01*
X105315976Y-102036571D02*
X104982642Y-102036571D01*
X104839785Y-102560380D02*
X105315976Y-102560380D01*
X105315976Y-101560380D01*
X104839785Y-101560380D01*
X104220738Y-102084190D02*
X104220738Y-102560380D01*
X104554071Y-101560380D02*
X104220738Y-102084190D01*
X103887404Y-101560380D01*
X103792166Y-102655619D02*
X103030261Y-102655619D01*
X102839785Y-102512761D02*
X102696928Y-102560380D01*
X102458833Y-102560380D01*
X102363595Y-102512761D01*
X102315976Y-102465142D01*
X102268357Y-102369904D01*
X102268357Y-102274666D01*
X102315976Y-102179428D01*
X102363595Y-102131809D01*
X102458833Y-102084190D01*
X102649309Y-102036571D01*
X102744547Y-101988952D01*
X102792166Y-101941333D01*
X102839785Y-101846095D01*
X102839785Y-101750857D01*
X102792166Y-101655619D01*
X102744547Y-101608000D01*
X102649309Y-101560380D01*
X102411214Y-101560380D01*
X102268357Y-101608000D01*
X101982642Y-101560380D02*
X101411214Y-101560380D01*
X101696928Y-102560380D02*
X101696928Y-101560380D01*
X100315976Y-102560380D02*
X100315976Y-101560380D01*
X100077880Y-101560380D01*
X99935023Y-101608000D01*
X99839785Y-101703238D01*
X99792166Y-101798476D01*
X99744547Y-101988952D01*
X99744547Y-102131809D01*
X99792166Y-102322285D01*
X99839785Y-102417523D01*
X99935023Y-102512761D01*
X100077880Y-102560380D01*
X100315976Y-102560380D01*
X99315976Y-102560380D02*
X99315976Y-101560380D01*
X98315976Y-101608000D02*
X98411214Y-101560380D01*
X98554071Y-101560380D01*
X98696928Y-101608000D01*
X98792166Y-101703238D01*
X98839785Y-101798476D01*
X98887404Y-101988952D01*
X98887404Y-102131809D01*
X98839785Y-102322285D01*
X98792166Y-102417523D01*
X98696928Y-102512761D01*
X98554071Y-102560380D01*
X98458833Y-102560380D01*
X98315976Y-102512761D01*
X98268357Y-102465142D01*
X98268357Y-102131809D01*
X98458833Y-102131809D01*
X97411214Y-101893714D02*
X97411214Y-102560380D01*
X97649309Y-101512761D02*
X97887404Y-102227047D01*
X97268357Y-102227047D01*
X106220738Y-77160380D02*
X106220738Y-76160380D01*
X105649309Y-77160380D02*
X106077880Y-76588952D01*
X105649309Y-76160380D02*
X106220738Y-76731809D01*
X104887404Y-76636571D02*
X104744547Y-76684190D01*
X104696928Y-76731809D01*
X104649309Y-76827047D01*
X104649309Y-76969904D01*
X104696928Y-77065142D01*
X104744547Y-77112761D01*
X104839785Y-77160380D01*
X105220738Y-77160380D01*
X105220738Y-76160380D01*
X104887404Y-76160380D01*
X104792166Y-76208000D01*
X104744547Y-76255619D01*
X104696928Y-76350857D01*
X104696928Y-76446095D01*
X104744547Y-76541333D01*
X104792166Y-76588952D01*
X104887404Y-76636571D01*
X105220738Y-76636571D01*
X103649309Y-77065142D02*
X103696928Y-77112761D01*
X103839785Y-77160380D01*
X103935023Y-77160380D01*
X104077880Y-77112761D01*
X104173119Y-77017523D01*
X104220738Y-76922285D01*
X104268357Y-76731809D01*
X104268357Y-76588952D01*
X104220738Y-76398476D01*
X104173119Y-76303238D01*
X104077880Y-76208000D01*
X103935023Y-76160380D01*
X103839785Y-76160380D01*
X103696928Y-76208000D01*
X103649309Y-76255619D01*
X103268357Y-76255619D02*
X103220738Y-76208000D01*
X103125500Y-76160380D01*
X102887404Y-76160380D01*
X102792166Y-76208000D01*
X102744547Y-76255619D01*
X102696928Y-76350857D01*
X102696928Y-76446095D01*
X102744547Y-76588952D01*
X103315976Y-77160380D01*
X102696928Y-77160380D01*
X101554071Y-77112761D02*
X101411214Y-77160380D01*
X101173119Y-77160380D01*
X101077880Y-77112761D01*
X101030261Y-77065142D01*
X100982642Y-76969904D01*
X100982642Y-76874666D01*
X101030261Y-76779428D01*
X101077880Y-76731809D01*
X101173119Y-76684190D01*
X101363595Y-76636571D01*
X101458833Y-76588952D01*
X101506452Y-76541333D01*
X101554071Y-76446095D01*
X101554071Y-76350857D01*
X101506452Y-76255619D01*
X101458833Y-76208000D01*
X101363595Y-76160380D01*
X101125500Y-76160380D01*
X100982642Y-76208000D01*
X100554071Y-76636571D02*
X100220738Y-76636571D01*
X100077880Y-77160380D02*
X100554071Y-77160380D01*
X100554071Y-76160380D01*
X100077880Y-76160380D01*
X99125500Y-76208000D02*
X99220738Y-76160380D01*
X99363595Y-76160380D01*
X99506452Y-76208000D01*
X99601690Y-76303238D01*
X99649309Y-76398476D01*
X99696928Y-76588952D01*
X99696928Y-76731809D01*
X99649309Y-76922285D01*
X99601690Y-77017523D01*
X99506452Y-77112761D01*
X99363595Y-77160380D01*
X99268357Y-77160380D01*
X99125500Y-77112761D01*
X99077880Y-77065142D01*
X99077880Y-76731809D01*
X99268357Y-76731809D01*
X98887404Y-77255619D02*
X98125500Y-77255619D01*
X97315976Y-77065142D02*
X97363595Y-77112761D01*
X97506452Y-77160380D01*
X97601690Y-77160380D01*
X97744547Y-77112761D01*
X97839785Y-77017523D01*
X97887404Y-76922285D01*
X97935023Y-76731809D01*
X97935023Y-76588952D01*
X97887404Y-76398476D01*
X97839785Y-76303238D01*
X97744547Y-76208000D01*
X97601690Y-76160380D01*
X97506452Y-76160380D01*
X97363595Y-76208000D01*
X97315976Y-76255619D01*
X105030261Y-89860380D02*
X105030261Y-88860380D01*
X104458833Y-89860380D02*
X104887404Y-89288952D01*
X104458833Y-88860380D02*
X105030261Y-89431809D01*
X103696928Y-89336571D02*
X103554071Y-89384190D01*
X103506452Y-89431809D01*
X103458833Y-89527047D01*
X103458833Y-89669904D01*
X103506452Y-89765142D01*
X103554071Y-89812761D01*
X103649309Y-89860380D01*
X104030261Y-89860380D01*
X104030261Y-88860380D01*
X103696928Y-88860380D01*
X103601690Y-88908000D01*
X103554071Y-88955619D01*
X103506452Y-89050857D01*
X103506452Y-89146095D01*
X103554071Y-89241333D01*
X103601690Y-89288952D01*
X103696928Y-89336571D01*
X104030261Y-89336571D01*
X102458833Y-89860380D02*
X102792166Y-89384190D01*
X103030261Y-89860380D02*
X103030261Y-88860380D01*
X102649309Y-88860380D01*
X102554071Y-88908000D01*
X102506452Y-88955619D01*
X102458833Y-89050857D01*
X102458833Y-89193714D01*
X102506452Y-89288952D01*
X102554071Y-89336571D01*
X102649309Y-89384190D01*
X103030261Y-89384190D01*
X101839785Y-88860380D02*
X101744547Y-88860380D01*
X101649309Y-88908000D01*
X101601690Y-88955619D01*
X101554071Y-89050857D01*
X101506452Y-89241333D01*
X101506452Y-89479428D01*
X101554071Y-89669904D01*
X101601690Y-89765142D01*
X101649309Y-89812761D01*
X101744547Y-89860380D01*
X101839785Y-89860380D01*
X101935023Y-89812761D01*
X101982642Y-89765142D01*
X102030261Y-89669904D01*
X102077880Y-89479428D01*
X102077880Y-89241333D01*
X102030261Y-89050857D01*
X101982642Y-88955619D01*
X101935023Y-88908000D01*
X101839785Y-88860380D01*
X100315976Y-89860380D02*
X100315976Y-88860380D01*
X100077880Y-88860380D01*
X99935023Y-88908000D01*
X99839785Y-89003238D01*
X99792166Y-89098476D01*
X99744547Y-89288952D01*
X99744547Y-89431809D01*
X99792166Y-89622285D01*
X99839785Y-89717523D01*
X99935023Y-89812761D01*
X100077880Y-89860380D01*
X100315976Y-89860380D01*
X99315976Y-89860380D02*
X99315976Y-88860380D01*
X98315976Y-88908000D02*
X98411214Y-88860380D01*
X98554071Y-88860380D01*
X98696928Y-88908000D01*
X98792166Y-89003238D01*
X98839785Y-89098476D01*
X98887404Y-89288952D01*
X98887404Y-89431809D01*
X98839785Y-89622285D01*
X98792166Y-89717523D01*
X98696928Y-89812761D01*
X98554071Y-89860380D01*
X98458833Y-89860380D01*
X98315976Y-89812761D01*
X98268357Y-89765142D01*
X98268357Y-89431809D01*
X98458833Y-89431809D01*
X97792166Y-89860380D02*
X97601690Y-89860380D01*
X97506452Y-89812761D01*
X97458833Y-89765142D01*
X97363595Y-89622285D01*
X97315976Y-89431809D01*
X97315976Y-89050857D01*
X97363595Y-88955619D01*
X97411214Y-88908000D01*
X97506452Y-88860380D01*
X97696928Y-88860380D01*
X97792166Y-88908000D01*
X97839785Y-88955619D01*
X97887404Y-89050857D01*
X97887404Y-89288952D01*
X97839785Y-89384190D01*
X97792166Y-89431809D01*
X97696928Y-89479428D01*
X97506452Y-89479428D01*
X97411214Y-89431809D01*
X97363595Y-89384190D01*
X97315976Y-89288952D01*
X103696928Y-114260380D02*
X103363595Y-115260380D01*
X103030261Y-114260380D01*
X102125500Y-115165142D02*
X102173119Y-115212761D01*
X102315976Y-115260380D01*
X102411214Y-115260380D01*
X102554071Y-115212761D01*
X102649309Y-115117523D01*
X102696928Y-115022285D01*
X102744547Y-114831809D01*
X102744547Y-114688952D01*
X102696928Y-114498476D01*
X102649309Y-114403238D01*
X102554071Y-114308000D01*
X102411214Y-114260380D01*
X102315976Y-114260380D01*
X102173119Y-114308000D01*
X102125500Y-114355619D01*
X101125500Y-115165142D02*
X101173119Y-115212761D01*
X101315976Y-115260380D01*
X101411214Y-115260380D01*
X101554071Y-115212761D01*
X101649309Y-115117523D01*
X101696928Y-115022285D01*
X101744547Y-114831809D01*
X101744547Y-114688952D01*
X101696928Y-114498476D01*
X101649309Y-114403238D01*
X101554071Y-114308000D01*
X101411214Y-114260380D01*
X101315976Y-114260380D01*
X101173119Y-114308000D01*
X101125500Y-114355619D01*
X99411214Y-114308000D02*
X99506452Y-114260380D01*
X99649309Y-114260380D01*
X99792166Y-114308000D01*
X99887404Y-114403238D01*
X99935023Y-114498476D01*
X99982642Y-114688952D01*
X99982642Y-114831809D01*
X99935023Y-115022285D01*
X99887404Y-115117523D01*
X99792166Y-115212761D01*
X99649309Y-115260380D01*
X99554071Y-115260380D01*
X99411214Y-115212761D01*
X99363595Y-115165142D01*
X99363595Y-114831809D01*
X99554071Y-114831809D01*
X98935023Y-115260380D02*
X98935023Y-114260380D01*
X98363595Y-115260380D01*
X98363595Y-114260380D01*
X97887404Y-115260380D02*
X97887404Y-114260380D01*
X97649309Y-114260380D01*
X97506452Y-114308000D01*
X97411214Y-114403238D01*
X97363595Y-114498476D01*
X97315976Y-114688952D01*
X97315976Y-114831809D01*
X97363595Y-115022285D01*
X97411214Y-115117523D01*
X97506452Y-115212761D01*
X97649309Y-115260380D01*
X97887404Y-115260380D01*
X105030261Y-92400380D02*
X105030261Y-91400380D01*
X104458833Y-92400380D02*
X104887404Y-91828952D01*
X104458833Y-91400380D02*
X105030261Y-91971809D01*
X103696928Y-91876571D02*
X103554071Y-91924190D01*
X103506452Y-91971809D01*
X103458833Y-92067047D01*
X103458833Y-92209904D01*
X103506452Y-92305142D01*
X103554071Y-92352761D01*
X103649309Y-92400380D01*
X104030261Y-92400380D01*
X104030261Y-91400380D01*
X103696928Y-91400380D01*
X103601690Y-91448000D01*
X103554071Y-91495619D01*
X103506452Y-91590857D01*
X103506452Y-91686095D01*
X103554071Y-91781333D01*
X103601690Y-91828952D01*
X103696928Y-91876571D01*
X104030261Y-91876571D01*
X102458833Y-92400380D02*
X102792166Y-91924190D01*
X103030261Y-92400380D02*
X103030261Y-91400380D01*
X102649309Y-91400380D01*
X102554071Y-91448000D01*
X102506452Y-91495619D01*
X102458833Y-91590857D01*
X102458833Y-91733714D01*
X102506452Y-91828952D01*
X102554071Y-91876571D01*
X102649309Y-91924190D01*
X103030261Y-91924190D01*
X101506452Y-92400380D02*
X102077880Y-92400380D01*
X101792166Y-92400380D02*
X101792166Y-91400380D01*
X101887404Y-91543238D01*
X101982642Y-91638476D01*
X102077880Y-91686095D01*
X100315976Y-92400380D02*
X100315976Y-91400380D01*
X100077880Y-91400380D01*
X99935023Y-91448000D01*
X99839785Y-91543238D01*
X99792166Y-91638476D01*
X99744547Y-91828952D01*
X99744547Y-91971809D01*
X99792166Y-92162285D01*
X99839785Y-92257523D01*
X99935023Y-92352761D01*
X100077880Y-92400380D01*
X100315976Y-92400380D01*
X99315976Y-92400380D02*
X99315976Y-91400380D01*
X98315976Y-91448000D02*
X98411214Y-91400380D01*
X98554071Y-91400380D01*
X98696928Y-91448000D01*
X98792166Y-91543238D01*
X98839785Y-91638476D01*
X98887404Y-91828952D01*
X98887404Y-91971809D01*
X98839785Y-92162285D01*
X98792166Y-92257523D01*
X98696928Y-92352761D01*
X98554071Y-92400380D01*
X98458833Y-92400380D01*
X98315976Y-92352761D01*
X98268357Y-92305142D01*
X98268357Y-91971809D01*
X98458833Y-91971809D01*
X97696928Y-91828952D02*
X97792166Y-91781333D01*
X97839785Y-91733714D01*
X97887404Y-91638476D01*
X97887404Y-91590857D01*
X97839785Y-91495619D01*
X97792166Y-91448000D01*
X97696928Y-91400380D01*
X97506452Y-91400380D01*
X97411214Y-91448000D01*
X97363595Y-91495619D01*
X97315976Y-91590857D01*
X97315976Y-91638476D01*
X97363595Y-91733714D01*
X97411214Y-91781333D01*
X97506452Y-91828952D01*
X97696928Y-91828952D01*
X97792166Y-91876571D01*
X97839785Y-91924190D01*
X97887404Y-92019428D01*
X97887404Y-92209904D01*
X97839785Y-92305142D01*
X97792166Y-92352761D01*
X97696928Y-92400380D01*
X97506452Y-92400380D01*
X97411214Y-92352761D01*
X97363595Y-92305142D01*
X97315976Y-92209904D01*
X97315976Y-92019428D01*
X97363595Y-91924190D01*
X97411214Y-91876571D01*
X97506452Y-91828952D01*
X105030261Y-107592761D02*
X104887404Y-107640380D01*
X104649309Y-107640380D01*
X104554071Y-107592761D01*
X104506452Y-107545142D01*
X104458833Y-107449904D01*
X104458833Y-107354666D01*
X104506452Y-107259428D01*
X104554071Y-107211809D01*
X104649309Y-107164190D01*
X104839785Y-107116571D01*
X104935023Y-107068952D01*
X104982642Y-107021333D01*
X105030261Y-106926095D01*
X105030261Y-106830857D01*
X104982642Y-106735619D01*
X104935023Y-106688000D01*
X104839785Y-106640380D01*
X104601690Y-106640380D01*
X104458833Y-106688000D01*
X104030261Y-107640380D02*
X104030261Y-106640380D01*
X103649309Y-106640380D01*
X103554071Y-106688000D01*
X103506452Y-106735619D01*
X103458833Y-106830857D01*
X103458833Y-106973714D01*
X103506452Y-107068952D01*
X103554071Y-107116571D01*
X103649309Y-107164190D01*
X104030261Y-107164190D01*
X103268357Y-107735619D02*
X102506452Y-107735619D01*
X102363595Y-106640380D02*
X101744547Y-106640380D01*
X102077880Y-107021333D01*
X101935023Y-107021333D01*
X101839785Y-107068952D01*
X101792166Y-107116571D01*
X101744547Y-107211809D01*
X101744547Y-107449904D01*
X101792166Y-107545142D01*
X101839785Y-107592761D01*
X101935023Y-107640380D01*
X102220738Y-107640380D01*
X102315976Y-107592761D01*
X102363595Y-107545142D01*
X100601690Y-107592761D02*
X100458833Y-107640380D01*
X100220738Y-107640380D01*
X100125500Y-107592761D01*
X100077880Y-107545142D01*
X100030261Y-107449904D01*
X100030261Y-107354666D01*
X100077880Y-107259428D01*
X100125500Y-107211809D01*
X100220738Y-107164190D01*
X100411214Y-107116571D01*
X100506452Y-107068952D01*
X100554071Y-107021333D01*
X100601690Y-106926095D01*
X100601690Y-106830857D01*
X100554071Y-106735619D01*
X100506452Y-106688000D01*
X100411214Y-106640380D01*
X100173119Y-106640380D01*
X100030261Y-106688000D01*
X99601690Y-107640380D02*
X99601690Y-106640380D01*
X99220738Y-106640380D01*
X99125500Y-106688000D01*
X99077880Y-106735619D01*
X99030261Y-106830857D01*
X99030261Y-106973714D01*
X99077880Y-107068952D01*
X99125500Y-107116571D01*
X99220738Y-107164190D01*
X99601690Y-107164190D01*
X98839785Y-107735619D02*
X98077880Y-107735619D01*
X97935023Y-106640380D02*
X97268357Y-106640380D01*
X97696928Y-107640380D01*
X104315976Y-105052761D02*
X104173119Y-105100380D01*
X103935023Y-105100380D01*
X103839785Y-105052761D01*
X103792166Y-105005142D01*
X103744547Y-104909904D01*
X103744547Y-104814666D01*
X103792166Y-104719428D01*
X103839785Y-104671809D01*
X103935023Y-104624190D01*
X104125500Y-104576571D01*
X104220738Y-104528952D01*
X104268357Y-104481333D01*
X104315976Y-104386095D01*
X104315976Y-104290857D01*
X104268357Y-104195619D01*
X104220738Y-104148000D01*
X104125500Y-104100380D01*
X103887404Y-104100380D01*
X103744547Y-104148000D01*
X103363595Y-105052761D02*
X103220738Y-105100380D01*
X102982642Y-105100380D01*
X102887404Y-105052761D01*
X102839785Y-105005142D01*
X102792166Y-104909904D01*
X102792166Y-104814666D01*
X102839785Y-104719428D01*
X102887404Y-104671809D01*
X102982642Y-104624190D01*
X103173119Y-104576571D01*
X103268357Y-104528952D01*
X103315976Y-104481333D01*
X103363595Y-104386095D01*
X103363595Y-104290857D01*
X103315976Y-104195619D01*
X103268357Y-104148000D01*
X103173119Y-104100380D01*
X102935023Y-104100380D01*
X102792166Y-104148000D01*
X102506452Y-104100380D02*
X101935023Y-104100380D01*
X102220738Y-105100380D02*
X102220738Y-104100380D01*
X100077880Y-104433714D02*
X99315976Y-104719428D01*
X100077880Y-105005142D01*
X98696928Y-104528952D02*
X98792166Y-104481333D01*
X98839785Y-104433714D01*
X98887404Y-104338476D01*
X98887404Y-104290857D01*
X98839785Y-104195619D01*
X98792166Y-104148000D01*
X98696928Y-104100380D01*
X98506452Y-104100380D01*
X98411214Y-104148000D01*
X98363595Y-104195619D01*
X98315976Y-104290857D01*
X98315976Y-104338476D01*
X98363595Y-104433714D01*
X98411214Y-104481333D01*
X98506452Y-104528952D01*
X98696928Y-104528952D01*
X98792166Y-104576571D01*
X98839785Y-104624190D01*
X98887404Y-104719428D01*
X98887404Y-104909904D01*
X98839785Y-105005142D01*
X98792166Y-105052761D01*
X98696928Y-105100380D01*
X98506452Y-105100380D01*
X98411214Y-105052761D01*
X98363595Y-105005142D01*
X98315976Y-104909904D01*
X98315976Y-104719428D01*
X98363595Y-104624190D01*
X98411214Y-104576571D01*
X98506452Y-104528952D01*
X97887404Y-105100380D02*
X97887404Y-104100380D01*
X97315976Y-105100380D02*
X97744547Y-104528952D01*
X97315976Y-104100380D02*
X97887404Y-104671809D01*
X106220738Y-79700380D02*
X106220738Y-78700380D01*
X105649309Y-79700380D02*
X106077880Y-79128952D01*
X105649309Y-78700380D02*
X106220738Y-79271809D01*
X104887404Y-79176571D02*
X104744547Y-79224190D01*
X104696928Y-79271809D01*
X104649309Y-79367047D01*
X104649309Y-79509904D01*
X104696928Y-79605142D01*
X104744547Y-79652761D01*
X104839785Y-79700380D01*
X105220738Y-79700380D01*
X105220738Y-78700380D01*
X104887404Y-78700380D01*
X104792166Y-78748000D01*
X104744547Y-78795619D01*
X104696928Y-78890857D01*
X104696928Y-78986095D01*
X104744547Y-79081333D01*
X104792166Y-79128952D01*
X104887404Y-79176571D01*
X105220738Y-79176571D01*
X103649309Y-79605142D02*
X103696928Y-79652761D01*
X103839785Y-79700380D01*
X103935023Y-79700380D01*
X104077880Y-79652761D01*
X104173119Y-79557523D01*
X104220738Y-79462285D01*
X104268357Y-79271809D01*
X104268357Y-79128952D01*
X104220738Y-78938476D01*
X104173119Y-78843238D01*
X104077880Y-78748000D01*
X103935023Y-78700380D01*
X103839785Y-78700380D01*
X103696928Y-78748000D01*
X103649309Y-78795619D01*
X103315976Y-78700380D02*
X102696928Y-78700380D01*
X103030261Y-79081333D01*
X102887404Y-79081333D01*
X102792166Y-79128952D01*
X102744547Y-79176571D01*
X102696928Y-79271809D01*
X102696928Y-79509904D01*
X102744547Y-79605142D01*
X102792166Y-79652761D01*
X102887404Y-79700380D01*
X103173119Y-79700380D01*
X103268357Y-79652761D01*
X103315976Y-79605142D01*
X101554071Y-79652761D02*
X101411214Y-79700380D01*
X101173119Y-79700380D01*
X101077880Y-79652761D01*
X101030261Y-79605142D01*
X100982642Y-79509904D01*
X100982642Y-79414666D01*
X101030261Y-79319428D01*
X101077880Y-79271809D01*
X101173119Y-79224190D01*
X101363595Y-79176571D01*
X101458833Y-79128952D01*
X101506452Y-79081333D01*
X101554071Y-78986095D01*
X101554071Y-78890857D01*
X101506452Y-78795619D01*
X101458833Y-78748000D01*
X101363595Y-78700380D01*
X101125500Y-78700380D01*
X100982642Y-78748000D01*
X100554071Y-79176571D02*
X100220738Y-79176571D01*
X100077880Y-79700380D02*
X100554071Y-79700380D01*
X100554071Y-78700380D01*
X100077880Y-78700380D01*
X99125500Y-78748000D02*
X99220738Y-78700380D01*
X99363595Y-78700380D01*
X99506452Y-78748000D01*
X99601690Y-78843238D01*
X99649309Y-78938476D01*
X99696928Y-79128952D01*
X99696928Y-79271809D01*
X99649309Y-79462285D01*
X99601690Y-79557523D01*
X99506452Y-79652761D01*
X99363595Y-79700380D01*
X99268357Y-79700380D01*
X99125500Y-79652761D01*
X99077880Y-79605142D01*
X99077880Y-79271809D01*
X99268357Y-79271809D01*
X98887404Y-79795619D02*
X98125500Y-79795619D01*
X97887404Y-79700380D02*
X97887404Y-78700380D01*
X97649309Y-78700380D01*
X97506452Y-78748000D01*
X97411214Y-78843238D01*
X97363595Y-78938476D01*
X97315976Y-79128952D01*
X97315976Y-79271809D01*
X97363595Y-79462285D01*
X97411214Y-79557523D01*
X97506452Y-79652761D01*
X97649309Y-79700380D01*
X97887404Y-79700380D01*
X106077880Y-84780380D02*
X106077880Y-83780380D01*
X105506452Y-84780380D02*
X105935023Y-84208952D01*
X105506452Y-83780380D02*
X106077880Y-84351809D01*
X104744547Y-84256571D02*
X104601690Y-84304190D01*
X104554071Y-84351809D01*
X104506452Y-84447047D01*
X104506452Y-84589904D01*
X104554071Y-84685142D01*
X104601690Y-84732761D01*
X104696928Y-84780380D01*
X105077880Y-84780380D01*
X105077880Y-83780380D01*
X104744547Y-83780380D01*
X104649309Y-83828000D01*
X104601690Y-83875619D01*
X104554071Y-83970857D01*
X104554071Y-84066095D01*
X104601690Y-84161333D01*
X104649309Y-84208952D01*
X104744547Y-84256571D01*
X105077880Y-84256571D01*
X103506452Y-84685142D02*
X103554071Y-84732761D01*
X103696928Y-84780380D01*
X103792166Y-84780380D01*
X103935023Y-84732761D01*
X104030261Y-84637523D01*
X104077880Y-84542285D01*
X104125500Y-84351809D01*
X104125500Y-84208952D01*
X104077880Y-84018476D01*
X104030261Y-83923238D01*
X103935023Y-83828000D01*
X103792166Y-83780380D01*
X103696928Y-83780380D01*
X103554071Y-83828000D01*
X103506452Y-83875619D01*
X102601690Y-83780380D02*
X103077880Y-83780380D01*
X103125500Y-84256571D01*
X103077880Y-84208952D01*
X102982642Y-84161333D01*
X102744547Y-84161333D01*
X102649309Y-84208952D01*
X102601690Y-84256571D01*
X102554071Y-84351809D01*
X102554071Y-84589904D01*
X102601690Y-84685142D01*
X102649309Y-84732761D01*
X102744547Y-84780380D01*
X102982642Y-84780380D01*
X103077880Y-84732761D01*
X103125500Y-84685142D01*
X101411214Y-84732761D02*
X101268357Y-84780380D01*
X101030261Y-84780380D01*
X100935023Y-84732761D01*
X100887404Y-84685142D01*
X100839785Y-84589904D01*
X100839785Y-84494666D01*
X100887404Y-84399428D01*
X100935023Y-84351809D01*
X101030261Y-84304190D01*
X101220738Y-84256571D01*
X101315976Y-84208952D01*
X101363595Y-84161333D01*
X101411214Y-84066095D01*
X101411214Y-83970857D01*
X101363595Y-83875619D01*
X101315976Y-83828000D01*
X101220738Y-83780380D01*
X100982642Y-83780380D01*
X100839785Y-83828000D01*
X100411214Y-84256571D02*
X100077880Y-84256571D01*
X99935023Y-84780380D02*
X100411214Y-84780380D01*
X100411214Y-83780380D01*
X99935023Y-83780380D01*
X98982642Y-83828000D02*
X99077880Y-83780380D01*
X99220738Y-83780380D01*
X99363595Y-83828000D01*
X99458833Y-83923238D01*
X99506452Y-84018476D01*
X99554071Y-84208952D01*
X99554071Y-84351809D01*
X99506452Y-84542285D01*
X99458833Y-84637523D01*
X99363595Y-84732761D01*
X99220738Y-84780380D01*
X99125500Y-84780380D01*
X98982642Y-84732761D01*
X98935023Y-84685142D01*
X98935023Y-84351809D01*
X99125500Y-84351809D01*
X98744547Y-84875619D02*
X97982642Y-84875619D01*
X97411214Y-84256571D02*
X97744547Y-84256571D01*
X97744547Y-84780380D02*
X97744547Y-83780380D01*
X97268357Y-83780380D01*
%TD*%
M02*
