%TF.GenerationSoftware,KiCad,Pcbnew,6.0.2+dfsg-1*%
%TF.CreationDate,2022-05-29T19:40:52-04:00*%
%TF.ProjectId,kim-ep2c5,6b696d2d-6570-4326-9335-2e6b69636164,rev?*%
%TF.SameCoordinates,Original*%
%TF.FileFunction,Soldermask,Top*%
%TF.FilePolarity,Negative*%
%FSLAX46Y46*%
G04 Gerber Fmt 4.6, Leading zero omitted, Abs format (unit mm)*
G04 Created by KiCad (PCBNEW 6.0.2+dfsg-1) date 2022-05-29 19:40:52*
%MOMM*%
%LPD*%
G01*
G04 APERTURE LIST*
%ADD10R,1.700000X1.700000*%
%ADD11C,1.700000*%
%ADD12O,1.700000X1.700000*%
G04 APERTURE END LIST*
D10*
%TO.C,U101*%
X121412000Y-119634000D03*
D11*
X121412000Y-117094000D03*
X123952000Y-119634000D03*
X123952000Y-117094000D03*
X126492000Y-119634000D03*
X126492000Y-117094000D03*
X129032000Y-119634000D03*
X129032000Y-117094000D03*
X131572000Y-119634000D03*
X131572000Y-117094000D03*
X134112000Y-119634000D03*
X134112000Y-117094000D03*
X136652000Y-119634000D03*
X136652000Y-117094000D03*
X139192000Y-119634000D03*
X139192000Y-117094000D03*
X141732000Y-119634000D03*
X141732000Y-117094000D03*
X144272000Y-119634000D03*
X144272000Y-117094000D03*
X146812000Y-119634000D03*
X146812000Y-117094000D03*
X149352000Y-119634000D03*
X149352000Y-117094000D03*
X151892000Y-119634000D03*
X151892000Y-117094000D03*
X154432000Y-119634000D03*
X154432000Y-117094000D03*
D10*
X162052000Y-112014000D03*
D11*
X159512000Y-112014000D03*
X162052000Y-109474000D03*
X159512000Y-109474000D03*
X162052000Y-106934000D03*
X159512000Y-106934000D03*
X162052000Y-104394000D03*
X159512000Y-104394000D03*
X162052000Y-101854000D03*
X159512000Y-101854000D03*
X162052000Y-99314000D03*
X159512000Y-99314000D03*
X162052000Y-96774000D03*
X159512000Y-96774000D03*
X162052000Y-94234000D03*
X159512000Y-94234000D03*
X162052000Y-91694000D03*
X159512000Y-91694000D03*
X162052000Y-89154000D03*
X159512000Y-89154000D03*
X162052000Y-86614000D03*
X159512000Y-86614000D03*
X162052000Y-84074000D03*
X159512000Y-84074000D03*
X162052000Y-81534000D03*
X159512000Y-81534000D03*
X162052000Y-78994000D03*
X159512000Y-78994000D03*
D10*
X154432000Y-71374000D03*
D11*
X154432000Y-73914000D03*
X151892000Y-71374000D03*
X151892000Y-73914000D03*
X149352000Y-71374000D03*
X149352000Y-73914000D03*
X146812000Y-71374000D03*
X146812000Y-73914000D03*
X144272000Y-71374000D03*
X144272000Y-73914000D03*
X141732000Y-71374000D03*
X141732000Y-73914000D03*
X139192000Y-71374000D03*
X139192000Y-73914000D03*
X136652000Y-71374000D03*
X136652000Y-73914000D03*
X134112000Y-71374000D03*
X134112000Y-73914000D03*
X131572000Y-71374000D03*
X131572000Y-73914000D03*
X129032000Y-71374000D03*
X129032000Y-73914000D03*
X126492000Y-71374000D03*
X126492000Y-73914000D03*
X123952000Y-71374000D03*
X123952000Y-73914000D03*
X121412000Y-71374000D03*
X121412000Y-73914000D03*
D10*
X113792000Y-78994000D03*
D11*
X116332000Y-78994000D03*
X113792000Y-81534000D03*
X116332000Y-81534000D03*
X113792000Y-84074000D03*
X116332000Y-84074000D03*
X113792000Y-86614000D03*
X116332000Y-86614000D03*
X113792000Y-89154000D03*
X116332000Y-89154000D03*
X113792000Y-91694000D03*
X116332000Y-91694000D03*
X113792000Y-94234000D03*
X116332000Y-94234000D03*
X113792000Y-96774000D03*
X116332000Y-96774000D03*
X113792000Y-99314000D03*
X116332000Y-99314000D03*
X113792000Y-101854000D03*
X116332000Y-101854000D03*
X113792000Y-104394000D03*
X116332000Y-104394000D03*
X113792000Y-106934000D03*
X116332000Y-106934000D03*
X113792000Y-109474000D03*
X116332000Y-109474000D03*
X113792000Y-112014000D03*
X116332000Y-112014000D03*
%TD*%
D10*
%TO.C,J101*%
X94488000Y-119888000D03*
D12*
X91948000Y-119888000D03*
X94488000Y-117348000D03*
X91948000Y-117348000D03*
X94488000Y-114808000D03*
X91948000Y-114808000D03*
X94488000Y-112268000D03*
X91948000Y-112268000D03*
X94488000Y-109728000D03*
X91948000Y-109728000D03*
X94488000Y-107188000D03*
X91948000Y-107188000D03*
X94488000Y-104648000D03*
X91948000Y-104648000D03*
X94488000Y-102108000D03*
X91948000Y-102108000D03*
X94488000Y-99568000D03*
X91948000Y-99568000D03*
X94488000Y-97028000D03*
X91948000Y-97028000D03*
X94488000Y-94488000D03*
X91948000Y-94488000D03*
X94488000Y-91948000D03*
X91948000Y-91948000D03*
X94488000Y-89408000D03*
X91948000Y-89408000D03*
X94488000Y-86868000D03*
X91948000Y-86868000D03*
X94488000Y-84328000D03*
X91948000Y-84328000D03*
X94488000Y-81788000D03*
X91948000Y-81788000D03*
X94488000Y-79248000D03*
X91948000Y-79248000D03*
X94488000Y-76708000D03*
X91948000Y-76708000D03*
X94488000Y-74168000D03*
X91948000Y-74168000D03*
X94488000Y-71628000D03*
X91948000Y-71628000D03*
%TD*%
D10*
%TO.C,J102*%
X166878000Y-76454000D03*
D12*
X166878000Y-78994000D03*
X166878000Y-81534000D03*
X166878000Y-84074000D03*
X166878000Y-86614000D03*
X166878000Y-89154000D03*
X166878000Y-91694000D03*
X166878000Y-94234000D03*
X166878000Y-96774000D03*
X166878000Y-99314000D03*
X166878000Y-101854000D03*
X166878000Y-104394000D03*
X166878000Y-106934000D03*
X166878000Y-109474000D03*
X166878000Y-112014000D03*
X166878000Y-114554000D03*
%TD*%
D10*
%TO.C,J103*%
X166619000Y-119380000D03*
D12*
X169159000Y-119380000D03*
%TD*%
M02*
